<svg xmlns="http://www.w3.org/2000/svg" xmlns:xlink="http://www.w3.org/1999/xlink" width="150" height="83.092" viewBox="0 0 150 83.092">
  <defs>
    <linearGradient id="linear-gradient" x1="99.14" y1="1" x2="99.14" gradientUnits="objectBoundingBox">
      <stop offset="0" stop-color="#4e5463"/>
      <stop offset="0.12" stop-color="#444957"/>
      <stop offset="0.312" stop-color="#3a3f4b"/>
      <stop offset="0.509" stop-color="#373c48"/>
      <stop offset="1" stop-color="#4e5463"/>
    </linearGradient>
    <linearGradient id="linear-gradient-2" x1="94.669" y1="1" x2="94.669" y2="0" xlink:href="#linear-gradient"/>
    <linearGradient id="linear-gradient-3" x1="774.649" y1="0.5" x2="775.649" y2="0.5" xlink:href="#linear-gradient"/>
    <linearGradient id="linear-gradient-4" x1="763.788" y1="0.5" x2="764.788" y2="0.5" xlink:href="#linear-gradient"/>
    <linearGradient id="linear-gradient-5" x1="54.637" y1="0.5" x2="55.637" y2="0.5" gradientUnits="objectBoundingBox">
      <stop offset="0" stop-color="#292c36"/>
      <stop offset="0.509" stop-color="#373c48"/>
      <stop offset="1" stop-color="#292c36"/>
    </linearGradient>
    <linearGradient id="linear-gradient-6" x1="49.807" y1="0.5" x2="50.807" y2="0.5" gradientUnits="objectBoundingBox">
      <stop offset="0" stop-color="#4e5463"/>
      <stop offset="0.026" stop-color="#454b59"/>
      <stop offset="0.091" stop-color="#353945"/>
      <stop offset="0.157" stop-color="#2c2f39"/>
      <stop offset="0.224" stop-color="#292c36"/>
      <stop offset="0.509" stop-color="#373c48"/>
      <stop offset="0.776" stop-color="#292c36"/>
      <stop offset="0.85" stop-color="#2b2e39"/>
      <stop offset="0.911" stop-color="#333743"/>
      <stop offset="0.965" stop-color="#414654"/>
      <stop offset="1" stop-color="#4e5463"/>
    </linearGradient>
    <linearGradient id="linear-gradient-7" x1="53.1" y1="0.5" x2="54.1" y2="0.5" xlink:href="#linear-gradient-5"/>
    <linearGradient id="linear-gradient-8" x1="48.41" y1="0.5" x2="49.41" y2="0.5" xlink:href="#linear-gradient-6"/>
    <linearGradient id="linear-gradient-9" x1="56.985" y1="0.5" x2="57.985" y2="0.5" xlink:href="#linear-gradient-5"/>
    <linearGradient id="linear-gradient-10" x1="51.95" y1="0.5" x2="52.95" y2="0.5" xlink:href="#linear-gradient-6"/>
    <linearGradient id="linear-gradient-11" x1="116.263" y1="0.5" x2="117.263" y2="0.5" gradientUnits="objectBoundingBox">
      <stop offset="0" stop-color="#292c36"/>
      <stop offset="1" stop-color="#373c48"/>
    </linearGradient>
    <linearGradient id="linear-gradient-12" x1="55.446" y1="0.5" x2="56.446" y2="0.5" xlink:href="#linear-gradient-5"/>
    <linearGradient id="linear-gradient-13" x1="50.549" y1="0.5" x2="51.549" y2="0.5" xlink:href="#linear-gradient-6"/>
    <linearGradient id="linear-gradient-14" x1="84.828" y1="0.83" x2="85.117" y2="-0.037" gradientUnits="objectBoundingBox">
      <stop offset="0" stop-color="#4e5463"/>
      <stop offset="0.342" stop-color="#454b59"/>
      <stop offset="0.748" stop-color="#373c48"/>
      <stop offset="0.878" stop-color="#383d4a"/>
      <stop offset="0.941" stop-color="#3f4451"/>
      <stop offset="0.989" stop-color="#4a505e"/>
      <stop offset="1" stop-color="#4e5463"/>
    </linearGradient>
    <linearGradient id="linear-gradient-15" x1="403.342" y1="0.5" x2="404.342" y2="0.5" gradientUnits="objectBoundingBox">
      <stop offset="0" stop-color="#4e5463"/>
      <stop offset="0.014" stop-color="#454b59"/>
      <stop offset="0.049" stop-color="#353945"/>
      <stop offset="0.085" stop-color="#2c2f39"/>
      <stop offset="0.121" stop-color="#292c36"/>
      <stop offset="0.131" stop-color="#292c36"/>
      <stop offset="0.327" stop-color="#333843"/>
      <stop offset="0.509" stop-color="#373c48"/>
      <stop offset="0.691" stop-color="#343844"/>
      <stop offset="0.849" stop-color="#2c2f39"/>
      <stop offset="0.888" stop-color="#292c36"/>
      <stop offset="0.925" stop-color="#2b2e39"/>
      <stop offset="0.955" stop-color="#333743"/>
      <stop offset="0.983" stop-color="#414654"/>
      <stop offset="1" stop-color="#4e5463"/>
    </linearGradient>
    <clipPath id="clip-path">
      <path id="Tracé_24022" data-name="Tracé 24022" d="M-675.945,1026.111l.035.01.039.01.027.005.036.005.024,0,.043,0,.047,0h.084l.04,0,.044-.006.039-.007.052-.012.037-.012.04-.013.157-.7,2.92-1.808-.506-.342-3.157,1.529-2.025,1.142-1.017,1.165.522.434Z" transform="translate(678.987 -1023.251)" fill="none"/>
    </clipPath>
    <linearGradient id="linear-gradient-16" x1="159.11" y1="0.5" x2="160.11" y2="0.5" gradientUnits="objectBoundingBox">
      <stop offset="0" stop-color="#9df9eb"/>
      <stop offset="1" stop-color="#86e0d3"/>
    </linearGradient>
    <linearGradient id="linear-gradient-17" x1="112.415" y1="0.5" x2="113.415" y2="0.5" gradientUnits="objectBoundingBox">
      <stop offset="0" stop-color="#4e5463"/>
      <stop offset="0.12" stop-color="#444957"/>
      <stop offset="0.312" stop-color="#3a3f4b"/>
      <stop offset="0.509" stop-color="#373c48"/>
      <stop offset="0.706" stop-color="#393f4b"/>
      <stop offset="0.877" stop-color="#424856"/>
      <stop offset="1" stop-color="#4e5463"/>
    </linearGradient>
    <linearGradient id="linear-gradient-18" x1="147.616" y1="0.023" x2="148.541" y2="1.012" xlink:href="#linear-gradient-16"/>
    <linearGradient id="linear-gradient-19" x1="415.214" y1="0.5" x2="416.214" y2="0.5" xlink:href="#linear-gradient-15"/>
    <clipPath id="clip-path-2">
      <path id="Tracé_24046" data-name="Tracé 24046" d="M-698.507,1012.126l.035.01.039.009.027.005.036.005.024,0,.043,0,.047,0h.035l.048,0,.04,0,.044-.005.039-.007.052-.012.037-.011.039-.013.157-.7,2.919-1.808-.506-.341-3.156,1.528-2.025,1.143-1.017,1.164.523.434Z" transform="translate(701.55 -1009.267)" fill="none"/>
    </clipPath>
    <linearGradient id="linear-gradient-20" x1="163.805" y1="0.5" x2="164.805" y2="0.5" xlink:href="#linear-gradient-16"/>
    <linearGradient id="linear-gradient-21" x1="112.414" y1="0.5" x2="113.415" y2="0.5" xlink:href="#linear-gradient-17"/>
    <linearGradient id="linear-gradient-22" x1="151.946" y1="0.024" x2="152.871" y2="1.012" xlink:href="#linear-gradient-16"/>
    <linearGradient id="linear-gradient-23" x1="385.114" y1="0.5" x2="386.114" y2="0.5" xlink:href="#linear-gradient-15"/>
    <clipPath id="clip-path-3">
      <path id="Tracé_24064" data-name="Tracé 24064" d="M-641.661,1005.927l.035.01.04.009.027,0,.036.006.024,0,.044,0,.047,0h.036l.049,0,.039,0,.044-.006.038-.007.053-.012.037-.011.039-.013.158-.7,2.919-1.808-.506-.341-3.157,1.528-2.025,1.142-1.018,1.165.522.434Z" transform="translate(644.704 -1003.068)" fill="none"/>
    </clipPath>
    <linearGradient id="linear-gradient-24" x1="151.887" y1="0.5" x2="152.887" y2="0.5" xlink:href="#linear-gradient-16"/>
    <linearGradient id="linear-gradient-25" x1="112.478" y1="0.5" x2="113.477" y2="0.5" xlink:href="#linear-gradient-17"/>
    <linearGradient id="linear-gradient-26" x1="141.046" y1="0.023" x2="141.97" y2="1.012" xlink:href="#linear-gradient-16"/>
    <clipPath id="clip-path-4">
      <path id="Tracé_24085" data-name="Tracé 24085" d="M-665.118,993.871l.072,0h.075l.132.007h.3l.106-.006.154-.156,3.518-5.885-7.737,1.493.111,3Z" transform="translate(668.499 -987.831)" fill="none"/>
    </clipPath>
    <linearGradient id="linear-gradient-27" x1="397.144" y1="0.5" x2="398.144" y2="0.5" xlink:href="#linear-gradient-15"/>
    <clipPath id="clip-path-5">
      <path id="Tracé_24084" data-name="Tracé 24084" d="M-664.147,992.4l.035.01.039.009.028.005.035.006.024,0,.043,0,.047,0h.035l.049,0,.039,0,.044-.006.039-.007.052-.012.037-.01.039-.014.157-.7,2.92-1.808-.506-.341-3.157,1.528-2.026,1.142-1.017,1.165.523.433Z" transform="translate(667.189 -989.541)" fill="none"/>
    </clipPath>
    <linearGradient id="linear-gradient-28" x1="156.63" y1="0.5" x2="157.63" y2="0.5" xlink:href="#linear-gradient-16"/>
    <linearGradient id="linear-gradient-29" x1="112.348" y1="0.5" x2="113.348" y2="0.5" xlink:href="#linear-gradient-17"/>
    <linearGradient id="linear-gradient-30" x1="145.36" y1="0.024" x2="146.285" y2="1.012" xlink:href="#linear-gradient-16"/>
    <clipPath id="clip-path-6">
      <path id="Tracé_24089" data-name="Tracé 24089" d="M-657.128,1017.56l1.023.982,0,.315-.1.061.435.57,1.255.444,1.14-1.113-.414-2.939-2.73-1.5-1.342,1.722Z" transform="translate(657.86 -1014.382)" fill="none"/>
    </clipPath>
    <linearGradient id="linear-gradient-31" x1="248.69" y1="0.756" x2="248.155" y2="0.244" xlink:href="#linear-gradient-16"/>
    <linearGradient id="linear-gradient-32" x1="0.375" y1="0.784" x2="0.601" y2="0.207" xlink:href="#linear-gradient-16"/>
    <linearGradient id="linear-gradient-33" x1="0" y1="0.5" x2="1" y2="0.5" xlink:href="#linear-gradient-16"/>
    <linearGradient id="linear-gradient-34" x1="871.635" y1="0.698" x2="872.203" y2="0.3" gradientUnits="objectBoundingBox">
      <stop offset="0" stop-color="#6f9cd1"/>
      <stop offset="0.35" stop-color="#4e5463"/>
      <stop offset="0.631" stop-color="#d2e4ff"/>
      <stop offset="1" stop-color="#98b9ea"/>
    </linearGradient>
    <clipPath id="clip-path-7">
      <path id="Tracé_24100" data-name="Tracé 24100" d="M-654.02,1025.228l-.786-.755.689-.3.607.526Z" transform="translate(654.807 -1024.177)" fill="none"/>
    </clipPath>
    <linearGradient id="linear-gradient-35" x1="70.07" y1="0.697" x2="69.866" y2="0.242" xlink:href="#linear-gradient"/>
  </defs>
  <g id="Students" transform="translate(869.584 -875.854)">
    <path id="Tracé_23877" data-name="Tracé 23877" d="M-860.385,958.9s-18.429-19.787-3.117-41.21c13.587-19.007,29.427-17.708,41.048-9.995,4.95,3.285,19.221.405,31.368-18.936,16.564-26.376,73.982-10.379,63.513,30.2-5.067,19.637,15.419,20.351,4.981,39.981Z" transform="translate(0)" fill="#55aaa0" opacity="0.2"/>
    <g id="Boy" transform="translate(-767.342 901.87)">
      <g id="Groupe_1739" data-name="Groupe 1739" transform="translate(0 14.506)">
        <path id="Tracé_23879" data-name="Tracé 23879" d="M-529.891,1003.528s-3.03,5.662-3.532,6.084-5.287,2.977-5.287,2.977l.4,1.077s6.069-1.69,7.149-2.447,4.04-7.517,4.04-7.517Z" transform="translate(541.485 -1003.528)" fill="#ffb27d"/>
        <path id="Tracé_23880" data-name="Tracé 23880" d="M-544.679,1032.078a2.6,2.6,0,0,1-.918.08c-.442-.057-1.471.288-1.364.472s.463,0,.473.237-1.126.883-.946,1.145.643.373,1.51.069a6.541,6.541,0,0,0,1.65-.927Z" transform="translate(547.454 -1023.016)" fill="#ffb27d"/>
      </g>
      <path id="Tracé_23881" data-name="Tracé 23881" d="M-491.978,1093.736l2.158,10.585h2.207s1.561-9.956.118-11.334S-491.978,1093.736-491.978,1093.736Z" transform="translate(509.586 -1049.77)" fill="#ffb27d"/>
      <path id="Tracé_23882" data-name="Tracé 23882" d="M-512.626,1093.594l.068,11.078,1.915-.163s3.679-9.054,2.558-10.7S-512.626,1093.594-512.626,1093.594Z" transform="translate(523.68 -1050.104)" fill="#ffb27d"/>
      <path id="Tracé_23883" data-name="Tracé 23883" d="M-517.923,1128.505a1.911,1.911,0,0,1-1.207.913,2.081,2.081,0,0,0-1.251.769.488.488,0,0,0,.392.777h4.22a.607.607,0,0,0,.6-.667c-.031-.313-.064-.677-.079-.956a1.8,1.8,0,0,0-.641-1.1Z" transform="translate(529.039 -1074.151)" fill="#d3671e"/>
      <path id="Tracé_23884" data-name="Tracé 23884" d="M-505.768,1065.827a2.2,2.2,0,0,1-1.069,1.878,8.936,8.936,0,0,1-5.227.377c-.356-.068-.7-.148-1.025-.234a15.682,15.682,0,0,1-2.821-1.03l1.419-14.08c1.609-.326,3.809.407,5.937,3.639C-506.629,1059.3-505.451,1063.409-505.768,1065.827Z" transform="translate(525.922 -1022.565)" fill="#55aaa0"/>
      <path id="Tracé_23885" data-name="Tracé 23885" d="M-499.768,1071.23a2.2,2.2,0,0,1-1.069,1.878,8.936,8.936,0,0,1-5.227.377c-.356-.068-.7-.148-1.025-.234-.324-6.185,1.954-11.877,2.629-12.668C-502.3,1063.864-499.87,1068.6-499.768,1071.23Z" transform="translate(519.922 -1027.968)" opacity="0.1" style="mix-blend-mode: normal;isolation: isolate"/>
      <path id="Tracé_23886" data-name="Tracé 23886" d="M-490.364,1128.505a1.913,1.913,0,0,1-1.207.913,2.081,2.081,0,0,0-1.251.769.488.488,0,0,0,.392.777h4.22a.607.607,0,0,0,.6-.667c-.031-.313-.064-.677-.078-.956a1.8,1.8,0,0,0-.642-1.1Z" transform="translate(510.227 -1074.151)" fill="#d3671e"/>
      <path id="Tracé_23887" data-name="Tracé 23887" d="M-501.353,963.069a3.366,3.366,0,0,0-.58-2.77c-.5-.771-1.2-.8-1.869-1.457a4.327,4.327,0,0,0-2.751-1.019c-3,0-5.6,1.839-5.011,4.957a5.731,5.731,0,0,0,.832,2.929c1,1.445,2.221,2.605,4.179,2.605a3.746,3.746,0,0,0,2.751-1c.436-.412,1.062-.463,1.446-.912C-501.58,965.5-501.638,964.3-501.353,963.069Z" transform="translate(523.013 -957.823)" fill="#35488b"/>
      <path id="Tracé_23888" data-name="Tracé 23888" d="M-502.849,1052.039l1.863,15.375a17.337,17.337,0,0,0,8.284-.431s-1.292-14.737-2.332-15.812S-502.849,1052.039-502.849,1052.039Z" transform="translate(517.006 -1021.322)" fill="#55aaa0"/>
      <path id="Tracé_23889" data-name="Tracé 23889" d="M-504.278,986.258l3.743,1.913.75-2.6a7.954,7.954,0,0,1-.693-2.371,9.874,9.874,0,0,1-.078-2.137l-3.049,1.562a5.759,5.759,0,0,1,.121.7,5.07,5.07,0,0,1-.053,1.632A2.257,2.257,0,0,1-504.278,986.258Z" transform="translate(517.982 -973.689)" fill="#ffb27d"/>
      <path id="Tracé_23890" data-name="Tracé 23890" d="M-500.936,1013.79a1.011,1.011,0,0,1-.774.981s-.106.017-.3.044c-1.308.184-6.619.817-10.782-.314-.936-.254-.052-2.445.026-3.413l.306-14.591a5.974,5.974,0,0,1,2.547-1.1c-.016.538.133,1.029,1.078,1.153a3.75,3.75,0,0,0,2.948-1.276,10.181,10.181,0,0,1,3.459.816l.247,2.921.156,1.859,1.074,12.744A1.016,1.016,0,0,1-500.936,1013.79Z" transform="translate(524.087 -983.385)" fill="#f99746"/>
      <path id="Tracé_23891" data-name="Tracé 23891" d="M-501.94,989.554a4.7,4.7,0,0,0,3.059-1.754l-3.006.122A5.07,5.07,0,0,1-501.94,989.554Z" transform="translate(516.386 -978.286)" fill="#e8945b"/>
      <path id="Tracé_23892" data-name="Tracé 23892" d="M-505.756,975.7s3.832.467,3.913-2.232-1.515-4.448-2.581-4.428c-2.126.04-2.476.9-2.723,1.793S-507.52,975.511-505.756,975.7Z" transform="translate(520.037 -965.48)" fill="#ffb27d"/>
      <path id="Tracé_23893" data-name="Tracé 23893" d="M-502.676,984.634s-.083.336-.923.275c0,0-.7-.052-.679-.423A2.269,2.269,0,0,1-502.676,984.634Z" transform="translate(517.982 -975.969)" fill="#fff"/>
      <path id="Tracé_23894" data-name="Tracé 23894" d="M-501.251,968.783s3.275,0,2.522,2.246c-.474,1.417,1.1,1.637,1.1,1.637l.759-2.271-.475-1.769Z" transform="translate(515.916 -965.197)" fill="#35488b"/>
      <path id="Tracé_23895" data-name="Tracé 23895" d="M-514.3,999.135l-1.612,3.183s1.241,1.146,2.307.79S-514.3,999.135-514.3,999.135Z" transform="translate(525.922 -986.023)" fill="#f99746"/>
      <path id="Tracé_23896" data-name="Tracé 23896" d="M-496.837,1008.7s-.939,6.354-8.643,6.26c-1.355-.016,7.737-8.385,8.336-8.212a.337.337,0,0,1,.15.092Z" transform="translate(518.897 -991.217)" fill="#ed7d2b"/>
      <g id="Groupe_1740" data-name="Groupe 1740" transform="translate(7.692 14.506)">
        <path id="Tracé_23897" data-name="Tracé 23897" d="M-507.257,1003.528s-3.03,5.662-3.532,6.084-5.287,2.977-5.287,2.977l.4,1.077s6.07-1.69,7.149-2.447,4.04-7.517,4.04-7.517Z" transform="translate(518.343 -1003.528)" fill="#ffb27d"/>
        <path id="Tracé_23898" data-name="Tracé 23898" d="M-520.952,1032.078a9.536,9.536,0,0,0-1.768.646c-.237.217-.744.81-.361,1.007s.736-.178,1.17-.2a2.044,2.044,0,0,0,1.362-.379C-520.246,1032.823-520.952,1032.078-520.952,1032.078Z" transform="translate(523.219 -1023.016)" fill="#ffb27d"/>
        <path id="Tracé_23899" data-name="Tracé 23899" d="M-518.732,1031.988a5.419,5.419,0,0,0-1.234,0c.03.094.083.148.493.224A.952.952,0,0,0-518.732,1031.988Z" transform="translate(520.999 -1022.927)" fill="#ffb27d"/>
      </g>
      <path id="Tracé_23900" data-name="Tracé 23900" d="M-492.681,995.27a31.227,31.227,0,0,0-1.187,4.444s1.654,2.147,4.6.578c0,0,1.614-2.837.045-4.206C-490.037,995.374-492.681,995.27-492.681,995.27Z" transform="translate(510.879 -983.385)" fill="#f99746"/>
    </g>
    <g id="Prof" transform="translate(-850.833 906.207)">
      <g id="Groupe_1742" data-name="Groupe 1742" transform="translate(13.61 12.037)">
        <path id="Tracé_23901" data-name="Tracé 23901" d="M-764.59,1009.409s5.477,3.51,6.13,3.635,6.146.02,6.146.02l.175,1.152s-6.2,1.5-7.53,1.369-7.955-4.22-7.955-4.22Z" transform="translate(767.624 -1009.409)" fill="#873700"/>
        <path id="Tracé_23902" data-name="Tracé 23902" d="M-719.388,1019.355a2.634,2.634,0,0,0,.852-.383c.363-.27,1.444-.473,1.44-.257s-.408.233-.3.443,1.433.224,1.4.545-.384.647-1.3.807a6.633,6.633,0,0,1-1.917,0Z" transform="translate(734.698 -1015.7)" fill="#873700"/>
      </g>
      <g id="Groupe_1749" data-name="Groupe 1749" transform="translate(0 14.911)">
        <path id="Rectangle_1745" data-name="Rectangle 1745" d="M7.941,0h0a7.941,7.941,0,0,1,7.941,7.941V19.435a0,0,0,0,1,0,0H0a0,0,0,0,1,0,0V7.941A7.941,7.941,0,0,1,7.941,0Z" transform="translate(0.319)" fill="#eac3a0"/>
        <path id="Tracé_23903" data-name="Tracé 23903" d="M-782.889,1077.387a.862.862,0,0,1-.254.611.86.86,0,0,1-.61.253h-24.884a.864.864,0,0,1-.864-.864.861.861,0,0,1,.253-.611.86.86,0,0,1,.611-.253h24.884A.864.864,0,0,1-782.889,1077.387Z" transform="translate(809.819 -1058.095)" fill="#eac3a0"/>
        <path id="Tracé_23904" data-name="Tracé 23904" d="M-795.175,1077.387a.861.861,0,0,1-.253.611.861.861,0,0,1-.611.253h-12.6a.864.864,0,0,1-.864-.864.861.861,0,0,1,.253-.611.86.86,0,0,1,.611-.253h12.6A.864.864,0,0,1-795.175,1077.387Z" transform="translate(809.819 -1058.095)" fill="#d3aa89"/>
        <g id="Groupe_1744" data-name="Groupe 1744" transform="translate(0 20.155)">
          <g id="Groupe_1743" data-name="Groupe 1743">
            <path id="Tracé_23905" data-name="Tracé 23905" d="M-807.2,1081.966l-.493,3.177-2.156,13.9a.4.4,0,0,1-.4.331h-.007a.254.254,0,0,1-.253-.276l1.337-15.4.15-1.736Z" transform="translate(810.505 -1081.966)" fill="#eac3a0"/>
          </g>
          <path id="Tracé_23906" data-name="Tracé 23906" d="M-804.321,1081.966l-.493,3.177a2.667,2.667,0,0,0-1.476-1.44l.15-1.736Z" transform="translate(807.627 -1081.966)" fill="#d3aa89"/>
        </g>
        <g id="Groupe_1746" data-name="Groupe 1746" transform="translate(12.484 20.155)">
          <g id="Groupe_1745" data-name="Groupe 1745">
            <path id="Tracé_23907" data-name="Tracé 23907" d="M-771.172,1081.966l.492,3.177,2.157,13.9a.4.4,0,0,0,.4.331h.007a.254.254,0,0,0,.253-.276l-1.337-15.4-.15-1.736Z" transform="translate(771.172 -1081.966)" fill="#eac3a0"/>
          </g>
          <path id="Tracé_23908" data-name="Tracé 23908" d="M-771.172,1081.966l.492,3.177a2.667,2.667,0,0,1,1.476-1.44l-.15-1.736Z" transform="translate(771.172 -1081.966)" fill="#d3aa89"/>
        </g>
        <g id="Groupe_1748" data-name="Groupe 1748" transform="translate(21.913 20.155)">
          <g id="Groupe_1747" data-name="Groupe 1747">
            <path id="Tracé_23909" data-name="Tracé 23909" d="M-741.463,1081.966l.493,3.177,2.156,13.9a.4.4,0,0,0,.4.331h.007a.254.254,0,0,0,.253-.276l-1.338-15.4-.15-1.736Z" transform="translate(741.463 -1081.966)" fill="#eac3a0"/>
          </g>
          <path id="Tracé_23910" data-name="Tracé 23910" d="M-741.463,1081.966l.493,3.177a2.667,2.667,0,0,1,1.476-1.44l-.15-1.736Z" transform="translate(741.463 -1081.966)" fill="#d3aa89"/>
        </g>
      </g>
      <path id="Tracé_23911" data-name="Tracé 23911" d="M-768.542,997.117l-3.646,1.863-.731-2.529a7.759,7.759,0,0,0,.675-2.309,9.665,9.665,0,0,0,.075-2.082l2.971,1.522a5.588,5.588,0,0,0-.119.68c0,.034-.008.069-.011.105a4.841,4.841,0,0,0,.063,1.484c.014.062.029.124.047.185A2.1,2.1,0,0,0-768.542,997.117Z" transform="translate(784.848 -985.53)" fill="#873700"/>
      <path id="Tracé_23912" data-name="Tracé 23912" d="M-764.98,1122.025a2.223,2.223,0,0,0,.718,1.606,2.419,2.419,0,0,1,.844,1.484.567.567,0,0,1-.835.572l-4.3-2.363a.705.705,0,0,1-.241-1.018c.207-.3.444-.654.615-.93a2.089,2.089,0,0,1,1.27-.761Z" transform="translate(782.118 -1073.282)" fill="#2c3a64"/>
      <path id="Tracé_23913" data-name="Tracé 23913" d="M-722.322,1126.182a2.223,2.223,0,0,0,1.609.711,2.418,2.418,0,0,1,1.621.536.568.568,0,0,1-.236.984l-4.775,1.127a.705.705,0,0,1-.862-.594c-.048-.362-.108-.783-.166-1.1a2.091,2.091,0,0,1,.432-1.416Z" transform="translate(752.241 -1077.082)" fill="#2c3a64"/>
      <path id="Tracé_23914" data-name="Tracé 23914" d="M-792.741,1055.2s-2.409,5.039-.936,6.407,16.34,1.224,16.772,1.224-.288,7.174,4.391,15.812a8.588,8.588,0,0,0,3.5-.914s-3-17.849-3.935-18.857-12.983-2.868-12.983-2.868Z" transform="translate(799.344 -1028.632)" fill="#2c3a64"/>
      <path id="Tracé_23915" data-name="Tracé 23915" d="M-795.7,1055.607s-1.293,5.7-.408,6.639,13.484,3.554,13.948,3.883-2.567,2.22-4.612,10.65c0,0,2.38,1.376,3.587,1.088,0,0,7.711-11.11,7.1-13.537-.739-2.931-9.605-6.474-12.752-7.338A63.936,63.936,0,0,0-795.7,1055.607Z" transform="translate(800.887 -1028.907)" fill="#35488b"/>
      <path id="Tracé_23916" data-name="Tracé 23916" d="M-783.146,1016.583c-.1,1.8-.242,3.441-.352,4.539-.087.869-.152,1.4-.152,1.4s-1.9,2.548-11.715,2.528a1.143,1.143,0,0,1-1.266-1.073c.022-4.268,3.17-13.371,4.248-16.475a3.463,3.463,0,0,1,3.9-2.267c1.161.213,2.516.495,3.757.837C-782.982,1006.553-782.906,1012.07-783.146,1016.583Z" transform="translate(801.035 -994.482)" fill="#c65447"/>
      <path id="Tracé_23917" data-name="Tracé 23917" d="M-759.113,1008.451l2.74,2s-.63,3.1-2.289,3.325S-759.113,1008.451-759.113,1008.451Z" transform="translate(775.714 -996.718)" fill="#c65447"/>
      <path id="Tracé_23918" data-name="Tracé 23918" d="M-741.223,1039.013a8.708,8.708,0,0,1,2.356-.26,6.2,6.2,0,0,1,1.071,1.3H-740.9Z" transform="translate(763.213 -1017.373)" fill="#873700"/>
      <path id="Tracé_23919" data-name="Tracé 23919" d="M-767.766,1000.266c-1.264.12-3.026-1.894-3.026-1.894a4.819,4.819,0,0,1,2.916.224,4.843,4.843,0,0,0,.063,1.484C-767.8,1000.143-767.783,1000.2-767.766,1000.266Z" transform="translate(783.397 -989.76)" opacity="0.1" style="mix-blend-mode: normal;isolation: isolate"/>
      <g id="Groupe_1751" data-name="Groupe 1751" transform="translate(9.183)">
        <path id="Tracé_23920" data-name="Tracé 23920" d="M-769.642,986.017s-3.369.889-4.532-1.79c-1.254-2.892.122-5,1.266-5.141,2.282-.283,3.607.587,4.008,1.506S-767.783,985.543-769.642,986.017Z" transform="translate(776.862 -976.637)" fill="#873700"/>
        <path id="Tracé_23921" data-name="Tracé 23921" d="M-763.033,995.367s.141.348,1.03.152c0,0,.747-.163.662-.556A2.454,2.454,0,0,0-763.033,995.367Z" transform="translate(768.917 -987.496)" fill="#fff"/>
        <g id="Groupe_1750" data-name="Groupe 1750">
          <path id="Tracé_23922" data-name="Tracé 23922" d="M-778.282,980.013a6.257,6.257,0,0,1-.348-1.779s-.879-1.121-.367-1.4.789.386.906.256.3-2.333.923-2.264,2.924.783,3.933-.087-1.439-4.27-5.588-2.957S-782.125,977.709-778.282,980.013Z" transform="translate(781.572 -971.485)" fill="#0f0f0f"/>
          <path id="Tracé_23923" data-name="Tracé 23923" d="M-779.531,976.057a1.46,1.46,0,0,1,.014-.961,1.535,1.535,0,0,0,.226.8C-779.074,976.138-779.531,976.057-779.531,976.057Z" transform="translate(780.233 -973.95)" fill="#2c3a64"/>
          <path id="Tracé_23924" data-name="Tracé 23924" d="M-780.712,976.882a.828.828,0,0,0-.756.336.66.66,0,0,1,.727.015Z" transform="translate(781.501 -975.167)" fill="#2c3a64"/>
        </g>
      </g>
      <path id="Tracé_23925" data-name="Tracé 23925" d="M-770.638,1024.748c-.1,1.8-.242,3.441-.352,4.539-8.776.4-7.209-12.15-7.209-12.15l7.294,7.52S-770.807,1024.689-770.638,1024.748Z" transform="translate(788.527 -1002.647)" fill="#b24940"/>
      <path id="Tracé_23926" data-name="Tracé 23926" d="M-780.5,1009.994s1.935,7.418,3.761,9.819h9.024l-.319-1.044s-3.644-1.046-6.329-1.514C-774.726,1017.193-775.648,1005.764-780.5,1009.994Z" transform="translate(790.023 -997.131)" fill="#873700"/>
      <path id="Tracé_23927" data-name="Tracé 23927" d="M-776.082,1011.163s-1.451-3.9-4.236-3-.267,5.842-.267,5.842S-777.089,1013.444-776.082,1011.163Z" transform="translate(790.794 -996.429)" fill="#c65447"/>
    </g>
    <g id="Table" transform="translate(-838.494 928.89)">
      <g id="Groupe_1754" data-name="Groupe 1754" transform="translate(90.186 1.502)">
        <g id="Groupe_1753" data-name="Groupe 1753">
          <path id="Tracé_23928" data-name="Tracé 23928" d="M-482.2,1075.963a.357.357,0,0,1-.354-.29l-1.735-9.835-2.5-14.145-.7-3.956,1.778-.051.308,2.3,2.166,16.136,1.284,9.565A.25.25,0,0,1-482.2,1075.963Z" transform="translate(487.485 -1047.685)" fill="#efcbab"/>
        </g>
        <path id="Tracé_23929" data-name="Tracé 23929" d="M-485.4,1049.981a2.551,2.551,0,0,0-1.388,1.71l-.7-3.956,1.778-.051Z" transform="translate(487.485 -1047.685)" fill="#c69d7f"/>
      </g>
      <g id="Groupe_1756" data-name="Groupe 1756" transform="translate(5.062 1.502)">
        <g id="Groupe_1755" data-name="Groupe 1755">
          <path id="Tracé_23930" data-name="Tracé 23930" d="M-755.429,1075.963a.357.357,0,0,0,.354-.29l1.735-9.835,2.5-14.145.7-3.956-1.778-.051-.309,2.3-2.166,16.136-1.284,9.565A.251.251,0,0,0-755.429,1075.963Z" transform="translate(755.684 -1047.685)" fill="#efcbab"/>
        </g>
        <path id="Tracé_23931" data-name="Tracé 23931" d="M-744.808,1049.981a2.55,2.55,0,0,1,1.388,1.71l.7-3.956-1.778-.051Z" transform="translate(748.26 -1047.685)" fill="#c69d7f"/>
      </g>
      <rect id="Rectangle_1746" data-name="Rectangle 1746" width="97.705" height="3.106" rx="1.553" transform="translate(0 0)" fill="#efcbab"/>
    </g>
    <g id="Girl" transform="translate(-787.228 903.262)">
      <path id="Tracé_23932" data-name="Tracé 23932" d="M-600.539,972.919c-1.663.672-2.078-.483-2.571-.806a1.449,1.449,0,0,1-.7-1.99c.473-1.133-1.029-1.628-.61-3.156s.9-1.258,1.077-2.531c.143-1.018,1.515-1.467,2.258-1.5.952-.045,2.016-.924,3.135-.685s1.328.659,1.837.749a4.327,4.327,0,0,1,3.145,1.528c1.546,1.543.94,2.15,1.119,2.928s.284,2.613-.4,3-1.055,1.821-1.775,1.857c-1.348.067-1.505.894-2.336,1.039-.645.112-.928-.26-1.958.264C-598.869,973.9-599.8,972.62-600.539,972.919Z" transform="translate(606.274 -962.208)" fill="#0f0f0f"/>
      <path id="Tracé_23933" data-name="Tracé 23933" d="M-605.281,1051.469s2.907,20.616,2.572,23.162l1.834-.223s2.3-9,2.02-11.518,2.275-12.9-.079-13.81S-605.281,1051.469-605.281,1051.469Z" transform="translate(606.813 -1021.399)" fill="#a05a2b"/>
      <path id="Tracé_23934" data-name="Tracé 23934" d="M-596.952,1050.827s4.146,20.636,3.968,23.2l1.815-.419s1.764-9.277,1.334-11.774,1.476-13.013-.929-13.779S-596.952,1050.827-596.952,1050.827Z" transform="translate(601.128 -1020.732)" fill="#bc6e39"/>
      <path id="Tracé_23935" data-name="Tracé 23935" d="M-602.716,1128.2a2.143,2.143,0,0,1-1.266.986,2.083,2.083,0,0,0-1.247.776.488.488,0,0,0,.4.775l4.22-.024a.607.607,0,0,0,.6-.671c-.033-.313-.068-.676-.084-.956a2.008,2.008,0,0,0-.695-1.157,4.324,4.324,0,0,1-.8.371A2.988,2.988,0,0,1-602.716,1128.2Z" transform="translate(606.842 -1075.333)" fill="#2c3a64"/>
      <path id="Tracé_23936" data-name="Tracé 23936" d="M-590.213,1128.2a2.143,2.143,0,0,1-1.266.986,2.083,2.083,0,0,0-1.247.776.488.488,0,0,0,.4.775l4.22-.024a.607.607,0,0,0,.6-.671c-.033-.313-.068-.676-.084-.956a2.007,2.007,0,0,0-.695-1.157,4.324,4.324,0,0,1-.8.371A2.988,2.988,0,0,1-590.213,1128.2Z" transform="translate(598.308 -1075.333)" fill="#35488b"/>
      <path id="Tracé_23937" data-name="Tracé 23937" d="M-606.771,1000.678s-2.758,4.65-3.314,8.441c0,0,1.341,1.81,1.887.539S-603.737,1001.584-606.771,1000.678Z" transform="translate(610.093 -988.468)" fill="#bc6e39"/>
      <path id="Tracé_23938" data-name="Tracé 23938" d="M-597.99,969.434a5.668,5.668,0,0,1,3.57-2.39,3.412,3.412,0,0,1,3.906,2.878c.289,1.882-.006,4.322-3.077,5.2Z" transform="translate(601.836 -965.477)" fill="#0f0f0f"/>
      <path id="Tracé_23939" data-name="Tracé 23939" d="M-596.209,990.873l3.475,2.065.879-2.446a7.657,7.657,0,0,1-.52-2.317,9.51,9.51,0,0,1,.056-2.056l-3.022,1.312a5.531,5.531,0,0,1,.074.677,4.886,4.886,0,0,1-.15,1.563A2.173,2.173,0,0,1-596.209,990.873Z" transform="translate(600.621 -978.529)" fill="#bc6e39"/>
      <path id="Tracé_23940" data-name="Tracé 23940" d="M-593.715,993.95a4.514,4.514,0,0,0,3.042-1.5l-2.892-.066A4.886,4.886,0,0,1-593.715,993.95Z" transform="translate(598.918 -982.809)" fill="#a05a2b"/>
      <path id="Tracé_23941" data-name="Tracé 23941" d="M-598.339,979.729s3.264,1.088,4.577-1.479c1.417-2.77.193-4.932-.925-5.144-2.23-.422-3.591.352-4.043,1.233S-600.142,979.145-598.339,979.729Z" transform="translate(602.794 -969.566)" fill="#bc6e39"/>
      <path id="Tracé_23942" data-name="Tracé 23942" d="M-595.182,988.706s-.161.333-1.024.086c0,0-.725-.208-.617-.59A2.423,2.423,0,0,1-595.182,988.706Z" transform="translate(601.048 -979.946)" fill="#fff"/>
      <path id="Tracé_23943" data-name="Tracé 23943" d="M-595.941,1026.486c-.943.9-7.91,2.765-11.837,1.425-.7-.24.422-21.95,1.093-26.143a2.641,2.641,0,0,1,2.251-2.2q.292-.041.634-.075c-.049.516.128,1,1.026,1.176a3.607,3.607,0,0,0,2.908-1.045,11.013,11.013,0,0,1,2.224.577,1.955,1.955,0,0,1,1.183,2.064l-.225,1.655-.715,5.274a6.97,6.97,0,0,0,.016,2c.3,2,.789,6.888,1.113,10.6C-596.042,1024.4-595.893,1026.44-595.941,1026.486Z" transform="translate(608.67 -987.659)" fill="#55aaa0"/>
      <path id="Tracé_23944" data-name="Tracé 23944" d="M-586.011,1028.686c-.1-.119-6.71-7.828-6.948-11.928-.239-4.133,3.315-7.153,3.315-7.153a3.766,3.766,0,0,1,3.22,1.209l-.715,5.274a6.97,6.97,0,0,0,.016,2C-586.82,1020.089-586.335,1024.972-586.011,1028.686Z" transform="translate(598.41 -994.554)" opacity="0.1" style="mix-blend-mode: normal;isolation: isolate"/>
      <path id="Tracé_23945" data-name="Tracé 23945" d="M-595.936,971.368a4.086,4.086,0,0,0,2.6,4.147c1.155.431,1.756-4.245-.657-5.179s-4.794.175-5.078,1.808-.068,1.973-.068,1.973S-598.014,971.01-595.936,971.368Z" transform="translate(602.678 -967.523)" fill="#0f0f0f"/>
      <path id="Tracé_23946" data-name="Tracé 23946" d="M-592.98,1003.609a53.353,53.353,0,0,0-1.384,7.365s-2.924,5.106-3.1,5.469,1.055.86,1.055.86,3.668-3.912,4.375-5.556,3.215-6.989,2.211-8.584S-592.98,1003.609-592.98,1003.609Z" transform="translate(601.486 -989.748)" fill="#bc6e39"/>
      <path id="Tracé_23947" data-name="Tracé 23947" d="M-610.1,1027.263a9.41,9.41,0,0,0,2.293,6.417s.7-.839.609-1.1-1.088-4.261-1.818-4.83S-610.1,1027.263-610.1,1027.263Z" transform="translate(610.109 -1006.612)" fill="#bc6e39"/>
      <path id="Tracé_23948" data-name="Tracé 23948" d="M-601.158,1046.315s-1.635-.012-1.726.373a1.182,1.182,0,0,0,1.616,1.168c1.2-.419,1.165-.681,1.165-.681Z" transform="translate(605.184 -1019.62)" fill="#bc6e39"/>
      <path id="Tracé_23949" data-name="Tracé 23949" d="M-602.289,1044.024s1.313.607.867,1.254a.876.876,0,0,1-1.477-.154C-603.037,1044.71-602.289,1044.024-602.289,1044.024Z" transform="translate(605.199 -1018.056)" fill="#bc6e39"/>
      <path id="Tracé_23950" data-name="Tracé 23950" d="M-586.391,1006.225a5.972,5.972,0,0,0,4.358,1.348s1.3-4.617-.786-5.184S-586.634,1004.559-586.391,1006.225Z" transform="translate(593.934 -989.584)" fill="#55aaa0"/>
      <path id="Tracé_23951" data-name="Tracé 23951" d="M-605.731,1003.241l-1.511,2.584a1.6,1.6,0,0,0,1.325,1.318C-604.786,1007.263-605.731,1003.241-605.731,1003.241Z" transform="translate(608.152 -990.217)" fill="#55aaa0"/>
    </g>
    <g id="Computer" transform="translate(-773.303 921.186)">
      <path id="Tracé_23952" data-name="Tracé 23952" d="M-531.334,1041.74h7.074a.564.564,0,0,0-.564-.564h-6.51Z" transform="translate(542.411 -1034.036)" fill="#b24940"/>
      <path id="Tracé_23953" data-name="Tracé 23953" d="M-554.791,1018.679h-10.937l2.623,7.7H-552.1Z" transform="translate(565.889 -1018.679)" fill="#b24940"/>
      <path id="Tracé_23954" data-name="Tracé 23954" d="M-566.235,1018.679l2.623,7.7H-552.6l-2.694-7.7Z" transform="translate(566.235 -1018.679)" fill="#c65447"/>
      <path id="Tracé_23955" data-name="Tracé 23955" d="M-547.688,1029.445a.711.711,0,0,0,.656.533.411.411,0,0,0,.41-.533.711.711,0,0,0-.656-.533A.41.41,0,0,0-547.688,1029.445Z" transform="translate(553.584 -1025.664)" fill="#f9ddbf"/>
      <path id="Tracé_23956" data-name="Tracé 23956" d="M-566.235,1018.679l2.623,7.7h5.121l-6.133-7.7Z" transform="translate(566.235 -1018.679)" fill="#b24940"/>
    </g>
    <g id="Box" transform="translate(-740.008 952.812)">
      <rect id="Rectangle_1747" data-name="Rectangle 1747" width="7.395" height="6.098" transform="translate(5.063 0)" fill="#d3671e"/>
      <rect id="Rectangle_1748" data-name="Rectangle 1748" width="7.395" height="6.098" transform="translate(1.365 0)" fill="#f1a34f"/>
      <path id="Tracé_23957" data-name="Tracé 23957" d="M-449.678,1118.324h-7.415v1.939l7.415,4.159Z" transform="translate(458.439 -1118.324)" fill="#d86713" opacity="0.4"/>
      <path id="Tracé_23958" data-name="Tracé 23958" d="M-452.573,1118.324l-1.463,1.6h-7.3l1.365-1.6Z" transform="translate(461.334 -1118.324)" fill="#f1a34f"/>
      <path id="Tracé_23959" data-name="Tracé 23959" d="M-424.615,1131.448h-1.172l.1-.33-.1-.236h1.172Z" transform="translate(437.069 -1126.897)" fill="#f1a34f"/>
      <path id="Tracé_23960" data-name="Tracé 23960" d="M-433.731,1119.013l1.559,1.559h2.135v-2.248h-3.693Z" transform="translate(442.492 -1118.324)" fill="#c95c12"/>
      <path id="Tracé_23961" data-name="Tracé 23961" d="M-430.034,1118.324l1.663,1.6h-3.7l-1.66-1.6Z" transform="translate(442.492 -1118.324)" fill="#f1a34f"/>
    </g>
    <g id="Drone" transform="translate(-817.991 911.395)">
      <path id="Tracé_23878" data-name="Tracé 23878" d="M-644.37,1043.425q-.457,0-.9-.031c-4.15-.3-6.827-2.581-7.539-6.432-.134-.724-.252-1.393-.367-2.04a25.361,25.361,0,0,0-1.388-5.739,2.761,2.761,0,0,0-2.849-1.74l0-.178h.086c2.976,0,3.4,2.408,4.328,7.627.115.647.233,1.316.367,2.039.7,3.764,3.315,6,7.377,6.287a16.327,16.327,0,0,0,8.421-1.9c2.712-1.414,4.655-3.372,5.329-5.372a7.444,7.444,0,0,1,3.3-4.28,5.321,5.321,0,0,1,2.105-.716l.011.177a5.252,5.252,0,0,0-2.036.7A7.275,7.275,0,0,0-631.34,1036c-.689,2.043-2.663,4.038-5.415,5.473A16.911,16.911,0,0,1-644.37,1043.425Z" transform="translate(673.163 -1014.748)" fill="#4a75cb"/>
      <g id="Groupe_1831" data-name="Groupe 1831" transform="translate(0)">
        <g id="Groupe_1761" data-name="Groupe 1761" transform="translate(12.69 14.287)">
          <path id="Tracé_23962" data-name="Tracé 23962" d="M-666.97,1033.042a.091.091,0,0,1-.08-.1.092.092,0,0,1,.08-.1l4.258.006a.09.09,0,0,0-.08.1.09.09,0,0,0,.08.1Z" transform="translate(667.05 -1032.845)" fill="#4e5463"/>
          <path id="Tracé_23963" data-name="Tracé 23963" d="M-653.631,1032.96a.09.09,0,0,1,.08-.1.091.091,0,0,1,.08.1.09.09,0,0,1-.08.1A.09.09,0,0,1-653.631,1032.96Z" transform="translate(657.89 -1032.857)" fill="#4e5463"/>
        </g>
        <g id="Groupe_1762" data-name="Groupe 1762" transform="translate(7.419 14.287)">
          <path id="Tracé_23964" data-name="Tracé 23964" d="M-683.576,1033.042a.091.091,0,0,1-.079-.1.091.091,0,0,1,.08-.1l4.259.006a.09.09,0,0,0-.08.1.09.09,0,0,0,.079.1Z" transform="translate(683.655 -1032.845)" fill="#4e5463"/>
          <path id="Tracé_23965" data-name="Tracé 23965" d="M-670.237,1032.96a.09.09,0,0,1,.08-.1.09.09,0,0,1,.08.1.09.09,0,0,1-.08.1A.09.09,0,0,1-670.237,1032.96Z" transform="translate(674.496 -1032.857)" fill="#4e5463"/>
        </g>
        <g id="Groupe_1763" data-name="Groupe 1763" transform="translate(23.423 7.992)">
          <path id="Tracé_23966" data-name="Tracé 23966" d="M-633.152,1013.207a.089.089,0,0,1-.08-.1.09.09,0,0,1,.08-.1l4.259.006a.09.09,0,0,0-.081.1.09.09,0,0,0,.08.1Z" transform="translate(633.232 -1013.011)" fill="#4e5463"/>
          <path id="Tracé_23967" data-name="Tracé 23967" d="M-619.815,1013.127a.09.09,0,0,1,.081-.1.09.09,0,0,1,.079.1.091.091,0,0,1-.08.1A.09.09,0,0,1-619.815,1013.127Z" transform="translate(624.073 -1013.024)" fill="#4e5463"/>
        </g>
        <g id="Groupe_1764" data-name="Groupe 1764" transform="translate(16.294 3.645)">
          <path id="Tracé_23968" data-name="Tracé 23968" d="M-655.614,999.51a.09.09,0,0,1-.08-.1.089.089,0,0,1,.08-.1l4.259,0a.091.091,0,0,0-.08.1.09.09,0,0,0,.079.1Z" transform="translate(655.694 -999.314)" fill="#4e5463"/>
          <path id="Tracé_23969" data-name="Tracé 23969" d="M-642.276,999.426a.09.09,0,0,1,.08-.1.092.092,0,0,1,.08.1.091.091,0,0,1-.081.1A.091.091,0,0,1-642.276,999.426Z" transform="translate(646.535 -999.324)" fill="#4e5463"/>
        </g>
        <g id="Groupe_1765" data-name="Groupe 1765" transform="translate(11.332 3.645)">
          <path id="Tracé_23970" data-name="Tracé 23970" d="M-671.249,999.51a.091.091,0,0,1-.08-.1.09.09,0,0,1,.08-.1l4.259,0a.09.09,0,0,0-.08.1.091.091,0,0,0,.079.1Z" transform="translate(671.329 -999.314)" fill="#4e5463"/>
          <path id="Tracé_23971" data-name="Tracé 23971" d="M-657.91,999.426a.09.09,0,0,1,.08-.1.09.09,0,0,1,.079.1.09.09,0,0,1-.08.1A.091.091,0,0,1-657.91,999.426Z" transform="translate(662.169 -999.324)" fill="#4e5463"/>
        </g>
        <g id="Groupe_1766" data-name="Groupe 1766" transform="translate(0.349 9.915)">
          <path id="Tracé_23972" data-name="Tracé 23972" d="M-705.853,1019.268a.091.091,0,0,1-.08-.1.091.091,0,0,1,.08-.1l4.259.006a.09.09,0,0,0-.08.1.091.091,0,0,0,.08.1Z" transform="translate(705.933 -1019.071)" fill="#4e5463"/>
          <path id="Tracé_23973" data-name="Tracé 23973" d="M-692.515,1019.186a.09.09,0,0,1,.08-.1.09.09,0,0,1,.08.1.09.09,0,0,1-.08.1A.091.091,0,0,1-692.515,1019.186Z" transform="translate(696.774 -1019.083)" fill="#4e5463"/>
        </g>
        <path id="Tracé_23974" data-name="Tracé 23974" d="M-689.9,1018.392c0-.04,0-.059,0-.059l5.3.023h0s0,.047,0,.137c0,.147,0,.348,0,.45,0,.042,0,.06,0,.058h0l-5.3-.023s0-.048,0-.137C-689.9,1018.7-689.9,1018.495-689.9,1018.392Z" transform="translate(695.339 -1008.652)" fill="url(#linear-gradient)"/>
        <path id="Tracé_23975" data-name="Tracé 23975" d="M-652.479,1012.333v-.059l5.3.023h0s0,.048,0,.138c0,.146,0,.347,0,.45a.524.524,0,0,1,0,.057h0l-5.3-.022s0-.048,0-.137C-652.481,1012.637-652.48,1012.435-652.479,1012.333Z" transform="translate(669.795 -1004.516)" fill="url(#linear-gradient-2)"/>
        <g id="Groupe_1767" data-name="Groupe 1767" transform="translate(11.899 10.562)">
          <path id="Tracé_23976" data-name="Tracé 23976" d="M-669.523,1021.373a.3.3,0,0,1,.324-.263.3.3,0,0,1,.323.265l-.017,3.359a.3.3,0,0,0-.323-.264.3.3,0,0,0-.325.263Z" transform="translate(669.54 -1021.11)" fill="url(#linear-gradient-3)"/>
          <path id="Tracé_23977" data-name="Tracé 23977" d="M-669.215,1031.694a.3.3,0,0,1,.323.264.3.3,0,0,1-.325.263.3.3,0,0,1-.322-.264A.3.3,0,0,1-669.215,1031.694Z" transform="translate(669.54 -1028.335)" fill="#373c48"/>
        </g>
        <g id="Groupe_1768" data-name="Groupe 1768" transform="translate(15.629 3.846)">
          <path id="Tracé_23978" data-name="Tracé 23978" d="M-657.772,1000.21a.3.3,0,0,1,.324-.262.3.3,0,0,1,.322.265l-.017,3.359a.3.3,0,0,0-.323-.265.3.3,0,0,0-.325.263Z" transform="translate(657.79 -999.948)" fill="url(#linear-gradient-4)"/>
          <path id="Tracé_23979" data-name="Tracé 23979" d="M-657.465,1010.531a.3.3,0,0,1,.323.265.3.3,0,0,1-.324.262.3.3,0,0,1-.323-.264A.3.3,0,0,1-657.465,1010.531Z" transform="translate(657.79 -1007.172)" fill="#373c48"/>
        </g>
        <g id="Groupe_1769" data-name="Groupe 1769" transform="translate(10.905 0.406)">
          <path id="Tracé_23980" data-name="Tracé 23980" d="M-671.254,992.494c0-.006,0-.013,0-.019a2.42,2.42,0,0,1,1.362-1.758,7.25,7.25,0,0,1,6.573,0,2.376,2.376,0,0,1,1.343,1.769c0,.019,0,.038,0,.057a1.628,1.628,0,0,1-.07.539,2.629,2.629,0,0,0-1.273-1.415,7.256,7.256,0,0,0-6.573,0,2.643,2.643,0,0,0-1.3,1.443,1.606,1.606,0,0,1-.074-.483c0-.02,0-.041,0-.062S-671.256,992.517-671.254,992.494Z" transform="translate(671.708 -989.669)" fill="url(#linear-gradient-5)"/>
          <path id="Tracé_23981" data-name="Tracé 23981" d="M-672.669,998.452c0,.024,0,.048,0,.073s0,.02,0,.031a2.621,2.621,0,0,0,1.469,1.906,7.947,7.947,0,0,0,7.206,0,2.636,2.636,0,0,0,1.5-1.956c0-.02,0-.041,0-.061s0-.051,0-.078v-.007l0,.95a2.549,2.549,0,0,1-1.5,2.1,7.95,7.95,0,0,1-7.206,0,2.529,2.529,0,0,1-1.479-2.073l0-.951C-672.672,998.411-672.67,998.431-672.669,998.452Z" transform="translate(672.672 -995.424)" fill="url(#linear-gradient-6)"/>
          <path id="Tracé_23982" data-name="Tracé 23982" d="M-662.481,992.053a2.526,2.526,0,0,0-1.478-2.079,7.952,7.952,0,0,0-7.207,0,2.515,2.515,0,0,0-1.5,2.164c0,.024,0,.048,0,.073s0,.02,0,.031a2.621,2.621,0,0,0,1.469,1.906,7.947,7.947,0,0,0,7.206,0,2.636,2.636,0,0,0,1.5-1.956c0-.02,0-.041,0-.061S-662.481,992.08-662.481,992.053Zm-9.737-.048c0-.023,0-.047,0-.07,0-.007,0-.013,0-.019a2.42,2.42,0,0,1,1.362-1.758,7.25,7.25,0,0,1,6.573,0,2.376,2.376,0,0,1,1.343,1.769c0,.019,0,.038,0,.057a1.624,1.624,0,0,1-.07.539,2.643,2.643,0,0,1-1.3,1.443,7.255,7.255,0,0,1-6.573,0,2.624,2.624,0,0,1-1.274-1.415,1.606,1.606,0,0,1-.074-.483C-672.22,992.047-672.219,992.027-672.218,992.006Z" transform="translate(672.669 -989.111)" fill="#4e5463"/>
        </g>
        <path id="Tracé_23983" data-name="Tracé 23983" d="M-650.149,1007.036q0-.026,0-.052c0-.043.007-.086.013-.129,0-.01,0-.02,0-.03q.013-.079.033-.157c0-.015.009-.028.012-.042.011-.039.023-.078.037-.116l.02-.053c.015-.037.031-.074.048-.111l.022-.046c.026-.051.053-.1.083-.153l.009-.013c.029-.046.059-.091.091-.136l.035-.046c.027-.035.054-.07.083-.1l.041-.049c.033-.037.068-.075.105-.112l.03-.032q.071-.07.15-.139l.041-.033c.041-.035.083-.069.127-.1.019-.016.039-.03.059-.044.042-.031.086-.062.131-.092l.058-.039c.065-.042.131-.084.2-.125l0,1.042a4.007,4.007,0,0,0-1.325,1.97v-.394A1.7,1.7,0,0,1-650.149,1007.036Z" transform="translate(668.203 -999.605)" fill="#373c48"/>
        <g id="Groupe_1770" data-name="Groupe 1770" transform="translate(18.043 4.511)">
          <path id="Tracé_23984" data-name="Tracé 23984" d="M-648.768,1005.424a.171.171,0,0,1,0-.019,2.42,2.42,0,0,1,1.362-1.759,7.25,7.25,0,0,1,6.573,0,2.376,2.376,0,0,1,1.343,1.769c0,.019,0,.037,0,.057a1.608,1.608,0,0,1-.069.539,2.625,2.625,0,0,0-1.273-1.415,7.253,7.253,0,0,0-6.573,0,2.643,2.643,0,0,0-1.3,1.443,1.608,1.608,0,0,1-.075-.483c0-.02,0-.041,0-.062S-648.771,1005.447-648.768,1005.424Z" transform="translate(649.222 -1002.6)" fill="url(#linear-gradient-7)"/>
          <path id="Tracé_23985" data-name="Tracé 23985" d="M-650.182,1011.381c0,.024,0,.049,0,.073l0,.032a2.627,2.627,0,0,0,1.469,1.907,7.953,7.953,0,0,0,7.207,0,2.638,2.638,0,0,0,1.5-1.956c0-.02,0-.04,0-.062s0-.052,0-.078v-.007l0,.951a2.547,2.547,0,0,1-1.5,2.1,7.953,7.953,0,0,1-7.206,0,2.531,2.531,0,0,1-1.479-2.073l0-.95C-650.185,1011.34-650.183,1011.361-650.182,1011.381Z" transform="translate(650.185 -1008.355)" fill="url(#linear-gradient-8)"/>
          <path id="Tracé_23986" data-name="Tracé 23986" d="M-640,1004.985a2.523,2.523,0,0,0-1.478-2.079,7.953,7.953,0,0,0-7.207,0,2.513,2.513,0,0,0-1.5,2.163c0,.024,0,.049,0,.073l0,.032a2.627,2.627,0,0,0,1.469,1.907,7.953,7.953,0,0,0,7.207,0,2.638,2.638,0,0,0,1.5-1.956c0-.02,0-.04,0-.062S-640,1005.011-640,1004.985Zm-9.737-.048c0-.023,0-.047,0-.071a.159.159,0,0,1,0-.019,2.42,2.42,0,0,1,1.362-1.759,7.251,7.251,0,0,1,6.573,0,2.376,2.376,0,0,1,1.343,1.769c0,.019,0,.037,0,.057a1.607,1.607,0,0,1-.069.539,2.645,2.645,0,0,1-1.3,1.442,7.256,7.256,0,0,1-6.573,0,2.628,2.628,0,0,1-1.274-1.415,1.606,1.606,0,0,1-.075-.483C-649.734,1004.978-649.733,1004.958-649.732,1004.937Z" transform="translate(650.182 -1002.042)" fill="#4e5463"/>
        </g>
        <path id="Tracé_23987" data-name="Tracé 23987" d="M-680.812,1008.2a17.627,17.627,0,0,0,1.889,1.441l-.841.485,0,.529a10.767,10.767,0,0,1-1.044-.847l-1.014-.984,0-1.609Z" transform="translate(689.826 -1001.066)" fill="#292c36"/>
        <g id="Groupe_1771" data-name="Groupe 1771" transform="translate(0 6.71)">
          <path id="Tracé_23988" data-name="Tracé 23988" d="M-705.614,1012.357l0-.018a2.42,2.42,0,0,1,1.362-1.76,7.258,7.258,0,0,1,6.573,0,2.376,2.376,0,0,1,1.343,1.769c0,.019,0,.038,0,.057a1.6,1.6,0,0,1-.069.54,2.625,2.625,0,0,0-1.273-1.415,7.257,7.257,0,0,0-6.573,0,2.649,2.649,0,0,0-1.3,1.443,1.6,1.6,0,0,1-.074-.482c0-.02,0-.042,0-.062S-705.616,1012.38-705.614,1012.357Z" transform="translate(706.068 -1009.532)" fill="url(#linear-gradient-9)"/>
          <path id="Tracé_23989" data-name="Tracé 23989" d="M-707.028,1018.315c0,.024,0,.048,0,.073s0,.021,0,.031a2.626,2.626,0,0,0,1.469,1.907,7.951,7.951,0,0,0,7.206,0,2.634,2.634,0,0,0,1.5-1.955c0-.02,0-.04,0-.061s0-.052,0-.078v-.007l0,.95a2.548,2.548,0,0,1-1.5,2.1,7.951,7.951,0,0,1-7.206,0,2.53,2.53,0,0,1-1.479-2.073l0-.95C-707.031,1018.273-707.029,1018.294-707.028,1018.315Z" transform="translate(707.031 -1015.287)" fill="url(#linear-gradient-10)"/>
          <path id="Tracé_23990" data-name="Tracé 23990" d="M-696.842,1011.916a2.524,2.524,0,0,0-1.478-2.08,7.953,7.953,0,0,0-7.207,0,2.513,2.513,0,0,0-1.5,2.164c0,.024,0,.048,0,.073s0,.021,0,.031a2.626,2.626,0,0,0,1.469,1.907,7.951,7.951,0,0,0,7.206,0,2.634,2.634,0,0,0,1.5-1.955c0-.02,0-.04,0-.061S-696.842,1011.942-696.842,1011.916Zm-9.737-.048c0-.023,0-.048,0-.071,0-.006,0-.012,0-.018a2.42,2.42,0,0,1,1.362-1.76,7.258,7.258,0,0,1,6.573,0,2.376,2.376,0,0,1,1.343,1.769c0,.019,0,.038,0,.057a1.6,1.6,0,0,1-.069.54,2.642,2.642,0,0,1-1.3,1.441,7.253,7.253,0,0,1-6.573,0,2.629,2.629,0,0,1-1.274-1.416,1.6,1.6,0,0,1-.074-.482C-706.58,1011.909-706.579,1011.889-706.578,1011.868Z" transform="translate(707.028 -1008.973)" fill="#4e5463"/>
        </g>
        <path id="Tracé_23991" data-name="Tracé 23991" d="M-675.048,1017.417c0,.021.007.043.009.063C-675.041,1017.46-675.044,1017.438-675.048,1017.417Z" transform="translate(685.199 -1008.027)" fill="#373c48"/>
        <path id="Tracé_23992" data-name="Tracé 23992" d="M-674.984,1017.937c0,.022,0,.044,0,.067C-674.981,1017.981-674.982,1017.959-674.984,1017.937Z" transform="translate(685.156 -1008.382)" fill="#373c48"/>
        <path id="Tracé_23993" data-name="Tracé 23993" d="M-675.163,1016.9c.005.018.008.037.013.055C-675.155,1016.936-675.158,1016.917-675.163,1016.9Z" transform="translate(685.278 -1007.673)" fill="#373c48"/>
        <path id="Tracé_23994" data-name="Tracé 23994" d="M-644.368,1022.381l0,.315-.413.238,0-.316Z" transform="translate(664.538 -1011.415)" fill="#373c48"/>
        <path id="Tracé_23995" data-name="Tracé 23995" d="M-656.038,1017.271l1.938,1.86,0,.316-1.189-.349a1.825,1.825,0,0,0-1.425.171l-.677.39-1.047-1.006Z" transform="translate(673.858 -1007.927)" fill="url(#linear-gradient-11)"/>
        <path id="Tracé_23996" data-name="Tracé 23996" d="M-664.4,1020.72l0,1.608-.842-.106,0-1.017Z" transform="translate(678.506 -1010.281)" fill="#292c36"/>
        <path id="Tracé_23997" data-name="Tracé 23997" d="M-661.686,1021.247l0,1.608-.906-.526,0-1.608Z" transform="translate(676.696 -1010.281)" fill="#292c36"/>
        <path id="Tracé_23998" data-name="Tracé 23998" d="M-674.971,1022.1l0,1.017a7.476,7.476,0,0,0-4.523.756l0-1.016A7.485,7.485,0,0,1-674.971,1022.1Z" transform="translate(688.234 -1011.178)" fill="#373c48"/>
        <path id="Tracé_23999" data-name="Tracé 23999" d="M-653.218,1027.489l0,.316-.413.239,0-.316Z" transform="translate(670.58 -1014.902)" fill="#373c48"/>
        <path id="Tracé_24000" data-name="Tracé 24000" d="M-657.8,1024.241l0,.316-1.937-.568-.005-1.608Z" transform="translate(674.748 -1011.415)" fill="#292c36"/>
        <g id="Groupe_1772" data-name="Groupe 1772" transform="translate(7.137 10.848)">
          <path id="Tracé_24001" data-name="Tracé 24001" d="M-683.129,1025.393c0-.006,0-.012,0-.018a2.421,2.421,0,0,1,1.363-1.759,7.257,7.257,0,0,1,6.573,0,2.375,2.375,0,0,1,1.343,1.769c0,.019,0,.038,0,.057a1.612,1.612,0,0,1-.07.54,2.624,2.624,0,0,0-1.273-1.415,7.258,7.258,0,0,0-6.573,0,2.648,2.648,0,0,0-1.3,1.442,1.615,1.615,0,0,1-.075-.482c0-.02,0-.041,0-.062S-683.131,1025.417-683.129,1025.393Z" transform="translate(683.583 -1022.569)" fill="url(#linear-gradient-12)"/>
          <path id="Tracé_24002" data-name="Tracé 24002" d="M-684.543,1031.351c0,.024,0,.048,0,.073s0,.021,0,.031a2.627,2.627,0,0,0,1.469,1.907,7.95,7.95,0,0,0,7.206,0,2.635,2.635,0,0,0,1.5-1.954c0-.021,0-.041,0-.062s0-.052,0-.078v-.007l0,.95a2.549,2.549,0,0,1-1.5,2.1,7.95,7.95,0,0,1-7.206,0,2.527,2.527,0,0,1-1.478-2.072l0-.951C-684.546,1031.309-684.544,1031.33-684.543,1031.351Z" transform="translate(684.546 -1028.323)" fill="url(#linear-gradient-13)"/>
          <path id="Tracé_24003" data-name="Tracé 24003" d="M-674.355,1024.953a2.527,2.527,0,0,0-1.478-2.08,7.956,7.956,0,0,0-7.207,0,2.512,2.512,0,0,0-1.5,2.164c0,.024,0,.048,0,.073s0,.021,0,.031a2.627,2.627,0,0,0,1.469,1.906,7.951,7.951,0,0,0,7.206,0,2.636,2.636,0,0,0,1.5-1.954c0-.021,0-.041,0-.062S-674.355,1024.979-674.355,1024.953Zm-9.737-.048c0-.023,0-.047,0-.071a.185.185,0,0,0,0-.018,2.421,2.421,0,0,1,1.363-1.759,7.257,7.257,0,0,1,6.573,0,2.375,2.375,0,0,1,1.343,1.769c0,.019,0,.038,0,.057a1.612,1.612,0,0,1-.07.54,2.645,2.645,0,0,1-1.3,1.442,7.252,7.252,0,0,1-6.573,0,2.625,2.625,0,0,1-1.274-1.415,1.614,1.614,0,0,1-.075-.482C-684.094,1024.947-684.093,1024.926-684.092,1024.905Z" transform="translate(684.542 -1022.01)" fill="#4e5463"/>
        </g>
        <path id="Tracé_24004" data-name="Tracé 24004" d="M-680.812,1005.784l-1.014-.984,1.95-1.125,1.7.59a25.947,25.947,0,0,1,2.479,1.1l-3.222,1.861A17.627,17.627,0,0,1-680.812,1005.784Z" transform="translate(689.826 -998.646)" fill="url(#linear-gradient-14)"/>
        <path id="Tracé_24005" data-name="Tracé 24005" d="M-678.169,1009.887a1.691,1.691,0,0,0,.11-.66c0-.023,0-.045,0-.067s-.006-.068-.011-.1-.005-.043-.009-.063c-.006-.037-.015-.073-.024-.109,0-.018-.008-.037-.013-.055-.015-.054-.032-.108-.053-.162l.841-.485,3.223-1.861.841-.486a7.47,7.47,0,0,0,4.523-.757c-.07.041-.136.082-.2.125l-.058.039c-.045.03-.089.061-.131.092-.02.015-.04.029-.059.044-.044.033-.086.067-.127.1l-.041.033q-.079.069-.15.139l-.031.032c-.037.037-.072.075-.105.112l-.041.049c-.029.034-.056.069-.083.1l-.035.046c-.032.045-.063.091-.091.136l-.009.013c-.03.051-.057.1-.083.153l-.022.046c-.016.037-.033.074-.048.111l-.02.053c-.013.038-.026.077-.037.116,0,.014-.009.027-.012.042q-.02.078-.033.157c0,.01,0,.02,0,.03-.006.043-.011.085-.013.129q0,.026,0,.052a1.7,1.7,0,0,0,.114.662l-.842.486.845.49.062.036,1.938,1.861-.413.238-1.253-1.2a1.261,1.261,0,0,0-1.506-.182l-.825.475a.651.651,0,0,0-.125,1.032l.423.407.89.854-.413.239-1.938-1.86-.906-.527-.841.486a7.485,7.485,0,0,0-4.523.757A2.869,2.869,0,0,0-678.169,1009.887Z" transform="translate(688.234 -999.605)" fill="#4e5463"/>
        <path id="Tracé_24006" data-name="Tracé 24006" d="M-652.441,1013.814l.842-.486v.394l0,.583Z" transform="translate(669.768 -1005.236)" fill="#292c36"/>
        <g id="Groupe_1782" data-name="Groupe 1782" transform="translate(8.901 11.242)">
          <g id="Groupe_1774" data-name="Groupe 1774" transform="translate(2.714 2.247)">
            <path id="Tracé_24007" data-name="Tracé 24007" d="M-670.434,1031.457a.164.164,0,0,0,0,.017c0,.005,0,.011,0,.015s0,.012.007.018a.078.078,0,0,0,.006.015l.011.018a.156.156,0,0,0,.009.013.174.174,0,0,0,.015.02l.009.01.02.019.01.011.027.021.009.008a.458.458,0,0,0,.041.026.935.935,0,0,0,.85,0c.015-.008.029-.017.042-.026l.013-.01.022-.018.012-.012.018-.018.011-.013.014-.017s.005-.01.009-.015l.01-.017.006-.015a.189.189,0,0,0,.008-.018l0-.015a.18.18,0,0,0,0-.018.123.123,0,0,0,0-.015.184.184,0,0,0,0-.019h0l0,1.01a.3.3,0,0,1-.177.247.931.931,0,0,1-.85,0,.3.3,0,0,1-.175-.244l0-1.01a.17.17,0,0,0,0,.018A.066.066,0,0,0-670.434,1031.457Z" transform="translate(670.437 -1031.075)" fill="url(#linear-gradient-15)"/>
            <g id="Groupe_1773" data-name="Groupe 1773" transform="translate(0.001)">
              <path id="Tracé_24008" data-name="Tracé 24008" d="M-670.141,1030.564a.822.822,0,0,1,.4-.1.819.819,0,0,1,.4.1.256.256,0,0,1,.152.207.044.044,0,0,1,0,.009v.017l0,.009,0,.005,0,.007a.014.014,0,0,1,0,.005.037.037,0,0,1,0,.009l0,.006,0,.006,0,.006-.006.009,0,.006,0,.006,0,.006-.007.01,0,0-.005.006,0,.006-.012.011,0,0-.005.005-.005.005-.016.011,0,0-.006.006-.006,0c-.012.009-.024.016-.038.025a.819.819,0,0,1-.4.1.812.812,0,0,1-.4-.1.4.4,0,0,1-.038-.025l-.009-.006-.024-.019,0,0-.006-.005,0,0-.014-.014,0,0,0-.005,0,0-.01-.012,0-.006,0-.006,0-.005-.006-.01,0-.005,0-.007,0-.005a.033.033,0,0,1,0-.009v-.005l0-.007,0-.006,0-.008v-.012A.252.252,0,0,1-670.141,1030.564Z" transform="translate(670.34 -1030.425)" fill="#373c48"/>
              <path id="Tracé_24009" data-name="Tracé 24009" d="M-670.434,1030.7a.087.087,0,0,0,0,.016c0,.005,0,.012,0,.017a.13.13,0,0,0,0,.015.16.16,0,0,0,.007.018.089.089,0,0,0,.006.015l.011.018s.005.009.008.013a.237.237,0,0,0,.016.02l.009.01.02.019.01.011.027.021.009.008a.45.45,0,0,0,.041.026.854.854,0,0,0,.424.1.861.861,0,0,0,.426-.1c.015-.008.029-.017.042-.026l.013-.01.022-.018.012-.012.018-.018.011-.013.014-.017s.005-.01.009-.015l.01-.018.006-.015.008-.018,0-.015c0-.006,0-.012,0-.018a.148.148,0,0,0,0-.015.176.176,0,0,0,0-.018.3.3,0,0,0-.174-.245.867.867,0,0,0-.426-.1.866.866,0,0,0-.425.1A.291.291,0,0,0-670.434,1030.7Zm.044,0a.251.251,0,0,1,.154-.223.822.822,0,0,1,.4-.1.819.819,0,0,1,.4.1.257.257,0,0,1,.152.207.04.04,0,0,1,0,.009v.017l0,.009,0,.005,0,.007a.013.013,0,0,1,0,.005.037.037,0,0,1,0,.009l0,.006,0,.006,0,.006-.006.009,0,.006,0,.006,0,.006-.007.01,0,0-.005.006,0,.006-.012.011,0,0-.005.005-.005.005-.016.011,0,0-.006.006-.006,0c-.012.009-.024.016-.038.025a.819.819,0,0,1-.4.1.811.811,0,0,1-.4-.1.4.4,0,0,1-.038-.025l-.009-.006-.024-.019,0,0-.006-.005,0,0-.014-.014,0,0,0-.005,0,0-.01-.012,0-.006,0-.006,0-.005-.006-.01,0-.005,0-.007,0-.005a.035.035,0,0,1,0-.009v-.005l0-.007,0-.006,0-.008v-.012Z" transform="translate(670.435 -1030.331)" fill="#6a7489"/>
            </g>
          </g>
          <g id="Groupe_1781" data-name="Groupe 1781">
            <g id="Groupe_1780" data-name="Groupe 1780" clip-path="url(#clip-path)">
              <g id="Groupe_1779" data-name="Groupe 1779" transform="translate(0.186 0.228)">
                <path id="Tracé_24010" data-name="Tracé 24010" d="M-662.038,1024.925l1.065-.744v-.072l-1.065.743Z" transform="translate(667.231 -1024.066)" fill="#2267b9"/>
                <g id="Groupe_1778" data-name="Groupe 1778">
                  <path id="Tracé_24011" data-name="Tracé 24011" d="M-667.81,1027.4v.071a8.563,8.563,0,0,0,1.832-.953v-.072A8.564,8.564,0,0,1-667.81,1027.4Z" transform="translate(671.172 -1025.664)" fill="#2267b9"/>
                  <path id="Tracé_24012" data-name="Tracé 24012" d="M-668.117,1025.711a8.564,8.564,0,0,0,1.832-.954l1.065-.743-.077-.044-1.279.619a7.268,7.268,0,0,0-1.641,1.064l-.043.038.077.045Z" transform="translate(671.479 -1023.97)" fill="url(#linear-gradient-16)"/>
                  <g id="Groupe_1776" data-name="Groupe 1776" transform="translate(2.862 1.451)">
                    <g id="Groupe_1775" data-name="Groupe 1775">
                      <path id="Tracé_24013" data-name="Tracé 24013" d="M-668.832,1029.058l0,.008a.041.041,0,0,1,0,.007.025.025,0,0,1,0,.008.022.022,0,0,1,0,.007.024.024,0,0,1-.005.008l0,.007-.008.009,0,.005-.009.009,0,0-.012.01,0,0a.108.108,0,0,1-.019.012.427.427,0,0,1-.389,0l-.019-.012-.006,0-.01-.008-.006-.005-.009-.008,0-.006-.007-.008,0-.008a.023.023,0,0,1-.005-.008.03.03,0,0,1,0-.006l0-.009a.032.032,0,0,1,0-.007.075.075,0,0,1,0-.008.02.02,0,0,1,0-.007.059.059,0,0,1,0-.008h0l0,1.073a.138.138,0,0,0,.082.114.43.43,0,0,0,.389,0,.138.138,0,0,0,.08-.113l0-1.073s0,.005,0,.008A.031.031,0,0,0-668.832,1029.058Z" transform="translate(669.384 -1028.883)" fill="url(#linear-gradient-17)"/>
                      <path id="Tracé_24014" data-name="Tracé 24014" d="M-669.377,1028.708a.02.02,0,0,0,0,.007s0,.005,0,.008a.039.039,0,0,0,0,.007l0,.009a.038.038,0,0,0,0,.006.024.024,0,0,0,.005.008l0,.008.007.008,0,.006.009.008.006.005.01.008.006,0,.019.012a.427.427,0,0,0,.389,0,.116.116,0,0,0,.019-.012.008.008,0,0,0,0,0l.012-.01,0,0,.009-.009,0-.005.008-.009,0-.007a.025.025,0,0,0,.005-.008.021.021,0,0,0,0-.007.028.028,0,0,0,0-.008l0-.007,0-.008a.028.028,0,0,1,0-.007.133.133,0,0,0-.081-.121.426.426,0,0,0-.389,0,.136.136,0,0,0-.08.112A.058.058,0,0,0-669.377,1028.708Z" transform="translate(669.38 -1028.541)" fill="#6a7489"/>
                    </g>
                    <path id="Tracé_24015" data-name="Tracé 24015" d="M-669.283,1028.762v.006l0,.008v.005l0,.008,0,.005,0,.007s0,0,0,.005l.006.007s0,0,0,0l.007.007.005,0,.009.007.006,0,.017.01a.4.4,0,0,0,.347,0l.017-.01,0,0,.011-.008,0,0a.023.023,0,0,0,.008-.008l0,0,.007-.008,0-.005,0-.007a.01.01,0,0,0,0-.005l0-.007a.048.048,0,0,1,0-.006.024.024,0,0,0,0-.007.038.038,0,0,0,0-.006c0-.036-.02-.074-.072-.1a.4.4,0,0,0-.347,0,.112.112,0,0,0-.071.093Z" transform="translate(669.315 -1028.596)" fill="#373c48"/>
                    <path id="Tracé_24016" data-name="Tracé 24016" d="M-668.852,1028.92v0l0,0v.008l0,0,0,0,0,0,0,0,0,0,0,0,0,0h0l.007.005a.182.182,0,0,0,.154,0l.007-.005h0l0,0,0,0,0,0,0,0,0,0v0l0,0v-.013a.05.05,0,0,0-.032-.045.177.177,0,0,0-.154,0,.05.05,0,0,0-.031.042Z" transform="translate(669.021 -1028.757)" fill="#292c36"/>
                  </g>
                  <g id="Groupe_1777" data-name="Groupe 1777" transform="translate(0 1.712)">
                    <path id="Tracé_24017" data-name="Tracé 24017" d="M-669.571,1030.713v.072l.516-.527v-.073Z" transform="translate(672.374 -1029.925)" fill="#2267b9"/>
                    <path id="Tracé_24018" data-name="Tracé 24018" d="M-670.827,1032.092v.072a1.507,1.507,0,0,0,.4-.243v-.072A1.475,1.475,0,0,1-670.827,1032.092Z" transform="translate(673.231 -1031.06)" fill="#2267b9"/>
                    <path id="Tracé_24019" data-name="Tracé 24019" d="M-677.515,1033.525v.072l2.123-.909v-.072Z" transform="translate(677.797 -1031.584)" fill="#2267b9"/>
                    <path id="Tracé_24020" data-name="Tracé 24020" d="M-678.4,1034.967v.072l.281.162v-.072Z" transform="translate(678.401 -1033.189)" fill="#2267b9"/>
                    <path id="Tracé_24021" data-name="Tracé 24021" d="M-675.455,1029.615a.139.139,0,0,1-.081-.114v-.137h0l-.884.314a1.6,1.6,0,0,0-.42.232l-1.561,1.232.281.162,2.123-.909a1.475,1.475,0,0,0,.4-.244l.516-.527h0A.433.433,0,0,1-675.455,1029.615Z" transform="translate(678.401 -1029.365)" fill="url(#linear-gradient-18)"/>
                  </g>
                </g>
              </g>
            </g>
          </g>
        </g>
        <path id="Tracé_24023" data-name="Tracé 24023" d="M-669.558,1016.72l-3.2-1.86-.037.023,3.207,1.866Z" transform="translate(683.662 -1006.281)" fill="#292c36"/>
        <path id="Tracé_24024" data-name="Tracé 24024" d="M-659.277,1010.792l-3.211-1.866-.04.023,3.205,1.863Z" transform="translate(676.652 -1002.23)" fill="#292c36"/>
        <g id="Groupe_1783" data-name="Groupe 1783" transform="translate(12.131 14.762)">
          <path id="Tracé_24025" data-name="Tracé 24025" d="M-668.8,1034.422a.091.091,0,0,1,.1-.079.09.09,0,0,1,.1.08l-.005,1.727a.09.09,0,0,0-.1-.08.09.09,0,0,0-.1.079Z" transform="translate(668.809 -1034.343)" fill="#4e5463"/>
          <path id="Tracé_24026" data-name="Tracé 24026" d="M-668.711,1039.785a.09.09,0,0,1,.1.08.09.09,0,0,1-.1.08.09.09,0,0,1-.1-.08A.09.09,0,0,1-668.711,1039.785Z" transform="translate(668.809 -1038.058)" fill="#4e5463"/>
        </g>
        <g id="Groupe_1784" data-name="Groupe 1784" transform="translate(22.998 5.3)">
          <path id="Tracé_24027" data-name="Tracé 24027" d="M-634.568,1004.608a.091.091,0,0,1,.1-.079.09.09,0,0,1,.1.08l-.006,1.728a.09.09,0,0,0-.1-.081.09.09,0,0,0-.1.08Z" transform="translate(634.573 -1004.529)" fill="#4e5463"/>
          <path id="Tracé_24028" data-name="Tracé 24028" d="M-634.475,1009.97a.09.09,0,0,1,.1.081.091.091,0,0,1-.1.079.091.091,0,0,1-.1-.08A.09.09,0,0,1-634.475,1009.97Z" transform="translate(634.573 -1008.243)" fill="#4e5463"/>
        </g>
        <g id="Groupe_1785" data-name="Groupe 1785" transform="translate(4.955 7.369)">
          <path id="Tracé_24029" data-name="Tracé 24029" d="M-691.415,1011.128a.09.09,0,0,1,.1-.079.09.09,0,0,1,.1.08l-.005,2.075a.09.09,0,0,0-.1-.08.091.091,0,0,0-.1.079Z" transform="translate(691.42 -1011.049)" fill="#4e5463"/>
          <path id="Tracé_24030" data-name="Tracé 24030" d="M-691.322,1017.587a.09.09,0,0,1,.1.08.09.09,0,0,1-.1.08.091.091,0,0,1-.1-.08A.091.091,0,0,1-691.322,1017.587Z" transform="translate(691.42 -1015.512)" fill="#4e5463"/>
        </g>
        <g id="Groupe_1795" data-name="Groupe 1795" transform="translate(1.74 6.803)">
          <g id="Groupe_1787" data-name="Groupe 1787" transform="translate(2.714 2.246)">
            <path id="Tracé_24031" data-name="Tracé 24031" d="M-693,1017.472a.1.1,0,0,0,0,.017.106.106,0,0,0,0,.016l.008.017.006.015.011.019.009.013.015.02.009.011a.266.266,0,0,0,.02.019l.01.01.026.021.01.007a.283.283,0,0,0,.041.027.934.934,0,0,0,.85,0,.3.3,0,0,0,.042-.027l.013-.01.022-.017.012-.012a.122.122,0,0,0,.019-.018l.01-.013.015-.017a.143.143,0,0,1,.009-.015l.01-.017.006-.014c0-.006.005-.013.007-.019a.08.08,0,0,0,0-.014l.005-.018c0-.005,0-.01,0-.016s0-.012,0-.018h0l0,1.01a.3.3,0,0,1-.177.248.939.939,0,0,1-.85,0,.3.3,0,0,1-.176-.245l0-1.01a.146.146,0,0,0,0,.017A.055.055,0,0,0-693,1017.472Z" transform="translate(692.998 -1017.089)" fill="url(#linear-gradient-19)"/>
            <g id="Groupe_1786" data-name="Groupe 1786" transform="translate(0)">
              <path id="Tracé_24032" data-name="Tracé 24032" d="M-692.7,1016.578a.818.818,0,0,1,.4-.1.813.813,0,0,1,.4.1.257.257,0,0,1,.153.207.03.03,0,0,1,0,.009v.017a.035.035,0,0,1,0,.009v.006l0,.006a.018.018,0,0,1,0,.006.088.088,0,0,1,0,.01l0,0,0,.007a.011.011,0,0,1,0,.005.037.037,0,0,1-.005.01l0,.005,0,.006,0,.006-.008.01,0,0,0,.006-.005.006-.011.011,0,0-.006.005-.005.006-.015.012-.005,0-.006.005-.005.005-.038.024a.818.818,0,0,1-.4.1.814.814,0,0,1-.4-.1.348.348,0,0,1-.038-.024l-.008-.007-.024-.019,0,0-.005-.005,0,0-.014-.014,0,0,0-.006,0,0-.01-.013,0-.005,0-.006,0-.005a.037.037,0,0,1-.006-.01l0-.005,0-.007,0-.005,0-.008v-.006l0-.007,0-.005,0-.009v-.012A.252.252,0,0,1-692.7,1016.578Z" transform="translate(692.902 -1016.438)" fill="#373c48"/>
              <path id="Tracé_24033" data-name="Tracé 24033" d="M-693,1016.711a.055.055,0,0,0,0,.016.1.1,0,0,0,0,.017.1.1,0,0,0,0,.016c0,.006,0,.011.008.017l.006.015.011.019.009.013.015.02.009.011.02.019.01.01.026.021.01.007a.278.278,0,0,0,.041.027.858.858,0,0,0,.425.1.865.865,0,0,0,.425-.1.291.291,0,0,0,.042-.027l.013-.01.022-.017.012-.012a.125.125,0,0,0,.019-.018l.01-.013.015-.017a.149.149,0,0,1,.009-.015l.01-.017.006-.014c0-.006.005-.013.007-.019a.075.075,0,0,0,0-.014l.005-.018c0-.005,0-.01,0-.016s0-.012,0-.018a.3.3,0,0,0-.175-.245.873.873,0,0,0-.426-.1.874.874,0,0,0-.426.1A.29.29,0,0,0-693,1016.711Zm.044,0a.252.252,0,0,1,.154-.223.818.818,0,0,1,.4-.1.813.813,0,0,1,.4.1.257.257,0,0,1,.153.207.028.028,0,0,1,0,.009v.017a.035.035,0,0,1,0,.009v.006l0,.006a.017.017,0,0,1,0,.006.089.089,0,0,1,0,.01l0,0,0,.007a.011.011,0,0,1,0,.005.038.038,0,0,1-.005.01l0,.005,0,.006,0,.006-.008.01,0,0,0,.006-.005.006-.011.011,0,0-.006.005-.005.006-.015.012-.005,0-.006.005-.005.005-.038.024a.819.819,0,0,1-.4.1.814.814,0,0,1-.4-.1.353.353,0,0,1-.038-.024l-.008-.007-.024-.019,0,0-.005-.005,0,0-.014-.014,0,0,0-.006,0,0-.01-.013,0-.005,0-.006,0-.005a.038.038,0,0,1-.006-.01l0-.005,0-.007,0-.005,0-.008v-.006l0-.007,0-.005,0-.009v-.012Z" transform="translate(692.997 -1016.344)" fill="#6a7489"/>
            </g>
          </g>
          <g id="Groupe_1794" data-name="Groupe 1794">
            <g id="Groupe_1793" data-name="Groupe 1793" clip-path="url(#clip-path-2)">
              <g id="Groupe_1792" data-name="Groupe 1792" transform="translate(0.186 0.227)">
                <path id="Tracé_24034" data-name="Tracé 24034" d="M-684.6,1010.938l1.065-.743v-.072l-1.065.743Z" transform="translate(689.793 -1010.078)" fill="#2267b9"/>
                <g id="Groupe_1791" data-name="Groupe 1791">
                  <path id="Tracé_24035" data-name="Tracé 24035" d="M-690.372,1013.419v.071a8.538,8.538,0,0,0,1.832-.953v-.072A8.565,8.565,0,0,1-690.372,1013.419Z" transform="translate(693.734 -1011.677)" fill="#2267b9"/>
                  <path id="Tracé_24036" data-name="Tracé 24036" d="M-690.679,1011.724a8.565,8.565,0,0,0,1.833-.954l1.065-.743-.077-.045-1.279.62a7.283,7.283,0,0,0-1.64,1.064l-.043.038.077.045Z" transform="translate(694.041 -1009.982)" fill="url(#linear-gradient-20)"/>
                  <g id="Groupe_1789" data-name="Groupe 1789" transform="translate(2.862 1.451)">
                    <g id="Groupe_1788" data-name="Groupe 1788">
                      <path id="Tracé_24037" data-name="Tracé 24037" d="M-691.393,1015.072l0,.008,0,.007,0,.008a.016.016,0,0,1,0,.007l0,.009,0,.006-.007.009,0,.005-.009.01-.005,0-.011.01,0,0-.019.012a.431.431,0,0,1-.389,0l-.019-.012-.006-.005-.01-.008-.005-.005-.009-.008,0-.006-.007-.009,0-.007,0-.008a.027.027,0,0,1,0-.007.023.023,0,0,1,0-.009l0-.007,0-.008v-.007s0-.006,0-.009h0l0,1.073a.138.138,0,0,0,.081.114.427.427,0,0,0,.39,0,.135.135,0,0,0,.08-.112l0-1.072s0,0,0,.008A.046.046,0,0,0-691.393,1015.072Z" transform="translate(691.945 -1014.896)" fill="url(#linear-gradient-21)"/>
                      <path id="Tracé_24038" data-name="Tracé 24038" d="M-691.939,1014.723v.007l0,.008,0,.007a.023.023,0,0,0,0,.009.027.027,0,0,0,0,.007l0,.008,0,.007.007.009,0,.006.009.008.005.005.01.008.006.005.019.012a.431.431,0,0,0,.389,0l.019-.012,0,0,.011-.01.005,0,.009-.01,0-.005.007-.009,0-.006,0-.009a.016.016,0,0,0,0-.007l0-.008,0-.007,0-.008a.046.046,0,0,1,0-.007.134.134,0,0,0-.081-.122.428.428,0,0,0-.39,0,.138.138,0,0,0-.08.113S-691.939,1014.719-691.939,1014.723Z" transform="translate(691.942 -1014.554)" fill="#6a7489"/>
                    </g>
                    <path id="Tracé_24039" data-name="Tracé 24039" d="M-691.845,1014.778v.005l0,.007v.005l0,.007a.02.02,0,0,0,0,.006l0,.007,0,.005.006.007,0,.005.008.007.005,0a.03.03,0,0,0,.009.007l.005,0,.017.01a.4.4,0,0,0,.347,0l.017-.01,0,0,.01-.009,0,0,.008-.007,0,0,.007-.007,0-.005,0-.007,0-.006,0-.007a.019.019,0,0,0,0-.006.017.017,0,0,0,0-.007v-.006c0-.036-.02-.073-.072-.1a.408.408,0,0,0-.347,0,.115.115,0,0,0-.071.094Z" transform="translate(691.877 -1014.611)" fill="#373c48"/>
                    <path id="Tracé_24040" data-name="Tracé 24040" d="M-691.413,1014.936v.013l0,0,0,0,0,0,0,0,0,0,0,0,0,0,0,0,.008,0a.177.177,0,0,0,.154,0l.008,0,0,0,0,0h0l0,0,0,0,0,0,0,0,0,0v-.013c0-.017-.009-.033-.032-.045a.183.183,0,0,0-.154,0,.05.05,0,0,0-.031.042Z" transform="translate(691.582 -1014.772)" fill="#292c36"/>
                  </g>
                  <g id="Groupe_1790" data-name="Groupe 1790" transform="translate(0 1.713)">
                    <path id="Tracé_24041" data-name="Tracé 24041" d="M-692.132,1016.729v.072l.516-.527v-.072Z" transform="translate(694.935 -1015.941)" fill="#2267b9"/>
                    <path id="Tracé_24042" data-name="Tracé 24042" d="M-693.389,1018.107v.072a1.517,1.517,0,0,0,.4-.244v-.072A1.489,1.489,0,0,1-693.389,1018.107Z" transform="translate(695.793 -1017.075)" fill="#2267b9"/>
                    <path id="Tracé_24043" data-name="Tracé 24043" d="M-700.077,1019.54v.073l2.123-.909v-.072Z" transform="translate(700.359 -1017.6)" fill="#2267b9"/>
                    <path id="Tracé_24044" data-name="Tracé 24044" d="M-700.963,1020.981v.072l.281.162v-.073Z" transform="translate(700.964 -1019.203)" fill="#2267b9"/>
                    <path id="Tracé_24045" data-name="Tracé 24045" d="M-698.016,1015.63a.139.139,0,0,1-.082-.114v-.137h0l-.883.314a1.608,1.608,0,0,0-.42.231l-1.561,1.233.281.162,2.123-.908a1.488,1.488,0,0,0,.4-.244l.516-.527h0A.438.438,0,0,1-698.016,1015.63Z" transform="translate(700.963 -1015.379)" fill="url(#linear-gradient-22)"/>
                  </g>
                </g>
              </g>
            </g>
          </g>
        </g>
        <g id="Groupe_1796" data-name="Groupe 1796" transform="translate(4.955 10.3)">
          <path id="Tracé_24047" data-name="Tracé 24047" d="M-691.415,1020.362a.09.09,0,0,1,.1-.08.09.09,0,0,1,.1.08l-.005,2.075a.09.09,0,0,0-.1-.08.09.09,0,0,0-.1.079Z" transform="translate(691.42 -1020.282)" fill="#4e5463"/>
          <path id="Tracé_24048" data-name="Tracé 24048" d="M-691.322,1026.82a.09.09,0,0,1,.1.08.09.09,0,0,1-.1.08.09.09,0,0,1-.1-.08A.09.09,0,0,1-691.322,1026.82Z" transform="translate(691.42 -1024.745)" fill="#4e5463"/>
        </g>
        <g id="Groupe_1806" data-name="Groupe 1806" transform="translate(19.782 4.836)">
          <g id="Groupe_1798" data-name="Groupe 1798" transform="translate(2.714 2.245)">
            <path id="Tracé_24049" data-name="Tracé 24049" d="M-636.15,1011.272a.111.111,0,0,0,0,.018c0,.005,0,.01,0,.015s0,.012.007.018,0,.01.007.015a.139.139,0,0,0,.011.018l.008.014.016.019.01.012.019.019.011.01a.25.25,0,0,0,.026.021l.009.008.041.026a.935.935,0,0,0,.851,0l.041-.026.014-.01c.008-.005.016-.013.023-.019l.012-.011.018-.017.011-.014a.119.119,0,0,0,.014-.017.1.1,0,0,0,.009-.014.151.151,0,0,0,.011-.018.094.094,0,0,0,.006-.014l.008-.018a.113.113,0,0,0,0-.015.118.118,0,0,0,0-.019.075.075,0,0,0,0-.015c0-.006,0-.012,0-.018h0l0,1.009a.3.3,0,0,1-.178.248.935.935,0,0,1-.85,0,.3.3,0,0,1-.175-.244l0-1.01a.13.13,0,0,0,0,.016C-636.151,1011.262-636.151,1011.267-636.15,1011.272Z" transform="translate(636.153 -1010.89)" fill="url(#linear-gradient-23)"/>
            <g id="Groupe_1797" data-name="Groupe 1797" transform="translate(0.001)">
              <path id="Tracé_24050" data-name="Tracé 24050" d="M-635.856,1010.379a.82.82,0,0,1,.4-.1.82.82,0,0,1,.4.1.257.257,0,0,1,.152.207s0,.005,0,.009v.018l0,.009,0,.006v.011l0,.01,0,.005,0,.007,0,.005-.006.01,0,.005,0,.006,0,.006-.008.01,0,.006,0,.006,0,.005-.012.011,0,0-.005.006-.005,0-.016.013-.005,0-.007,0-.005,0-.038.024a.824.824,0,0,1-.4.1.818.818,0,0,1-.4-.1l-.037-.024-.009-.006-.023-.019,0,0-.005,0,0,0-.015-.014,0,0,0-.006,0,0-.01-.013,0,0,0-.006,0-.006-.006-.01a.014.014,0,0,1,0-.006l0-.006,0-.005,0-.009,0-.005,0-.007v-.006a.038.038,0,0,1,0-.008.023.023,0,0,1,0-.006v-.006A.251.251,0,0,1-635.856,1010.379Z" transform="translate(636.055 -1010.238)" fill="#373c48"/>
              <path id="Tracé_24051" data-name="Tracé 24051" d="M-636.15,1010.509c0,.005,0,.011,0,.016a.111.111,0,0,0,0,.018c0,.005,0,.01,0,.015s0,.012.007.018,0,.01.007.015a.14.14,0,0,0,.011.018l.008.014.016.019.01.012.019.019.011.01a.257.257,0,0,0,.026.021l.009.008.041.026a.861.861,0,0,0,.425.1.869.869,0,0,0,.426-.1l.041-.026.014-.01c.008-.005.016-.013.023-.019l.012-.011.018-.017.011-.014a.115.115,0,0,0,.014-.017.093.093,0,0,0,.009-.014.144.144,0,0,0,.011-.018.108.108,0,0,0,.006-.014l.008-.018a.138.138,0,0,0,0-.015.118.118,0,0,0,0-.019.071.071,0,0,0,0-.015c0-.006,0-.012,0-.018a.3.3,0,0,0-.175-.245.863.863,0,0,0-.426-.1.872.872,0,0,0-.425.1A.29.29,0,0,0-636.15,1010.509Zm.044,0a.251.251,0,0,1,.154-.223.82.82,0,0,1,.4-.1.82.82,0,0,1,.4.1.257.257,0,0,1,.152.207s0,.005,0,.009v.018l0,.009,0,.006v.011l0,.01,0,.005,0,.007,0,.005-.006.01,0,.005,0,.006,0,.006-.008.01,0,.006,0,.006,0,.005-.012.011,0,0-.005.006-.005,0-.016.013-.005,0-.007,0-.005,0-.038.024a.824.824,0,0,1-.4.1.818.818,0,0,1-.4-.1l-.037-.024-.009-.006-.023-.019,0,0-.005,0,0,0-.015-.014,0,0,0-.006,0,0-.01-.013,0,0,0-.006,0-.006-.006-.01a.014.014,0,0,1,0-.006l0-.006,0-.005,0-.009,0-.005,0-.007v-.006a.038.038,0,0,1,0-.008.023.023,0,0,1,0-.006Z" transform="translate(636.15 -1010.142)" fill="#6a7489"/>
            </g>
          </g>
          <g id="Groupe_1805" data-name="Groupe 1805">
            <g id="Groupe_1804" data-name="Groupe 1804" clip-path="url(#clip-path-3)">
              <g id="Groupe_1803" data-name="Groupe 1803" transform="translate(0.186 0.227)">
                <path id="Tracé_24052" data-name="Tracé 24052" d="M-627.752,1004.739l1.065-.743v-.072l-1.065.743Z" transform="translate(632.946 -1003.879)" fill="#2267b9"/>
                <g id="Groupe_1802" data-name="Groupe 1802">
                  <path id="Tracé_24053" data-name="Tracé 24053" d="M-633.526,1007.219v.072a8.582,8.582,0,0,0,1.833-.954v-.072A8.52,8.52,0,0,1-633.526,1007.219Z" transform="translate(636.887 -1005.477)" fill="#2267b9"/>
                  <path id="Tracé_24054" data-name="Tracé 24054" d="M-633.833,1005.524a8.519,8.519,0,0,0,1.832-.953l1.065-.743-.078-.045-1.279.619a7.263,7.263,0,0,0-1.641,1.064l-.043.038.078.044Z" transform="translate(637.195 -1003.783)" fill="url(#linear-gradient-24)"/>
                  <g id="Groupe_1800" data-name="Groupe 1800" transform="translate(2.862 1.451)">
                    <g id="Groupe_1799" data-name="Groupe 1799">
                      <path id="Tracé_24055" data-name="Tracé 24055" d="M-634.547,1008.872a.016.016,0,0,1,0,.008.026.026,0,0,1,0,.008l0,.008,0,.007-.005.009,0,.006-.007.009,0,.006-.01.009s0,0,0,0l-.012.01,0,0-.019.012a.43.43,0,0,1-.39,0l-.018-.012-.006,0a.042.042,0,0,1-.01-.009l-.006-.005-.008-.008-.005-.006a.064.064,0,0,1-.006-.008l0-.006,0-.008,0-.007a.049.049,0,0,0,0-.009.026.026,0,0,1,0-.007.018.018,0,0,1,0-.008.065.065,0,0,1,0-.007v-.008h0l0,1.073a.138.138,0,0,0,.081.114.43.43,0,0,0,.389,0,.137.137,0,0,0,.081-.112v-1.073a.035.035,0,0,1,0,.008A.027.027,0,0,1-634.547,1008.872Z" transform="translate(635.099 -1008.697)" fill="url(#linear-gradient-25)"/>
                      <path id="Tracé_24056" data-name="Tracé 24056" d="M-635.092,1008.523a.065.065,0,0,0,0,.007.018.018,0,0,0,0,.008.023.023,0,0,0,0,.007.061.061,0,0,1,0,.009l0,.007,0,.008,0,.006a.064.064,0,0,0,.006.008l.005.006.008.008.006.005a.04.04,0,0,0,.01.009l.006,0,.018.012a.43.43,0,0,0,.39,0l.019-.012,0,0,.012-.01s0,0,0,0l.01-.009,0-.006.007-.009,0-.006.005-.009,0-.007,0-.008a.026.026,0,0,0,0-.008.016.016,0,0,0,0-.008.027.027,0,0,0,0-.007.133.133,0,0,0-.08-.122.43.43,0,0,0-.39,0,.136.136,0,0,0-.08.113Z" transform="translate(635.095 -1008.355)" fill="#6a7489"/>
                    </g>
                    <path id="Tracé_24057" data-name="Tracé 24057" d="M-635,1008.577a.02.02,0,0,0,0,.006.017.017,0,0,0,0,.007.022.022,0,0,0,0,.006l0,.007,0,.006,0,.007,0,.005.006.007,0,.006.008.007.005,0,.009.007.005,0,.017.01a.409.409,0,0,0,.347,0l.017-.01,0,0,.01-.008,0,0,.009-.007,0,0,.006-.008,0,0,0-.007,0-.006a.018.018,0,0,0,0-.007l0-.005,0-.007a.034.034,0,0,0,0-.006.111.111,0,0,0-.072-.1.4.4,0,0,0-.347,0,.114.114,0,0,0-.071.094A.027.027,0,0,0-635,1008.577Z" transform="translate(635.031 -1008.411)" fill="#373c48"/>
                    <path id="Tracé_24058" data-name="Tracé 24058" d="M-634.568,1008.734v.008l0,0v0l0,0v0l0,0,0,0,0,0,0,0,0,0,0,0,.008,0a.178.178,0,0,0,.153,0l.008,0,0,0,.005,0v0l0,0v0l0,0v0l0,0v0l0,0v-.009c0-.016-.009-.032-.032-.045a.18.18,0,0,0-.153,0,.052.052,0,0,0-.032.042Z" transform="translate(634.737 -1008.571)" fill="#292c36"/>
                  </g>
                  <g id="Groupe_1801" data-name="Groupe 1801" transform="translate(0 1.713)">
                    <path id="Tracé_24059" data-name="Tracé 24059" d="M-635.287,1010.53v.071l.517-.527V1010Z" transform="translate(638.09 -1009.742)" fill="#2267b9"/>
                    <path id="Tracé_24060" data-name="Tracé 24060" d="M-636.543,1011.907v.071a1.463,1.463,0,0,0,.4-.244v-.071A1.467,1.467,0,0,1-636.543,1011.907Z" transform="translate(638.947 -1010.876)" fill="#2267b9"/>
                    <path id="Tracé_24061" data-name="Tracé 24061" d="M-643.231,1013.339v.072l2.123-.909v-.072Z" transform="translate(643.513 -1011.399)" fill="#2267b9"/>
                    <path id="Tracé_24062" data-name="Tracé 24062" d="M-644.116,1014.781v.072l.281.162v-.072Z" transform="translate(644.116 -1013.003)" fill="#2267b9"/>
                    <path id="Tracé_24063" data-name="Tracé 24063" d="M-641.17,1009.43a.137.137,0,0,1-.081-.113v-.136h0l-.884.314a1.612,1.612,0,0,0-.42.231l-1.561,1.232.281.162,2.123-.908a1.467,1.467,0,0,0,.4-.243l.517-.527,0,0A.43.43,0,0,1-641.17,1009.43Z" transform="translate(644.116 -1009.18)" fill="url(#linear-gradient-26)"/>
                  </g>
                </g>
              </g>
            </g>
          </g>
        </g>
        <g id="Groupe_1807" data-name="Groupe 1807" transform="translate(22.998 8.447)">
          <path id="Tracé_24065" data-name="Tracé 24065" d="M-634.568,1014.523a.09.09,0,0,1,.1-.079.091.091,0,0,1,.1.08l-.006,1.728a.09.09,0,0,0-.1-.08.09.09,0,0,0-.1.079Z" transform="translate(634.573 -1014.444)" fill="#4e5463"/>
          <path id="Tracé_24066" data-name="Tracé 24066" d="M-634.475,1019.886a.09.09,0,0,1,.1.08.09.09,0,0,1-.1.079.09.09,0,0,1-.1-.08A.09.09,0,0,1-634.475,1019.886Z" transform="translate(634.573 -1018.159)" fill="#4e5463"/>
        </g>
        <g id="Groupe_1808" data-name="Groupe 1808" transform="translate(15.852 1.137)">
          <path id="Tracé_24067" data-name="Tracé 24067" d="M-657.081,991.493a.09.09,0,0,1,.1-.079.09.09,0,0,1,.1.08l-.005,1.728a.09.09,0,0,0-.1-.08.09.09,0,0,0-.1.079Z" transform="translate(657.085 -991.414)" fill="#4e5463"/>
          <path id="Tracé_24068" data-name="Tracé 24068" d="M-656.987,996.856a.09.09,0,0,1,.1.08.091.091,0,0,1-.1.079.09.09,0,0,1-.1-.08A.09.09,0,0,1-656.987,996.856Z" transform="translate(657.085 -995.129)" fill="#4e5463"/>
        </g>
        <g id="Groupe_1820" data-name="Groupe 1820" transform="translate(12.23)">
          <g id="Groupe_1819" data-name="Groupe 1819" clip-path="url(#clip-path-4)">
            <g id="Groupe_1818" data-name="Groupe 1818" transform="translate(0.416 0.543)">
              <g id="Groupe_1810" data-name="Groupe 1810" transform="translate(2.714 2.246)">
                <path id="Tracé_24069" data-name="Tracé 24069" d="M-658.635,997.747a.156.156,0,0,0,0,.018s0,.01,0,.015,0,.012.007.018a.122.122,0,0,1,.006.014c0,.007.008.012.012.019l.008.013.016.02s.005.008.009.011l.02.02.01.01.026.021.01.007c.013.01.027.018.041.027a.939.939,0,0,0,.851,0,.359.359,0,0,0,.042-.027l.013-.011.023-.017.012-.012.018-.017.011-.014.014-.017.008-.014c0-.007.008-.012.011-.018l.006-.014c0-.007.005-.012.007-.019a.07.07,0,0,0,0-.015l0-.018s0-.01,0-.016a.165.165,0,0,0,0-.018h0l0,1.009a.3.3,0,0,1-.177.248.938.938,0,0,1-.851,0,.3.3,0,0,1-.175-.245l0-1.009c0,.005,0,.011,0,.017A.088.088,0,0,0-658.635,997.747Z" transform="translate(658.638 -997.364)" fill="url(#linear-gradient-27)"/>
                <g id="Groupe_1809" data-name="Groupe 1809" transform="translate(0.001)">
                  <path id="Tracé_24070" data-name="Tracé 24070" d="M-658.343,996.852a.822.822,0,0,1,.4-.1.821.821,0,0,1,.4.1.258.258,0,0,1,.153.207.041.041,0,0,1,0,.009v.017a.073.073,0,0,1,0,.009v.006l0,.006v.006l0,.009,0,.006,0,.006,0,.005-.006.009,0,.006,0,.005,0,.006-.007.01-.005,0,0,.006-.005.006-.011.011-.005,0-.006.005-.005.005-.015.012-.005,0-.006,0-.006,0a.282.282,0,0,1-.037.024.819.819,0,0,1-.4.1.815.815,0,0,1-.4-.1l-.038-.024-.008-.007a.22.22,0,0,1-.024-.018l0,0-.005-.005,0,0-.014-.014,0,0,0-.005,0,0-.01-.012,0-.005,0-.007,0,0a.064.064,0,0,1-.006-.011l0-.005,0-.006,0-.006,0-.009V997.1l0-.005,0-.009v-.012A.253.253,0,0,1-658.343,996.852Z" transform="translate(658.542 -996.712)" fill="#373c48"/>
                  <path id="Tracé_24071" data-name="Tracé 24071" d="M-658.635,996.985a.088.088,0,0,0,0,.016.156.156,0,0,0,0,.018s0,.01,0,.015,0,.012.007.018a.122.122,0,0,1,.006.014c0,.007.008.012.012.019l.008.013.016.02s.005.008.009.011l.02.02.01.01.026.021.01.007c.013.01.027.018.041.027a.869.869,0,0,0,.425.1.876.876,0,0,0,.426-.1.359.359,0,0,0,.042-.027l.013-.011.023-.017.012-.012.018-.017.011-.014.014-.017.008-.014c0-.007.008-.012.011-.018l.006-.014c0-.007.005-.012.007-.019a.07.07,0,0,0,0-.015l0-.018s0-.01,0-.016a.165.165,0,0,0,0-.018.3.3,0,0,0-.175-.245.867.867,0,0,0-.425-.1.877.877,0,0,0-.426.1A.291.291,0,0,0-658.635,996.985Zm.044,0a.253.253,0,0,1,.154-.223.822.822,0,0,1,.4-.1.821.821,0,0,1,.4.1.258.258,0,0,1,.153.207.038.038,0,0,1,0,.009v.017a.079.079,0,0,1,0,.009v.006l0,.006v.006l0,.009,0,.006,0,.006,0,.005-.006.009,0,.006,0,.005,0,.006-.007.01-.005,0,0,.006-.005.006-.011.011-.005,0-.006.005-.005.005-.015.012-.005,0-.006,0-.006,0a.285.285,0,0,1-.037.024.819.819,0,0,1-.4.1.815.815,0,0,1-.4-.1l-.038-.024-.008-.007a.213.213,0,0,1-.024-.018l0,0-.005-.005,0,0-.014-.014,0,0,0-.005,0,0-.009-.012,0-.005,0-.007,0,0a.055.055,0,0,1-.006-.011l0-.005,0-.006,0-.006,0-.009v-.012l0-.005,0-.009v-.012Z" transform="translate(658.636 -996.618)" fill="#6a7489"/>
                </g>
              </g>
              <g id="Groupe_1817" data-name="Groupe 1817">
                <g id="Groupe_1816" data-name="Groupe 1816" clip-path="url(#clip-path-5)">
                  <g id="Groupe_1815" data-name="Groupe 1815" transform="translate(0.186 0.228)">
                    <path id="Tracé_24072" data-name="Tracé 24072" d="M-650.239,991.213l1.065-.743V990.4l-1.064.743Z" transform="translate(655.433 -990.353)" fill="#2267b9"/>
                    <g id="Groupe_1814" data-name="Groupe 1814">
                      <path id="Tracé_24073" data-name="Tracé 24073" d="M-656.012,993.693v.071a8.563,8.563,0,0,0,1.832-.953v-.072A8.559,8.559,0,0,1-656.012,993.693Z" transform="translate(659.374 -991.952)" fill="#2267b9"/>
                      <path id="Tracé_24074" data-name="Tracé 24074" d="M-656.319,992a8.559,8.559,0,0,0,1.833-.954l1.064-.743-.078-.044-1.279.619a7.3,7.3,0,0,0-1.64,1.065l-.043.038.078.045Z" transform="translate(659.681 -990.258)" fill="url(#linear-gradient-28)"/>
                      <g id="Groupe_1812" data-name="Groupe 1812" transform="translate(2.862 1.451)">
                        <g id="Groupe_1811" data-name="Groupe 1811">
                          <path id="Tracé_24075" data-name="Tracé 24075" d="M-657.034,995.347a.078.078,0,0,1,0,.008s0,0,0,.007,0,.005,0,.008l0,.007,0,.009,0,.006a.05.05,0,0,1-.007.009l0,.005-.009.01,0,0a.06.06,0,0,1-.012.01l0,0-.019.012a.426.426,0,0,1-.39,0l-.019-.012-.006,0-.01-.008-.005-.005-.008-.008a.021.021,0,0,1-.005-.007.029.029,0,0,1-.007-.008l0-.006,0-.008,0-.007a.028.028,0,0,1,0-.008l0-.007,0-.008v-.015h0l0,1.072a.138.138,0,0,0,.082.114.428.428,0,0,0,.39,0,.137.137,0,0,0,.08-.113l0-1.072v.015Z" transform="translate(657.586 -995.171)" fill="url(#linear-gradient-29)"/>
                          <path id="Tracé_24076" data-name="Tracé 24076" d="M-657.579,995V995l0,.008,0,.007a.031.031,0,0,0,0,.008l0,.007,0,.008,0,.006a.027.027,0,0,0,.007.008.023.023,0,0,0,.005.007l.008.008.005.005.01.008.006,0,.019.012a.427.427,0,0,0,.39,0l.019-.012,0,0,.012-.01,0,0,.009-.01,0-.005a.046.046,0,0,0,.007-.009l0-.006,0-.009,0-.007s0,0,0-.008,0,0,0-.007a.071.071,0,0,0,0-.008V995a.134.134,0,0,0-.081-.121.427.427,0,0,0-.39,0,.138.138,0,0,0-.08.112Z" transform="translate(657.581 -994.828)" fill="#6a7489"/>
                        </g>
                        <path id="Tracé_24077" data-name="Tracé 24077" d="M-657.484,995.052v.006l0,.007v.006l0,.007,0,.005,0,.007,0,.006.005.006,0,.005.007.007,0,0,.01.007.005,0,.016.01a.4.4,0,0,0,.348,0,.145.145,0,0,0,.017-.01l0,0,.01-.008,0,0,.008-.008,0,0,.007-.007,0-.005,0-.007,0-.006,0-.007v-.006l0-.007v-.006c0-.036-.021-.073-.072-.1a.405.405,0,0,0-.347,0,.115.115,0,0,0-.071.094Z" transform="translate(657.516 -994.885)" fill="#373c48"/>
                        <path id="Tracé_24078" data-name="Tracé 24078" d="M-657.054,995.209v.014l0,0,0,0,0,0,0,0,0,0,0,0,0,0,0,0,.007,0a.181.181,0,0,0,.154,0l.007,0,0,0,0,0,0,0,0,0,0,0,0,0,0,0,0,0,0,0v-.011a.049.049,0,0,0-.032-.045.178.178,0,0,0-.154,0,.05.05,0,0,0-.032.042Z" transform="translate(657.223 -995.046)" fill="#292c36"/>
                      </g>
                      <g id="Groupe_1813" data-name="Groupe 1813" transform="translate(0 1.712)">
                        <path id="Tracé_24079" data-name="Tracé 24079" d="M-657.772,997v.072l.516-.528v-.071Z" transform="translate(660.575 -996.215)" fill="#2267b9"/>
                        <path id="Tracé_24080" data-name="Tracé 24080" d="M-659.028,998.381v.071a1.511,1.511,0,0,0,.4-.244v-.072A1.506,1.506,0,0,1-659.028,998.381Z" transform="translate(661.432 -997.349)" fill="#2267b9"/>
                        <path id="Tracé_24081" data-name="Tracé 24081" d="M-665.718,999.814v.071l2.123-.908v-.071Z" transform="translate(665.999 -997.874)" fill="#2267b9"/>
                        <path id="Tracé_24082" data-name="Tracé 24082" d="M-666.6,1001.256v.071l.281.162v-.071Z" transform="translate(666.603 -999.478)" fill="#2267b9"/>
                        <path id="Tracé_24083" data-name="Tracé 24083" d="M-663.656,995.9a.139.139,0,0,1-.082-.114v-.136h0l-.883.314a1.6,1.6,0,0,0-.42.231l-1.561,1.233.281.162,2.123-.908a1.5,1.5,0,0,0,.4-.244l.516-.527,0,0A.432.432,0,0,1-663.656,995.9Z" transform="translate(666.602 -995.653)" fill="url(#linear-gradient-30)"/>
                      </g>
                    </g>
                  </g>
                </g>
              </g>
            </g>
          </g>
        </g>
        <g id="Groupe_1823" data-name="Groupe 1823" transform="translate(15.606 8.427)">
          <g id="Groupe_1822" data-name="Groupe 1822" clip-path="url(#clip-path-6)">
            <g id="Groupe_1821" data-name="Groupe 1821" transform="translate(0.796 0.535)">
              <path id="Tracé_24086" data-name="Tracé 24086" d="M-653.426,1020.224l.007,2.344a.377.377,0,0,0,.008.077.149.149,0,0,0,.008.023.278.278,0,0,0,.013.041c0,.007.009.013.013.02a.237.237,0,0,0,.019.03l.019.015a.1.1,0,0,0,.023.019l-1.927-1.12a.246.246,0,0,1-.1-.224l-.006-2.344Z" transform="translate(655.353 -1018.141)" fill="url(#linear-gradient-31)"/>
              <path id="Tracé_24087" data-name="Tracé 24087" d="M-655,1016.428l.539-.311a.247.247,0,0,1,.249-.024l1.927,1.119h0a.167.167,0,0,0-.03-.01.2.2,0,0,0-.023-.009.317.317,0,0,0-.035,0h-.024a.3.3,0,0,0-.044.009l-.021,0a.4.4,0,0,0-.071.033l-.54.311a.767.767,0,0,0-.349.6l-1.927-1.12A.767.767,0,0,1-655,1016.428Z" transform="translate(655.353 -1016.068)" fill="url(#linear-gradient-32)"/>
              <path id="Tracé_24088" data-name="Tracé 24088" d="M-649.216,1023.1a.246.246,0,0,1-.019-.03c0-.007-.01-.013-.013-.02a.282.282,0,0,1-.013-.041.154.154,0,0,1-.008-.023.377.377,0,0,1-.008-.077l-.007-2.344a.767.767,0,0,1,.349-.6l.54-.311a.4.4,0,0,1,.071-.033l.021,0a.3.3,0,0,1,.044-.009h.024a.3.3,0,0,1,.035,0,.183.183,0,0,1,.023.009.166.166,0,0,1,.03.01.244.244,0,0,1,.1.225l.006,2.344a.768.768,0,0,1-.349.6l-.539.312a.229.229,0,0,1-.272.005Z" transform="translate(651.21 -1018.479)" fill="url(#linear-gradient-33)"/>
            </g>
          </g>
        </g>
        <g id="Groupe_1825" data-name="Groupe 1825" transform="translate(18.539 10.467)">
          <path id="Tracé_24090" data-name="Tracé 24090" d="M-646.941,1020.863c-.014,0-.03,0-.044,0s-.019,0-.03,0a.483.483,0,0,0-.054.012.224.224,0,0,0-.027.006.508.508,0,0,0-.087.04l-.085-.049a.306.306,0,0,1,.307-.031l.085.05h0a.216.216,0,0,0-.037-.014C-646.924,1020.87-646.931,1020.865-646.941,1020.863Z" transform="translate(647.697 -1020.809)" fill="#4e5463"/>
          <path id="Tracé_24091" data-name="Tracé 24091" d="M-648.192,1021l.085.049a.949.949,0,0,0-.43.745.493.493,0,0,0,.009.095c0,.01.006.017.008.025a.34.34,0,0,0,.017.053.227.227,0,0,0,.016.026.26.26,0,0,0,.023.036.152.152,0,0,0,.023.019.247.247,0,0,0,.028.024l-.084-.05a.3.3,0,0,1-.126-.276A.945.945,0,0,1-648.192,1021Z" transform="translate(648.621 -1020.937)" fill="#4e5463"/>
          <g id="Groupe_1824" data-name="Groupe 1824" transform="translate(0.084 0.05)">
            <path id="Tracé_24092" data-name="Tracé 24092" d="M-647.544,1021.46a.352.352,0,0,1,.056-.027l.022,0,.009,0,.017,0,.019,0h.016l.011,0,.014,0h0a.183.183,0,0,1,.052.151.8.8,0,0,1-.359.62.24.24,0,0,1-.118.039.074.074,0,0,1-.053-.018l-.01-.007h0l-.007-.012-.01-.016a.13.13,0,0,1-.005-.016l0-.009c0-.007,0-.013-.007-.021a.361.361,0,0,1-.005-.061A.8.8,0,0,1-647.544,1021.46Z" transform="translate(648.046 -1021.277)" fill="#15161b"/>
            <path id="Tracé_24093" data-name="Tracé 24093" d="M-648.355,1021.771a.488.488,0,0,0,.009.095c0,.01.006.017.008.025a.34.34,0,0,0,.017.053.218.218,0,0,0,.016.026.254.254,0,0,0,.023.036.148.148,0,0,0,.023.019.216.216,0,0,0,.145.052.388.388,0,0,0,.19-.058.948.948,0,0,0,.43-.745.3.3,0,0,0-.127-.277.214.214,0,0,0-.037-.014c-.01,0-.017-.008-.027-.01s-.03,0-.044,0h-.03a.452.452,0,0,0-.054.012.208.208,0,0,0-.027.006.515.515,0,0,0-.087.04A.949.949,0,0,0-648.355,1021.771Zm.144,0a.8.8,0,0,1,.358-.62.353.353,0,0,1,.057-.027l.022,0,.009,0,.017,0,.019,0h.016l.011,0,.014,0h0a.183.183,0,0,1,.052.151.8.8,0,0,1-.359.62.24.24,0,0,1-.118.039.074.074,0,0,1-.053-.018l-.01-.007h0l-.007-.012-.01-.016a.13.13,0,0,1-.005-.016l0-.009c0-.007,0-.013-.007-.021A.361.361,0,0,1-648.211,1021.77Z" transform="translate(648.355 -1020.968)" fill="#292c36"/>
          </g>
        </g>
        <g id="Groupe_1827" data-name="Groupe 1827" transform="translate(18.539 11.937)">
          <path id="Tracé_24094" data-name="Tracé 24094" d="M-646.941,1025.5a.3.3,0,0,0-.044,0c-.01,0-.019,0-.03,0a.512.512,0,0,0-.054.012.2.2,0,0,0-.027.006.445.445,0,0,0-.087.04l-.085-.05a.3.3,0,0,1,.307-.03l.085.049h0a.172.172,0,0,0-.037-.014A.2.2,0,0,0-646.941,1025.5Z" transform="translate(647.697 -1025.442)" fill="#4e5463"/>
          <path id="Tracé_24095" data-name="Tracé 24095" d="M-648.192,1025.628l.085.05a.949.949,0,0,0-.43.745.5.5,0,0,0,.009.095c0,.01.006.017.008.025a.358.358,0,0,0,.017.053.25.25,0,0,0,.016.026.269.269,0,0,0,.023.036.26.26,0,0,0,.023.019.254.254,0,0,0,.028.023l-.084-.049a.3.3,0,0,1-.126-.276A.947.947,0,0,1-648.192,1025.628Z" transform="translate(648.621 -1025.569)" fill="#4e5463"/>
          <g id="Groupe_1826" data-name="Groupe 1826" transform="translate(0.084 0.05)">
            <path id="Tracé_24096" data-name="Tracé 24096" d="M-647.544,1026.093a.328.328,0,0,1,.056-.027l.022-.005.009,0,.017-.005.019,0h.016l.011,0,.014,0h0a.183.183,0,0,1,.052.151.8.8,0,0,1-.359.619.236.236,0,0,1-.118.039.076.076,0,0,1-.053-.018l-.01-.007h0l-.007-.013-.01-.015a.115.115,0,0,1-.005-.017l0-.009-.007-.021a.368.368,0,0,1-.005-.061A.8.8,0,0,1-647.544,1026.093Z" transform="translate(648.046 -1025.91)" fill="url(#linear-gradient-34)"/>
            <path id="Tracé_24097" data-name="Tracé 24097" d="M-648.355,1026.4a.5.5,0,0,0,.009.095c0,.009.006.017.008.025a.366.366,0,0,0,.017.053.254.254,0,0,0,.016.026.269.269,0,0,0,.023.036.25.25,0,0,0,.023.019.222.222,0,0,0,.145.051.387.387,0,0,0,.19-.057.948.948,0,0,0,.43-.745.3.3,0,0,0-.127-.277.177.177,0,0,0-.037-.014.167.167,0,0,0-.027-.01.3.3,0,0,0-.044,0l-.024,0h-.006c-.017,0-.036.008-.054.012a.2.2,0,0,0-.027.006.44.44,0,0,0-.087.04A.949.949,0,0,0-648.355,1026.4Zm.144,0a.8.8,0,0,1,.358-.62.321.321,0,0,1,.057-.027l.022-.005.009,0,.017-.005h.034l.011,0,.014,0h0a.183.183,0,0,1,.052.151.8.8,0,0,1-.359.619.236.236,0,0,1-.118.039.077.077,0,0,1-.053-.018l-.01-.007h0l-.007-.013-.01-.015a.114.114,0,0,1-.005-.017l0-.009c0-.007,0-.014-.007-.021A.365.365,0,0,1-648.211,1026.4Z" transform="translate(648.355 -1025.6)" fill="#292c36"/>
          </g>
        </g>
        <g id="Groupe_1830" data-name="Groupe 1830" transform="translate(16.576 11.536)">
          <g id="Groupe_1829" data-name="Groupe 1829" clip-path="url(#clip-path-7)">
            <g id="Groupe_1828" data-name="Groupe 1828" transform="translate(-0.327 0.296)">
              <path id="Tracé_24098" data-name="Tracé 24098" d="M-654.6,1025.133a.121.121,0,0,0-.124-.012l-.949.53h0l.015-.006.011,0h.029l.022,0,.011,0a.217.217,0,0,1,.035.016.388.388,0,0,1,.175.3.184.184,0,0,1,0,.038l0,.01a.169.169,0,0,1-.007.022.047.047,0,0,1-.007.01.056.056,0,0,1-.01.015.038.038,0,0,1-.009.008l-.012.01.949-.53a.123.123,0,0,0,.051-.112A.386.386,0,0,0-654.6,1025.133Z" transform="translate(655.726 -1025.109)" fill="url(#linear-gradient-35)"/>
              <path id="Tracé_24099" data-name="Tracé 24099" d="M-655.517,1027.2a.057.057,0,0,0,.01-.015.047.047,0,0,0,.007-.01.19.19,0,0,0,.007-.022s0-.007,0-.01a.188.188,0,0,0,0-.038.388.388,0,0,0-.175-.3.219.219,0,0,0-.035-.016l-.011,0-.022,0h-.03l-.011,0-.015.006a.122.122,0,0,0-.051.113.384.384,0,0,0,.174.3.117.117,0,0,0,.137,0A.037.037,0,0,0-655.517,1027.2Z" transform="translate(655.837 -1026.249)" fill="#373c48"/>
            </g>
          </g>
        </g>
      </g>
    </g>
  </g>
</svg>
