<svg xmlns="http://www.w3.org/2000/svg" width="15" height="15" viewBox="0 0 15 15">
  <g id="Ville-border" transform="translate(26.818 -0.809)" opacity="0.5">
    <path id="Tracé_23617" data-name="Tracé 23617" d="M-14.962,6.4a.7.7,0,0,0-.7.7v4.639a.7.7,0,0,0,.7.7.7.7,0,0,0,.7-.7V7.1A.7.7,0,0,0-14.962,6.4Z" transform="translate(-2.999 -2.002)" fill="#282828"/>
    <path id="Tracé_23618" data-name="Tracé 23618" d="M-11.25,6.4a.7.7,0,0,0-.7.7v4.639a.7.7,0,0,0,.7.7.7.7,0,0,0,.7-.7V7.1A.7.7,0,0,0-11.25,6.4Z" transform="translate(-3.996 -2.002)" fill="#282828"/>
    <path id="Tracé_23619" data-name="Tracé 23619" d="M-22.385,11.04a.7.7,0,0,0-.7.7v3.712a.7.7,0,0,0,.7.7.7.7,0,0,0,.7-.7V11.736A.7.7,0,0,0-22.385,11.04Z" transform="translate(-1.004 -3.434)" fill="#282828"/>
    <path id="Tracé_23620" data-name="Tracé 23620" d="M-11.837,3.471a2.357,2.357,0,0,0-.005-.629,2.351,2.351,0,0,0-.923-1.56A2.354,2.354,0,0,0-14.481.827h-4.105a2.368,2.368,0,0,0-.631.005,2.362,2.362,0,0,0-1.822,1.387H-22.8a1.922,1.922,0,0,0-1.912,1.914V5c-.025,0-.05,0-.073.005A2.371,2.371,0,0,0-26.8,7.647v5.5a2.357,2.357,0,0,0,.005.629,2.371,2.371,0,0,0,2.343,2.033,2.472,2.472,0,0,0,.3-.018h4.977a2.359,2.359,0,0,0,.262.015c.01,0,.021,0,.032,0h.008c.035,0,.069,0,.1-.006.062,0,.122,0,.184-.011h4.107a2.357,2.357,0,0,0,.629-.006,2.37,2.37,0,0,0,2.015-2.638Zm-11.83.663a.875.875,0,0,1,.87-.872h1.56c0,.07,0,.138.005.209V5h-2.435Zm-.522,10.612a.478.478,0,0,0-.074.005,1.325,1.325,0,0,1-1.5-1.124,1.293,1.293,0,0,1,0-.373.494.494,0,0,0,.005-.074V7.612a.485.485,0,0,0-.005-.074,1.325,1.325,0,0,1,1.124-1.5,1.3,1.3,0,0,1,.187-.013,1.3,1.3,0,0,1,.187.013.494.494,0,0,0,.074.005h2.957v7.1a2.32,2.32,0,0,0-.014.375c0,.043.006.085.009.127s0,.086.01.128.015.057.021.086a2.141,2.141,0,0,0,.058.244c.017.059.035.116.057.173a2.167,2.167,0,0,0,.093.209c.03.061.061.119.1.176.017.027.028.056.045.083Zm6.785,0V12.484a.174.174,0,0,1,.174-.174h1.392a.175.175,0,0,1,.174.174v2.262Zm3.406.005a1.309,1.309,0,0,1-.375,0,.475.475,0,0,0-.073-.005h-.174V12.484a1.22,1.22,0,0,0-1.218-1.218H-17.23a1.22,1.22,0,0,0-1.218,1.218v2.262h-.618c-.031,0-.063-.009-.094-.016a1.091,1.091,0,0,1-.118-.031,1.174,1.174,0,0,1-.133-.049c-.031-.013-.062-.028-.091-.044a1.493,1.493,0,0,1-.133-.081c-.026-.019-.052-.037-.076-.058a1.417,1.417,0,0,1-.112-.1c-.025-.026-.05-.053-.074-.082a1.187,1.187,0,0,1-.082-.109c-.023-.035-.044-.069-.064-.1s-.043-.084-.061-.128-.027-.07-.038-.1a1.412,1.412,0,0,1-.037-.15c-.006-.031-.011-.064-.015-.1a1.3,1.3,0,0,1,0-.329v-.007a.494.494,0,0,0,.005-.074V3.426a2.173,2.173,0,0,1,.062-.562.524.524,0,0,0,0-.128,1.32,1.32,0,0,1,1.055-.871,1.306,1.306,0,0,1,.188-.013,1.293,1.293,0,0,1,.186.013.494.494,0,0,0,.074.005h4.176a.485.485,0,0,0,.073-.005,1.312,1.312,0,0,1,.981.252,1.311,1.311,0,0,1,.516.871,1.309,1.309,0,0,1,0,.375.605.605,0,0,0-.005.074V13.18a.605.605,0,0,0,.005.073A1.326,1.326,0,0,1-14,14.751Z" transform="translate(0 0)" fill="#282828"/>
  </g>
</svg>
