<svg xmlns="http://www.w3.org/2000/svg" width="20" height="10.935" viewBox="0 0 20 10.935">
  <path id="Download" d="M-681.9-3127.128v-.294q0-7.783.007-15.565a.909.909,0,0,1,.749-.987.9.9,0,0,1,1.048.76,3.253,3.253,0,0,1,.015.4q0,7.687-.009,15.374v.329c.085-.077.141-.122.191-.172q1.409-1.407,2.815-2.815a.836.836,0,0,1,.891-.252.944.944,0,0,1,.667.735.822.822,0,0,1-.252.775c-.261.271-.529.534-.8.8l-3.671,3.674a.925.925,0,0,1-1.481,0q-2.189-2.192-4.379-4.383a.924.924,0,0,1-.3-.96.9.9,0,0,1,1.433-.458,2.406,2.406,0,0,1,.187.174l2.7,2.691C-682.037-3127.249-681.985-3127.206-681.9-3127.128Z" transform="translate(3143.99 -675.505) rotate(-90)" fill="#55aaa0"/>
</svg>
