<svg xmlns="http://www.w3.org/2000/svg" width="15" height="15" viewBox="0 0 15 15">
  <g id="employes_border" transform="translate(68.847 -208.539)" opacity="0.5">
    <path id="Tracé_19322" data-name="Tracé 19322" d="M-58.444,222.517c.274,0,.553.013.81.038a1.71,1.71,0,0,1,.776.292.713.713,0,0,0,.112.064,3.665,3.665,0,0,1,1.246.944,2.973,2.973,0,0,1,.68,1.451,2.337,2.337,0,0,1,.045.473c0,.016,0,.032,0,.049a.09.09,0,0,1-.088.092l-.047,0a1.176,1.176,0,0,1-.144.008h-12.67l-.053,0a.286.286,0,0,1-.141-.041,3.286,3.286,0,0,1,.027-.543,2.852,2.852,0,0,1,.622-1.419,3.512,3.512,0,0,1,.764-.706,3.573,3.573,0,0,1,1.585-.614c.143-.019.689-.036,1.124-.044a3.528,3.528,0,0,0,2.458.956,3.231,3.231,0,0,0,2.362-.988c.177-.01.355-.016.532-.016m.079-1.018a8.9,8.9,0,0,0-.926.049,2.473,2.473,0,0,1-2.046,1.063,2.408,2.408,0,0,1-2.122-1.063c-.287,0-1.376.022-1.66.062a4.263,4.263,0,0,0-1.978.824,4.476,4.476,0,0,0-.934.933,4.026,4.026,0,0,0-.78,1.923,4.765,4.765,0,0,0-.034.716.751.751,0,0,0,.232.506.958.958,0,0,0,.664.266h13.078a1.732,1.732,0,0,0,.233-.015h0a.846.846,0,0,0,.788-.9,3.528,3.528,0,0,0-.059-.665,4.124,4.124,0,0,0-.849-1.935,4.53,4.53,0,0,0-1.531-1.248,2.417,2.417,0,0,0-1.153-.467,8.873,8.873,0,0,0-.925-.049Z" transform="translate(0 -3.24)" fill="#282828"/>
    <path id="Tracé_19323" data-name="Tracé 19323" d="M-60.468,209.289h.322c0,.435,0,.871,0,1.306v.53a.771.771,0,0,0,.529.717.742.742,0,0,0,.237.038.751.751,0,0,0,.665-.4l.573-1.1a2.98,2.98,0,0,1,1.222,2.356.75.75,0,0,0,.529.7v.1h-8.156v-.1a.75.75,0,0,0,.528-.7,2.992,2.992,0,0,1,1.226-2.351l.571,1.1a.778.778,0,0,0,.682.4.75.75,0,0,0,.75-.75V209.29h.319m-4.074,3.729h0m4.074-4.479q-.254,0-.511,0h-.028a.554.554,0,0,0-.395.165.561.561,0,0,0-.136.4v2.024h-.018l-.928-1.778a3.74,3.74,0,0,0-2.284,3.365H-65a.288.288,0,0,0-.287.282c0,.326-.005.65,0,.975a.267.267,0,0,0,0,.074.279.279,0,0,0,.276.24l.039,0h9.016l.03,0h.022a.292.292,0,0,0,.269-.313v-.945a.3.3,0,0,0,0-.045.29.29,0,0,0-.289-.266h-.239a3.727,3.727,0,0,0-2.281-3.374l-.93,1.781-.016-.005v-.075c0-.645,0-1.289,0-1.934a.769.769,0,0,0-.075-.321.5.5,0,0,0-.433-.255l-.053,0q-.254,0-.51,0Z" transform="translate(-0.888)" fill="#282828"/>
    <path id="Tracé_19324" data-name="Tracé 19324" d="M-57.222,217.376a3.1,3.1,0,0,1-1.265,1.5,3.257,3.257,0,0,1-1.772.522,3.294,3.294,0,0,1-1.588-.411,3.094,3.094,0,0,1-1.462-1.613h6.087m1.181-.825H-64.49a4.079,4.079,0,0,0,2.182,3.148,4.258,4.258,0,0,0,2.05.525,4.259,4.259,0,0,0,2.31-.68,4.081,4.081,0,0,0,1.907-2.993Z" transform="translate(-1.089 -2.003)" fill="#282828"/>
  </g>
</svg>
