<svg xmlns="http://www.w3.org/2000/svg" width="15" height="15" viewBox="0 0 15 15">
  <g id="user" transform="translate(-555.272 -69.845)" opacity="0.5">
    <path id="Tracé_19385" data-name="Tracé 19385" d="M570.209,86.063a4.191,4.191,0,0,0-.882-1.982,4.513,4.513,0,0,0-1.528-1.235,2.679,2.679,0,0,0-1.274-.507,9.034,9.034,0,0,0-1.834,0l-.158.016-.093.128a2.061,2.061,0,0,1-.458.451,2.182,2.182,0,0,1-2.935-.452l-.107-.146h-.182c-.153,0-1.307.018-1.628.062a4.454,4.454,0,0,0-2.044.839,4.552,4.552,0,0,0-.962.947,4.094,4.094,0,0,0-.815,1.976,4.862,4.862,0,0,0-.034.734,1.05,1.05,0,0,0,.333.717,1.3,1.3,0,0,0,.921.346h12.414a2,2,0,0,0,.245-.014,1.158,1.158,0,0,0,.8-.4,1.115,1.115,0,0,0,.281-.8A3.553,3.553,0,0,0,570.209,86.063Zm-13.483.276a2.68,2.68,0,0,1,.536-1.293,3.17,3.17,0,0,1,.675-.661,3.013,3.013,0,0,1,1.388-.571c.093-.013.508-.03.961-.04a3.642,3.642,0,0,0,4.523.322,3.411,3.411,0,0,0,.434-.366,7.729,7.729,0,0,1,1.112.028,1.263,1.263,0,0,1,.593.236,1.1,1.1,0,0,0,.165.1,3.269,3.269,0,0,1,1.1.883,2.789,2.789,0,0,1,.588,1.342,1.977,1.977,0,0,1,.029.208H556.708C556.713,86.465,556.718,86.4,556.726,86.339Z" transform="translate(0 -3.112)" fill="#282828"/>
    <path id="Tracé_19386" data-name="Tracé 19386" d="M563.811,78.489a4.322,4.322,0,1,0-4.384-4.322A4.358,4.358,0,0,0,563.811,78.489Zm0-1.429a2.894,2.894,0,1,1,2.956-2.894A2.929,2.929,0,0,1,563.811,77.06Z" transform="translate(-1.039)" fill="#282828"/>
  </g>
</svg>
