<svg xmlns="http://www.w3.org/2000/svg" width="2103.232" height="1696.526" viewBox="0 0 2103.232 1696.526">
  <g id="Infinite" transform="translate(26974.941 14063.828) rotate(-20)" style="mix-blend-mode: color-burn;isolation: isolate">
    <path id="Tracé_23925" data-name="Tracé 23925" d="M1990.668,162.956q-27.112,63.466-55.967,126.1c-38.426,82.494-82.612,162.586-140.67,229.74l-21.737,24.977c-7.547,7.985-15.591,15.421-23.324,23.153L1737.293,578.4l-12.566,10.365-12.507,10.357a125.063,125.063,0,0,1-12.789,9.9,406.9,406.9,0,0,1-112.157,59.415A420.411,420.411,0,0,1,1463.5,690.3l-15.969-.03c-5.16-.052-11.239.163-14.568-.46l-5.887-.526-6.583-1.275a124.393,124.393,0,0,1-13.627-3.173c-18.705-5.123-38.493-12.707-57.984-21.441-19.535-8.763-39.011-18.72-58.065-29.344-9.386-5.294-19.157-10.928-27.631-16.288l-1.357-.867-5.338-4.389-13.411-11.017-107.716-87.684q-60.163-49.154-120.794-97.826,36.487-30.293,72.923-60.623l52.957-44.557c8.763-7.54,17.771-14.59,26.341-22.538l25.519-23.517c33.7-30.56,68.341-59.756,105.618-84.184,37.217-24.369,78.408-42.541,122.907-47.612,44.461-5.479,90.812-.03,134.457,14.88-41.229-20.929-88-31.761-135.54-31.768a266.752,266.752,0,0,0-70.862,10.691c-23.1,6.635-45.269,16.058-66.465,26.927-42.563,21.686-80.8,49.495-117.91,77.712-9.408,7.125-18.253,14.131-27.187,21.144s-18.676,13.4-27.98,20.136l-56.4,39.9q-44.227,31.538-88.277,63.233-22.8-18.338-45.58-36.7L701.653,165.543l-13.627-10.8-6.828-5.39-3.611-2.825-3.662-2.536L671.7,142.5c-11.388-7.466-22.234-13.931-33.548-20.136A508.887,508.887,0,0,0,567.588,90.13c-24.725-8.986-50.852-16.177-78.869-19.839a205.353,205.353,0,0,0-21.352-1.972c-7.228-.3-14.694-.816-21.3-.282l-20.418.979c-3.4.215-6.806.282-10.194.638l-10.127,1.505A357.254,357.254,0,0,0,142.8,246.836l-5.212,8.778c-1.638,2.98-3,6.109-4.508,9.164l-8.741,18.461c-3.136,6.05-4.952,12.67-7.421,19.009l-6.813,19.246-5.027,19.788c-1.49,6.628-3.633,13.13-4.382,19.9l-2.973,20.166L96.32,391.428l-.5,10.157a357.706,357.706,0,0,0,25.726,159.079C162.5,661.04,251.232,739.9,355.256,767.34c13.056,3.025,25.941,6.88,39.286,8.214l19.869,2.7c6.628.786,13.315.7,19.973,1.045,6.7.2,13.226.556,20.054.556,7.169-.393,14.368-.786,21.478-1.349l20.648-3.047,19.817-4.471c25.926-6.739,49.977-16.1,72.878-26.816a562.506,562.506,0,0,0,65.568-36.409c5.271-3.381,10.461-6.843,15.747-10.52L674.6,694.4c.816-.571,4.211-3.01,4.745-3.529l6.747-5.442L713,663.553l53.758-43.794L874.069,532q29.27-24.01,58.421-48.146,68.916,52.79,138.157,105.247l109.621,83.013,13.76,10.32,6.873,5.167,1.72,1.29,2.506,1.987q2,1.535,4.1,2.951c1.75,1.164,2.647,1.676,2.647,1.676l1.119.652,2.239,1.3c11.3,6.457,21.752,11.862,32.673,17.415,21.678,10.884,43.712,21,66.628,30.108,22.975,9.037,46.6,17.319,72.722,22.9a198.949,198.949,0,0,0,20.24,3.544l10.491,1.335,11.358.482c8.162.474,13.612-.141,19.958-.386l18.572-.979c49.6-4.011,99.375-14.976,145.667-34.267,23.258-9.342,45.388-21.152,66.651-33.948,10.357-6.85,20.825-13.523,30.982-20.559l28.892-23.027a154.638,154.638,0,0,0,13.7-12.233l13.256-12.648,13.2-12.648,12.07-13.6c7.948-9.134,16.2-18.008,23.813-27.327l21.552-28.862c3.514-4.849,7.221-9.571,10.55-14.516l9.527-15.139L1876.71,492.9c6.057-10.187,11.3-20.8,16.97-31.168,5.486-10.461,11.292-20.744,16.474-31.309,9.623-21.47,19.661-42.7,28.825-64.234,8.467-21.812,16.577-43.719,24.718-65.553,14.924-43.764,29.4-87.661,42.97-131.84,13.16-44.313,25.986-88.7,36.773-133.59-17.03,42.9-34.311,85.571-52.772,127.748M828.941,473.759l-111.4,81.167-55.6,40.665-27.78,20.351-6.917,5.115a22.626,22.626,0,0,1-2.269,1.512l-3.121,2c-4.293,2.721-8.8,5.464-13.352,8.1-36.461,21.248-76.073,38.53-113.906,46.722l-14.012,2.521-13.612,1.512-13.019.356c-4.678-.2-9.653-.7-14.45-.993-4.834-.452-9.712-.415-14.487-1.186l-14.286-2.513c-9.638-1.1-18.75-4.508-28.076-6.85-37-10.891-70.572-31.5-98.6-57.435-27.854-26.126-50.474-58.125-63.581-93.778-26.794-70.624-21.656-154.037,18.216-218.167,19.365-32.183,45.558-60.5,76.919-81.315a252.009,252.009,0,0,1,104.58-38.834l6.954-1.1c2.328-.259,4.693-.245,7.036-.393l14.094-.764c4.9-.519,8.934-.044,13.211.067a105.48,105.48,0,0,1,13.041,1.142c17.682,2.194,36.306,7.028,54.87,13.693A398.018,398.018,0,0,1,584.5,220.243c8.919,4.812,17.867,10.142,25.771,15.258l1.371.912.363.237,2.736,2.135,6.761,5.286L635.039,254.6l217.218,167.82q11.588,8.863,23.168,17.741c-15.487,11.21-31.027,22.368-46.485,33.6M1261,616.364c-.578-.356-.326-.237.83.526l-.1-.059Zm3.87,3.025-1.676-1.379-1.349-1.1a25.778,25.778,0,0,1,2.276,1.75c.964.853,1.372,1.29.749.734" transform="translate(-20974.004 -21540.184)" fill="#55aaa0"/>
    <path id="Tracé_23926" data-name="Tracé 23926" d="M818.513,272.748s1.283-18-22.027-53.135L692.522,58.429l-3-15.139s.645-31.39-21.508-41.332c-22.694-8.622-44.446,14.034-44.446,14.034L610.74,24.584,423.2,65.1c-41.332,8.378-53.165,22.019-53.165,22.019l-44.787,85.711,186.836-14.568,26.156-14.65,52.142,14.027-11.276,27.209a4.633,4.633,0,0,0,2.513,6.057l13.849,5.738a4.639,4.639,0,0,0,6.057-2.513L612.8,166.915c14.1,8.118,46.8,26.927,46.8,26.927l8.133,28.847L789.555,365.013Z" transform="translate(-19497.488 -21765)" fill="#55aaa0"/>
    <path id="Tracé_23927" data-name="Tracé 23927" d="M461.238,66.879,359.008,24.568a4.637,4.637,0,1,0-3.544,8.57L457.687,75.449a4.639,4.639,0,1,0,3.551-8.57" transform="translate(-19322.07 -21609.881)" fill="#55aaa0"/>
  </g>
</svg>
