<svg id="Insta" xmlns="http://www.w3.org/2000/svg" width="50" height="50" viewBox="0 0 50 50">
  <path id="Tracé_1356" data-name="Tracé 1356" d="M1049.73,4348a4.8,4.8,0,1,0-4.808-4.8A4.8,4.8,0,0,0,1049.73,4348Z" transform="translate(-1024.7 -4318.175)" fill="#fff"/>
  <path id="Rectangle_481" data-name="Rectangle 481" d="M.446,0H4.331a.448.448,0,0,1,.448.448V4.321a.446.446,0,0,1-.446.446H.448A.448.448,0,0,1,0,4.32V.446A.446.446,0,0,1,.446,0Z" transform="translate(29.867 15.349)" fill="#fff"/>
  <path id="Tracé_1357" data-name="Tracé 1357" d="M1056.98,4325.459a25,25,0,1,0,25,25A25,25,0,0,0,1056.98,4325.459Zm12.5,34.534a2.969,2.969,0,0,1-2.972,2.966h-19.055a2.97,2.97,0,0,1-2.974-2.966v-19.07a2.969,2.969,0,0,1,2.974-2.964h19.055a2.967,2.967,0,0,1,2.972,2.964Z" transform="translate(-1031.98 -4325.459)" fill="#fff"/>
  <path id="Tracé_1358" data-name="Tracé 1358" d="M1059.086,4342.2a7.6,7.6,0,0,1-15.209,0,7.521,7.521,0,0,1,.271-2.006h-2.339v10.872a.7.7,0,0,0,.7.7h17.95a.7.7,0,0,0,.7-.7v-10.872h-2.339A7.521,7.521,0,0,1,1059.086,4342.2Z" transform="translate(-1026.452 -4317.17)" fill="#fff"/>
</svg>
