<svg xmlns="http://www.w3.org/2000/svg" width="40" height="13.867" viewBox="0 0 40 13.867">
  <g id="JooL-Spray" transform="translate(-22.988 -164.867)">
    <path id="Tracé_24142" data-name="Tracé 24142" d="M358.363,174.123l5.9-9.249-1.78-.007-7.014,10.74h9.384l.139-1.465Z" transform="translate(-302.002)" fill="#fff"/>
    <path id="Tracé_24143" data-name="Tracé 24143" d="M22.988,174.665l.9-.915a2.862,2.862,0,0,0,2.308,1.2,2.072,2.072,0,0,0,1.034-.273,2.954,2.954,0,0,0,1.178-1.982c.365-1.566.981-4.006,1.714-7.122h1.63L29.648,173.8a3.265,3.265,0,0,1-3.352,2.584,3.782,3.782,0,0,1-3.308-1.718" transform="translate(0 -0.644)" fill="#fff"/>
    <path id="Tracé_24144" data-name="Tracé 24144" d="M133.322,191.089l-.3.616c-.969,1.967-3.492,4.354-5.171,4.368h-.037c-2.522,0-4.532-2.009-5.293-2.893.752-.9,2.743-2.956,5.279-2.976a2.992,2.992,0,0,1,1.858.633l.54.426.856-1.075-.54-.426a4.421,4.421,0,0,0-2.721-.93c-2.947.023-5.171,2.126-6.159,3.261-1-1.114-3.239-3.165-6.161-3.165h-.049a4.306,4.306,0,1,0,.034,8.612h.034c2.948-.023,5.172-2.126,6.159-3.261,1,1.114,3.239,3.165,6.16,3.165h.049a6.119,6.119,0,0,0,3.646-1.688,11.3,11.3,0,0,0,2.751-3.448l.3-.616Zm-12.558,2.1c-.752.9-2.744,2.956-5.281,2.976h-.026a2.95,2.95,0,0,1-2.948-2.911,2.907,2.907,0,0,1,.847-2.082,2.937,2.937,0,0,1,2.08-.876h.035c2.522,0,4.532,2.009,5.293,2.893" transform="translate(-80.062 -21.78)" fill="#fff"/>
    <path id="Tracé_24145" data-name="Tracé 24145" d="M334.649,210.411l-.752-2.028-2.045.751-.377-1.017,2.335-.857a.838.838,0,0,1,.6.023.772.772,0,0,1,.406.436l.862,2.324-1.016.373a.007.007,0,0,1-.009,0" transform="translate(-280.21 -38.486)" fill="#fff"/>
    <path id="Tracé_24146" data-name="Tracé 24146" d="M334.242,210.13l-.03-.011-.009-.017-.741-2-2.045.751-.4-1.078,2.366-.868a.873.873,0,0,1,.621.024.8.8,0,0,1,.423.455l.873,2.354Zm-.01-.065h0Zm-.731-2.043.754,2.034.961-.353-.85-2.293a.739.739,0,0,0-.389-.418.8.8,0,0,0-.572-.022l-2.3.846.355.957Z" transform="translate(-279.795 -38.166)" fill="#fff"/>
    <rect id="Rectangle_1753" data-name="Rectangle 1753" width="9.408" height="2.343" transform="translate(53.418 176.391)" fill="#fff"/>
    <g id="Groupe_1838" data-name="Groupe 1838" transform="translate(55.361 176.922)">
      <path id="Tracé_24147" data-name="Tracé 24147" d="M376.188,298.149a.489.489,0,0,0,.27.08c.185,0,.3-.1.3-.255s-.072-.219-.251-.288c-.2-.069-.317-.172-.317-.339a.326.326,0,0,1,.359-.312.461.461,0,0,1,.246.058l-.033.073a.4.4,0,0,0-.218-.058c-.2,0-.268.128-.268.224,0,.137.079.206.257.276.2.082.312.173.312.358a.346.346,0,0,1-.392.339.542.542,0,0,1-.3-.084Z" transform="translate(-376.155 -297.034)" fill="#282828"/>
      <path id="Tracé_24148" data-name="Tracé 24148" d="M390.216,297.178a1.509,1.509,0,0,1,.266-.024.463.463,0,0,1,.327.1.319.319,0,0,1,.1.241.345.345,0,0,1-.086.246.476.476,0,0,1-.363.137.542.542,0,0,1-.15-.015v.526h-.088Zm.088.613a.506.506,0,0,0,.158.018c.222,0,.354-.106.354-.3s-.141-.281-.338-.281a.868.868,0,0,0-.174.015Z" transform="translate(-388.927 -297.143)" fill="#282828"/>
      <path id="Tracé_24149" data-name="Tracé 24149" d="M404.255,297.181a1.269,1.269,0,0,1,.268-.027.445.445,0,0,1,.334.1.3.3,0,0,1,.086.217.327.327,0,0,1-.242.321v0a.313.313,0,0,1,.191.261,1.63,1.63,0,0,0,.092.332h-.09a1.649,1.649,0,0,1-.079-.3c-.039-.177-.116-.257-.279-.265h-.193v.564h-.088Zm.088.577h.2c.191,0,.315-.106.315-.268,0-.188-.139-.264-.334-.264a.834.834,0,0,0-.178.016Z" transform="translate(-401.679 -297.143)" fill="#282828"/>
      <path id="Tracé_24150" data-name="Tracé 24150" d="M417.578,298.053l-.152.431h-.09l.447-1.23h.084l.444,1.23h-.09l-.156-.431Zm.462-.073-.15-.411a1.789,1.789,0,0,1-.064-.217h-.006a1.927,1.927,0,0,1-.064.213l-.15.414Z" transform="translate(-413.561 -297.234)" fill="#282828"/>
      <path id="Tracé_24151" data-name="Tracé 24151" d="M431.727,298.484v-.533l-.392-.7h.1l.2.367c.053.1.1.177.141.265h0c.037-.082.088-.168.143-.266l.211-.365h.1l-.416.7v.531Z" transform="translate(-426.277 -297.234)" fill="#282828"/>
    </g>
  </g>
</svg>
