<svg xmlns="http://www.w3.org/2000/svg" width="50" height="50" viewBox="0 0 50 50">
  <path id="LinkedIn" d="M1100.591,4325.459a25,25,0,1,0,25,25A25,25,0,0,0,1100.591,4325.459Zm-6.9,37.476H1088.5v-16.668h5.186Zm-2.591-18.945a3,3,0,1,1,3-3A3,3,0,0,1,1091.1,4343.99Zm21.994,18.945h-5.18v-8.106c0-1.933-.033-4.418-2.692-4.418-2.7,0-3.106,2.106-3.106,4.281v8.243h-5.175v-16.668h4.966v2.28h.072a5.441,5.441,0,0,1,4.9-2.693c5.245,0,6.214,3.452,6.214,7.942Z" transform="translate(-1075.591 -4325.459)" fill="#fff"/>
</svg>
