<svg xmlns="http://www.w3.org/2000/svg" width="370" height="129.404" viewBox="0 0 370 129.404">
  <g id="JOOL_intl_logo_final" data-name="JOOL intl_logo final" transform="translate(-22.988 -164.867)">
    <path id="Tracé_1" data-name="Tracé 1" d="M382.262,250.912l54.555-85.98-16.469-.065-64.882,99.838,86.8.01,1.29-13.622Z" transform="translate(-50.571)" fill="#fff"/>
    <path id="Tracé_2" data-name="Tracé 2" d="M22.988,250.062l8.359-8.509a26.436,26.436,0,0,0,21.346,11.195,19.1,19.1,0,0,0,9.568-2.536c7.719-4.54,9.871-14.01,10.895-18.428,3.373-14.561,9.072-37.241,15.858-66.208h15.076q-9.75,38.22-19.5,76.44a31.684,31.684,0,0,1-12.47,18.735,31.48,31.48,0,0,1-18.532,5.282c-14.479,0-25.077-7.015-30.6-15.971" transform="translate(0 -0.108)" fill="#fff"/>
    <path id="Tracé_3" data-name="Tracé 3" d="M316.408,209.807l-2.8,5.724c-8.965,18.289-32.3,40.478-47.827,40.6h-.34c-23.332,0-41.917-18.674-48.958-26.888,6.952-8.376,25.377-27.479,48.832-27.663A27.587,27.587,0,0,1,282.5,207.47l5,3.96,7.918-9.992-5-3.959a40.765,40.765,0,0,0-25.167-8.645c-27.256.215-47.834,19.762-56.97,30.318-9.252-10.354-29.959-29.417-56.988-29.417h-.454a40.026,40.026,0,0,0,.314,80.052l.319,0c27.265-.216,47.837-19.762,56.972-30.318,9.254,10.353,29.962,29.418,56.982,29.417l.455,0c9.994-.079,21.97-5.65,33.722-15.687,10.644-9.092,19.922-20.775,25.45-32.054l2.806-5.724ZM200.243,229.373c-6.953,8.377-25.382,27.479-48.847,27.663l-.242,0a27.277,27.277,0,0,1-.194-54.554h.323c23.333,0,41.919,18.675,48.961,26.889" transform="translate(-13.407 -3.645)" fill="#fff"/>
    <path id="Tracé_4" data-name="Tracé 4" d="M360.836,236.921l-6.956-18.85-18.916,6.978-3.489-9.458,21.6-7.968a7.714,7.714,0,0,1,5.518.215,7.164,7.164,0,0,1,3.754,4.055l7.971,21.6-9.395,3.466a.067.067,0,0,1-.086-.04" transform="translate(-46.922 -6.441)" fill="#fff"/>
    <path id="Tracé_5" data-name="Tracé 5" d="M360.84,237.232l-.278-.1-.079-.155-6.852-18.567-18.915,6.978-3.7-10.024,21.882-8.071a8.038,8.038,0,0,1,5.748.224,7.462,7.462,0,0,1,3.91,4.225l8.075,21.882Zm-.091-.608h0Zm-6.761-18.992,6.978,18.912,8.894-3.281-7.867-21.319a6.859,6.859,0,0,0-3.6-3.886,7.4,7.4,0,0,0-5.292-.2l-21.312,7.861,3.28,8.894Z" transform="translate(-46.853 -6.388)" fill="#fff"/>
    <rect id="Rectangle_1" data-name="Rectangle 1" width="196.422" height="21.776" transform="translate(195.497 272.494)" fill="#fff"/>
    <g id="Groupe_1" data-name="Groupe 1" transform="translate(218.323 277.471)">
      <path id="Tracé_6" data-name="Tracé 6" d="M254.178,297.912v11.431h-.814V297.912Z" transform="translate(-253.364 -297.708)" fill="#282828"/>
      <path id="Tracé_7" data-name="Tracé 7" d="M261.6,309.343V297.912h.763l4.444,6.75a37.866,37.866,0,0,1,2.154,3.6l.034-.017c-.119-1.544-.137-2.85-.137-4.647v-5.682h.78v11.431H268.9l-4.358-6.649c-.848-1.323-1.629-2.527-2.222-3.7l-.034.016c.085,1.408.1,2.647.1,4.547v5.783Z" transform="translate(-254.617 -297.708)" fill="#282828"/>
      <path id="Tracé_8" data-name="Tracé 8" d="M280.235,298.59H276.5v-.677h8.277v.677h-3.732v10.754h-.814Z" transform="translate(-256.884 -297.708)" fill="#282828"/>
      <path id="Tracé_9" data-name="Tracé 9" d="M297.021,303.662h-4.564v5h5.105v.678h-5.919V297.912h5.649v.677h-4.835v4.393h4.564Z" transform="translate(-259.187 -297.708)" fill="#282828"/>
      <path id="Tracé_10" data-name="Tracé 10" d="M304.963,298.065a11.739,11.739,0,0,1,2.477-.254,4.1,4.1,0,0,1,3.087.968,2.8,2.8,0,0,1,.8,2.018,3.035,3.035,0,0,1-2.239,2.985v.034a2.906,2.906,0,0,1,1.764,2.425,15.153,15.153,0,0,0,.849,3.087h-.832a15.389,15.389,0,0,1-.729-2.781c-.356-1.646-1.069-2.393-2.579-2.461h-1.781v5.242h-.814Zm.814,5.359h1.815c1.765,0,2.918-.983,2.918-2.493,0-1.748-1.289-2.46-3.087-2.46a7.705,7.705,0,0,0-1.646.153Z" transform="translate(-261.213 -297.692)" fill="#282828"/>
      <path id="Tracé_11" data-name="Tracé 11" d="M319.083,309.343V297.912h.764l4.443,6.75a37.566,37.566,0,0,1,2.154,3.6l.034-.017c-.119-1.544-.136-2.85-.136-4.647v-5.682h.78v11.431h-.746l-4.359-6.649c-.849-1.323-1.629-2.527-2.222-3.7l-.034.016c.086,1.408.1,2.647.1,4.547v5.783Z" transform="translate(-263.36 -297.708)" fill="#282828"/>
      <path id="Tracé_12" data-name="Tracé 12" d="M337.041,305.34l-1.408,4H334.8l4.138-11.431h.78l4.1,11.431h-.832l-1.441-4Zm4.275-.678-1.392-3.816a16.952,16.952,0,0,1-.593-2.018h-.052a17.929,17.929,0,0,1-.593,1.984l-1.39,3.85Z" transform="translate(-265.751 -297.708)" fill="#282828"/>
      <path id="Tracé_13" data-name="Tracé 13" d="M351.954,298.59h-3.731v-.677H356.5v.677h-3.732v10.754h-.814Z" transform="translate(-267.792 -297.708)" fill="#282828"/>
      <path id="Tracé_14" data-name="Tracé 14" d="M364.177,297.912v11.431h-.814V297.912Z" transform="translate(-270.095 -297.708)" fill="#282828"/>
      <path id="Tracé_15" data-name="Tracé 15" d="M380.829,303.471c0,4.038-2.477,6.022-5.122,6.022-2.816,0-5-2.222-5-5.8,0-3.748,2.272-6.022,5.139-6.022C378.725,297.671,380.829,299.927,380.829,303.471Zm-9.278.2c0,2.579,1.492,5.14,4.206,5.14s4.224-2.459,4.224-5.292c0-2.426-1.324-5.174-4.189-5.174C372.891,298.349,371.551,301,371.551,303.675Z" transform="translate(-271.212 -297.671)" fill="#282828"/>
      <path id="Tracé_16" data-name="Tracé 16" d="M389.023,309.343V297.912h.763l4.443,6.75a37.81,37.81,0,0,1,2.155,3.6l.034-.017c-.119-1.544-.136-2.85-.136-4.647v-5.682h.78v11.431h-.746l-4.358-6.649c-.849-1.323-1.629-2.527-2.222-3.7l-.034.016c.085,1.408.1,2.647.1,4.547v5.783Z" transform="translate(-273.998 -297.708)" fill="#282828"/>
      <path id="Tracé_17" data-name="Tracé 17" d="M406.981,305.34l-1.408,4h-.83l4.138-11.431h.78l4.1,11.431h-.831l-1.442-4Zm4.275-.678-1.391-3.816a16.984,16.984,0,0,1-.594-2.018h-.051a18.332,18.332,0,0,1-.593,1.984l-1.391,3.85Z" transform="translate(-276.389 -297.708)" fill="#282828"/>
      <path id="Tracé_18" data-name="Tracé 18" d="M421.461,297.912h.814v10.753h5.089v.678h-5.9Z" transform="translate(-278.932 -297.708)" fill="#282828"/>
    </g>
  </g>
</svg>
