<svg xmlns="http://www.w3.org/2000/svg" width="150" height="59" viewBox="0 0 150 59">
  <g id="Logo-_-JooL-International" transform="translate(0 0)">
    <rect id="Rectangle_1871" data-name="Rectangle 1871" width="150" height="59" transform="translate(0 0)" fill="#fff" opacity="0"/>
    <path id="Tracé_23877" data-name="Tracé 23877" d="M180.269,40.952q-1.219,2.853-2.516,5.67a44.144,44.144,0,0,1-6.325,10.329l-.977,1.123c-.339.359-.7.693-1.049,1.041l-.525.516-.565.466-.562.466a5.622,5.622,0,0,1-.575.445,18.3,18.3,0,0,1-5.043,2.671,18.9,18.9,0,0,1-5.565.983h-.718a5.029,5.029,0,0,1-.655-.021l-.265-.024-.3-.057a5.592,5.592,0,0,1-.613-.143,18.409,18.409,0,0,1-2.607-.964c-.878-.394-1.754-.842-2.611-1.319-.422-.238-.861-.491-1.242-.732l-.061-.039-.24-.2-.6-.5-4.843-3.942q-2.7-2.21-5.431-4.4,1.641-1.362,3.279-2.726l2.381-2c.394-.339.8-.656,1.184-1.013l1.147-1.057a38.968,38.968,0,0,1,4.749-3.785,12.8,12.8,0,0,1,5.526-2.141,13.645,13.645,0,0,1,6.045.669,13.5,13.5,0,0,0-6.094-1.428,11.994,11.994,0,0,0-3.186.481,16.654,16.654,0,0,0-2.988,1.211,35.412,35.412,0,0,0-5.3,3.494c-.423.32-.821.635-1.222.951s-.84.6-1.258.905l-2.536,1.794q-1.989,1.418-3.969,2.843-1.025-.825-2.049-1.65l-9.776-7.8-.613-.486-.307-.242-.162-.127-.165-.114-.1-.067c-.512-.336-1-.626-1.508-.905a22.881,22.881,0,0,0-3.173-1.449,16.661,16.661,0,0,0-3.546-.892,9.233,9.233,0,0,0-.96-.089,8.2,8.2,0,0,0-.958-.013l-.918.044c-.153.01-.306.013-.458.029l-.455.068a16.062,16.062,0,0,0-11.8,7.9l-.234.395c-.074.134-.135.275-.2.412l-.393.83a8.6,8.6,0,0,0-.334.855l-.306.865-.226.89a8.253,8.253,0,0,0-.2.895l-.134.907-.063.453-.023.457A15.907,15.907,0,0,0,106.74,68.125a14.1,14.1,0,0,0,1.766.369l.893.121c.3.035.6.031.9.047s.595.025.9.025c.322-.018.646-.035.966-.061l.928-.137.891-.2a18.94,18.94,0,0,0,3.277-1.206,25.291,25.291,0,0,0,2.948-1.637c.237-.152.47-.308.708-.473l.181-.128c.037-.026.189-.135.213-.159l.3-.245,1.21-.984,2.417-1.969,4.825-3.946q1.316-1.079,2.627-2.165,3.1,2.373,6.212,4.732l4.929,3.732.619.464.309.232.077.058.113.089q.09.069.184.133c.079.052.119.075.119.075l.05.029.1.059c.508.29.978.533,1.469.783.975.489,1.965.944,3,1.354a20.578,20.578,0,0,0,3.27,1.03,8.945,8.945,0,0,0,.91.159l.472.06.511.022a7.889,7.889,0,0,0,.9-.017l.835-.044a21.6,21.6,0,0,0,6.549-1.541,21.083,21.083,0,0,0,3-1.526c.466-.308.936-.608,1.393-.924L169,63.3a6.95,6.95,0,0,0,.616-.55l.6-.569.594-.569L171.35,61c.357-.411.728-.81,1.071-1.229l.969-1.3c.158-.218.325-.43.474-.653l.428-.681.853-1.358c.272-.458.508-.935.763-1.4s.508-.933.741-1.408c.433-.965.884-1.92,1.3-2.888.381-.981.745-1.966,1.111-2.947.671-1.968,1.322-3.941,1.932-5.928.592-1.992,1.168-3.988,1.653-6.006-.766,1.929-1.543,3.847-2.373,5.744M128.037,54.926l-5.009,3.649-2.5,1.828-1.249.915-.311.23a1.018,1.018,0,0,1-.1.068l-.14.09c-.193.122-.4.246-.6.364a18.127,18.127,0,0,1-5.121,2.1l-.63.113-.612.068-.585.016c-.21-.009-.434-.032-.65-.045s-.437-.019-.651-.053l-.642-.113a9.816,9.816,0,0,1-1.262-.308,11.289,11.289,0,0,1-4.433-2.582,11.109,11.109,0,0,1-2.859-4.216,11.29,11.29,0,0,1,.819-9.809,11.5,11.5,0,0,1,3.458-3.656,11.331,11.331,0,0,1,4.7-1.746l.313-.049c.1-.012.211-.011.316-.018l.634-.034a4.13,4.13,0,0,1,.594,0,4.744,4.744,0,0,1,.586.051,11.65,11.65,0,0,1,2.467.616,17.9,17.9,0,0,1,2.478,1.119c.4.216.8.456,1.159.686l.062.041.016.011.123.1.3.238.609.473,9.766,7.545,1.042.8c-.7.5-1.4,1.006-2.09,1.511m19.426,6.412c-.026-.016-.015-.011.037.024l0,0Zm.174.136-.075-.062-.061-.05a1.159,1.159,0,0,1,.1.079c.043.038.062.058.034.033" transform="translate(-63.36 -23.472)" fill="#55aaa0"/>
    <path id="Tracé_23878" data-name="Tracé 23878" d="M347.426,12.263a4.474,4.474,0,0,0-.99-2.389l-4.674-7.247-.135-.681s.029-1.411-.967-1.858c-1.02-.388-2,.631-2,.631l-.577.386-8.432,1.822a4.479,4.479,0,0,0-2.39.99l-2.014,3.854,8.4-.655,1.176-.659,2.344.631-.507,1.223a.208.208,0,0,0,.113.272l.623.258a.209.209,0,0,0,.272-.113l.507-1.224,2.1,1.211.366,1.3,5.477,6.4Z" transform="translate(-216.832 0)" fill="#55aaa0"/>
    <path id="Tracé_23879" data-name="Tracé 23879" d="M357.482,26.132l-4.6-1.9a.208.208,0,1,0-.159.385l4.6,1.9a.209.209,0,1,0,.16-.385" transform="translate(-235.065 -16.143)" fill="#55aaa0"/>
    <path id="Tracé_23880" data-name="Tracé 23880" d="M347.426,50.631l21.723-34.218-6.558-.026L336.756,56.121l34.564,0,.513-5.421Z" transform="translate(-224.504 -10.925)" fill="#55aaa0"/>
    <path id="Tracé_23881" data-name="Tracé 23881" d="M0,49.284,3.328,45.9a10.528,10.528,0,0,0,8.5,4.455,7.607,7.607,0,0,0,3.81-1.009c3.074-1.807,3.931-5.575,4.338-7.334,1.343-5.795,3.612-14.821,6.315-26.349h6q-3.882,15.21-7.764,30.421a12.608,12.608,0,0,1-4.965,7.456,12.539,12.539,0,0,1-7.38,2.1A13.914,13.914,0,0,1,0,49.284" transform="translate(0 -10.441)" fill="#55aaa0"/>
    <rect id="Rectangle_1868" data-name="Rectangle 1868" width="80.486" height="10.123" transform="translate(69.514 48.877)" fill="#282828"/>
    <rect id="Rectangle_1869" data-name="Rectangle 1869" width="0.333" height="4.677" transform="translate(78.941 51.603)" fill="#fff"/>
    <path id="Tracé_23882" data-name="Tracé 23882" d="M245.4,159.487V154.81h.313l1.819,2.762a15.458,15.458,0,0,1,.882,1.471l.014-.007c-.048-.632-.056-1.166-.056-1.9V154.81h.319v4.677h-.305l-1.784-2.72c-.348-.541-.667-1.034-.91-1.512l-.014.007c.035.576.042,1.083.042,1.86v2.366Z" transform="translate(-163.601 -103.207)" fill="#fff"/>
    <path id="Tracé_23883" data-name="Tracé 23883" d="M262.443,155.088h-1.527v-.277H264.3v.277h-1.527v4.4h-.333Z" transform="translate(-173.944 -103.207)" fill="#fff"/>
    <path id="Tracé_23884" data-name="Tracé 23884" d="M278.881,157.163h-1.868v2.047h2.09v.278H276.68V154.81h2.312v.277h-1.979v1.8h1.868Z" transform="translate(-184.453 -103.207)" fill="#fff"/>
    <path id="Tracé_23885" data-name="Tracé 23885" d="M290.549,154.81a4.79,4.79,0,0,1,1.014-.1,1.678,1.678,0,0,1,1.263.4,1.146,1.146,0,0,1,.327.825,1.242,1.242,0,0,1-.917,1.222v.014a1.188,1.188,0,0,1,.722.992,6.223,6.223,0,0,0,.347,1.263h-.34a6.31,6.31,0,0,1-.3-1.138c-.146-.673-.438-.979-1.056-1.006h-.729v2.144h-.333Zm.333,2.193h.743c.722,0,1.194-.4,1.194-1.02,0-.715-.528-1.006-1.264-1.006a3.138,3.138,0,0,0-.673.062Z" transform="translate(-193.7 -103.137)" fill="#fff"/>
    <path id="Tracé_23886" data-name="Tracé 23886" d="M305.251,159.487V154.81h.312l1.819,2.762a15.458,15.458,0,0,1,.882,1.471l.014-.007c-.048-.632-.056-1.166-.056-1.9V154.81h.319v4.677h-.305l-1.784-2.72c-.348-.541-.667-1.034-.91-1.512l-.014.007c.035.576.042,1.083.042,1.86v2.366Z" transform="translate(-203.501 -103.207)" fill="#fff"/>
    <path id="Tracé_23887" data-name="Tracé 23887" d="M322.535,157.849l-.576,1.638h-.34l1.694-4.677h.319l1.68,4.677h-.34l-.59-1.638Zm1.75-.278-.569-1.561a6.874,6.874,0,0,1-.243-.826h-.021a7.386,7.386,0,0,1-.243.812l-.569,1.575Z" transform="translate(-214.413 -103.207)" fill="#fff"/>
    <path id="Tracé_23888" data-name="Tracé 23888" d="M337.119,155.088h-1.527v-.277h3.388v.277h-1.527v4.4h-.333Z" transform="translate(-223.728 -103.207)" fill="#fff"/>
    <rect id="Rectangle_1870" data-name="Rectangle 1870" width="0.333" height="4.677" transform="translate(117.118 51.603)" fill="#fff"/>
    <path id="Tracé_23889" data-name="Tracé 23889" d="M363.143,156.933a2.175,2.175,0,0,1-2.1,2.463A2.125,2.125,0,0,1,359,157.023a2.2,2.2,0,0,1,2.1-2.463,2.112,2.112,0,0,1,2.041,2.373m-3.8.083a1.9,1.9,0,0,0,1.722,2.1c1.111,0,1.729-1.006,1.729-2.165a1.9,1.9,0,0,0-1.715-2.117c-1.187,0-1.736,1.083-1.736,2.179" transform="translate(-239.332 -103.04)" fill="#fff"/>
    <path id="Tracé_23890" data-name="Tracé 23890" d="M378.074,159.487V154.81h.313l1.819,2.762a15.459,15.459,0,0,1,.882,1.471l.014-.007c-.048-.632-.056-1.166-.056-1.9V154.81h.319v4.677h-.305l-1.784-2.72c-.348-.541-.667-1.034-.91-1.512l-.014.007c.035.576.042,1.083.042,1.86v2.366Z" transform="translate(-252.05 -103.207)" fill="#fff"/>
    <path id="Tracé_23891" data-name="Tracé 23891" d="M395.358,157.849l-.576,1.638h-.34l1.694-4.677h.319l1.68,4.677h-.34l-.59-1.638Zm1.75-.278-.569-1.561a6.874,6.874,0,0,1-.243-.826h-.021a7.386,7.386,0,0,1-.243.812l-.569,1.575Z" transform="translate(-262.962 -103.207)" fill="#fff"/>
    <path id="Tracé_23892" data-name="Tracé 23892" d="M411.849,154.81h.333v4.4h2.083v.278h-2.416Z" transform="translate(-274.566 -103.207)" fill="#fff"/>
  </g>
</svg>
