<svg xmlns="http://www.w3.org/2000/svg" width="150" height="52.5" viewBox="0 0 150 52.5">
  <g id="Logo-_-JooL-International" transform="translate(-22.988 -164.867)">
    <path id="Tracé_23845" data-name="Tracé 23845" d="M366.329,199.776l22.117-34.883-6.676-.026-26.3,40.505,35.191,0,.523-5.527Z" transform="translate(-218.192)" fill="#55aaa0"/>
    <path id="Tracé_23846" data-name="Tracé 23846" d="M22.988,199.853l3.389-3.452a10.715,10.715,0,0,0,8.654,4.542,7.737,7.737,0,0,0,3.879-1.029c3.129-1.842,4-5.684,4.417-7.476,1.367-5.907,3.678-15.109,6.429-26.861h6.112l-7.9,31.012a12.856,12.856,0,0,1-5.055,7.6,12.755,12.755,0,0,1-7.513,2.143,14.162,14.162,0,0,1-12.405-6.48" transform="translate(0 -0.465)" fill="#55aaa0"/>
    <path id="Tracé_23847" data-name="Tracé 23847" d="M199.5,197.013a3.026,3.026,0,0,0-1.585-1.714,3.256,3.256,0,0,0-2.33-.091l-8.871,3.275,1.5,4.067,4.317-1.594c-4.028,7.133-12.771,15.135-18.706,15.182h-.138c-9.459,0-16.994-7.576-19.848-10.909,2.818-3.4,10.288-11.148,19.8-11.223a11.179,11.179,0,0,1,6.968,2.388L182.629,198l3.21-4.054-2.025-1.606a16.518,16.518,0,0,0-10.2-3.507c-11.05.087-19.392,8.018-23.1,12.3-3.751-4.2-12.145-11.935-23.1-11.935h-.184a16.234,16.234,0,0,0-16.1,16.366,16.276,16.276,0,0,0,16.225,16.111h.129c11.053-.088,19.394-8.018,23.1-12.3,3.752,4.2,12.147,11.935,23.1,11.935h.185c4.052-.032,8.907-2.292,13.671-6.364a43.426,43.426,0,0,0,9.642-11.71l1.481,4.016.032.063.113.042,3.97-1.465ZM127.454,216.5h-.1a11.067,11.067,0,0,1-.079-22.133h.131c9.459,0,16.994,7.577,19.849,10.909C144.438,208.679,136.967,216.429,127.454,216.5Z" transform="translate(-57.844 -15.722)" fill="#55aaa0"/>
    <rect id="Rectangle_1424" data-name="Rectangle 1424" width="79.631" height="8.835" transform="translate(92.924 208.532)" fill="#282828"/>
    <g id="Groupe_1735" data-name="Groupe 1735" transform="translate(102.178 210.551)">
      <path id="Tracé_23848" data-name="Tracé 23848" d="M253.694,297.912v4.638h-.33v-4.638Z" transform="translate(-253.364 -297.829)" fill="#fff"/>
      <path id="Tracé_23849" data-name="Tracé 23849" d="M261.6,302.55v-4.638h.309l1.8,2.739a15.371,15.371,0,0,1,.873,1.459l.014-.007c-.048-.626-.055-1.156-.055-1.885v-2.305h.316v4.638h-.3l-1.767-2.7c-.344-.537-.66-1.025-.9-1.5l-.014.007c.034.571.041,1.074.041,1.845v2.346Z" transform="translate(-258.772 -297.829)" fill="#fff"/>
      <path id="Tracé_23850" data-name="Tracé 23850" d="M278.016,298.187H276.5v-.275h3.356v.275h-1.513v4.363h-.33Z" transform="translate(-268.549 -297.829)" fill="#fff"/>
      <path id="Tracé_23851" data-name="Tracé 23851" d="M293.823,300.245h-1.85v2.03h2.07v.275h-2.4v-4.638h2.29v.275h-1.96v1.782h1.85Z" transform="translate(-278.485 -297.829)" fill="#fff"/>
      <path id="Tracé_23852" data-name="Tracé 23852" d="M304.963,297.914a4.758,4.758,0,0,1,1-.1,1.661,1.661,0,0,1,1.252.392,1.136,1.136,0,0,1,.323.819,1.231,1.231,0,0,1-.907,1.211v.014a1.179,1.179,0,0,1,.715.984,6.154,6.154,0,0,0,.344,1.253h-.337a6.249,6.249,0,0,1-.3-1.128c-.144-.668-.433-.971-1.045-1h-.722v2.127h-.33Zm.33,2.174h.736c.715,0,1.183-.4,1.183-1.011,0-.709-.522-1-1.252-1a3.123,3.123,0,0,0-.667.062Z" transform="translate(-287.226 -297.763)" fill="#fff"/>
      <path id="Tracé_23853" data-name="Tracé 23853" d="M319.083,302.55v-4.638h.31l1.8,2.739a15.224,15.224,0,0,1,.873,1.459l.014-.007c-.048-.626-.055-1.156-.055-1.885v-2.305h.316v4.638h-.3l-1.767-2.7c-.344-.537-.66-1.025-.9-1.5l-.014.007c.035.571.041,1.074.041,1.845v2.346Z" transform="translate(-296.493 -297.829)" fill="#fff"/>
      <path id="Tracé_23854" data-name="Tracé 23854" d="M335.71,300.926l-.571,1.624H334.8l1.678-4.638h.316l1.664,4.638h-.337l-.584-1.624Zm1.733-.275-.564-1.548a6.865,6.865,0,0,1-.241-.819h-.021a7.284,7.284,0,0,1-.241.8l-.563,1.562Z" transform="translate(-306.809 -297.829)" fill="#fff"/>
      <path id="Tracé_23855" data-name="Tracé 23855" d="M349.735,298.187h-1.512v-.275h3.356v.275h-1.513v4.363h-.33Z" transform="translate(-315.616 -297.829)" fill="#fff"/>
      <path id="Tracé_23856" data-name="Tracé 23856" d="M363.693,297.912v4.638h-.33v-4.638Z" transform="translate(-325.552 -297.829)" fill="#fff"/>
      <path id="Tracé_23857" data-name="Tracé 23857" d="M374.808,300.024a2.156,2.156,0,0,1-2.077,2.443,2.106,2.106,0,0,1-2.028-2.353,2.176,2.176,0,0,1,2.083-2.443A2.094,2.094,0,0,1,374.808,300.024Zm-3.761.083a1.88,1.88,0,0,0,1.7,2.085c1.1,0,1.713-1,1.713-2.147a1.882,1.882,0,0,0-1.7-2.1C371.59,297.946,371.047,299.02,371.047,300.107Z" transform="translate(-330.369 -297.671)" fill="#fff"/>
      <path id="Tracé_23858" data-name="Tracé 23858" d="M389.023,302.55v-4.638h.309l1.8,2.739a15.3,15.3,0,0,1,.874,1.459l.014-.007c-.048-.626-.055-1.156-.055-1.885v-2.305h.316v4.638h-.3l-1.767-2.7c-.344-.537-.66-1.025-.9-1.5l-.014.007c.034.571.041,1.074.041,1.845v2.346Z" transform="translate(-342.391 -297.829)" fill="#fff"/>
      <path id="Tracé_23859" data-name="Tracé 23859" d="M405.65,300.926l-.571,1.624h-.336l1.677-4.638h.316l1.664,4.638h-.337l-.584-1.624Zm1.733-.275-.564-1.548a6.873,6.873,0,0,1-.241-.819h-.021a7.445,7.445,0,0,1-.241.8l-.564,1.562Z" transform="translate(-352.708 -297.829)" fill="#fff"/>
      <path id="Tracé_23860" data-name="Tracé 23860" d="M421.461,297.912h.33v4.363h2.063v.275h-2.393Z" transform="translate(-363.679 -297.829)" fill="#fff"/>
    </g>
  </g>
</svg>
