<svg xmlns="http://www.w3.org/2000/svg" width="2283.479" height="1761.65" viewBox="0 0 2283.479 1761.65">
  <path id="Tracé_24832" data-name="Tracé 24832" d="M2115.563,190.944a70.911,70.911,0,0,0-37.958-40.029,79.244,79.244,0,0,0-55.736-2.089l-212.5,76.773,35.874,94.979L1948.476,283.4c-96.435,166.7-305.866,353.693-448.046,354.79h-3.29a690.331,690.331,0,0,1-263.708-79.168,690.066,690.066,0,0,1-211.76-175.929,687.836,687.836,0,0,1,474.371-262.226,271.812,271.812,0,0,1,166.867,55.82l48.486,37.506,76.793-94.644L1739.7,82.041A402.141,402.141,0,0,0,1495.386,0a789.978,789.978,0,0,0-553.25,287.563A792.173,792.173,0,0,0,388.773,8.884h-4.387a379.468,379.468,0,1,0,2.961,758.825h3.182a790.053,790.053,0,0,0,306.2-86.84A789.852,789.852,0,0,0,943.781,480.261a791.993,791.993,0,0,0,248.25,195.6,792.164,792.164,0,0,0,305,82.964h4.5A554.443,554.443,0,0,0,1829.01,610,1002.718,1002.718,0,0,0,2059.388,335.82l35.545,94.21.768,1.426,2.632,1.1,95.119-34.326ZM389.761,646.523h-2.414A261.838,261.838,0,0,1,121.526,388.9a261.831,261.831,0,0,1,263.3-259.7h3.18A690.3,690.3,0,0,1,863.474,384.3,686.8,686.8,0,0,1,653.323,564.208a687.031,687.031,0,0,1-264.111,82.422Z" transform="translate(0 1096.726) rotate(-30)" fill="#4c9c8e" opacity="0.2"/>
</svg>
