<svg xmlns="http://www.w3.org/2000/svg" width="15.001" height="11" viewBox="0 0 15.001 11">
  <g id="Unread-email-border" transform="translate(2195.902 455.242)" opacity="0.5">
    <path id="Tracé_20368" data-name="Tracé 20368" d="M-2183.629-445.879a.666.666,0,0,1-.671.659h-9.566a.666.666,0,0,1-.671-.659v-4.153l5.431,3.3,4.053-2.455a3.393,3.393,0,0,1-1.158-.869l-2.9,1.753-5.43-3.3v-.307a.665.665,0,0,1,.67-.659H-2187a3.252,3.252,0,0,1,.448-1.335h-7.313a2.015,2.015,0,0,0-2.035,1.993v6.031a2.014,2.014,0,0,0,2.035,1.994h9.566a2.015,2.015,0,0,0,2.036-1.992h0v-3.277a3.447,3.447,0,0,1-1.364.282Z" transform="translate(0 -0.357)" fill="#282828"/>
    <ellipse id="Ellipse_245" data-name="Ellipse 245" cx="2.727" cy="2.672" rx="2.727" ry="2.672" transform="translate(-2186.357 -455.242)" fill="#282828"/>
  </g>
</svg>
