<svg xmlns="http://www.w3.org/2000/svg" width="15" height="15" viewBox="0 0 15 15">
  <g id="Telephone" transform="translate(-485.925 -558.146)" opacity="0.5">
    <path id="Tracé_19092" data-name="Tracé 19092" d="M490.91,564.566a19.891,19.891,0,0,0,3.828,3.821c.2-.2.4-.416.608-.617a2.1,2.1,0,0,1,2.855-.184,12.463,12.463,0,0,1,1.538,1.538,2.082,2.082,0,0,1-.12,2.773,6.588,6.588,0,0,1-.972.916,2.817,2.817,0,0,1-3.088.209,21.532,21.532,0,0,1-9.28-9.254,2.915,2.915,0,0,1,.493-3.446,6.011,6.011,0,0,1,.99-.891,2.1,2.1,0,0,1,2.56.248c.444.414.876.843,1.289,1.288a2.154,2.154,0,0,1-.026,2.948C491.37,564.145,491.132,564.353,490.91,564.566Zm6,7.7a1.847,1.847,0,0,0,1.312-.509q.3-.284.578-.583a1.05,1.05,0,0,0-.024-1.507q-.551-.559-1.112-1.111a1.055,1.055,0,0,0-1.559.005c-.31.305-.613.616-.924.92a.546.546,0,0,1-.772.05,22.17,22.17,0,0,1-4.613-4.6.563.563,0,0,1,.063-.84c.3-.3.61-.6.908-.91a1.06,1.06,0,0,0,.008-1.51q-.566-.584-1.15-1.15a1.069,1.069,0,0,0-1.525.006q-.274.269-.539.547a1.839,1.839,0,0,0-.3,2.192,20.54,20.54,0,0,0,8.779,8.768A1.8,1.8,0,0,0,496.907,572.268Z" transform="translate(0 -0.24)" fill="#282828"/>
    <path id="Tracé_19093" data-name="Tracé 19093" d="M504.219,562.673a.562.562,0,0,1-.457.583.543.543,0,0,1-.592-.329c-.058-.143-.093-.294-.148-.438a5.254,5.254,0,0,0-3.439-3.247.591.591,0,0,1-.474-.472.549.549,0,0,1,.75-.594,6.408,6.408,0,0,1,4.31,4.281C504.2,562.542,504.209,562.63,504.219,562.673Z" transform="translate(-3.294)" fill="#282828"/>
    <path id="Tracé_19094" data-name="Tracé 19094" d="M498.418,561.82c.144.04.319.074.484.136a3.4,3.4,0,0,1,2.2,2.473.551.551,0,1,1-1.066.26,2.323,2.323,0,0,0-1.759-1.776.556.556,0,0,1-.441-.535.55.55,0,0,1,.388-.521C498.279,561.841,498.333,561.836,498.418,561.82Z" transform="translate(-2.979 -0.919)" fill="#282828"/>
  </g>
</svg>
