<svg xmlns="http://www.w3.org/2000/svg" width="15" height="14.999" viewBox="0 0 15 14.999">
  <g id="brouillon_border" transform="translate(447.094 380.432)" opacity="0.5">
    <path id="Tracé_20356" data-name="Tracé 20356" d="M-437.074-373.517h0m-1.064,1.03.252.244,2.249,2.178-.375.363c-1.248,1.207-2.539,2.455-3.8,3.691l-.045.007c-.537.071-1.079.147-1.6.221-.421.059-.849.119-1.279.177.139-.922.275-1.846.407-2.746l.012-.085,3.415-3.3.77-.745m-4.163,3.907h0m4.169-6.044a.363.363,0,0,0-.048.036l-5.4,5.226a.942.942,0,0,0-.272.571c-.187,1.278-.374,2.555-.571,3.832a.813.813,0,0,0,.859.979,1.249,1.249,0,0,0,.148-.009c1.257-.159,2.51-.348,3.766-.514a1.51,1.51,0,0,0,.911-.409c1.721-1.684,3.457-3.355,5.187-5.031.044-.042.083-.089.119-.127l-4.7-4.552Z" transform="translate(-0.665 -1.452)" fill="#282828"/>
    <path id="Tracé_20357" data-name="Tracé 20357" d="M-432.292-377.179a3.214,3.214,0,0,0-2.1.744l4.683,4.534a3.1,3.1,0,0,0-.168-4.306,3.433,3.433,0,0,0-2.417-.972Z" transform="translate(-3.176 -0.813)" fill="#282828"/>
    <path id="Tracé_20358" data-name="Tracé 20358" d="M-442.5-380.431q1.863,0,3.727,0a.827.827,0,0,1,.805.547.751.751,0,0,1-.285.89,1.045,1.045,0,0,1-.522.171q-3.726.016-7.452.005a.816.816,0,0,1-.859-.817.822.822,0,0,1,.88-.8Q-444.356-380.434-442.5-380.431Z" transform="translate(-0.001 0)" fill="#282828"/>
    <path id="Tracé_20359" data-name="Tracé 20359" d="M-443.758-374.518c-.839,0-1.678,0-2.516,0a.817.817,0,0,1-.8-.648.784.784,0,0,1,.455-.876,1.073,1.073,0,0,1,.414-.085q2.447-.009,4.9,0a.829.829,0,0,1,.883.736.809.809,0,0,1-.659.859,1.352,1.352,0,0,1-.271.02h-2.4Z" transform="translate(0 -1.074)" fill="#282828"/>
    <path id="Tracé_20360" data-name="Tracé 20360" d="M-445.424-370.218c-.279,0-.559.005-.839,0a.811.811,0,0,1-.827-.8.81.81,0,0,1,.835-.8q.829-.01,1.658,0a.8.8,0,0,1,.834.795.805.805,0,0,1-.841.808C-444.878-370.214-445.151-370.217-445.424-370.218Z" transform="translate(-0.001 -2.151)" fill="#282828"/>
  </g>
</svg>
