<?xml version="1.0" encoding="utf-8"?>
<!-- Generator: Adobe Illustrator 27.0.0, SVG Export Plug-In . SVG Version: 6.00 Build 0)  -->
<svg version="1.1" id="Calque_1" xmlns="http://www.w3.org/2000/svg" xmlns:xlink="http://www.w3.org/1999/xlink" x="0px" y="0px"
	 viewBox="0 0 1560.5 889.4" style="enable-background:new 0 0 1560.5 889.4;" xml:space="preserve">
<style type="text/css">
	.st0{enable-background:new    ;}
	.st1{fill:none;stroke:#AEDED6;stroke-width:6;}
	.st2{opacity:0.2;fill:url(#Tracé_20341_00000034794417112538698560000003837440108515087770_);enable-background:new    ;}
	.st3{fill:#4C9C8E;}
	.st4{font-family:'Roboto-Medium';}
	.st5{font-size:40px;}
	.st6{opacity:0.197;fill:#282828;enable-background:new    ;}
	.st7{fill:#FFFFFF;}
	.st8{opacity:0.2;fill:#282828;enable-background:new    ;}
	.st9{fill:#56AAA0;}
	.st10{fill:#282828;}
	.st11{fill:#2F8577;}
	.st12{fill:none;stroke:#AEDED6;stroke-width:10;stroke-linecap:round;}
</style>
<g id="Steps" transform="translate(-875.004 -2323.898)">
	<g class="st0">
		<path class="st1" d="M2056.4,2864.7c0,61.3-11.5,107.6-34.4,138.7c-23,31.2-57.9,46.7-104.7,46.7c-46.1,0-80.8-15.2-104.2-45.6
			c-23.3-30.4-35.3-75.3-35.9-134.9v-73.8c0-61.3,11.5-107.3,34.4-138c22.9-30.7,58-46,105-46c46.7,0,81.5,14.9,104.4,44.8
			c22.9,29.9,34.7,74.6,35.3,134.2V2864.7z M1985.3,2785c0-40-5.5-69.4-16.4-88c-10.9-18.6-28.3-28-52.1-28
			c-23.2,0-40.3,8.8-51.3,26.5c-10.9,17.7-16.7,45.3-17.3,82.8v96.7c0,39.8,5.6,69.5,16.7,89.1c11.1,19.5,28.6,29.3,52.4,29.3
			c22.9,0,39.7-9,50.7-27.1c10.9-18.1,16.7-46.3,17.3-84.8V2785z"/>
		<path class="st1" d="M2406.2,3044.3h-286.8v-48.9l142.1-155c20.5-22.9,35.1-41.9,43.8-57.3c8.7-15.3,13-30.7,13-46.1
			c0-20.3-5.7-36.7-17.1-49.2c-11.4-12.5-26.8-18.8-46.1-18.8c-23,0-40.9,7-53.6,21.1c-12.7,14.1-19,33.3-19,57.7h-71.2
			c0-26,5.9-49.4,17.7-70.2c11.8-20.8,28.7-37,50.7-48.5c22-11.5,47.3-17.3,76-17.3c41.4,0,74.1,10.4,98,31.2
			c23.9,20.8,35.9,49.6,35.9,86.3c0,21.3-6,43.6-18,66.9c-12,23.3-31.7,49.9-59,79.5l-104.3,111.6h198V3044.3z"/>
	</g>
	
		<linearGradient id="Tracé_20341_00000152244149441868260920000002914712027713074606_" gradientUnits="userSpaceOnUse" x1="1356.5032" y1="3188.6062" x2="1357.7332" y2="3187.6113" gradientTransform="matrix(801.0005 0 0 -742.2048 -1085578.875 2369080.5)">
		<stop  offset="0" style="stop-color:#4C9C8E"/>
		<stop  offset="1" style="stop-color:#1A7061"/>
	</linearGradient>
	
		<path id="Tracé_20341" style="opacity:0.2;fill:url(#Tracé_20341_00000152244149441868260920000002914712027713074606_);enable-background:new    ;" d="
		M1330.8,2342.7L1330.8,2342.7c-33.2-22.1-83.5-23.3-118.2-10.8c-62.2,22.5-53.9,72.6-107.8,107.8c-53.9,35.3-105.8,22.8-157.6,68.6
		c-51.8,45.7-56.5,132.3-35.3,172.8c21.3,40.5,45.6,70.2,24.9,139.9c-20.7,69.7-18.7,150.7,64.3,193.3
		c83,42.6,147.2-48.2,201.2-29.6c53.9,18.7,155.5,101.4,267.5,76.7c112-24.7,62.2-109.6,134.8-133.7
		c72.6-24.2,114.1-107.6,89.2-195.7c-24.9-88.1-87.1-105-72.6-160.4c11-41.8,25.6-82.1-2.3-122.4c-36-52-97.7-74.3-157.4-69
		c-22.3,2.1-47.7,2.8-70.9-2.6C1364.1,2371.6,1351.9,2356.7,1330.8,2342.7z"/>
	<text transform="matrix(1 0 0 1 1553 2894.8979)" class="st3 st4 st5">•   Possède des technologies de pointes, 100% </text>
	<text transform="matrix(1 0 0 1 1553 2947.8979)" class="st3 st4 st5">made in Côte d’ivoire, aux standards </text>
	<text transform="matrix(1 0 0 1 1553 3000.8979)" class="st3 st4 st5">internationaux en termes de performances et </text>
	<text transform="matrix(1 0 0 1 1553 3053.8979)" class="st3 st4 st5">d’expérience utilisateurs</text>
	<g id="_100_civ" transform="translate(-21666.996 -1277.102)">
		<ellipse id="Ellipse_276" class="st6" cx="22971.4" cy="3910.7" rx="116.5" ry="118.5"/>
		<ellipse id="Ellipse_277" class="st7" cx="22971.4" cy="3901.3" rx="116.5" ry="116.3"/>
		<path id="Tracé_26498" class="st8" d="M23210.6,3955.6c0,33.1-8.7,65.7-25.3,94.4c-16.6,28.7-40.5,52.5-69.2,69.1l-46.1-79.7
			c14.7-8.5,27-20.7,35.5-35.4c8.5-14.7,13-31.4,13-48.4H23210.6z"/>
		<path id="Tracé_26500" class="st8" d="M22727.1,3958.7c0,33.1,8.7,65.7,25.3,94.4c16.6,28.7,40.5,52.5,69.2,69.1l46.1-79.7
			c-14.7-8.5-27-20.7-35.5-35.4c-8.5-14.7-13-31.4-13-48.4H22727.1z"/>
		<path id="Tracé_26499" class="st8" d="M23063.1,4141c-28.7,16.6-61.3,25.3-94.5,25.3c-33.2,0-65.8-8.7-94.5-25.3l46.1-79.7
			c14.7,8.5,31.4,13,48.4,13c17,0,33.7-4.5,48.4-13L23063.1,4141z"/>
		<path id="Tracé_26495" class="st9" d="M23210.6,3947.8c0,33.1-8.7,65.7-25.3,94.4c-16.6,28.7-40.5,52.5-69.2,69.1l-46.1-79.7
			c14.7-8.5,27-20.7,35.5-35.4c8.5-14.7,13-31.4,13-48.4H23210.6z"/>
		<path id="Tracé_26497" class="st10" d="M22726.3,3947.8c0,33.1,8.7,65.7,25.3,94.4c16.6,28.7,40.5,52.5,69.2,69.1l46.1-79.7
			c-14.7-8.5-27-20.7-35.5-35.4c-8.5-14.7-13-31.4-13-48.4H22726.3z"/>
		<g id="JooL-Box" transform="translate(22772.408 3999.035)">
			<path id="Tracé_26512" class="st7" d="M48.7,25H2.1c-0.4-0.1-0.7-0.2-1-0.4c-0.3-0.2-0.6-0.5-0.7-0.8c-0.2-0.3-0.3-0.7-0.4-1
				c0,0,0-0.1,0-0.1V2.2C0,2.1,0,2,0,2c0.1-0.5,0.4-1,0.8-1.3C1.3,0.3,1.8,0,2.4,0h21.8c0.5,0.1,0.9,0.3,1.3,0.6
				C25.8,1,26.1,1.4,26.2,2c0,0.2,0,0.4,0,0.6v19.9h6.3l-4.1-3.1l-0.6-0.5h21l-4.4,3.4L44,22.5h4.7c0.3,0,0.6,0.1,0.8,0.3
				c0.1,0.1,0.2,0.2,0.3,0.3c0.1,0.1,0.1,0.2,0.1,0.4V24c0,0,0,0.1,0,0.1c-0.1,0.2-0.2,0.4-0.4,0.6c-0.2,0.1-0.4,0.2-0.6,0.3
				L48.7,25z M12,13.1c0.6,0.6,1.3,1,2,1.3c0.6,0.2,1.2,0.4,1.9,0.4h0.8c0.6-0.1,1.1-0.4,1.6-0.7l0.4-0.3c0.3-0.2,0.5-0.4,0.8-0.7
				c0.3-0.3,0.5-0.6,0.8-1c0,0,0.1,0.4,0.2,0.6l0.6-0.2c-0.1-0.3-0.2-0.5-0.3-0.8c-0.1-0.2-0.1-0.3-0.2-0.5c0-0.1-0.1-0.1-0.2-0.2
				c-0.1-0.1-0.2-0.1-0.2-0.1h-0.2l-1.5,0.5c0.1,0.2,0.2,0.4,0.2,0.6h0.1l0.6-0.2c-0.3,0.4-0.6,0.7-1,1c-0.3,0.3-0.7,0.6-1.1,0.8
				c-0.2,0.2-0.5,0.3-0.8,0.3c-0.1,0-0.3,0-0.4,0h-0.8c-0.5-0.1-1-0.3-1.4-0.6c-0.4-0.2-0.8-0.6-1.2-0.9c0.4-0.6,1-1.1,1.6-1.4
				c0.5-0.2,0.9-0.3,1.4-0.4h0.6c0.3,0.1,0.5,0.2,0.8,0.3l0.3,0.2l0.5-0.6l-0.4-0.3c-0.2-0.1-0.4-0.2-0.6-0.3
				c-0.4-0.1-0.7-0.2-1.1-0.2l-0.8,0.1c-0.6,0.1-1.3,0.3-1.8,0.7c-0.5,0.3-0.9,0.6-1.3,1c-0.7-0.7-1.5-1.3-2.5-1.5
				c-0.4-0.1-0.7-0.2-1.1-0.2h-1c-0.6,0.1-1.2,0.4-1.6,0.8c-0.3,0.3-0.5,0.7-0.6,1.1c-0.1,0.4-0.1,0.9,0.1,1.3
				c0.1,0.3,0.3,0.6,0.5,0.9c0.2,0.3,0.5,0.5,0.8,0.6C7,15,7.3,15.1,7.6,15.1h0.6L9,15c1.2-0.2,2.2-0.8,3-1.7L12,13.1z"/>
			<path id="Tracé_26513" class="st7" d="M43.1,8.5h2.8c0,0,0.1,0.1,0.1,0.1c0.1,0.1,0.1,0.2,0,0.3c0,0-0.1,0.1-0.1,0.1h-2.7v0.6
				l0.2,0.1c0.2,0.1,0.2,0.3,0.2,0.5c0,0.1,0,0.1,0,0.2v1.1c0,0.2-0.1,0.3-0.2,0.5c-0.1,0.1-0.3,0.2-0.4,0.3c-0.2,0-0.4,0-0.6,0
				c-0.2,0-0.3-0.1-0.4-0.2c-0.1-0.1-0.2-0.3-0.2-0.4v-0.3c0,0,0-0.1,0-0.1h-0.7c0,0.1-0.1,0.3-0.2,0.4c-0.1,0.1-0.2,0.2-0.4,0.2H40
				c0,0.1,0,0.1,0,0.2l0.2,0.2c0.6,0.5,1,1.1,1.2,1.8c0.1,0.3,0.1,0.7,0.2,1c0,0.2,0,0.4,0,0.6c0,0.2,0,0.4,0,0.6c0,0,0,0.1,0,0.1
				c0,0,0,0.1,0,0.1c0,0-0.1,0.1-0.1,0.1c0,0-0.1,0-0.1,0c-0.1,0-0.1,0-0.2,0c-0.1,0-0.1-0.1-0.1-0.1c0-0.1,0-0.2,0-0.3v0.3
				c0-0.5-0.1-1.1-0.2-1.6c-0.1-0.2-0.2-0.5-0.3-0.7c-0.2-0.4-0.5-0.8-0.9-1.1c-0.1-0.1-0.3-0.1-0.4,0h-2.6c-0.1,0-0.1,0-0.2,0
				c-0.4,0.3-0.7,0.6-0.9,1.1c-0.2,0.5-0.4,1-0.5,1.6v1.1c0,0,0,0.1,0,0.1c0,0,0,0.1-0.1,0.1c0,0-0.1,0-0.1,0.1c-0.1,0-0.2,0-0.2,0
				c0,0-0.1,0-0.1-0.1c0,0,0-0.1-0.1-0.1c0,0,0-0.1,0-0.1v-0.4c0-0.1,0-0.3,0-0.4c0-0.6,0.2-1.3,0.5-1.9c0.1-0.3,0.3-0.6,0.5-0.8
				c0.2-0.3,0.5-0.5,0.8-0.7c0.1-0.1,0.1-0.1,0.2-0.2h-0.5c-0.2,0-0.3-0.1-0.4-0.1c-0.1-0.1-0.2-0.2-0.3-0.4v-0.1h-0.6V12
				c0,0.1-0.1,0.3-0.1,0.4c-0.1,0.1-0.2,0.2-0.3,0.3c-0.2,0.1-0.5,0.2-0.8,0c-0.1,0-0.3-0.1-0.4-0.3c-0.1-0.1-0.1-0.3-0.2-0.4v-1.6
				c0-0.1,0-0.3,0.1-0.4c0.1-0.1,0.2-0.2,0.3-0.3c0,0,0-0.1,0-0.1V9.1h-2.5c-0.1,0-0.2,0-0.2-0.1c-0.1,0-0.1-0.1-0.2-0.2
				c-0.1-0.1-0.1-0.2,0-0.2c0-0.1,0.1-0.1,0.1-0.1c0.1,0,0.1-0.1,0.2-0.1h2.5c0-0.1,0-0.1,0-0.2c0.1-0.1,0.3-0.1,0.4,0v0.1
				c0,0,0,0.1,0,0.1h2.8c0.1,0,0.1,0.1,0.1,0.1c0,0,0,0.1,0,0.1c0,0.1,0,0.1,0,0.2c0,0.1-0.1,0.1-0.1,0.1h-2.4v0.5
				c0.1,0.1,0.3,0.2,0.3,0.3c0.1,0.1,0.1,0.3,0.1,0.4v0.3h0.6c0,0,0-0.1,0-0.1c0-0.1,0.1-0.3,0.2-0.4c0.1-0.1,0.3-0.1,0.4-0.1h5
				c0.2,0,0.3,0.1,0.4,0.2c0.1,0.1,0.2,0.2,0.2,0.4c0,0,0,0.1,0,0.1h0.5v-0.3c0-0.2,0-0.3,0.1-0.4c0.1-0.1,0.2-0.2,0.4-0.3V9.1h-2.8
				c0-0.1,0-0.1,0-0.2c0-0.1,0-0.1,0-0.2c0,0,0.1-0.1,0.2-0.1h2.8V8.4c0.1-0.1,0.3-0.1,0.4,0c0,0.1,0,0.1,0,0.2L43.1,8.5z"/>
			<path id="Tracé_26514" class="st7" d="M11.5,12.5c-0.3,0.3-0.6,0.6-0.9,0.8C10,13.6,9.4,13.9,8.7,14H8.2c-0.3,0-0.5,0-0.8,0
				c-0.2-0.1-0.5-0.2-0.7-0.3c-0.3-0.2-0.5-0.6-0.6-1c-0.1-0.3,0-0.7,0.2-1c0.1-0.2,0.3-0.4,0.5-0.5c0.2-0.1,0.4-0.2,0.7-0.3h0.6
				c0.6,0.1,1.2,0.2,1.8,0.5C10.6,11.6,11.1,12,11.5,12.5L11.5,12.5z"/>
		</g>
		<path id="Tracé_26496" class="st11" d="M23063.1,4133.2c-28.7,16.6-61.3,25.3-94.5,25.3c-33.2,0-65.8-8.7-94.5-25.3l46.1-79.7
			c14.7,8.5,31.4,13,48.4,13c17,0,33.7-4.5,48.4-13L23063.1,4133.2z"/>
		<g id="famille" transform="translate(22940.404 4089.966)">
			<path id="Tracé_26506" class="st7" d="M50,20.6c-0.1-1-0.5-2-1.2-2.9c-0.6-0.8-1.4-1.4-2.3-1.9c-0.5-0.4-1.1-0.6-1.7-0.7
				c-0.9-0.1-1.9-0.1-2.8,0c-0.2,0.3-0.5,0.6-0.9,0.9c-1.7,1.2-4.1,0.8-5.4-0.9h-2.5c-1.1,0.2-2.1,0.6-3,1.2H31
				c1.4,0,2.9,0.3,4.2,0.9c0.9,0.4,1.7,1.1,2.3,1.8c0.7,0.8,1.1,1.8,1.3,2.9c0,0.3,0,0.6,0,1h10c0.7,0,1.2-0.6,1.2-1.3c0,0,0,0,0,0
				C50,21.3,50,21,50,20.6z"/>
			<path id="Tracé_26507" class="st7" d="M36.3,20.1c-0.7-0.9-1.5-1.6-2.5-2.2c-0.6-0.4-1.3-0.7-2-0.8c-1.1-0.1-2.2-0.1-3.2,0
				c-0.3,0.4-0.6,0.7-1,1c-0.4,0.3-0.8,0.4-1.2,0.6c-1.8,0.6-3.8,0-5-1.6h-2.9c-1.3,0.2-2.4,0.7-3.5,1.4c-0.6,0.5-1.2,1-1.6,1.6
				c-0.7,1-1.2,2.1-1.4,3.3c0,0.4,0,0.8,0,1.2c0,0.3,0.2,0.6,0.4,0.9c0.3,0.3,0.8,0.5,1.3,0.4h23.1c0.8-0.1,1.4-0.7,1.4-1.5
				c0,0,0,0,0,0c0-0.4,0-0.7,0-1.1C37.9,22.2,37.2,21,36.3,20.1z"/>
			<path id="Tracé_26508" class="st7" d="M38.8,0.2c-2.7,0-5.1,1.6-6,4.1c0.7,1.1,1,2.3,1,3.5c0,0.7-0.1,1.4-0.4,2.1
				c1.2,1.8,3.2,2.8,5.4,2.8c3.5,0.3,6.5-2.2,6.8-5.7s-2.2-6.5-5.7-6.8C39.5,0.2,39.2,0.2,38.8,0.2L38.8,0.2z"/>
			<path id="Tracé_26509" class="st7" d="M0.1,20.6c0.2-1.1,0.6-2.1,1.3-2.9C2,17,2.8,16.3,3.8,15.9c0.5-0.4,1.1-0.6,1.7-0.7
				c0.9-0.1,1.9-0.1,2.8,0c0.2,0.3,0.5,0.6,0.9,0.9c1.7,1.2,4.1,0.8,5.4-0.9H17c1.1,0.2,2.1,0.6,3,1.2h-0.8c-1.4,0-2.9,0.3-4.2,0.9
				c-0.9,0.4-1.7,1.1-2.3,1.8c-0.7,0.8-1.1,1.8-1.3,2.9c0,0.3,0,0.6,0,1H1.3C0.6,23,0,22.4,0,21.7c0,0,0-0.1,0-0.1
				C0,21.3,0,20.9,0.1,20.6z"/>
			<path id="Tracé_26510" class="st7" d="M11.3,0.2c2.7,0,5.1,1.6,6,4.1c-0.7,1.1-1,2.3-1,3.5c0,0.7,0.1,1.4,0.4,2.1
				c-1.2,1.8-3.2,2.8-5.4,2.8C7.8,12.7,5,9.9,5,6.5C5,3,7.8,0.2,11.3,0.2L11.3,0.2z"/>
			<path id="Tracé_26511" class="st7" d="M31,3.2c-1.4-2-3.7-3.2-6.2-3.2c-4,0-7.2,3.3-7.2,7.4c0,4,3.3,7.2,7.4,7.2
				c3.1,0,5.8-2,6.8-4.9c0.3-0.8,0.4-1.6,0.4-2.5C32.2,5.8,31.8,4.4,31,3.2z"/>
		</g>
		<g class="st0">
			<path class="st10" d="M22911.5,3906.4h-8v-38.8l-11.9,4v-6.8l18.9-6.9h1V3906.4z"/>
			<path class="st10" d="M22959.8,3886c0,7-1.3,12.2-3.9,15.7c-2.6,3.5-6.6,5.3-11.9,5.3c-5.2,0-9.2-1.7-11.8-5.2
				c-2.6-3.4-4-8.5-4.1-15.3v-8.4c0-7,1.3-12.2,3.9-15.6c2.6-3.5,6.6-5.2,11.9-5.2c5.3,0,9.2,1.7,11.8,5.1c2.6,3.4,3.9,8.5,4,15.2
				V3886z M22951.7,3877c0-4.5-0.6-7.9-1.9-10c-1.2-2.1-3.2-3.2-5.9-3.2c-2.6,0-4.6,1-5.8,3c-1.2,2-1.9,5.1-2,9.4v11
				c0,4.5,0.6,7.9,1.9,10.1c1.3,2.2,3.2,3.3,5.9,3.3c2.6,0,4.5-1,5.7-3.1c1.2-2,1.9-5.3,2-9.6V3877z"/>
			<path class="st10" d="M22998.4,3886c0,7-1.3,12.2-3.9,15.7c-2.6,3.5-6.6,5.3-11.9,5.3c-5.2,0-9.2-1.7-11.8-5.2
				c-2.6-3.4-4-8.5-4.1-15.3v-8.4c0-7,1.3-12.2,3.9-15.6c2.6-3.5,6.6-5.2,11.9-5.2c5.3,0,9.2,1.7,11.8,5.1c2.6,3.4,3.9,8.5,4,15.2
				V3886z M22990.4,3877c0-4.5-0.6-7.9-1.9-10c-1.2-2.1-3.2-3.2-5.9-3.2c-2.6,0-4.6,1-5.8,3c-1.2,2-1.9,5.1-2,9.4v11
				c0,4.5,0.6,7.9,1.9,10.1c1.3,2.2,3.2,3.3,5.9,3.3c2.6,0,4.5-1,5.7-3.1c1.2-2,1.9-5.3,2-9.6V3877z"/>
			<path class="st10" d="M23005.2,3867.3c0-2.9,0.9-5.3,2.8-7.2c1.9-1.9,4.3-2.8,7.4-2.8c3.1,0,5.6,0.9,7.5,2.8
				c1.9,1.9,2.8,4.3,2.8,7.4v2.4c0,2.9-0.9,5.3-2.8,7.1c-1.9,1.9-4.3,2.8-7.4,2.8c-3,0-5.5-0.9-7.4-2.7c-1.9-1.8-2.9-4.3-2.9-7.4
				V3867.3z M23010.9,3869.9c0,1.5,0.4,2.8,1.3,3.7c0.9,0.9,2,1.4,3.4,1.4c1.4,0,2.5-0.5,3.3-1.4c0.8-0.9,1.3-2.2,1.3-3.8v-2.4
				c0-1.5-0.4-2.8-1.3-3.7c-0.9-1-2-1.4-3.4-1.4s-2.5,0.5-3.3,1.4s-1.2,2.2-1.2,3.8V3869.9z M23017.2,3902.8l-4.2-2.4l23.6-37.8
				l4.2,2.4L23017.2,3902.8z M23028.5,3894.5c0-3,1-5.4,2.9-7.2c1.9-1.8,4.4-2.8,7.4-2.8c3,0,5.5,0.9,7.4,2.8
				c1.9,1.8,2.9,4.3,2.9,7.4v2.4c0,2.9-0.9,5.3-2.8,7.1c-1.8,1.9-4.3,2.8-7.4,2.8c-3.1,0-5.6-0.9-7.5-2.8c-1.9-1.8-2.8-4.3-2.8-7.3
				V3894.5z M23034.1,3897.1c0,1.5,0.4,2.7,1.3,3.7c0.9,1,2,1.4,3.4,1.4c1.4,0,2.5-0.5,3.3-1.4c0.8-0.9,1.2-2.2,1.2-3.9v-2.5
				c0-1.5-0.4-2.8-1.3-3.7s-2-1.4-3.3-1.4c-1.4,0-2.5,0.5-3.3,1.4c-0.9,0.9-1.3,2.2-1.3,3.9V3897.1z"/>
		</g>
		<g class="st0">
			<path class="st10" d="M22902,3950.2c-0.2,2.2-1,3.9-2.4,5.1c-1.4,1.2-3.3,1.8-5.7,1.8c-1.6,0-3.1-0.4-4.3-1.2
				c-1.3-0.8-2.2-1.9-2.9-3.3c-0.7-1.4-1-3.1-1.1-5v-1.9c0-1.9,0.3-3.7,1-5.1c0.7-1.5,1.7-2.6,3-3.4c1.3-0.8,2.8-1.2,4.5-1.2
				c2.3,0,4.1,0.6,5.5,1.8c1.4,1.2,2.2,3,2.4,5.2h-3.6c-0.2-1.5-0.6-2.6-1.3-3.2s-1.7-1-3.1-1c-1.6,0-2.8,0.6-3.6,1.7
				s-1.3,2.8-1.3,5v1.8c0,2.2,0.4,3.9,1.2,5.1c0.8,1.2,2,1.8,3.5,1.8c1.4,0,2.5-0.3,3.2-0.9c0.7-0.6,1.2-1.7,1.3-3.2H22902z"/>
			<path class="st10" d="M22904.2,3949.1c0-1.5,0.3-2.9,0.9-4.1c0.6-1.2,1.4-2.1,2.5-2.8s2.3-1,3.7-1c2.1,0,3.7,0.7,5,2
				c1.3,1.3,2,3.1,2.1,5.3l0,0.8c0,1.5-0.3,2.9-0.9,4c-0.6,1.2-1.4,2.1-2.5,2.8c-1.1,0.7-2.3,1-3.7,1c-2.2,0-3.9-0.7-5.2-2.2
				c-1.3-1.4-1.9-3.4-1.9-5.8V3949.1z M22916.1,3939v0.2l-2.8,0l-2.1-2.2l-2.1,2.2l-2.7,0v-0.2l3.8-3.9h2L22916.1,3939z
				 M22907.6,3949.4c0,1.6,0.3,2.8,1,3.7c0.7,0.9,1.6,1.3,2.7,1.3c1.2,0,2.1-0.5,2.7-1.4s1-2.2,1-4c0-1.5-0.3-2.8-1-3.7
				s-1.6-1.4-2.7-1.4c-1.1,0-2,0.4-2.7,1.3C22908,3946.3,22907.6,3947.6,22907.6,3949.4z"/>
			<path class="st10" d="M22925.7,3937.8v3.7h2.7v2.5h-2.7v8.6c0,0.6,0.1,1,0.3,1.3c0.2,0.3,0.6,0.4,1.2,0.4c0.4,0,0.8,0,1.2-0.1
				v2.7c-0.8,0.2-1.5,0.3-2.3,0.3c-2.6,0-4-1.5-4-4.4v-8.7h-2.5v-2.5h2.5v-3.7H22925.7z"/>
			<path class="st10" d="M22937.7,3957.2c-2.2,0-3.9-0.7-5.3-2.1c-1.4-1.4-2-3.2-2-5.5v-0.4c0-1.5,0.3-2.9,0.9-4.1
				c0.6-1.2,1.4-2.1,2.5-2.8c1.1-0.7,2.3-1,3.6-1c2.1,0,3.7,0.7,4.8,2c1.1,1.3,1.7,3.2,1.7,5.6v1.4h-10c0.1,1.3,0.5,2.3,1.3,3
				c0.7,0.7,1.7,1.1,2.8,1.1c1.6,0,2.9-0.6,3.9-1.9l1.9,1.8c-0.6,0.9-1.4,1.6-2.5,2.1C22940.2,3956.9,22939,3957.2,22937.7,3957.2z
				 M22937.3,3944c-0.9,0-1.7,0.3-2.3,1c-0.6,0.7-1,1.6-1.1,2.8h6.6v-0.3c-0.1-1.2-0.4-2-0.9-2.6
				C22939,3944.3,22938.3,3944,22937.3,3944z"/>
			<path class="st10" d="M22953.1,3949.1c0-2.4,0.5-4.3,1.6-5.7c1.1-1.4,2.6-2.1,4.4-2.1c1.6,0,2.9,0.6,3.9,1.7v-7.8h3.4v21.8h-3.1
				l-0.2-1.6c-1,1.2-2.4,1.9-4.1,1.9c-1.8,0-3.2-0.7-4.4-2.2C22953.7,3953.6,22953.1,3951.6,22953.1,3949.1z M22956.6,3949.4
				c0,1.6,0.3,2.8,0.9,3.6s1.5,1.3,2.6,1.3c1.4,0,2.4-0.6,3.1-1.9v-6.5c-0.6-1.2-1.7-1.8-3.1-1.8c-1.1,0-2,0.4-2.6,1.3
				C22956.9,3946.3,22956.6,3947.6,22956.6,3949.4z"/>
			<path class="st10" d="M22970.9,3942.4l-1.8-1.1c0.8-1.2,1.3-2.5,1.3-3.9v-2.2h3v2c0,1-0.2,2-0.7,2.9
				S22971.6,3941.8,22970.9,3942.4z"/>
			<path class="st10" d="M22980.5,3956.9h-3.6v-20.6h3.6V3956.9z"/>
			<path class="st10" d="M22990,3952.5l3.2-11h3.6l-5.3,15.3h-3l-5.4-15.3h3.6L22990,3952.5z"/>
			<path class="st10" d="M22998.1,3949.1c0-1.5,0.3-2.9,0.9-4.1c0.6-1.2,1.4-2.1,2.5-2.8s2.3-1,3.7-1c2.1,0,3.7,0.7,5,2
				c1.3,1.3,2,3.1,2.1,5.3l0,0.8c0,1.5-0.3,2.9-0.9,4c-0.6,1.2-1.4,2.1-2.5,2.8c-1.1,0.7-2.3,1-3.7,1c-2.2,0-3.9-0.7-5.2-2.2
				c-1.3-1.4-1.9-3.4-1.9-5.8V3949.1z M23001.5,3949.4c0,1.6,0.3,2.8,1,3.7c0.7,0.9,1.6,1.3,2.7,1.3c1.2,0,2.1-0.5,2.7-1.4
				s1-2.2,1-4c0-1.5-0.3-2.8-1-3.7s-1.6-1.4-2.7-1.4c-1.1,0-2,0.4-2.7,1.3C23001.9,3946.3,23001.5,3947.6,23001.5,3949.4z"/>
			<path class="st10" d="M23015.3,3937.6c0-0.5,0.2-1,0.5-1.3c0.3-0.3,0.8-0.5,1.4-0.5s1.1,0.2,1.4,0.5s0.5,0.8,0.5,1.3
				c0,0.5-0.2,1-0.5,1.3s-0.8,0.5-1.4,0.5s-1.1-0.2-1.4-0.5C23015.4,3938.5,23015.3,3938.1,23015.3,3937.6z M23018.9,3956.9h-3.4
				v-15.3h3.4V3956.9z"/>
			<path class="st10" d="M23030.7,3944.7c-0.5-0.1-0.9-0.1-1.4-0.1c-1.6,0-2.6,0.6-3.2,1.8v10.5h-3.4v-15.3h3.3l0.1,1.7
				c0.8-1.3,2-2,3.5-2c0.5,0,0.9,0.1,1.2,0.2L23030.7,3944.7z"/>
			<path class="st10" d="M23039.6,3957.2c-2.2,0-3.9-0.7-5.3-2.1c-1.4-1.4-2-3.2-2-5.5v-0.4c0-1.5,0.3-2.9,0.9-4.1
				c0.6-1.2,1.4-2.1,2.5-2.8c1.1-0.7,2.3-1,3.6-1c2.1,0,3.7,0.7,4.8,2c1.1,1.3,1.7,3.2,1.7,5.6v1.4h-10c0.1,1.3,0.5,2.3,1.3,3
				c0.7,0.7,1.7,1.1,2.8,1.1c1.6,0,2.9-0.6,3.9-1.9l1.9,1.8c-0.6,0.9-1.4,1.6-2.5,2.1S23040.9,3957.2,23039.6,3957.2z M23039.2,3944
				c-0.9,0-1.7,0.3-2.3,1c-0.6,0.7-0.9,1.6-1.1,2.8h6.6v-0.3c-0.1-1.2-0.4-2-0.9-2.6C23040.9,3944.3,23040.2,3944,23039.2,3944z"/>
		</g>
		<g class="st0">
			<path class="st10" d="M22561.1,4086.6h-3.7v-9.5h-9.5v9.5h-3.7v-21.3h3.7v8.9h9.5v-8.9h3.7V4086.6z"/>
			<path class="st10" d="M22574.6,4086.6c-0.2-0.3-0.3-0.8-0.4-1.5c-1.1,1.2-2.5,1.8-4.2,1.8c-1.6,0-2.9-0.5-3.9-1.4s-1.5-2-1.5-3.4
				c0-1.7,0.6-3,1.9-3.9c1.3-0.9,3.1-1.4,5.4-1.4h2.2v-1c0-0.8-0.2-1.5-0.7-2c-0.5-0.5-1.2-0.7-2.1-0.7c-0.8,0-1.5,0.2-2,0.6
				s-0.8,0.9-0.8,1.5h-3.6c0-0.9,0.3-1.7,0.9-2.4c0.6-0.8,1.4-1.3,2.3-1.8c1-0.4,2.1-0.6,3.3-0.6c1.9,0,3.3,0.5,4.4,1.4
				c1.1,0.9,1.7,2.2,1.7,3.9v7.1c0,1.4,0.2,2.6,0.6,3.4v0.2H22574.6z M22570.7,4084c0.7,0,1.4-0.2,2-0.5c0.6-0.3,1.1-0.8,1.4-1.4v-3
				h-1.9c-1.3,0-2.3,0.2-3,0.7s-1,1.1-1,1.9c0,0.7,0.2,1.2,0.7,1.6C22569.3,4083.8,22569.9,4084,22570.7,4084z"/>
			<path class="st10" d="M22589.7,4074c-0.5-0.1-1-0.1-1.4-0.1c-1.6,0-2.7,0.6-3.3,1.9v10.8h-3.6v-15.8h3.4l0.1,1.8
				c0.9-1.4,2.1-2.1,3.6-2.1c0.5,0,0.9,0.1,1.3,0.2L22589.7,4074z"/>
			<path class="st10" d="M22591.2,4078.5c0-2.4,0.6-4.4,1.7-5.9c1.1-1.5,2.7-2.2,4.6-2.2c1.7,0,3,0.6,4.1,1.8v-8.1h3.6v22.5h-3.2
				l-0.2-1.6c-1.1,1.3-2.5,1.9-4.3,1.9c-1.9,0-3.4-0.7-4.5-2.2C22591.8,4083.1,22591.2,4081.1,22591.2,4078.5z M22594.8,4078.9
				c0,1.6,0.3,2.9,0.9,3.8c0.6,0.9,1.5,1.4,2.6,1.4c1.5,0,2.5-0.6,3.2-1.9v-6.8c-0.7-1.3-1.7-1.9-3.2-1.9c-1.2,0-2,0.5-2.7,1.4
				S22594.8,4077,22594.8,4078.9z"/>
			<path class="st10" d="M22622.8,4081.7l2.5-10.9h3.5l-4.3,15.8h-2.9l-3.4-10.9l-3.3,10.9h-2.9l-4.3-15.8h3.5l2.6,10.8l3.3-10.8
				h2.7L22622.8,4081.7z"/>
			<path class="st10" d="M22640.6,4086.6c-0.2-0.3-0.3-0.8-0.4-1.5c-1.1,1.2-2.5,1.8-4.2,1.8c-1.6,0-2.9-0.5-3.9-1.4s-1.5-2-1.5-3.4
				c0-1.7,0.6-3,1.9-3.9c1.3-0.9,3.1-1.4,5.4-1.4h2.2v-1c0-0.8-0.2-1.5-0.7-2c-0.5-0.5-1.2-0.7-2.1-0.7c-0.8,0-1.5,0.2-2,0.6
				s-0.8,0.9-0.8,1.5h-3.6c0-0.9,0.3-1.7,0.9-2.4c0.6-0.8,1.4-1.3,2.3-1.8c1-0.4,2.1-0.6,3.3-0.6c1.9,0,3.3,0.5,4.4,1.4
				c1.1,0.9,1.7,2.2,1.7,3.9v7.1c0,1.4,0.2,2.6,0.6,3.4v0.2H22640.6z M22636.7,4084c0.7,0,1.4-0.2,2-0.5c0.6-0.3,1.1-0.8,1.4-1.4v-3
				h-1.9c-1.3,0-2.3,0.2-3,0.7s-1,1.1-1,1.9c0,0.7,0.2,1.2,0.7,1.6C22635.3,4083.8,22635.9,4084,22636.7,4084z"/>
			<path class="st10" d="M22655.7,4074c-0.5-0.1-1-0.1-1.4-0.1c-1.6,0-2.7,0.6-3.3,1.9v10.8h-3.6v-15.8h3.4l0.1,1.8
				c0.9-1.4,2.1-2.1,3.6-2.1c0.5,0,0.9,0.1,1.3,0.2L22655.7,4074z"/>
			<path class="st10" d="M22664.9,4086.9c-2.3,0-4.1-0.7-5.5-2.1c-1.4-1.4-2.1-3.3-2.1-5.7v-0.4c0-1.6,0.3-3,0.9-4.2
				c0.6-1.2,1.5-2.2,2.6-2.9s2.3-1,3.7-1c2.2,0,3.8,0.7,5,2.1c1.2,1.4,1.8,3.3,1.8,5.8v1.4h-10.4c0.1,1.3,0.5,2.3,1.3,3.1
				c0.8,0.8,1.7,1.1,2.9,1.1c1.6,0,3-0.7,4-2l1.9,1.8c-0.6,0.9-1.5,1.7-2.5,2.2C22667.4,4086.6,22666.2,4086.9,22664.9,4086.9z
				 M22664.5,4073.3c-1,0-1.8,0.3-2.4,1c-0.6,0.7-1,1.6-1.1,2.9h6.8v-0.3c-0.1-1.2-0.4-2.1-1-2.7
				C22666.2,4073.6,22665.5,4073.3,22664.5,4073.3z"/>
		</g>
		<g class="st0">
			<path class="st10" d="M23260.3,4081.1c0-0.9-0.3-1.7-1-2.2c-0.7-0.5-1.8-1-3.6-1.5s-3.1-1.1-4.1-1.7c-1.9-1.2-2.9-2.8-2.9-4.8
				c0-1.7,0.7-3.1,2.1-4.2c1.4-1.1,3.2-1.7,5.5-1.7c1.5,0,2.8,0.3,4,0.8s2.1,1.3,2.7,2.3c0.7,1,1,2.1,1,3.4h-3.7c0-1.1-0.3-2-1-2.6
				c-0.7-0.6-1.7-0.9-3-0.9c-1.2,0-2.2,0.3-2.8,0.8c-0.7,0.5-1,1.2-1,2.2c0,0.8,0.4,1.4,1.1,2s1.9,1,3.6,1.5s3,1.1,4,1.7
				c1,0.6,1.7,1.4,2.2,2.2c0.5,0.8,0.7,1.8,0.7,2.9c0,1.8-0.7,3.2-2,4.2c-1.4,1-3.2,1.6-5.5,1.6c-1.5,0-3-0.3-4.3-0.9
				c-1.3-0.6-2.3-1.4-3-2.4c-0.7-1-1.1-2.2-1.1-3.5h3.7c0,1.2,0.4,2.1,1.2,2.8s1.9,1,3.4,1c1.3,0,2.3-0.3,2.9-0.8
				C23260,4082.6,23260.3,4082,23260.3,4081.1z"/>
			<path class="st10" d="M23266.3,4078.5c0-1.6,0.3-3,0.9-4.2c0.6-1.2,1.5-2.2,2.6-2.9s2.4-1,3.8-1c2.1,0,3.9,0.7,5.2,2.1
				c1.3,1.4,2.1,3.2,2.2,5.5l0,0.8c0,1.6-0.3,3-0.9,4.2c-0.6,1.2-1.5,2.2-2.6,2.9c-1.1,0.7-2.4,1-3.9,1c-2.2,0-4-0.7-5.4-2.2
				c-1.3-1.5-2-3.5-2-6V4078.5z M23269.8,4078.8c0,1.6,0.3,2.9,1,3.8c0.7,0.9,1.6,1.4,2.8,1.4s2.1-0.5,2.8-1.4c0.7-0.9,1-2.3,1-4.1
				c0-1.6-0.3-2.9-1-3.8c-0.7-0.9-1.6-1.4-2.8-1.4c-1.2,0-2.1,0.5-2.8,1.4C23270.2,4075.6,23269.8,4077,23269.8,4078.8z"/>
			<path class="st10" d="M23285.3,4086.6v-13.2h-2.4v-2.6h2.4v-1.5c0-1.8,0.5-3.1,1.5-4.1s2.3-1.4,4.1-1.4c0.6,0,1.3,0.1,2,0.3
				l-0.1,2.8c-0.4-0.1-0.8-0.1-1.4-0.1c-1.7,0-2.5,0.9-2.5,2.6v1.4h3.2v2.6h-3.2v13.2H23285.3z"/>
			<path class="st10" d="M23299.1,4066.9v3.9h2.8v2.6h-2.8v8.8c0,0.6,0.1,1,0.4,1.3c0.2,0.3,0.7,0.4,1.3,0.4c0.4,0,0.8,0,1.2-0.1
				v2.8c-0.8,0.2-1.6,0.3-2.3,0.3c-2.7,0-4.1-1.5-4.1-4.5v-9h-2.6v-2.6h2.6v-3.9H23299.1z"/>
			<path class="st10" d="M23318.5,4081.7l2.5-10.9h3.5l-4.3,15.8h-2.9l-3.4-10.9l-3.3,10.9h-2.9l-4.3-15.8h3.5l2.6,10.8l3.3-10.8
				h2.7L23318.5,4081.7z"/>
			<path class="st10" d="M23336.4,4086.6c-0.2-0.3-0.3-0.8-0.4-1.5c-1.1,1.2-2.5,1.8-4.2,1.8c-1.6,0-2.9-0.5-3.9-1.4s-1.5-2-1.5-3.4
				c0-1.7,0.6-3,1.9-3.9c1.3-0.9,3.1-1.4,5.4-1.4h2.2v-1c0-0.8-0.2-1.5-0.7-2c-0.5-0.5-1.2-0.7-2.1-0.7c-0.8,0-1.5,0.2-2,0.6
				s-0.8,0.9-0.8,1.5h-3.6c0-0.9,0.3-1.7,0.9-2.4c0.6-0.8,1.4-1.3,2.3-1.8c1-0.4,2.1-0.6,3.3-0.6c1.9,0,3.3,0.5,4.4,1.4
				c1.1,0.9,1.7,2.2,1.7,3.9v7.1c0,1.4,0.2,2.6,0.6,3.4v0.2H23336.4z M23332.5,4084c0.7,0,1.4-0.2,2-0.5c0.6-0.3,1.1-0.8,1.4-1.4v-3
				h-1.9c-1.3,0-2.3,0.2-3,0.7s-1,1.1-1,1.9c0,0.7,0.2,1.2,0.7,1.6C23331.1,4083.8,23331.7,4084,23332.5,4084z"/>
			<path class="st10" d="M23351.4,4074c-0.5-0.1-1-0.1-1.4-0.1c-1.6,0-2.7,0.6-3.3,1.9v10.8h-3.6v-15.8h3.4l0.1,1.8
				c0.9-1.4,2.1-2.1,3.6-2.1c0.5,0,0.9,0.1,1.3,0.2L23351.4,4074z"/>
			<path class="st10" d="M23360.7,4086.9c-2.3,0-4.1-0.7-5.5-2.1c-1.4-1.4-2.1-3.3-2.1-5.7v-0.4c0-1.6,0.3-3,0.9-4.2
				c0.6-1.2,1.5-2.2,2.6-2.9s2.3-1,3.7-1c2.2,0,3.8,0.7,5,2.1c1.2,1.4,1.8,3.3,1.8,5.8v1.4h-10.4c0.1,1.3,0.5,2.3,1.3,3.1
				c0.8,0.8,1.7,1.1,2.9,1.1c1.6,0,3-0.7,4-2l1.9,1.8c-0.6,0.9-1.5,1.7-2.5,2.2C23363.2,4086.6,23362,4086.9,23360.7,4086.9z
				 M23360.2,4073.3c-1,0-1.8,0.3-2.4,1c-0.6,0.7-1,1.6-1.1,2.9h6.8v-0.3c-0.1-1.2-0.4-2.1-1-2.7
				C23362,4073.6,23361.2,4073.3,23360.2,4073.3z"/>
		</g>
		<g class="st0">
			<path class="st10" d="M22966.4,4214.8h-6.7v18.3h-3.7v-18.3h-6.6v-3h16.9V4214.8z"/>
			<path class="st10" d="M22975.9,4233.5c-2.3,0-4.1-0.7-5.5-2.1c-1.4-1.4-2.1-3.3-2.1-5.7v-0.4c0-1.6,0.3-3,0.9-4.2
				c0.6-1.2,1.5-2.2,2.6-2.9s2.3-1,3.7-1c2.2,0,3.8,0.7,5,2.1c1.2,1.4,1.8,3.3,1.8,5.8v1.4h-10.4c0.1,1.3,0.5,2.3,1.3,3.1
				c0.8,0.8,1.7,1.1,2.9,1.1c1.6,0,3-0.7,4-2l1.9,1.8c-0.6,0.9-1.5,1.7-2.5,2.2C22978.4,4233.2,22977.2,4233.5,22975.9,4233.5z
				 M22975.4,4219.9c-1,0-1.8,0.3-2.4,1c-0.6,0.7-1,1.6-1.1,2.9h6.8v-0.3c-0.1-1.2-0.4-2.1-1-2.7
				C22977.2,4220.2,22976.4,4219.9,22975.4,4219.9z"/>
			<path class="st10" d="M22994.4,4233.2c-0.2-0.3-0.3-0.8-0.4-1.5c-1.1,1.2-2.5,1.8-4.2,1.8c-1.6,0-2.9-0.5-3.9-1.4s-1.5-2-1.5-3.4
				c0-1.7,0.6-3,1.9-3.9c1.3-0.9,3-1.4,5.4-1.4h2.2v-1c0-0.8-0.2-1.5-0.7-2c-0.5-0.5-1.2-0.7-2.1-0.7c-0.8,0-1.5,0.2-2,0.6
				s-0.8,0.9-0.8,1.5h-3.6c0-0.9,0.3-1.7,0.9-2.4c0.6-0.8,1.4-1.3,2.4-1.8c1-0.4,2.1-0.6,3.3-0.6c1.9,0,3.3,0.5,4.4,1.4
				c1.1,0.9,1.7,2.2,1.7,3.9v7.1c0,1.4,0.2,2.6,0.6,3.4v0.2H22994.4z M22990.5,4230.6c0.7,0,1.4-0.2,2-0.5c0.6-0.3,1.1-0.8,1.4-1.4
				v-3h-1.9c-1.3,0-2.3,0.2-3,0.7s-1,1.1-1,1.9c0,0.7,0.2,1.2,0.7,1.6C22989.2,4230.4,22989.8,4230.6,22990.5,4230.6z"/>
			<path class="st10" d="M23004.6,4217.3l0.1,1.7c1.1-1.3,2.6-1.9,4.6-1.9c2.1,0,3.6,0.8,4.4,2.4c1.2-1.6,2.8-2.4,4.9-2.4
				c1.7,0,3,0.5,3.9,1.5c0.9,1,1.3,2.4,1.3,4.3v10.4h-3.6v-10.3c0-1-0.2-1.7-0.7-2.2s-1.2-0.7-2.2-0.7c-0.8,0-1.5,0.2-2,0.7
				c-0.5,0.4-0.9,1-1.1,1.7l0,10.9h-3.6v-10.4c0-1.9-1-2.8-2.9-2.8c-1.4,0-2.4,0.6-3,1.7v11.5h-3.6v-15.8H23004.6z"/>
		</g>
		<path id="Tracé_26501" class="st12" d="M22565.4,4105.4h137.8l62.5-66.3"/>
		<path id="Tracé_26502" class="st12" d="M23364.2,4105.4h-137.8l-60.8-62.4"/>
		<path id="Tracé_26503" class="st12" d="M23042.5,4246.6l-156.2,5.4l70.7-115.3"/>
		<path id="Software-2" class="st7" d="M23132.5,4039c-2.1,0-3.8-1.7-3.8-3.8c0-2.1,1.7-3.8,3.8-3.8c0,0,0,0,0,0h19.7
			c2.1,0,3.8,1.7,3.8,3.8c0,2.1-1.7,3.8-3.8,3.8H23132.5z M23139.4,4031.4v-5.9h6.1v5.9H23139.4z M23123.1,4025.5c-2.8,0-5-2.2-5-5
			V3994c0-2.8,2.2-5,5-5h37c2.8,0,5,2.2,5,5v26.5c0,2.8-2.2,5-5,5H23123.1z M23130.5,4003.2c-0.6,0.3-1.2,0.6-1.7,1.1
			c-2.1,2-2.1,5.4,0,7.4c0,0,0,0,0.1,0.1c1,1,2.3,1.5,3.7,1.5c0,0,0.1,0,0.1,0h0c1-3.2,4.5-5,7.7-4c1.4,0.5,2.6,1.4,3.4,2.7
			c1.3,0.7,2.7,1.1,4.2,1.2h0.1c1.7-0.2,3.3-0.9,4.5-2.1c1.3-1.1,2.4-2.4,3.2-3.8l0.5,1.3l0,0l0,0l1.3-0.5l-1.1-2.9
			c0-0.1-0.1-0.2-0.2-0.3c-0.1-0.1-0.2-0.2-0.3-0.2c-0.1-0.1-0.3-0.1-0.4-0.1c-0.1,0-0.2,0-0.3,0.1l-2.9,1.1l0.5,1.3l1.4-0.5
			c-0.8,1.3-1.7,2.4-2.9,3.3c-0.9,0.9-2.1,1.4-3.3,1.6h0c-1.3,1.7-3.6,2-5.3,0.7s-2-3.6-0.7-5.3c0.6-0.7,1.4-1.3,2.3-1.4
			c1.1-0.6,2.4-1,3.6-1.1h0c0.8,0,1.6,0.3,2.3,0.8l0.7,0.5l1.1-1.3l-0.7-0.5c-1-0.7-2.1-1.1-3.4-1.1h0c-1,3.2-4.5,5-7.7,4
			c-1.4-0.5-2.6-1.4-3.4-2.7c-1.3-0.7-2.7-1.1-4.2-1.2h-0.1C23131.8,4002.8,23131.1,4002.9,23130.5,4003.2L23130.5,4003.2z
			 M23132.6,4011.6L23132.6,4011.6c-2,0-3.6-1.6-3.7-3.6c0-2,1.6-3.6,3.6-3.6c0,0,0,0,0,0h0.1c2-0.5,4,0.7,4.5,2.7
			c0.5,2-0.7,4-2.7,4.5C23133.8,4011.8,23133.2,4011.8,23132.6,4011.6L23132.6,4011.6z"/>
	</g>
</g>
</svg>
