<?xml version="1.0" encoding="utf-8"?>
<!-- Generator: Adobe Illustrator 27.0.0, SVG Export Plug-In . SVG Version: 6.00 Build 0)  -->
<svg version="1.1" id="Calque_1" xmlns="http://www.w3.org/2000/svg" xmlns:xlink="http://www.w3.org/1999/xlink" x="0px" y="0px"
	 viewBox="0 0 1614.5 804" style="enable-background:new 0 0 1614.5 804;" xml:space="preserve">
<style type="text/css">
	.st0{enable-background:new    ;}
	.st1{fill:none;stroke:#AEDED6;stroke-width:6;}
	.st2{opacity:0.2;fill:url(#Tracé_20341_00000139264218299278952110000010901322561010913924_);enable-background:new    ;}
	.st3{fill:#4C9C8E;}
	.st4{opacity:0.2;fill:#282828;enable-background:new    ;}
	.st5{opacity:0.226;}
	.st6{fill:#E6E6E6;}
	.st7{fill:#F0F0F0;}
	.st8{fill:#F5F5F5;}
	.st9{fill:#37474F;}
	.st10{opacity:0.1;enable-background:new    ;}
	.st11{fill:#455A64;}
	.st12{fill:#263238;}
	.st13{fill:#FAFAFA;}
	.st14{fill:#4B9C8E;}
	.st15{opacity:0.4;fill:#FFFFFF;enable-background:new    ;}
	.st16{opacity:0.4;}
	.st17{fill:#FFFFFF;}
	.st18{opacity:0.8;fill:#4B9C8E;enable-background:new    ;}
	.st19{opacity:0.7;fill:#FFFFFF;enable-background:new    ;}
	.st20{opacity:0.8;}
	.st21{opacity:0.3;fill:#FFFFFF;enable-background:new    ;}
	.st22{opacity:0.15;fill:#4B9C8E;enable-background:new    ;}
	.st23{opacity:0.8;fill:#FFFFFF;enable-background:new    ;}
	.st24{opacity:0.55;fill:#FFFFFF;enable-background:new    ;}
	.st25{opacity:0.2;fill:#FFFFFF;enable-background:new    ;}
	.st26{opacity:0.1;fill:#4B9C8E;enable-background:new    ;}
	.st27{fill:#282828;}
	.st28{fill:#197061;}
	.st29{opacity:0.5;fill:#197061;enable-background:new    ;}
	.st30{fill:#B16668;}
	.st31{fill:#EBEBEB;}
	.st32{fill:#9A4A4D;}
	.st33{opacity:0.2;enable-background:new    ;}
	.st34{fill:#F28F8F;}
</style>
<g id="Steps" transform="translate(-901.5 -2354)">
	<g class="st0">
		<path class="st1" d="M1218.4,2809.4c0,61.3-11.5,107.6-34.4,138.7c-23,31.2-57.9,46.7-104.7,46.7c-46.1,0-80.8-15.2-104.2-45.6
			c-23.3-30.4-35.3-75.3-35.9-134.9v-73.8c0-61.3,11.5-107.3,34.4-138c22.9-30.7,58-46,105-46c46.7,0,81.5,14.9,104.4,44.8
			c22.9,29.9,34.7,74.6,35.3,134.2V2809.4z M1147.3,2729.7c0-40-5.5-69.4-16.4-88c-10.9-18.6-28.3-28-52.1-28
			c-23.2,0-40.3,8.8-51.3,26.5c-10.9,17.7-16.7,45.3-17.3,82.8v96.7c0,39.8,5.6,69.5,16.7,89.1c11.1,19.5,28.6,29.3,52.4,29.3
			c22.9,0,39.7-9,50.7-27.1c10.9-18.1,16.7-46.3,17.3-84.8V2729.7z"/>
		<path class="st1" d="M1474.2,2989h-70.9v-342.7l-104.6,35.7v-59.8l166.4-61.2h9.1V2989z"/>
	</g>
	
		<linearGradient id="Tracé_20341_00000107562765406299544680000005506431512220209284_" gradientUnits="userSpaceOnUse" x1="1409.9655" y1="3176.6516" x2="1411.1954" y2="3175.6567" gradientTransform="matrix(801.0005 0 0 -742.2048 -1127633.75 2360244)">
		<stop  offset="0" style="stop-color:#4C9C8E"/>
		<stop  offset="1" style="stop-color:#1A7061"/>
	</linearGradient>
	
		<path id="Tracé_20341" style="opacity:0.2;fill:url(#Tracé_20341_00000107562765406299544680000005506431512220209284_);enable-background:new    ;" d="
		M2099.3,2378.8L2099.3,2378.8c-33.2-22.1-83.5-23.3-118.2-10.8c-62.2,22.5-53.9,72.6-107.8,107.8s-105.8,22.8-157.6,68.6
		c-51.8,45.7-56.5,132.3-35.3,172.8c21.3,40.5,45.6,70.2,24.9,139.9c-20.7,69.7-18.7,150.7,64.3,193.3
		c83,42.6,147.2-48.2,201.2-29.6c53.9,18.7,155.5,101.4,267.5,76.7s62.2-109.6,134.8-133.7c72.6-24.2,114.1-107.6,89.2-195.7
		c-24.9-88.1-87.1-105-72.6-160.4c10.9-41.8,25.6-82.1-2.3-122.4c-36-52-97.7-74.3-157.4-69c-22.3,2.1-47.7,2.8-70.9-2.6
		C2132.6,2407.7,2120.4,2392.8,2099.3,2378.8z"/>
	<g class="st0">
		<path class="st3" d="M938.7,2862.9c0-1.2,0.4-2.2,1.2-3c0.8-0.8,1.8-1.2,3.1-1.2c1.3,0,2.4,0.4,3.2,1.2s1.2,1.8,1.2,3.1v0.7
			c0,1.2-0.4,2.2-1.2,3c-0.8,0.8-1.8,1.2-3.2,1.2c-1.3,0-2.3-0.4-3.1-1.1c-0.8-0.7-1.2-1.7-1.2-2.9V2862.9z"/>
		<path class="st3" d="M999.4,2865.3h-11.7v8.8h13.7v3.9h-18.6v-28.4h18.5v4h-13.5v7.9h11.7V2865.3z"/>
		<path class="st3" d="M1016.7,2872.3c0-0.8-0.3-1.5-1-1.9c-0.7-0.4-1.9-0.8-3.5-1.2c-1.6-0.3-3-0.8-4-1.3c-2.4-1.1-3.6-2.8-3.6-5
			c0-1.8,0.8-3.3,2.3-4.6c1.5-1.2,3.5-1.8,5.9-1.8c2.5,0,4.6,0.6,6.1,1.9c1.6,1.2,2.3,2.9,2.3,4.9h-4.7c0-0.9-0.3-1.7-1-2.3
			c-0.7-0.6-1.6-0.9-2.7-0.9c-1,0-1.9,0.2-2.5,0.7c-0.7,0.5-1,1.1-1,1.9c0,0.7,0.3,1.3,0.9,1.7c0.6,0.4,1.8,0.8,3.7,1.2
			c1.9,0.4,3.3,0.9,4.4,1.5c1.1,0.6,1.8,1.2,2.4,2c0.5,0.8,0.8,1.8,0.8,2.9c0,1.9-0.8,3.4-2.4,4.6c-1.6,1.2-3.6,1.8-6.2,1.8
			c-1.7,0-3.3-0.3-4.6-0.9c-1.4-0.6-2.4-1.5-3.2-2.6c-0.8-1.1-1.1-2.3-1.1-3.5h4.6c0.1,1.1,0.5,2,1.3,2.6s1.8,0.9,3.1,0.9
			c1.2,0,2.2-0.2,2.9-0.7C1016.4,2873.6,1016.7,2873,1016.7,2872.3z"/>
		<path class="st3" d="M1031.5,2851.7v5.1h3.7v3.5h-3.7v11.8c0,0.8,0.2,1.4,0.5,1.7c0.3,0.4,0.9,0.5,1.7,0.5c0.5,0,1.1-0.1,1.7-0.2
			v3.7c-1.1,0.3-2.1,0.4-3.1,0.4c-3.6,0-5.5-2-5.5-6v-12h-3.5v-3.5h3.5v-5.1H1031.5z"/>
		<path class="st3" d="M1053.9,2878h-4.7v-30h4.7V2878z"/>
		<path class="st3" d="M1071.6,2878c-0.2-0.4-0.4-1.1-0.5-2c-1.5,1.6-3.4,2.4-5.5,2.4c-2.1,0-3.9-0.6-5.2-1.8c-1.3-1.2-2-2.7-2-4.5
			c0-2.3,0.8-4,2.5-5.2c1.7-1.2,4.1-1.8,7.2-1.8h2.9v-1.4c0-1.1-0.3-2-0.9-2.6c-0.6-0.7-1.5-1-2.8-1c-1.1,0-2,0.3-2.7,0.8
			c-0.7,0.5-1,1.2-1,2.1h-4.7c0-1.2,0.4-2.2,1.2-3.3c0.8-1,1.8-1.8,3.1-2.4c1.3-0.6,2.8-0.9,4.4-0.9c2.5,0,4.4,0.6,5.9,1.9
			c1.5,1.2,2.2,3,2.3,5.2v9.5c0,1.9,0.3,3.4,0.8,4.6v0.3H1071.6z M1066.4,2874.6c0.9,0,1.8-0.2,2.6-0.7c0.8-0.5,1.4-1.1,1.9-1.8v-4
			h-2.6c-1.8,0-3.1,0.3-4,0.9c-0.9,0.6-1.3,1.5-1.3,2.6c0,0.9,0.3,1.6,0.9,2.2S1065.4,2874.6,1066.4,2874.6z"/>
		<path class="st3" d="M1109.1,2867.6c0,3.3-0.7,5.9-2.2,7.8s-3.5,2.9-6,2.9c-2.3,0-4.2-0.8-5.6-2.3v10h-4.7v-29.3h4.4l0.2,2.1
			c1.4-1.7,3.3-2.5,5.7-2.5c2.6,0,4.6,1,6.1,2.9s2.2,4.6,2.2,8V2867.6z M1104.4,2867.2c0-2.1-0.4-3.8-1.3-5s-2-1.9-3.6-1.9
			c-1.9,0-3.3,0.8-4.2,2.4v9.4c0.9,1.6,2.3,2.5,4.2,2.5c1.5,0,2.7-0.6,3.5-1.8C1104,2871.6,1104.4,2869.7,1104.4,2867.2z"/>
		<path class="st3" d="M1124.2,2861.2c-0.6-0.1-1.3-0.2-1.9-0.2c-2.2,0-3.6,0.8-4.4,2.5v14.5h-4.7v-21.1h4.5l0.1,2.4
			c1.1-1.8,2.7-2.8,4.8-2.8c0.7,0,1.2,0.1,1.7,0.3L1124.2,2861.2z"/>
		<path class="st3" d="M1136.5,2878.4c-3,0-5.4-0.9-7.3-2.8c-1.9-1.9-2.8-4.4-2.8-7.6v-0.6c0-2.1,0.4-4,1.2-5.7c0.8-1.7,2-3,3.4-3.9
			c1.5-0.9,3.1-1.4,4.9-1.4c2.9,0,5.1,0.9,6.7,2.8c1.6,1.8,2.4,4.4,2.4,7.8v1.9h-13.8c0.1,1.7,0.7,3.1,1.7,4.1c1,1,2.3,1.5,3.9,1.5
			c2.2,0,3.9-0.9,5.3-2.6l2.6,2.4c-0.8,1.3-2,2.2-3.4,2.9C1139.9,2878,1138.3,2878.4,1136.5,2878.4z M1135.9,2860.3
			c-1.3,0-2.4,0.5-3.2,1.4s-1.3,2.2-1.5,3.8h9v-0.4c-0.1-1.6-0.5-2.8-1.3-3.6S1137.3,2860.3,1135.9,2860.3z"/>
		<path class="st3" d="M1153.1,2856.9l0.1,2.2c1.5-1.7,3.5-2.6,6.1-2.6c2.8,0,4.8,1.1,5.8,3.2c1.5-2.2,3.7-3.2,6.5-3.2
			c2.3,0,4.1,0.6,5.2,1.9c1.1,1.3,1.7,3.2,1.7,5.7v13.9h-4.7v-13.8c0-1.3-0.3-2.3-0.9-2.9s-1.6-0.9-2.9-0.9c-1.1,0-2,0.3-2.6,0.9
			s-1.2,1.3-1.4,2.3l0,14.5h-4.7v-13.9c-0.1-2.5-1.3-3.7-3.8-3.7c-1.9,0-3.2,0.8-4,2.3v15.3h-4.7v-21.1H1153.1z"/>
		<path class="st3" d="M1183.5,2851.4c0-0.7,0.2-1.3,0.7-1.8c0.5-0.5,1.1-0.7,2-0.7s1.5,0.2,2,0.7s0.7,1.1,0.7,1.8
			c0,0.7-0.2,1.3-0.7,1.8s-1.1,0.7-2,0.7s-1.5-0.2-2-0.7C1183.7,2852.7,1183.5,2852.1,1183.5,2851.4z M1188.5,2878h-4.7v-21.1h4.7
			V2878z"/>
		<path class="st3" d="M1203,2878.4c-3,0-5.4-0.9-7.3-2.8c-1.9-1.9-2.8-4.4-2.8-7.6v-0.6c0-2.1,0.4-4,1.2-5.7c0.8-1.7,2-3,3.4-3.9
			c1.5-0.9,3.1-1.4,4.9-1.4c2.9,0,5.1,0.9,6.7,2.8c1.6,1.8,2.4,4.4,2.4,7.8v1.9h-13.8c0.1,1.7,0.7,3.1,1.7,4.1c1,1,2.3,1.5,3.9,1.5
			c2.2,0,3.9-0.9,5.3-2.6l2.6,2.4c-0.8,1.3-2,2.2-3.4,2.9C1206.3,2878,1204.8,2878.4,1203,2878.4z M1204.6,2853.9l-3.9,0l-5.3-5.9
			h5.4L1204.6,2853.9z M1202.4,2860.3c-1.3,0-2.4,0.5-3.2,1.4s-1.3,2.2-1.5,3.8h9v-0.4c-0.1-1.6-0.5-2.8-1.3-3.6
			S1203.7,2860.3,1202.4,2860.3z"/>
		<path class="st3" d="M1226.2,2861.2c-0.6-0.1-1.3-0.2-1.9-0.2c-2.2,0-3.6,0.8-4.4,2.5v14.5h-4.7v-21.1h4.5l0.1,2.4
			c1.1-1.8,2.7-2.8,4.8-2.8c0.7,0,1.2,0.1,1.7,0.3L1226.2,2861.2z"/>
		<path class="st3" d="M1238.5,2878.4c-3,0-5.4-0.9-7.3-2.8c-1.9-1.9-2.8-4.4-2.8-7.6v-0.6c0-2.1,0.4-4,1.2-5.7c0.8-1.7,2-3,3.4-3.9
			c1.5-0.9,3.1-1.4,4.9-1.4c2.9,0,5.1,0.9,6.7,2.8s2.4,4.4,2.4,7.8v1.9h-13.8c0.1,1.7,0.7,3.1,1.7,4.1s2.3,1.5,3.9,1.5
			c2.2,0,3.9-0.9,5.3-2.6l2.6,2.4c-0.8,1.3-2,2.2-3.4,2.9S1240.3,2878.4,1238.5,2878.4z M1238,2860.3c-1.3,0-2.4,0.5-3.2,1.4
			s-1.3,2.2-1.5,3.8h9v-0.4c-0.1-1.6-0.5-2.8-1.3-3.6S1239.3,2860.3,1238,2860.3z"/>
		<path class="st3" d="M1272.5,2872.3c0-0.8-0.3-1.5-1-1.9s-1.9-0.8-3.5-1.2s-3-0.8-4-1.3c-2.4-1.1-3.6-2.8-3.6-5
			c0-1.8,0.8-3.3,2.3-4.6s3.5-1.8,5.9-1.8c2.5,0,4.6,0.6,6.1,1.9s2.3,2.9,2.3,4.9h-4.7c0-0.9-0.3-1.7-1-2.3s-1.6-0.9-2.7-0.9
			c-1,0-1.9,0.2-2.5,0.7s-1,1.1-1,1.9c0,0.7,0.3,1.3,0.9,1.7s1.8,0.8,3.7,1.2s3.3,0.9,4.4,1.5s1.8,1.2,2.4,2s0.8,1.8,0.8,2.9
			c0,1.9-0.8,3.4-2.4,4.6s-3.6,1.8-6.2,1.8c-1.7,0-3.3-0.3-4.6-0.9s-2.4-1.5-3.2-2.6s-1.1-2.3-1.1-3.5h4.6c0.1,1.1,0.5,2,1.3,2.6
			s1.8,0.9,3.1,0.9c1.2,0,2.2-0.2,2.9-0.7S1272.5,2873,1272.5,2872.3z"/>
		<path class="st3" d="M1287.2,2851.7v5.1h3.7v3.5h-3.7v11.8c0,0.8,0.2,1.4,0.5,1.7s0.9,0.5,1.7,0.5c0.5,0,1.1-0.1,1.7-0.2v3.7
			c-1.1,0.3-2.1,0.4-3.1,0.4c-3.6,0-5.5-2-5.5-6v-12h-3.5v-3.5h3.5v-5.1H1287.2z"/>
		<path class="st3" d="M1307.2,2878c-0.2-0.4-0.4-1.1-0.5-2c-1.5,1.6-3.4,2.4-5.5,2.4c-2.1,0-3.9-0.6-5.2-1.8s-2-2.7-2-4.5
			c0-2.3,0.8-4,2.5-5.2s4.1-1.8,7.2-1.8h2.9v-1.4c0-1.1-0.3-2-0.9-2.6s-1.5-1-2.8-1c-1.1,0-2,0.3-2.7,0.8s-1,1.2-1,2.1h-4.7
			c0-1.2,0.4-2.2,1.2-3.3s1.8-1.8,3.1-2.4s2.8-0.9,4.4-0.9c2.5,0,4.4,0.6,5.9,1.9s2.2,3,2.3,5.2v9.5c0,1.9,0.3,3.4,0.8,4.6v0.3
			H1307.2z M1302,2874.6c0.9,0,1.8-0.2,2.6-0.7s1.4-1.1,1.9-1.8v-4h-2.6c-1.8,0-3.1,0.3-4,0.9s-1.3,1.5-1.3,2.6
			c0,0.9,0.3,1.6,0.9,2.2S1301,2874.6,1302,2874.6z"/>
		<path class="st3" d="M1327.3,2861.2c-0.6-0.1-1.3-0.2-1.9-0.2c-2.2,0-3.6,0.8-4.4,2.5v14.5h-4.7v-21.1h4.5l0.1,2.4
			c1.1-1.8,2.7-2.8,4.8-2.8c0.7,0,1.2,0.1,1.7,0.3L1327.3,2861.2z"/>
		<path class="st3" d="M1337.2,2851.7v5.1h3.7v3.5h-3.7v11.8c0,0.8,0.2,1.4,0.5,1.7s0.9,0.5,1.7,0.5c0.5,0,1.1-0.1,1.7-0.2v3.7
			c-1.1,0.3-2.1,0.4-3.1,0.4c-3.6,0-5.5-2-5.5-6v-12h-3.5v-3.5h3.5v-5.1H1337.2z"/>
		<path class="st3" d="M1357.4,2875.9c-1.4,1.6-3.4,2.5-5.9,2.5c-2.3,0-4-0.7-5.2-2s-1.8-3.3-1.8-5.8v-13.7h4.7v13.6
			c0,2.7,1.1,4,3.3,4c2.3,0,3.9-0.8,4.7-2.5v-15.2h4.7v21.1h-4.5L1357.4,2875.9z"/>
		<path class="st3" d="M1385.3,2867.6c0,3.3-0.7,5.9-2.2,7.8s-3.5,2.9-6,2.9c-2.3,0-4.2-0.8-5.6-2.3v10h-4.7v-29.3h4.4l0.2,2.1
			c1.4-1.7,3.3-2.5,5.7-2.5c2.6,0,4.6,1,6.1,2.9s2.2,4.6,2.2,8V2867.6z M1380.6,2867.2c0-2.1-0.4-3.8-1.3-5s-2-1.9-3.6-1.9
			c-1.9,0-3.3,0.8-4.2,2.4v9.4c0.9,1.6,2.3,2.5,4.2,2.5c1.5,0,2.7-0.6,3.5-1.8S1380.6,2869.7,1380.6,2867.2z"/>
		<path class="st3" d="M1408.6,2878.4c-3,0-5.4-0.9-7.3-2.8s-2.8-4.4-2.8-7.6v-0.6c0-2.1,0.4-4,1.2-5.7s2-3,3.4-3.9s3.1-1.4,4.9-1.4
			c2.9,0,5.1,0.9,6.7,2.8s2.4,4.4,2.4,7.8v1.9h-13.8c0.1,1.7,0.7,3.1,1.7,4.1s2.3,1.5,3.9,1.5c2.2,0,3.9-0.9,5.3-2.6l2.6,2.4
			c-0.8,1.3-2,2.2-3.4,2.9S1410.3,2878.4,1408.6,2878.4z M1408,2860.3c-1.3,0-2.4,0.5-3.2,1.4s-1.3,2.2-1.5,3.8h9v-0.4
			c-0.1-1.6-0.5-2.8-1.3-3.6S1409.3,2860.3,1408,2860.3z"/>
		<path class="st3" d="M1425.1,2856.9l0.1,2.4c1.6-1.9,3.6-2.8,6.2-2.8c4.4,0,6.6,2.5,6.7,7.6v14h-4.7v-13.7c0-1.3-0.3-2.3-0.9-3
			s-1.5-1-2.8-1c-1.9,0-3.3,0.9-4.3,2.6v15h-4.7v-21.1H1425.1z"/>
		<path class="st3" d="M1469.3,2871.4h-11l-2.3,6.6h-5.1l10.7-28.4h4.4l10.8,28.4h-5.2L1469.3,2871.4z M1459.7,2867.4h8.2l-4.1-11.8
			L1459.7,2867.4z"/>
		<path class="st3" d="M1481.2,2878v-17.6h-3.2v-3.5h3.2v-1.9c0-2.3,0.7-4.2,2-5.4s3.1-1.9,5.5-1.9c0.8,0,1.7,0.1,2.7,0.4l-0.1,3.7
			c-0.5-0.1-1.1-0.2-1.8-0.2c-2.3,0-3.4,1.2-3.4,3.5v1.9h4.3v3.5h-4.3v17.6H1481.2z"/>
		<path class="st3" d="M1504.8,2861.2c-0.6-0.1-1.3-0.2-1.9-0.2c-2.2,0-3.6,0.8-4.4,2.5v14.5h-4.7v-21.1h4.5l0.1,2.4
			c1.1-1.8,2.7-2.8,4.8-2.8c0.7,0,1.2,0.1,1.7,0.3L1504.8,2861.2z"/>
		<path class="st3" d="M1507.8,2851.4c0-0.7,0.2-1.3,0.7-1.8s1.1-0.7,2-0.7s1.5,0.2,2,0.7s0.7,1.1,0.7,1.8c0,0.7-0.2,1.3-0.7,1.8
			s-1.1,0.7-2,0.7s-1.5-0.2-2-0.7S1507.8,2852.1,1507.8,2851.4z M1512.9,2878h-4.7v-21.1h4.7V2878z"/>
		<path class="st3" d="M1517.1,2867.3c0-3.3,0.8-5.9,2.3-7.9s3.6-2.9,6.1-2.9c2.4,0,4.2,0.8,5.6,2.5l0.3-2.1h4.2v29.3h-4.7v-9.9
			c-1.4,1.5-3.2,2.2-5.4,2.2c-2.5,0-4.6-1-6.1-3S1517.1,2870.7,1517.1,2867.3z M1521.9,2867.7c0,2.2,0.4,3.9,1.3,5.1s2,1.8,3.5,1.8
			c1.9,0,3.3-0.8,4.2-2.4v-9.6c-0.9-1.5-2.3-2.3-4.1-2.3c-1.5,0-2.7,0.6-3.6,1.8S1521.9,2865.2,1521.9,2867.7z"/>
		<path class="st3" d="M1553.5,2875.9c-1.4,1.6-3.4,2.5-5.9,2.5c-2.3,0-4-0.7-5.2-2s-1.8-3.3-1.8-5.8v-13.7h4.7v13.6
			c0,2.7,1.1,4,3.3,4c2.3,0,3.9-0.8,4.7-2.5v-15.2h4.7v21.1h-4.5L1553.5,2875.9z"/>
		<path class="st3" d="M1572.3,2878.4c-3,0-5.4-0.9-7.3-2.8s-2.8-4.4-2.8-7.6v-0.6c0-2.1,0.4-4,1.2-5.7s2-3,3.4-3.9s3.1-1.4,4.9-1.4
			c2.9,0,5.1,0.9,6.7,2.8s2.4,4.4,2.4,7.8v1.9h-13.8c0.1,1.7,0.7,3.1,1.7,4.1s2.3,1.5,3.9,1.5c2.2,0,3.9-0.9,5.3-2.6l2.6,2.4
			c-0.8,1.3-2,2.2-3.4,2.9S1574,2878.4,1572.3,2878.4z M1571.7,2860.3c-1.3,0-2.4,0.5-3.2,1.4s-1.3,2.2-1.5,3.8h9v-0.4
			c-0.1-1.6-0.5-2.8-1.3-3.6S1573,2860.3,1571.7,2860.3z"/>
		<path class="st3" d="M1593.5,2867.3c0-3.3,0.8-5.9,2.3-7.8s3.5-3,6.1-3c2.2,0,4,0.8,5.4,2.3V2848h4.7v30h-4.3l-0.2-2.2
			c-1.4,1.7-3.3,2.6-5.7,2.6c-2.5,0-4.5-1-6-3S1593.5,2870.7,1593.5,2867.3z M1598.2,2867.7c0,2.1,0.4,3.8,1.2,5s2,1.8,3.5,1.8
			c1.9,0,3.4-0.9,4.3-2.6v-9c-0.9-1.7-2.3-2.5-4.2-2.5c-1.5,0-2.7,0.6-3.6,1.8S1598.2,2865.2,1598.2,2867.7z"/>
		<path class="st3" d="M1626.3,2878.4c-3,0-5.4-0.9-7.3-2.8s-2.8-4.4-2.8-7.6v-0.6c0-2.1,0.4-4,1.2-5.7s2-3,3.4-3.9s3.1-1.4,4.9-1.4
			c2.9,0,5.1,0.9,6.7,2.8s2.4,4.4,2.4,7.8v1.9h-13.8c0.1,1.7,0.7,3.1,1.7,4.1s2.3,1.5,3.9,1.5c2.2,0,3.9-0.9,5.3-2.6l2.6,2.4
			c-0.8,1.3-2,2.2-3.4,2.9S1628,2878.4,1626.3,2878.4z M1625.7,2860.3c-1.3,0-2.4,0.5-3.2,1.4s-1.3,2.2-1.5,3.8h9v-0.4
			c-0.1-1.6-0.5-2.8-1.3-3.6S1627,2860.3,1625.7,2860.3z"/>
		<path class="st3" d="M1653.4,2878h-4.7v-30h4.7V2878z"/>
		<path class="st3" d="M1659.6,2858l-2.4-1.5c1.2-1.7,1.8-3.5,1.8-5.4v-3.1h4.2v2.7c0,1.3-0.3,2.7-1,4.1S1660.6,2857.2,1659.6,2858z
			"/>
		<path class="st3" d="M1663.6,2867.2c0-2.1,0.4-3.9,1.2-5.6s2-2.9,3.5-3.8s3.2-1.3,5.1-1.3c2.9,0,5.2,0.9,6.9,2.8s2.7,4.3,2.9,7.3
			l0,1.1c0,2.1-0.4,3.9-1.2,5.6s-1.9,2.9-3.4,3.8s-3.2,1.3-5.2,1.3c-3,0-5.4-1-7.2-3s-2.7-4.6-2.7-7.9V2867.2z M1668.3,2867.6
			c0,2.2,0.4,3.9,1.3,5.1s2.1,1.8,3.8,1.8s2.8-0.6,3.7-1.9s1.3-3.1,1.3-5.5c0-2.1-0.5-3.8-1.4-5.1s-2.2-1.9-3.7-1.9
			c-1.5,0-2.8,0.6-3.7,1.8S1668.3,2865.2,1668.3,2867.6z"/>
		<path class="st3" d="M1700,2875.9c-1.4,1.6-3.4,2.5-5.9,2.5c-2.3,0-4-0.7-5.2-2s-1.8-3.3-1.8-5.8v-13.7h4.7v13.6
			c0,2.7,1.1,4,3.3,4c2.3,0,3.9-0.8,4.7-2.5v-15.2h4.7v21.1h-4.5L1700,2875.9z"/>
		<path class="st3" d="M1718.8,2878.4c-3,0-5.4-0.9-7.3-2.8s-2.8-4.4-2.8-7.6v-0.6c0-2.1,0.4-4,1.2-5.7s2-3,3.4-3.9s3.1-1.4,4.9-1.4
			c2.9,0,5.1,0.9,6.7,2.8s2.4,4.4,2.4,7.8v1.9h-13.8c0.1,1.7,0.7,3.1,1.7,4.1s2.3,1.5,3.9,1.5c2.2,0,3.9-0.9,5.3-2.6l2.6,2.4
			c-0.8,1.3-2,2.2-3.4,2.9S1720.5,2878.4,1718.8,2878.4z M1718.2,2860.3c-1.3,0-2.4,0.5-3.2,1.4s-1.3,2.2-1.5,3.8h9v-0.4
			c-0.1-1.6-0.5-2.8-1.3-3.6S1719.5,2860.3,1718.2,2860.3z"/>
		<path class="st3" d="M1742.8,2872.3c0-0.8-0.3-1.5-1-1.9s-1.9-0.8-3.5-1.2s-3-0.8-4-1.3c-2.4-1.1-3.6-2.8-3.6-5
			c0-1.8,0.8-3.3,2.3-4.6s3.5-1.8,5.9-1.8c2.5,0,4.6,0.6,6.1,1.9s2.3,2.9,2.3,4.9h-4.7c0-0.9-0.3-1.7-1-2.3s-1.6-0.9-2.7-0.9
			c-1,0-1.9,0.2-2.5,0.7s-1,1.1-1,1.9c0,0.7,0.3,1.3,0.9,1.7s1.8,0.8,3.7,1.2s3.3,0.9,4.4,1.5s1.8,1.2,2.4,2s0.8,1.8,0.8,2.9
			c0,1.9-0.8,3.4-2.4,4.6s-3.6,1.8-6.2,1.8c-1.7,0-3.3-0.3-4.6-0.9s-2.4-1.5-3.2-2.6s-1.1-2.3-1.1-3.5h4.6c0.1,1.1,0.5,2,1.3,2.6
			s1.8,0.9,3.1,0.9c1.2,0,2.2-0.2,2.9-0.7S1742.8,2873,1742.8,2872.3z"/>
		<path class="st3" d="M1757.5,2851.7v5.1h3.7v3.5h-3.7v11.8c0,0.8,0.2,1.4,0.5,1.7s0.9,0.5,1.7,0.5c0.5,0,1.1-0.1,1.7-0.2v3.7
			c-1.1,0.3-2.1,0.4-3.1,0.4c-3.6,0-5.5-2-5.5-6v-12h-3.5v-3.5h3.5v-5.1H1757.5z"/>
	</g>
	<g class="st0">
		<path class="st3" d="M951.1,2931c-0.2-0.4-0.4-1.1-0.5-2c-1.5,1.6-3.4,2.4-5.5,2.4c-2.1,0-3.9-0.6-5.2-1.8c-1.3-1.2-2-2.7-2-4.5
			c0-2.3,0.8-4,2.5-5.2c1.7-1.2,4.1-1.8,7.2-1.8h2.9v-1.4c0-1.1-0.3-2-0.9-2.6c-0.6-0.7-1.5-1-2.8-1c-1.1,0-2,0.3-2.7,0.8
			c-0.7,0.5-1,1.2-1,2.1h-4.7c0-1.2,0.4-2.2,1.2-3.3c0.8-1,1.8-1.8,3.1-2.4c1.3-0.6,2.8-0.9,4.4-0.9c2.5,0,4.4,0.6,5.9,1.9
			c1.5,1.2,2.2,3,2.3,5.2v9.5c0,1.9,0.3,3.4,0.8,4.6v0.3H951.1z M949.6,2906.9l-3.9,0l-5.3-5.9h5.4L949.6,2906.9z M945.8,2927.6
			c0.9,0,1.8-0.2,2.6-0.7c0.8-0.5,1.4-1.1,1.9-1.8v-4h-2.6c-1.8,0-3.1,0.3-4,0.9c-0.9,0.6-1.3,1.5-1.3,2.6c0,0.9,0.3,1.6,0.9,2.2
			S944.8,2927.6,945.8,2927.6z"/>
		<path class="st3" d="M982.7,2931c-0.2-0.4-0.4-1.1-0.5-2c-1.5,1.6-3.4,2.4-5.5,2.4c-2.1,0-3.9-0.6-5.2-1.8c-1.3-1.2-2-2.7-2-4.5
			c0-2.3,0.8-4,2.5-5.2c1.7-1.2,4.1-1.8,7.2-1.8h2.9v-1.4c0-1.1-0.3-2-0.9-2.6c-0.6-0.7-1.5-1-2.8-1c-1.1,0-2,0.3-2.7,0.8
			c-0.7,0.5-1,1.2-1,2.1h-4.7c0-1.2,0.4-2.2,1.2-3.3c0.8-1,1.8-1.8,3.1-2.4c1.3-0.6,2.8-0.9,4.4-0.9c2.5,0,4.4,0.6,5.9,1.9
			c1.5,1.2,2.2,3,2.3,5.2v9.5c0,1.9,0.3,3.4,0.8,4.6v0.3H982.7z M977.4,2927.6c0.9,0,1.8-0.2,2.6-0.7c0.8-0.5,1.4-1.1,1.9-1.8v-4
			h-2.6c-1.8,0-3.1,0.3-4,0.9c-0.9,0.6-1.3,1.5-1.3,2.6c0,0.9,0.3,1.6,0.9,2.2S976.4,2927.6,977.4,2927.6z"/>
		<path class="st3" d="M998.8,2925l4.5-15.1h4.9l-7.3,21.1h-4.1l-7.4-21.1h4.9L998.8,2925z"/>
		<path class="st3" d="M1010,2920.2c0-2.1,0.4-3.9,1.2-5.6s2-2.9,3.5-3.8s3.2-1.3,5.1-1.3c2.9,0,5.2,0.9,6.9,2.8s2.7,4.3,2.9,7.3
			l0,1.1c0,2.1-0.4,3.9-1.2,5.6s-1.9,2.9-3.4,3.8c-1.5,0.9-3.2,1.3-5.2,1.3c-3,0-5.4-1-7.2-3c-1.8-2-2.7-4.6-2.7-7.9V2920.2z
			 M1014.7,2920.6c0,2.2,0.4,3.9,1.3,5.1s2.1,1.8,3.8,1.8s2.8-0.6,3.7-1.9c0.9-1.2,1.3-3.1,1.3-5.5c0-2.1-0.5-3.8-1.4-5.1
			s-2.2-1.9-3.7-1.9c-1.5,0-2.8,0.6-3.7,1.8C1015.2,2916.4,1014.7,2918.2,1014.7,2920.6z"/>
		<path class="st3" d="M1033.7,2904.4c0-0.7,0.2-1.3,0.7-1.8c0.5-0.5,1.1-0.7,2-0.7s1.5,0.2,2,0.7s0.7,1.1,0.7,1.8
			c0,0.7-0.2,1.3-0.7,1.8s-1.1,0.7-2,0.7s-1.5-0.2-2-0.7C1033.9,2905.7,1033.7,2905.1,1033.7,2904.4z M1038.7,2931h-4.7v-21.1h4.7
			V2931z"/>
		<path class="st3" d="M1054.9,2914.2c-0.6-0.1-1.3-0.2-1.9-0.2c-2.2,0-3.6,0.8-4.4,2.5v14.5h-4.7v-21.1h4.5l0.1,2.4
			c1.1-1.8,2.7-2.8,4.8-2.8c0.7,0,1.2,0.1,1.7,0.3L1054.9,2914.2z"/>
		<path class="st3" d="M1078.9,2914.2c-0.6-0.1-1.3-0.2-1.9-0.2c-2.2,0-3.6,0.8-4.4,2.5v14.5h-4.7v-21.1h4.5l0.1,2.4
			c1.1-1.8,2.7-2.8,4.8-2.8c0.7,0,1.2,0.1,1.7,0.3L1078.9,2914.2z"/>
		<path class="st3" d="M1094,2931c-0.2-0.4-0.4-1.1-0.5-2c-1.5,1.6-3.4,2.4-5.5,2.4c-2.1,0-3.9-0.6-5.2-1.8c-1.3-1.2-2-2.7-2-4.5
			c0-2.3,0.8-4,2.5-5.2c1.7-1.2,4.1-1.8,7.2-1.8h2.9v-1.4c0-1.1-0.3-2-0.9-2.6c-0.6-0.7-1.5-1-2.8-1c-1.1,0-2,0.3-2.7,0.8
			c-0.7,0.5-1,1.2-1,2.1h-4.7c0-1.2,0.4-2.2,1.2-3.3c0.8-1,1.8-1.8,3.1-2.4c1.3-0.6,2.8-0.9,4.4-0.9c2.5,0,4.4,0.6,5.9,1.9
			c1.5,1.2,2.2,3,2.3,5.2v9.5c0,1.9,0.3,3.4,0.8,4.6v0.3H1094z M1088.8,2927.6c0.9,0,1.8-0.2,2.6-0.7c0.8-0.5,1.4-1.1,1.9-1.8v-4
			h-2.6c-1.8,0-3.1,0.3-4,0.9c-0.9,0.6-1.3,1.5-1.3,2.6c0,0.9,0.3,1.6,0.9,2.2S1087.8,2927.6,1088.8,2927.6z"/>
		<path class="st3" d="M1111.7,2927.6c1.2,0,2.2-0.3,2.9-1s1.2-1.5,1.2-2.6h4.5c-0.1,1.3-0.5,2.5-1.2,3.7c-0.8,1.1-1.8,2-3.1,2.7
			c-1.3,0.7-2.7,1-4.3,1c-3,0-5.3-1-7-2.9c-1.7-1.9-2.6-4.6-2.6-7.9v-0.5c0-3.2,0.9-5.8,2.6-7.7s4.1-2.9,7-2.9
			c2.5,0,4.6,0.7,6.1,2.2s2.4,3.4,2.5,5.8h-4.5c-0.1-1.2-0.5-2.2-1.2-3c-0.8-0.8-1.8-1.2-3-1.2c-1.5,0-2.7,0.6-3.6,1.7
			c-0.8,1.1-1.3,2.8-1.3,5.1v0.8c0,2.3,0.4,4,1.2,5.1C1108.9,2927,1110.1,2927.6,1111.7,2927.6z"/>
		<path class="st3" d="M1128.6,2912.2c1.5-1.8,3.5-2.7,5.9-2.7c4.5,0,6.8,2.6,6.9,7.7v13.8h-4.7v-13.6c0-1.5-0.3-2.5-0.9-3.1
			c-0.6-0.6-1.6-0.9-2.8-0.9c-1.9,0-3.3,0.8-4.3,2.5v15.1h-4.7v-30h4.7V2912.2z"/>
		<path class="st3" d="M1155.5,2931.4c-3,0-5.4-0.9-7.3-2.8c-1.9-1.9-2.8-4.4-2.8-7.6v-0.6c0-2.1,0.4-4,1.2-5.7c0.8-1.7,2-3,3.4-3.9
			c1.5-0.9,3.1-1.4,4.9-1.4c2.9,0,5.1,0.9,6.7,2.8c1.6,1.8,2.4,4.4,2.4,7.8v1.9h-13.8c0.1,1.7,0.7,3.1,1.7,4.1c1,1,2.3,1.5,3.9,1.5
			c2.2,0,3.9-0.9,5.3-2.6l2.6,2.4c-0.8,1.3-2,2.2-3.4,2.9C1158.8,2931,1157.2,2931.4,1155.5,2931.4z M1154.9,2913.3
			c-1.3,0-2.4,0.5-3.2,1.4s-1.3,2.2-1.5,3.8h9v-0.4c-0.1-1.6-0.5-2.8-1.3-3.6S1156.2,2913.3,1154.9,2913.3z"/>
		<path class="st3" d="M1173.6,2904.7v5.1h3.7v3.5h-3.7v11.8c0,0.8,0.2,1.4,0.5,1.7c0.3,0.4,0.9,0.5,1.7,0.5c0.5,0,1.1-0.1,1.7-0.2
			v3.7c-1.1,0.3-2.1,0.4-3.1,0.4c-3.6,0-5.5-2-5.5-6v-12h-3.5v-3.5h3.5v-5.1H1173.6z"/>
		<path class="st3" d="M1190.2,2931.4c-3,0-5.4-0.9-7.3-2.8c-1.9-1.9-2.8-4.4-2.8-7.6v-0.6c0-2.1,0.4-4,1.2-5.7c0.8-1.7,2-3,3.4-3.9
			c1.5-0.9,3.1-1.4,4.9-1.4c2.9,0,5.1,0.9,6.7,2.8c1.6,1.8,2.4,4.4,2.4,7.8v1.9h-13.8c0.1,1.7,0.7,3.1,1.7,4.1c1,1,2.3,1.5,3.9,1.5
			c2.2,0,3.9-0.9,5.3-2.6l2.6,2.4c-0.8,1.3-2,2.2-3.4,2.9C1193.6,2931,1192,2931.4,1190.2,2931.4z M1189.7,2913.3
			c-1.3,0-2.4,0.5-3.2,1.4s-1.3,2.2-1.5,3.8h9v-0.4c-0.1-1.6-0.5-2.8-1.3-3.6S1191,2913.3,1189.7,2913.3z M1190.7,2901h5.4l-5.4,5.9
			l-3.8,0L1190.7,2901z"/>
		<path class="st3" d="M1225.1,2928.9c-1.4,1.6-3.4,2.5-5.9,2.5c-2.3,0-4-0.7-5.2-2c-1.2-1.3-1.8-3.3-1.8-5.8v-13.7h4.7v13.6
			c0,2.7,1.1,4,3.3,4c2.3,0,3.9-0.8,4.7-2.5v-15.2h4.7v21.1h-4.5L1225.1,2928.9z"/>
		<path class="st3" d="M1239,2909.9l0.1,2.4c1.6-1.9,3.6-2.8,6.2-2.8c4.4,0,6.6,2.5,6.7,7.6v14h-4.7v-13.7c0-1.3-0.3-2.3-0.9-3
			s-1.5-1-2.8-1c-1.9,0-3.3,0.9-4.3,2.6v15h-4.7v-21.1H1239z"/>
		<path class="st3" d="M1266.1,2931.4c-3,0-5.4-0.9-7.3-2.8s-2.8-4.4-2.8-7.6v-0.6c0-2.1,0.4-4,1.2-5.7s2-3,3.4-3.9s3.1-1.4,4.9-1.4
			c2.9,0,5.1,0.9,6.7,2.8s2.4,4.4,2.4,7.8v1.9h-13.8c0.1,1.7,0.7,3.1,1.7,4.1s2.3,1.5,3.9,1.5c2.2,0,3.9-0.9,5.3-2.6l2.6,2.4
			c-0.8,1.3-2,2.2-3.4,2.9S1267.9,2931.4,1266.1,2931.4z M1265.6,2913.3c-1.3,0-2.4,0.5-3.2,1.4s-1.3,2.2-1.5,3.8h9v-0.4
			c-0.1-1.6-0.5-2.8-1.3-3.6S1266.9,2913.3,1265.6,2913.3z"/>
		<path class="st3" d="M1300.1,2925.3c0-0.8-0.3-1.5-1-1.9s-1.9-0.8-3.5-1.2s-3-0.8-4-1.3c-2.4-1.1-3.6-2.8-3.6-5
			c0-1.8,0.8-3.3,2.3-4.6s3.5-1.8,5.9-1.8c2.5,0,4.6,0.6,6.1,1.9s2.3,2.9,2.3,4.9h-4.7c0-0.9-0.3-1.7-1-2.3s-1.6-0.9-2.7-0.9
			c-1,0-1.9,0.2-2.5,0.7s-1,1.1-1,1.9c0,0.7,0.3,1.3,0.9,1.7s1.8,0.8,3.7,1.2s3.3,0.9,4.4,1.5s1.8,1.2,2.4,2s0.8,1.8,0.8,2.9
			c0,1.9-0.8,3.4-2.4,4.6s-3.6,1.8-6.2,1.8c-1.7,0-3.3-0.3-4.6-0.9s-2.4-1.5-3.2-2.6s-1.1-2.3-1.1-3.5h4.6c0.1,1.1,0.5,2,1.3,2.6
			s1.8,0.9,3.1,0.9c1.2,0,2.2-0.2,2.9-0.7S1300.1,2926,1300.1,2925.3z"/>
		<path class="st3" d="M1314.8,2904.7v5.1h3.7v3.5h-3.7v11.8c0,0.8,0.2,1.4,0.5,1.7s0.9,0.5,1.7,0.5c0.5,0,1.1-0.1,1.7-0.2v3.7
			c-1.1,0.3-2.1,0.4-3.1,0.4c-3.6,0-5.5-2-5.5-6v-12h-3.5v-3.5h3.5v-5.1H1314.8z"/>
		<path class="st3" d="M1334.8,2931c-0.2-0.4-0.4-1.1-0.5-2c-1.5,1.6-3.4,2.4-5.5,2.4c-2.1,0-3.9-0.6-5.2-1.8s-2-2.7-2-4.5
			c0-2.3,0.8-4,2.5-5.2s4.1-1.8,7.2-1.8h2.9v-1.4c0-1.1-0.3-2-0.9-2.6s-1.5-1-2.8-1c-1.1,0-2,0.3-2.7,0.8s-1,1.2-1,2.1h-4.7
			c0-1.2,0.4-2.2,1.2-3.3s1.8-1.8,3.1-2.4s2.8-0.9,4.4-0.9c2.5,0,4.4,0.6,5.9,1.9s2.2,3,2.3,5.2v9.5c0,1.9,0.3,3.4,0.8,4.6v0.3
			H1334.8z M1329.6,2927.6c0.9,0,1.8-0.2,2.6-0.7s1.4-1.1,1.9-1.8v-4h-2.6c-1.8,0-3.1,0.3-4,0.9s-1.3,1.5-1.3,2.6
			c0,0.9,0.3,1.6,0.9,2.2S1328.6,2927.6,1329.6,2927.6z"/>
		<path class="st3" d="M1354.9,2914.2c-0.6-0.1-1.3-0.2-1.9-0.2c-2.2,0-3.6,0.8-4.4,2.5v14.5h-4.7v-21.1h4.5l0.1,2.4
			c1.1-1.8,2.7-2.8,4.8-2.8c0.7,0,1.2,0.1,1.7,0.3L1354.9,2914.2z"/>
		<path class="st3" d="M1364.8,2904.7v5.1h3.7v3.5h-3.7v11.8c0,0.8,0.2,1.4,0.5,1.7s0.9,0.5,1.7,0.5c0.5,0,1.1-0.1,1.7-0.2v3.7
			c-1.1,0.3-2.1,0.4-3.1,0.4c-3.6,0-5.5-2-5.5-6v-12h-3.5v-3.5h3.5v-5.1H1364.8z"/>
		<path class="st3" d="M1385,2928.9c-1.4,1.6-3.4,2.5-5.9,2.5c-2.3,0-4-0.7-5.2-2s-1.8-3.3-1.8-5.8v-13.7h4.7v13.6
			c0,2.7,1.1,4,3.3,4c2.3,0,3.9-0.8,4.7-2.5v-15.2h4.7v21.1h-4.5L1385,2928.9z"/>
		<path class="st3" d="M1412.9,2920.6c0,3.3-0.7,5.9-2.2,7.8s-3.5,2.9-6,2.9c-2.3,0-4.2-0.8-5.6-2.3v10h-4.7v-29.3h4.4l0.2,2.1
			c1.4-1.7,3.3-2.5,5.7-2.5c2.6,0,4.6,1,6.1,2.9s2.2,4.6,2.2,8V2920.6z M1408.2,2920.2c0-2.1-0.4-3.8-1.3-5s-2-1.9-3.6-1.9
			c-1.9,0-3.3,0.8-4.2,2.4v9.4c0.9,1.6,2.3,2.5,4.2,2.5c1.5,0,2.7-0.6,3.5-1.8S1408.2,2922.7,1408.2,2920.2z"/>
		<path class="st3" d="M1428.5,2931v-17.6h-3.2v-3.5h3.2v-1.9c0-2.3,0.7-4.2,2-5.4s3.1-1.9,5.5-1.9c0.8,0,1.7,0.1,2.7,0.4l-0.1,3.7
			c-0.5-0.1-1.1-0.2-1.8-0.2c-2.3,0-3.4,1.2-3.4,3.5v1.9h4.3v3.5h-4.3v17.6H1428.5z"/>
		<path class="st3" d="M1452.1,2914.2c-0.6-0.1-1.3-0.2-1.9-0.2c-2.2,0-3.6,0.8-4.4,2.5v14.5h-4.7v-21.1h4.5l0.1,2.4
			c1.1-1.8,2.7-2.8,4.8-2.8c0.7,0,1.2,0.1,1.7,0.3L1452.1,2914.2z"/>
		<path class="st3" d="M1467.2,2931c-0.2-0.4-0.4-1.1-0.5-2c-1.5,1.6-3.4,2.4-5.5,2.4c-2.1,0-3.9-0.6-5.2-1.8s-2-2.7-2-4.5
			c0-2.3,0.8-4,2.5-5.2s4.1-1.8,7.2-1.8h2.9v-1.4c0-1.1-0.3-2-0.9-2.6s-1.5-1-2.8-1c-1.1,0-2,0.3-2.7,0.8s-1,1.2-1,2.1h-4.7
			c0-1.2,0.4-2.2,1.2-3.3s1.8-1.8,3.1-2.4s2.8-0.9,4.4-0.9c2.5,0,4.4,0.6,5.9,1.9s2.2,3,2.3,5.2v9.5c0,1.9,0.3,3.4,0.8,4.6v0.3
			H1467.2z M1461.9,2927.6c0.9,0,1.8-0.2,2.6-0.7s1.4-1.1,1.9-1.8v-4h-2.6c-1.8,0-3.1,0.3-4,0.9s-1.3,1.5-1.3,2.6
			c0,0.9,0.3,1.6,0.9,2.2S1460.9,2927.6,1461.9,2927.6z"/>
		<path class="st3" d="M1480.6,2909.9l0.1,2.4c1.6-1.9,3.6-2.8,6.2-2.8c4.4,0,6.6,2.5,6.7,7.6v14h-4.7v-13.7c0-1.3-0.3-2.3-0.9-3
			s-1.5-1-2.8-1c-1.9,0-3.3,0.9-4.3,2.6v15h-4.7v-21.1H1480.6z"/>
		<path class="st3" d="M1507.1,2927.6c1.2,0,2.2-0.3,2.9-1s1.2-1.5,1.2-2.6h4.5c-0.1,1.3-0.5,2.5-1.2,3.7s-1.8,2-3.1,2.7
			s-2.7,1-4.3,1c-3,0-5.3-1-7-2.9s-2.6-4.6-2.6-7.9v-0.5c0-3.2,0.9-5.8,2.6-7.7s4.1-2.9,7-2.9c2.5,0,4.6,0.7,6.1,2.2
			s2.4,3.4,2.5,5.8h-4.5c-0.1-1.2-0.5-2.2-1.2-3s-1.8-1.2-3-1.2c-1.5,0-2.7,0.6-3.6,1.7s-1.3,2.8-1.3,5.1v0.8c0,2.3,0.4,4,1.2,5.1
			S1505.5,2927.6,1507.1,2927.6z M1508.4,2931l-0.2,1.1c2,0.4,2.9,1.5,2.9,3.4c0,1.4-0.6,2.4-1.7,3.2s-2.7,1.2-4.7,1.2l-0.1-2.7
			c0.9,0,1.5-0.2,2-0.5s0.7-0.7,0.7-1.3c0-0.6-0.2-1-0.7-1.2s-1.2-0.4-2.3-0.4l0.6-2.7H1508.4z"/>
		<path class="st3" d="M1532,2931c-0.2-0.4-0.4-1.1-0.5-2c-1.5,1.6-3.4,2.4-5.5,2.4c-2.1,0-3.9-0.6-5.2-1.8s-2-2.7-2-4.5
			c0-2.3,0.8-4,2.5-5.2s4.1-1.8,7.2-1.8h2.9v-1.4c0-1.1-0.3-2-0.9-2.6s-1.5-1-2.8-1c-1.1,0-2,0.3-2.7,0.8s-1,1.2-1,2.1h-4.7
			c0-1.2,0.4-2.2,1.2-3.3s1.8-1.8,3.1-2.4s2.8-0.9,4.4-0.9c2.5,0,4.4,0.6,5.9,1.9s2.2,3,2.3,5.2v9.5c0,1.9,0.3,3.4,0.8,4.6v0.3H1532
			z M1526.8,2927.6c0.9,0,1.8-0.2,2.6-0.7s1.4-1.1,1.9-1.8v-4h-2.6c-1.8,0-3.1,0.3-4,0.9s-1.3,1.5-1.3,2.6c0,0.9,0.3,1.6,0.9,2.2
			S1525.7,2927.6,1526.8,2927.6z"/>
		<path class="st3" d="M1541,2904.4c0-0.7,0.2-1.3,0.7-1.8s1.1-0.7,2-0.7s1.5,0.2,2,0.7s0.7,1.1,0.7,1.8c0,0.7-0.2,1.3-0.7,1.8
			s-1.1,0.7-2,0.7s-1.5-0.2-2-0.7S1541,2905.1,1541,2904.4z M1546,2931h-4.7v-21.1h4.7V2931z"/>
		<path class="st3" d="M1563.1,2925.3c0-0.8-0.3-1.5-1-1.9s-1.9-0.8-3.5-1.2s-3-0.8-4-1.3c-2.4-1.1-3.6-2.8-3.6-5
			c0-1.8,0.8-3.3,2.3-4.6s3.5-1.8,5.9-1.8c2.5,0,4.6,0.6,6.1,1.9s2.3,2.9,2.3,4.9h-4.7c0-0.9-0.3-1.7-1-2.3s-1.6-0.9-2.7-0.9
			c-1,0-1.9,0.2-2.5,0.7s-1,1.1-1,1.9c0,0.7,0.3,1.3,0.9,1.7s1.8,0.8,3.7,1.2s3.3,0.9,4.4,1.5s1.8,1.2,2.4,2s0.8,1.8,0.8,2.9
			c0,1.9-0.8,3.4-2.4,4.6s-3.6,1.8-6.2,1.8c-1.7,0-3.3-0.3-4.6-0.9s-2.4-1.5-3.2-2.6s-1.1-2.3-1.1-3.5h4.6c0.1,1.1,0.5,2,1.3,2.6
			s1.8,0.9,3.1,0.9c1.2,0,2.2-0.2,2.9-0.7S1563.1,2926,1563.1,2925.3z"/>
		<path class="st3" d="M1581.2,2931.4c-3,0-5.4-0.9-7.3-2.8s-2.8-4.4-2.8-7.6v-0.6c0-2.1,0.4-4,1.2-5.7s2-3,3.4-3.9s3.1-1.4,4.9-1.4
			c2.9,0,5.1,0.9,6.7,2.8s2.4,4.4,2.4,7.8v1.9h-13.8c0.1,1.7,0.7,3.1,1.7,4.1s2.3,1.5,3.9,1.5c2.2,0,3.9-0.9,5.3-2.6l2.6,2.4
			c-0.8,1.3-2,2.2-3.4,2.9S1582.9,2931.4,1581.2,2931.4z M1580.6,2913.3c-1.3,0-2.4,0.5-3.2,1.4s-1.3,2.2-1.5,3.8h9v-0.4
			c-0.1-1.6-0.5-2.8-1.3-3.6S1581.9,2913.3,1580.6,2913.3z"/>
		<path class="st3" d="M1596.3,2926c0.9,0,1.6,0.3,2.1,0.8s0.7,1.1,0.7,1.9c0,0.7-0.2,1.4-0.7,1.8s-1.2,0.7-2.1,0.7
			c-0.8,0-1.5-0.2-2-0.7s-0.7-1.1-0.7-1.9s0.2-1.4,0.7-1.9S1595.4,2926,1596.3,2926z"/>
	</g>
	<g id="Success_factors-amico" transform="translate(1774.875 2369.747)">
		<path id="freepik--floor--inject-52" class="st4" d="M104.9,597.9c-125-72.2-125-189.2,0-261.2s327.7-72.2,452.6,0
			s125,189.2,0,261.4S229.9,670.1,104.9,597.9z"/>
		<g id="freepik--Shadows--inject-52" transform="translate(145.197 471.147)" class="st5">
			<path id="freepik--Shadow--inject-52" class="st6" d="M225.3,16.9l8,101.1l-29.1,16.7H29.1L0,118L8.2,16.7L37.2,0h158.9
				L225.3,16.9z"/>
			<ellipse id="freepik--shadow--inject-52-2" class="st6" cx="288" cy="80.7" rx="99.9" ry="57.7"/>
		</g>
		<g id="freepik--Graphics--inject-52" transform="translate(27.89 27.613)">
			<g id="freepik--Gears--inject-52" transform="translate(519.068 211.629)">
				<path id="freepik--Gear--inject-52" class="st7" d="M57.9,48.6v-5.8c0-0.8-0.6-1.5-1.3-1.6l-5.5-0.5c-0.9-0.2-1.6-1-1.9-1.9
					c-0.3-0.7-0.5-1.2-0.8-1.9c-0.5-0.8-0.6-1.8-0.1-2.7l3.8-4.6c0.4-0.5,0.1-1.5-0.7-2.3L47.7,24c-0.8-0.8-1.7-1.1-2.3-0.7
					l-4.7,3.8c-0.8,0.4-1.7,0.4-2.4,0c-0.8-0.4-1.6-0.7-2.4-0.9c-0.9-0.3-1.5-1.1-1.6-2l-0.5-4.8c0-0.8-0.7-1.5-1.5-1.6h-6.4
					c-0.8,0-1.5,0.7-1.6,1.5l-0.5,5.2c-0.1,0.8-0.6,1.4-1.3,1.7c-1.1,0.4-2.2,0.8-3.2,1.3c-0.9,0.2-1.8,0-2.5-0.5L13,24.1
					c-0.8-0.7-1.9-0.8-2.3-0.3L6,28.4c-0.5,0.4-0.3,1.5,0.4,2.4L9.1,34c0.7,0.7,0.9,1.6,0.7,2.5c-0.5,0.9-0.9,1.9-1.2,2.9
					C8.3,40.2,7.7,40.7,7,41l-5.8,0.7c-0.8,0.2-1.3,0.9-1.2,1.7v5.8c0,0.8,0.6,1.5,1.3,1.7l5.5,0.5c0.9,0.2,1.6,1,1.9,1.9
					C9,54,9.3,54.5,9.5,55.2C10,56,10.1,57,9.7,57.9l-3.7,4.6c-0.4,0.5-0.1,1.5,0.7,2.3l3.6,3.5c0.8,0.8,1.7,1.1,2.3,0.7l4.7-3.8
					c0.8-0.4,1.7-0.4,2.4,0c0.8,0.4,1.6,0.7,2.4,0.9c0.9,0.3,1.5,1.1,1.6,2l0.5,4.8c0,0.8,0.7,1.5,1.5,1.6H32
					c0.8-0.1,1.4-0.7,1.5-1.5l0.5-5.2c0.1-0.8,0.6-1.4,1.3-1.7c1.1-0.4,2.2-0.8,3.2-1.3c0.9-0.2,1.8,0,2.5,0.5l3.6,2.8
					c0.8,0.7,1.9,0.8,2.3,0.3l4.7-4.6c0.4-0.4,0.3-1.5-0.4-2.4l-2.7-3.2c-0.7-0.7-0.9-1.6-0.7-2.5c0.5-0.9,0.9-1.9,1.2-2.9
					c0.3-0.7,0.9-1.2,1.6-1.5l5.8-0.7C57.4,50.2,57.9,49.5,57.9,48.6z M28.8,58.1c-6.8-0.1-12.2-5.7-12.1-12.5
					c0.1-6.8,5.7-12.2,12.5-12.1c6.7,0.1,12,5.5,12.1,12.2c0,6.8-5.4,12.3-12.2,12.3C29,58.1,28.9,58.1,28.8,58.1z"/>
				<path id="freepik--gear--inject-52-2" class="st8" d="M91.1,20.2v-3.8c0-0.5-0.4-1-0.9-1.1L86.6,15c-0.6-0.2-1-0.6-1.2-1.2
					c-0.1-0.4-0.3-0.8-0.5-1.2c-0.3-0.5-0.4-1.2-0.1-1.7l2.4-2.9c0.3-0.3,0.1-0.9-0.4-1.5l-2.3-2.3c-0.5-0.5-1.2-0.7-1.5-0.4L80,6.2
					c-0.5,0.3-1.1,0.3-1.6,0c-0.5-0.3-1.1-0.4-1.6-0.7c-0.6-0.2-1-0.7-1.1-1.3l-0.4-3.1c0-0.5-0.4-1-0.9-1.1h-4.2
					c-0.5,0-0.9,0.4-0.9,0.9c0,0,0,0,0,0l-0.4,3.3c0,0.5-0.3,1-0.8,1.2l-2,0.8c-0.6,0.1-1.2,0-1.6-0.4l-2.3-1.7
					C61.7,3.8,61,3.6,60.7,4L57.6,7c-0.3,0.3-0.1,0.9,0.3,1.5l1.7,2.1c0.4,0.4,0.5,1,0.4,1.6c-0.3,0.7-0.5,1.2-0.8,1.9
					c-0.2,0.5-0.6,0.8-1.1,0.9l-3.8,0.4c-0.5,0.1-0.8,0.6-0.8,1.1v3.8c0,0.5,0.4,1,0.9,1.1l3.6,0.4c0.6,0.2,1,0.6,1.2,1.2
					c0.1,0.4,0.3,0.8,0.5,1.2c0.3,0.5,0.4,1.2,0.1,1.7l-2.4,2.9c-0.3,0.3-0.1,0.9,0.4,1.5l2.3,2.3c0.5,0.5,1.2,0.7,1.5,0.4l2.9-2.4
					c0.5-0.3,1.1-0.3,1.6,0c0.5,0.3,1.1,0.4,1.6,0.7c0.6,0.2,1,0.7,1.1,1.3l0.4,3.1c0,0.5,0.4,1,0.9,1.1h4.1c0.5,0,0.9-0.4,0.9-0.9
					c0,0,0,0,0,0l0.4-3.3c0-0.5,0.3-1,0.8-1.2l2-0.8c0.6-0.1,1.2,0,1.6,0.4l2.3,1.7c0.5,0.4,1.2,0.5,1.5,0.1l2.9-2.9
					c0.3-0.3,0.1-0.9-0.3-1.5L85,26.1c-0.4-0.4-0.5-1-0.4-1.6c0.3-0.7,0.5-1.2,0.8-1.9c0.1-0.5,0.6-0.9,1.1-0.9l3.8-0.4
					C90.7,21.2,91.1,20.8,91.1,20.2z M72.4,26.4c-4.4-0.1-7.8-3.7-7.8-8c0.1-4.4,3.7-7.8,8-7.8c4.3,0.1,7.7,3.5,7.8,7.8
					c0.1,4.4-3.4,8-7.8,8C72.6,26.4,72.5,26.4,72.4,26.4z"/>
			</g>
			<g id="freepik--gears--inject-52-2" transform="translate(96.907 0.469)">
				<path id="freepik--gear--inject-52_00000093161371510611165340000011938373202529742735_" class="st7" d="M51.5,14.6l-4.8,3.1
					c-0.7,0.4-0.9,1.3-0.7,2l2.5,5c0.3,0.9,0.1,1.9-0.5,2.7c-0.4,0.5-0.8,1-1.1,1.6c-0.4,0.8-1.2,1.4-2.1,1.6l-5.9-0.7
					c-0.7,0-1.3,0.7-1.6,1.7l-0.9,5c-0.3,0.8,0,1.7,0.7,2.3l5.6,2c0.7,0.4,1.2,1.2,1.2,2c0.1,0.9,0.3,1.7,0.5,2.5
					c0.2,0.9-0.1,1.9-0.8,2.5l-3.8,3.1c-0.7,0.5-0.9,1.4-0.5,2.1l3.5,5.4c0.5,0.7,1.3,0.8,2,0.4l4.7-2.4c0.7-0.4,1.5-0.3,2.1,0.1
					l2.8,2c0.7,0.6,1,1.5,0.8,2.4l-0.4,4.6c-0.2,0.8,0.2,1.7,0.9,2.1l6.4,1.5c0.7,0.1,1.5-0.5,1.7-1.6l1.3-4c0.2-0.9,0.9-1.7,1.9-2
					c1-0.1,2.1-0.3,3.1-0.5c0.8-0.2,1.6,0.1,2.1,0.7l3.6,4.6c0.6,0.6,1.5,0.6,2.1,0.1l4.8-3.1c0.7-0.5,1-1.4,0.7-2.1l-2.5-5
					c-0.3-0.9-0.1-1.9,0.5-2.7c0.4-0.5,0.8-1,1.1-1.6c0.4-0.8,1.2-1.4,2.1-1.6l5.9,0.7c0.7,0,1.3-0.7,1.6-1.7l0.9-5
					c0.3-0.8,0-1.7-0.7-2.3l-5.8-1.9c-0.7-0.4-1.2-1.2-1.2-2c-0.1-0.9-0.3-1.7-0.5-2.5c-0.2-0.9,0.1-1.9,0.8-2.5l3.8-3.1
					c0.7-0.5,0.9-1.4,0.5-2.1l-3.3-5.4c-0.5-0.6-1.3-0.8-2-0.4l-4.7,2.4c-0.7,0.4-1.5,0.3-2.1-0.1l-2.8-2c-0.7-0.6-1-1.5-0.8-2.4
					l0.4-4.6c0.2-0.8-0.2-1.7-0.9-2.1l-6.6-1.5c-0.7-0.1-1.5,0.5-1.7,1.6l-1.3,4c-0.2,0.9-0.9,1.7-1.9,2c-1,0.1-2.1,0.3-3.1,0.5
					c-0.8,0.2-1.6-0.1-2.1-0.7l-3.6-4.6C52.9,14.3,52.1,14.3,51.5,14.6z M75.2,33.9c3.6,5.7,1.8,13.3-3.9,16.9
					c-5.7,3.6-13.3,1.8-16.9-3.9c-3.5-5.7-1.9-13.1,3.7-16.8C63.8,26.5,71.4,28.1,75.2,33.9C75.2,33.9,75.2,33.9,75.2,33.9z"/>
				<path id="freepik--gear--inject-52_00000138573019301361452060000014696919216501477809_" class="st8" d="M9.7,2L6.6,4
					C6.1,4.3,6,4.9,6.2,5.4l1.6,3.2c0.1,0.6,0,1.2-0.3,1.7C7.2,10.6,7,11,6.9,11.4c-0.4,0.5-0.9,1.1-1.3,1.1l-3.8-0.4
					c-0.4,0-0.8,0.4-1.1,1.1L0,16.2c-0.1,0.5,0,1.1,0.4,1.5l3.6,1.2c0.5,0.3,0.8,0.8,0.8,1.3C5,20.8,5,21.3,5.1,21.9
					c0.1,0.6-0.1,1.2-0.5,1.6l-2.4,2c-0.4,0.3-0.6,0.9-0.4,1.3l2.3,3.5c0.3,0.4,0.9,0.5,1.3,0.3l3.1-1.5c0.5-0.2,1-0.2,1.5,0.1
					c0.6,0.5,1.2,1,1.9,1.3c0.4,0.4,0.7,1,0.5,1.6l-0.3,2.9c0,0.7,0.3,1.3,0.7,1.3l4.2,0.9c0.4,0.1,0.9-0.4,1.1-1.1l0.8-2.7
					c0.3-0.7,0.8-1.2,1.2-1.2c0.7,0,1.4-0.1,2-0.4c0.5-0.1,1,0,1.3,0.4l2.4,2.9c0.4,0.4,0.9,0.4,1.3,0.1l3.1-2
					c0.5-0.3,0.6-0.9,0.4-1.3L29,29c-0.1-0.6,0-1.2,0.4-1.7c0.3-0.3,0.5-0.7,0.7-1.1c0.4-0.5,0.9-1.1,1.3-1.1l3.8,0.4
					c0.6-0.1,1-0.5,1.1-1.1l0.7-3.2c0.1-0.7,0-1.3-0.4-1.5l-3.7-1.2c-0.5-0.3-0.8-0.8-0.8-1.3c-0.1-0.5-0.1-1.1-0.3-1.6
					c-0.1-0.6,0.1-1.2,0.5-1.6l2.4-2c0.4-0.3,0.6-0.9,0.4-1.3l-2.3-3.5c-0.3-0.4-0.9-0.5-1.3-0.3l-2.9,1.5c-0.4,0.2-0.9,0.1-1.3-0.1
					c-0.6-0.5-1.2-1-1.9-1.3c-0.4-0.4-0.7-1-0.5-1.6L25,2.3C25.1,1.6,24.7,1,24.3,1L20.1,0c-0.4-0.1-0.9,0.4-1.1,1.1l-0.8,2.7
					C18,4.4,17.5,5,17.1,5c-0.7,0-1.4,0.1-2,0.3c-0.5,0.1-1,0-1.3-0.4l-2.4-2.9C10.8,1.7,10.2,1.8,9.7,2z M25,14.5
					c2.3,3.7,1.2,8.6-2.5,10.9c-3.7,2.3-8.6,1.2-10.9-2.5c-2.3-3.6-1.2-8.4,2.4-10.7c3.6-2.4,8.5-1.4,10.9,2.3
					C24.9,14.4,24.9,14.4,25,14.5L25,14.5z"/>
			</g>
			<g id="freepik--Stars--inject-52" transform="translate(322.793)">
				<path id="Tracé_26518" class="st8" d="M201,0.2l9.4,7.5l11.5-3.5c0.8-0.3,1.6,0.1,1.9,0.9c0,0,0,0,0,0.1c0.1,0.3,0.1,0.6,0,0.9
					l-4.2,11.3l6.8,9.8c0.5,0.7,0.3,1.7-0.4,2.1c0,0,0,0,0,0c-0.3,0.2-0.6,0.2-0.9,0.3L213.2,29l-7.2,9.5c-0.5,0.6-1.4,0.8-2.1,0.4
					c-0.3-0.3-0.5-0.5-0.5-0.8l-3.1-11.5l-11.4-3.9c-0.8-0.2-1.2-1-1-1.8c0,0,0,0,0-0.1c0.1-0.3,0.4-0.6,0.7-0.8l10-6.6l0.3-11.9
					c0-0.8,0.7-1.5,1.5-1.5C200.4,0,200.7,0,201,0.2z"/>
				<path id="Tracé_26519" class="st7" d="M253.2,28.8l-0.8,6.6l5,4.4c0.4,0.3,0.4,0.8,0.1,1.2c0,0,0,0,0,0
					c-0.1,0.2-0.3,0.3-0.5,0.3l-6.6,1.3l-2.7,6c-0.1,0.4-0.6,0.6-0.9,0.5c0,0-0.1,0-0.1-0.1l-0.4-0.4l-3.2-5.8l-6.6-0.7
					c-0.5-0.1-0.8-0.5-0.8-0.9c0-0.2,0.1-0.4,0.3-0.5l4.6-4.8l-1.5-6.4c-0.1-0.4,0.1-0.8,0.5-0.9c0.1,0,0.1,0,0.2,0h0.5l6,2.8
					L252,28c0.4-0.2,0.9-0.2,1.2,0.1C253.2,28.2,253.4,28.5,253.2,28.8z"/>
				<path id="Tracé_26520" class="st7" d="M17.4,114.5l-0.8,6.6l5,4.4c0.3,0.2,0.4,0.7,0.2,1.1c0,0.1-0.1,0.1-0.2,0.2
					c-0.1,0.1-0.3,0.3-0.4,0.3l-6.6,1.2l-2.7,6.2c-0.1,0.4-0.6,0.6-0.9,0.5c0,0-0.1,0-0.1-0.1c-0.1-0.1-0.3-0.1-0.4-0.4l-3.2-5.8
					l-6.6-0.7c-0.4-0.1-0.8-0.5-0.7-0.9c0-0.1,0.1-0.3,0.1-0.4l4.6-4.8l-1.5-6.6c-0.1-0.4,0.1-0.8,0.5-0.9c0.1,0,0.1,0,0.2,0h0.5
					l6,2.8l5.8-3.3c0.4-0.3,0.9-0.1,1.2,0.3c0,0,0,0,0,0C17.4,114.1,17.4,114.4,17.4,114.5z"/>
			</g>
			<g id="freepik--stars--inject-52-2" transform="translate(0 166.507)">
				<path id="Tracé_26521" class="st7" d="M42.1,49.7l-13.4-0.1l-7.8,11c-0.5,0.8-1.6,1-2.4,0.4c0,0,0,0,0,0
					c-0.3-0.2-0.5-0.5-0.7-0.8l-4-12.7l-12.7-4c-0.9-0.3-1.4-1.2-1.1-2.1c0,0,0-0.1,0-0.1c0.1-0.4,0.3-0.7,0.7-0.9l11-7.8l-0.1-13.4
					c0-0.9,0.7-1.6,1.5-1.6c0.1,0,0.1,0,0.2,0c0.3,0,0.7,0.1,0.9,0.3l10.7,8l12.7-4.3c0.9-0.3,1.8,0.1,2.1,1c0,0,0,0.1,0,0.1
					c0.1,0.3,0.1,0.7,0,1.1l-4.3,12.7l8,10.7c0.6,0.8,0.4,1.9-0.4,2.4C42.8,49.5,42.6,49.7,42.1,49.7z"/>
				<path id="Tracé_26522" class="st8" d="M52.3,22.1l1.6-7.2l-5.1-5.4c-0.4-0.4-0.4-1,0-1.3C49,8,49.2,7.9,49.4,7.9l7.4-0.8
					l3.6-6.6c0.2-0.4,0.8-0.6,1.2-0.4L62,0.5l2.9,6.8l7.2,1.3C72.7,8.8,73,9.3,73,9.8c0,0.2-0.1,0.4-0.3,0.5l-5.5,5l0.9,7.4
					c0,0.5-0.3,1-0.8,1.1c-0.2,0-0.4,0-0.5-0.1l-6.4-3.6l-6.7,3.2c-0.4,0.2-1,0.1-1.2-0.4c0,0,0,0,0,0
					C52.3,22.5,52.2,22.2,52.3,22.1z"/>
				<path id="Tracé_26523" class="st8" d="M14,90.8l4.4-5.9l-2.3-7.1c-0.1-0.5,0.1-1,0.5-1.2h0.5l7,2.4l6-4.4
					c0.4-0.3,1-0.2,1.3,0.2c0,0,0,0.1,0.1,0.1c0.1,0.2,0.2,0.3,0.1,0.5l-0.1,7.4l6,4.3c0.4,0.3,0.5,0.9,0.3,1.3
					c-0.2,0.2-0.3,0.3-0.5,0.4l-7.1,2.1L27.9,98c-0.1,0.5-0.7,0.8-1.2,0.7c0,0,0,0,0,0c-0.2,0-0.4-0.2-0.5-0.4l-4.3-6h-7.4
					c-0.5,0-0.9-0.4-0.9-0.9c0,0,0,0,0,0C13.9,91.1,13.9,90.9,14,90.8z"/>
			</g>
		</g>
		<g id="freepik--Trophy--inject-52" transform="translate(99.937 169.845)">
			<g id="freepik--trophy--inject-52-2" transform="translate(0)">
				<path id="Tracé_26524" class="st9" d="M243.8,313l-22-12.7H102.1l-22,12.6l-6.2,76.4v8l22,12.7H228l22-12.7v-8L243.8,313z"/>
				<path id="Tracé_26525" class="st10" d="M95.9,410v-8l-22-12.7v8L95.9,410z"/>
				<path id="Tracé_26526" class="st10" d="M228,410v-8l22-12.7v8L228,410z"/>
				<path id="Tracé_26527" class="st11" d="M243.8,313l6.2,76.2l-22,12.7H95.9l-22-12.7l6.2-76.4l22-12.6h119.8L243.8,313z"/>
				<path id="Tracé_26528" class="st12" d="M240.1,310.9l2.7,28.5l0,0c0.1,13.7,0.1,27.2,0.1,40.9v0.1l-0.1,0.1l-20.1,11.7h-0.3
					l-60.4,0.1l-60.4-0.1h-0.3l-20.1-11.7l-0.1-0.1l0,0c0-13.7,0-27.3,0.1-40.9l0,0l2.7-28.4l-2.3,28.4l0,0
					c0.1,13.7,0.1,27.2,0.1,40.9l-0.1-0.3l20.2,11.7h-0.1l60.4-0.1l60.4,0.1h-0.1l20.2-11.5l-0.1,0.3c0-13.7,0-27.3,0.1-40.9l0,0
					L240.1,310.9z"/>
				<path id="Tracé_26529" class="st9" d="M236.4,269.7L216.3,258H107.7l-20.1,11.7l-6.3,69.9h0.1l-0.1,40.9l20.2,11.5h120.8
					l20.2-11.5v-40.9L236.4,269.7z"/>
				<path id="Tracé_26530" class="st11" d="M236.4,269.7l6.2,69.9l-20.2,11.5H101.5l-20.2-11.5l6.3-69.9l20.1-11.7h108.6
					L236.4,269.7z"/>
				<path id="Tracé_26531" class="st10" d="M101.5,392v-40.9l-20.2-11.5v40.9L101.5,392z"/>
				<path id="Tracé_26532" class="st10" d="M222.4,392v-40.9l20.2-11.5v40.9L222.4,392z"/>
				<rect id="Rectangle_2055" x="128.1" y="357.6" class="st12" width="66.4" height="25.5"/>
				<rect id="Rectangle_2056" x="129.4" y="358.6" class="st13" width="66.4" height="25.5"/>
				<path id="Tracé_26533" class="st14" d="M190.1,368.4v-0.7c-0.1-1.7-1.6-3.1-3.3-2.9c0,0,0,0,0,0c-1.6,0.1-2.9,1.3-2.9,2.9v1.7
					c-0.1,1.6,1.2,3.1,2.8,3.2h0.4c0.4,0,0.8,0.3,0.8,0.7v1.5c0,0.5-0.4,0.8-0.9,0.8c-0.4,0-0.8-0.3-0.8-0.7c0,0,0,0,0-0.1v-0.7
					h-2.4v0.7c0.1,1.7,1.6,3.1,3.3,2.9c0,0,0,0,0,0c1.6-0.1,2.9-1.3,2.9-2.9v-1.3c0.1-1.6-1.2-3.1-2.8-3.2h-0.4
					c-0.4,0-0.8-0.3-0.8-0.7v-1.9c0-0.4,0.3-0.8,0.7-0.8c0,0,0,0,0.1,0c0.5,0,0.9,0.3,0.9,0.8v0.7H190.1z M155.5,364.5
					c-1.7-0.1-3.1,1.1-3.2,2.8c0,0,0,0,0,0v7.5c0.1,1.7,1.6,3.1,3.3,2.9c0,0,0,0,0,0c1.6-0.1,2.9-1.3,2.9-2.9v-0.7h-2.3v0.7
					c0,0.4-0.3,0.8-0.7,0.8c0,0,0,0-0.1,0c-0.5,0-0.9-0.3-0.9-0.8v-7.1c0-0.5,0.4-0.8,0.9-0.8c0.4,0,0.8,0.3,0.8,0.7c0,0,0,0,0,0.1
					v0.7h2.3v-0.7c0.1-1.6-1.2-3.1-2.8-3.2L155.5,364.5z M138.4,364.5c-1.7-0.1-3.1,1.1-3.2,2.8c0,0,0,0,0,0v2.1
					c-0.1,1.7,1.1,3.1,2.8,3.2c0,0,0,0,0,0h0.4c0.4,0,0.8,0.3,0.8,0.7v1.5c0,0.5-0.3,0.9-0.8,0.9s-0.9-0.3-0.9-0.8v-0.9H135v0.7
					c0.1,1.7,1.6,3.1,3.3,2.9c0,0,0,0,0,0c1.6-0.1,2.9-1.3,2.9-2.9v-1.3c0.1-1.6-1.2-3.1-2.8-3.2h-0.4c-0.4,0-0.8-0.3-0.8-0.7v-1.9
					c0-0.5,0.3-0.9,0.8-0.9s0.9,0.3,0.9,0.8v0.9h2.4v-0.7c0.1-1.6-1.2-3.1-2.8-3.2H138.4z M147.8,375c0,0.5-0.3,0.9-0.8,0.9
					s-0.9-0.3-0.9-0.8v-10.3h-2.4v10c0.1,1.7,1.6,3.1,3.3,2.9c0,0,0,0,0,0c1.6-0.1,2.9-1.3,2.9-2.9v-10h-2.4V375L147.8,375z
					 M178.8,364.5c-1.7-0.1-3.1,1.1-3.2,2.8c0,0,0,0,0,0v2.1c-0.1,1.7,1.1,3.1,2.8,3.2c0,0,0,0,0,0h0.4c0.4,0,0.8,0.3,0.8,0.7v1.5
					c0,0.5-0.3,0.9-0.8,0.9s-0.9-0.3-0.9-0.8v-0.9h-2.4v0.7c0.1,1.7,1.6,3.1,3.3,2.9c0,0,0,0,0,0c1.6-0.1,2.9-1.3,2.9-2.9v-1.3
					c0.1-1.6-1.2-3.1-2.8-3.2h-0.4c-0.4,0-0.8-0.3-0.8-0.7v-1.9c0-0.5,0.3-0.9,0.8-0.9s0.9,0.3,0.9,0.8v0.9h2.4v-0.7
					c0.1-1.6-1.2-3.1-2.8-3.2H178.8z M168.7,377.8h5.4v-2.4h-3.1V372h2.7v-2.3h-2.7v-2.5h3.1v-2.4h-5.4L168.7,377.8z M163.6,364.5
					c-1.6-0.1-3.1,1.2-3.2,2.8v7.5c0.1,1.7,1.6,3.1,3.3,2.9c0,0,0,0,0,0c1.6-0.1,2.9-1.3,2.9-2.9v-0.7h-2.4v0.7
					c0,0.4-0.3,0.8-0.7,0.8c0,0,0,0-0.1,0c-0.5,0-0.9-0.3-0.9-0.8v-7.1c0-0.5,0.4-0.8,0.9-0.8c0.4,0,0.8,0.3,0.8,0.7c0,0,0,0,0,0.1
					v0.7h2.4v-0.7c0.1-1.7-1.2-3.1-2.8-3.2H163.6z"/>
				<path id="Tracé_26534" class="st15" d="M190.1,368.4v-0.7c-0.1-1.7-1.6-3.1-3.3-2.9c0,0,0,0,0,0c-1.6,0.1-2.9,1.3-2.9,2.9v1.7
					c-0.1,1.6,1.2,3.1,2.8,3.2h0.4c0.4,0,0.8,0.3,0.8,0.7v1.5c0,0.5-0.4,0.8-0.9,0.8c-0.4,0-0.8-0.3-0.8-0.7c0,0,0,0,0-0.1v-0.7
					h-2.4v0.7c0.1,1.7,1.6,3.1,3.3,2.9c0,0,0,0,0,0c1.6-0.1,2.9-1.3,2.9-2.9v-1.3c0.1-1.6-1.2-3.1-2.8-3.2h-0.4
					c-0.4,0-0.8-0.3-0.8-0.7v-1.9c0-0.4,0.3-0.8,0.7-0.8c0,0,0,0,0.1,0c0.5,0,0.9,0.3,0.9,0.8v0.7H190.1z M155.5,364.5
					c-1.7-0.1-3.1,1.1-3.2,2.8c0,0,0,0,0,0v7.5c0.1,1.7,1.6,3.1,3.3,2.9c0,0,0,0,0,0c1.6-0.1,2.9-1.3,2.9-2.9v-0.7h-2.3v0.7
					c0,0.4-0.3,0.8-0.7,0.8c0,0,0,0-0.1,0c-0.5,0-0.9-0.3-0.9-0.8v-7.1c0-0.5,0.4-0.8,0.9-0.8c0.4,0,0.8,0.3,0.8,0.7c0,0,0,0,0,0.1
					v0.7h2.3v-0.7c0.1-1.6-1.2-3.1-2.8-3.2L155.5,364.5z M138.4,364.5c-1.7-0.1-3.1,1.1-3.2,2.8c0,0,0,0,0,0v2.1
					c-0.1,1.7,1.1,3.1,2.8,3.2c0,0,0,0,0,0h0.4c0.4,0,0.8,0.3,0.8,0.7v1.5c0,0.5-0.3,0.9-0.8,0.9s-0.9-0.3-0.9-0.8v-0.9H135v0.7
					c0.1,1.7,1.6,3.1,3.3,2.9c0,0,0,0,0,0c1.6-0.1,2.9-1.3,2.9-2.9v-1.3c0.1-1.6-1.2-3.1-2.8-3.2h-0.4c-0.4,0-0.8-0.3-0.8-0.7v-1.9
					c0-0.5,0.3-0.9,0.8-0.9s0.9,0.3,0.9,0.8v0.9h2.4v-0.7c0.1-1.6-1.2-3.1-2.8-3.2H138.4z M147.8,375c0,0.5-0.3,0.9-0.8,0.9
					s-0.9-0.3-0.9-0.8v-10.3h-2.4v10c0.1,1.7,1.6,3.1,3.3,2.9c0,0,0,0,0,0c1.6-0.1,2.9-1.3,2.9-2.9v-10h-2.4V375L147.8,375z
					 M178.8,364.5c-1.7-0.1-3.1,1.1-3.2,2.8c0,0,0,0,0,0v2.1c-0.1,1.7,1.1,3.1,2.8,3.2c0,0,0,0,0,0h0.4c0.4,0,0.8,0.3,0.8,0.7v1.5
					c0,0.5-0.3,0.9-0.8,0.9s-0.9-0.3-0.9-0.8v-0.9h-2.4v0.7c0.1,1.7,1.6,3.1,3.3,2.9c0,0,0,0,0,0c1.6-0.1,2.9-1.3,2.9-2.9v-1.3
					c0.1-1.6-1.2-3.1-2.8-3.2h-0.4c-0.4,0-0.8-0.3-0.8-0.7v-1.9c0-0.5,0.3-0.9,0.8-0.9s0.9,0.3,0.9,0.8v0.9h2.4v-0.7
					c0.1-1.6-1.2-3.1-2.8-3.2H178.8z M168.7,377.8h5.4v-2.4h-3.1V372h2.7v-2.3h-2.7v-2.5h3.1v-2.4h-5.4L168.7,377.8z M163.6,364.5
					c-1.6-0.1-3.1,1.2-3.2,2.8v7.5c0.1,1.7,1.6,3.1,3.3,2.9c0,0,0,0,0,0c1.6-0.1,2.9-1.3,2.9-2.9v-0.7h-2.4v0.7
					c0,0.4-0.3,0.8-0.7,0.8c0,0,0,0-0.1,0c-0.5,0-0.9-0.3-0.9-0.8v-7.1c0-0.5,0.4-0.8,0.9-0.8c0.4,0,0.8,0.3,0.8,0.7c0,0,0,0,0,0.1
					v0.7h2.4v-0.7c0.1-1.7-1.2-3.1-2.8-3.2H163.6z"/>
				<g id="Groupe_7853" transform="translate(135.825 364.527)" class="st16">
					<path id="Tracé_26535" class="st17" d="M2.5,13.5c1.7,0.1,3.1-1.1,3.2-2.8c0,0,0,0,0,0V9.9L0,12.5C0.6,13.3,1.6,13.7,2.5,13.5
						z"/>
					<path id="Tracé_26536" class="st17" d="M7.8,9.1v1.3c0.1,1.7,1.6,3.1,3.3,2.9c0,0,0,0,0,0c1.6-0.1,2.9-1.3,2.9-2.9V6.3
						l-2.4,1.1v3.1c0,0.5-0.3,0.9-0.8,0.9s-0.9-0.3-0.9-0.8V8.1L7.8,9.1z"/>
					<path id="Tracé_26537" class="st17" d="M27.7,2.4c0.4,0,0.8,0.3,0.8,0.7v0.8h2.4V3.2c0.1-1.6-1-3-2.5-3.2l-3.5,1.5
						c-0.3,0.5-0.4,1-0.4,1.6v7.1c0,0.3,0,0.5,0.1,0.8l2.3-0.9v-7c0-0.4,0.3-0.8,0.7-0.8C27.6,2.4,27.6,2.4,27.7,2.4
						C27.7,2.4,27.7,2.4,27.7,2.4z"/>
					<path id="Tracé_26538" class="st17" d="M35.1,5.2V2.7h3.1V0.3h-5.4v7.4l5-2.1V5.2H35.1z"/>
					<path id="Tracé_26539" class="st17" d="M20.5,3.9h2.3V2.6l-2.3,0.9V3.9z"/>
					<path id="Tracé_26540" class="st17" d="M22.9,10.5V9.8h-2.3v0.7c0,0.5-0.4,0.8-0.9,0.8c-0.4,0-0.8-0.3-0.8-0.7c0,0,0,0,0-0.1
						v-6l-2.4,1.1v5.1c-0.1,1.6,1.1,3,2.7,3.2l3.1-1.3C22.6,11.9,22.8,11.2,22.9,10.5z"/>
					<path id="Tracé_26541" class="st17" d="M49.6,0.4l0.3-0.1L49.6,0.4z"/>
					<path id="Tracé_26542" class="st17" d="M43,0c-1.7-0.1-3.1,1.1-3.2,2.8c0,0,0,0,0,0v1.7l2.4-1.1V3.1c0-0.4,0.3-0.8,0.7-0.8H43
						c0.4,0,0.7,0.2,0.8,0.5l2.1-0.9C45.5,0.7,44.3-0.1,43,0z"/>
				</g>
				<path id="Tracé_26543" class="st18" d="M138.4,364.5c-1.7-0.1-3.1,1.1-3.2,2.8c0,0,0,0,0,0v2.5l2.3-1.1v-1.1
					c0-0.5,0.3-0.9,0.8-0.9s0.9,0.3,0.9,0.8v0.7l2.3-1.1C141.3,365.6,139.9,364.5,138.4,364.5z M143.6,364.8v1.3l2.4-1.1v-0.4
					L143.6,364.8z"/>
				<path id="Tracé_26544" class="st18" d="M178.8,375.8c-0.2,0-0.4,0-0.5-0.1l-2.3,0.9c0.9,1.5,2.9,2,4.4,1.1
					c0.9-0.6,1.5-1.6,1.5-2.7V374l-2.4,1.1C179.6,375.4,179.4,375.8,178.8,375.8L178.8,375.8z M174,377.9v-0.4l-0.9,0.4H174z
					 M188.9,371l-3.3,1.5c0.4,0.2,0.9,0.2,1.3,0.3c0.4,0,0.8,0.3,0.8,0.7v1.5c0,0.4-0.3,0.8-0.7,0.8c0,0,0,0-0.1,0
					c-0.5,0-0.9-0.3-0.9-0.8v-0.7h-2.4v0.7c0.1,1.7,1.6,3.1,3.3,2.9c0,0,0,0,0,0c1.6-0.1,2.9-1.3,2.9-2.9v-1.3
					C190,372.6,189.7,371.5,188.9,371L188.9,371z"/>
				<ellipse id="Ellipse_713" class="st10" cx="161.9" cy="307.5" rx="66.2" ry="38.2"/>
				<path id="Tracé_26545" class="st14" d="M299.5,87.9c2.5,3.5,3.5,7.9,2.8,12.2c-0.5,3.8-2.2,7.3-4.7,10.2
					c-2.4,3-5.5,5.2-9.1,6.4c-1.8,0.6-3.6,1-5.5,0.9c-0.9,0-1.9,0-2.8-0.1c-0.9-0.1-1.7-0.3-2.5-0.4c-3.5-0.7-6.7-2.1-9.5-4.3
					c-2.8-2.2-4.9-5.2-6.2-8.6c-1.2-3.2-1.8-6.5-1.9-9.9c0-1.7,0.1-3.4,0.4-5.1c0.3-1.7,0.8-3.3,1.3-5c5-12.9,18.9-21.2,32.8-19.8
					c7.2,0.6,13.9,3.9,18.9,9.1c0.6,0.6,1.2,1.3,1.7,2l1.6,2.1c0.9,1.4,1.8,2.8,2.5,4.3c1.6,3.1,2.8,6.3,3.8,9.6
					c1.6,6.8,1.2,13.9-1.1,20.5c-2.2,6.2-5.4,12.1-9.4,17.3c-3.9,5-8.2,9.7-12.9,13.9c-4.6,4.3-9.3,8.3-14.3,12.1
					c-5,3.8-10,7.4-14.9,11s-9.8,7.4-14.5,11.1c-4.7,3.8-9.4,7.8-13.7,11.9c-4.3,4.2-8.3,8.7-12.1,13.4c-0.6,0.9-1.9,1.1-2.8,0.4
					c0,0,0,0-0.1,0c-0.8-0.7-1-1.9-0.4-2.8l0,0c15-20.1,35.9-34.6,54.7-49.7c9.2-7.8,18.1-16.2,24.7-26c3.3-4.7,5.9-9.8,7.6-15.3
					c1.6-5.2,1.7-10.7,0.4-15.9c-1-3.9-2.8-7.7-5.1-11l-1.2-1.6l-1.2-1.5c-3.5-3.8-8.3-6.4-13.4-7.2c-5.4-0.9-10.9-0.1-15.8,2.3
					c-5,2.4-9,6.5-11.3,11.5c-0.3,0.6-0.5,1.2-0.7,1.9c-0.2,0.6-0.4,1.2-0.5,1.9c-0.3,1.4-0.4,2.8-0.4,4.2c-0.1,2.8,0.4,5.5,1.5,8
					c1,2.4,2.7,4.4,4.8,5.9c2.2,1.5,4.6,2.4,7.2,2.7c0.7,0.1,1.3,0.1,2,0.3h1.9c1.2-0.1,2.3-0.4,3.3-0.9c2.2-1,4-2.6,5.4-4.6
					c1.3-1.9,2.1-4.2,2.3-6.6c0.2-1.9-0.5-3.8-1.7-5.2c-1.8-2-1.6-5.1,0.4-6.8c1.8-1.6,4.5-1.6,6.3,0c0.2,0.2,0.3,0.3,0.4,0.5
					L299.5,87.9z"/>
				<path id="Tracé_26546" class="st19" d="M299.5,87.9c2.5,3.5,3.5,7.9,2.8,12.2c-0.5,3.8-2.2,7.3-4.7,10.2
					c-2.4,3-5.5,5.2-9.1,6.4c-1.8,0.6-3.6,1-5.5,0.9c-0.9,0-1.9,0-2.8-0.1c-0.9-0.1-1.7-0.3-2.5-0.4c-3.5-0.7-6.7-2.1-9.5-4.3
					c-2.8-2.2-4.9-5.2-6.2-8.6c-1.2-3.2-1.8-6.5-1.9-9.9c0-1.7,0.1-3.4,0.4-5.1c0.3-1.7,0.8-3.3,1.3-5c5-12.9,18.9-21.2,32.8-19.8
					c7.2,0.6,13.9,3.9,18.9,9.1c0.6,0.6,1.2,1.3,1.7,2l1.6,2.1c0.9,1.4,1.8,2.8,2.5,4.3c1.6,3.1,2.8,6.3,3.8,9.6
					c1.6,6.8,1.2,13.9-1.1,20.5c-2.2,6.2-5.4,12.1-9.4,17.3c-3.9,5-8.2,9.7-12.9,13.9c-4.6,4.3-9.3,8.3-14.3,12.1
					c-5,3.8-10,7.4-14.9,11s-9.8,7.4-14.5,11.1c-4.7,3.8-9.4,7.8-13.7,11.9c-4.3,4.2-8.3,8.7-12.1,13.4c-0.6,0.9-1.9,1.1-2.8,0.4
					c0,0,0,0-0.1,0c-0.8-0.7-1-1.9-0.4-2.8l0,0c15-20.1,35.9-34.6,54.7-49.7c9.2-7.8,18.1-16.2,24.7-26c3.3-4.7,5.9-9.8,7.6-15.3
					c1.6-5.2,1.7-10.7,0.4-15.9c-1-3.9-2.8-7.7-5.1-11l-1.2-1.6l-1.2-1.5c-3.5-3.8-8.3-6.4-13.4-7.2c-5.4-0.9-10.9-0.1-15.8,2.3
					c-5,2.4-9,6.5-11.3,11.5c-0.3,0.6-0.5,1.2-0.7,1.9c-0.2,0.6-0.4,1.2-0.5,1.9c-0.3,1.4-0.4,2.8-0.4,4.2c-0.1,2.8,0.4,5.5,1.5,8
					c1,2.4,2.7,4.4,4.8,5.9c2.2,1.5,4.6,2.4,7.2,2.7c0.7,0.1,1.3,0.1,2,0.3h1.9c1.2-0.1,2.3-0.4,3.3-0.9c2.2-1,4-2.6,5.4-4.6
					c1.3-1.9,2.1-4.2,2.3-6.6c0.2-1.9-0.5-3.8-1.7-5.2c-1.8-2-1.6-5.1,0.4-6.8c1.8-1.6,4.5-1.6,6.3,0c0.2,0.2,0.3,0.3,0.4,0.5
					L299.5,87.9z"/>
				<path id="Tracé_26547" class="st14" d="M31.9,93.9c-1.3,1.4-1.9,3.3-1.7,5.2c0.3,4.8,3.3,9.1,7.6,11.1c1.1,0.5,2.3,0.8,3.5,0.9
					h1.9c0.7,0,1.4-0.1,2-0.3c2.6-0.3,5.1-1.2,7.2-2.7c2.1-1.5,3.8-3.5,4.8-5.9c1.1-2.5,1.6-5.3,1.6-8c0-1.4-0.1-2.8-0.4-4.2
					c-0.1-0.6-0.3-1.3-0.5-1.9c-0.3-0.7-0.4-1.3-0.7-1.9C55,81.3,51,77.2,45.9,74.9c-4.8-2.4-10.3-3.2-15.7-2.3
					c-5.2,0.8-9.9,3.4-13.4,7.2l-1.1,1.5l-1.1,1.6c-0.8,1.2-1.5,2.3-2.1,3.5c-1.3,2.4-2.3,4.9-2.9,7.5c-1.3,5.2-1.2,10.8,0.4,15.9
					c1.7,5.4,4.3,10.6,7.5,15.3c6.7,9.6,15.4,18.2,24.7,26c18.9,15.1,39.7,29.6,54.7,49.7l0,0c0.7,0.9,0.5,2.1-0.3,2.8
					c-0.9,0.7-2.1,0.5-2.8-0.3c0,0,0-0.1-0.1-0.1c-3.7-4.7-7.7-9.2-12.1-13.4c-4.3-4.2-9-8.2-13.7-11.9s-9.6-7.5-14.5-11.1
					c-5-3.6-10-7.1-14.9-11s-9.6-7.8-14.3-12.1c-4.7-4.3-9-8.9-12.9-13.9c-4.1-5.2-7.2-11-9.4-17.3c-2.2-6.6-2.6-13.7-1.1-20.5
					c0.8-3.4,2.1-6.6,3.8-9.6c0.8-1.5,1.7-2.9,2.5-4.3L8.8,76c0.5-0.7,1.2-1.3,1.7-2c5-5.2,11.7-8.5,18.9-9.1
					c13.9-1.3,27.9,7,32.8,19.8c0.6,1.6,1,3.3,1.3,5c0.3,1.7,0.4,3.4,0.4,5.1c0,3.4-0.6,6.8-1.9,9.9c-1.3,3.3-3.4,6.3-6.2,8.6
					c-2.8,2.1-6.1,3.6-9.5,4.3c-0.8,0.1-1.6,0.3-2.5,0.4C43,118,42,118,41.1,118c-1.9,0-3.7-0.4-5.5-0.9c-3.6-1.2-6.7-3.5-9.1-6.4
					c-2.4-2.9-4-6.4-4.6-10.2c-0.8-4.3,0.2-8.7,2.8-12.2l0.1-0.3c1.6-2.1,4.6-2.6,6.7-1c2.1,1.6,2.6,4.6,1,6.7c0,0,0,0.1-0.1,0.1
					l0,0C32.3,93.7,32,93.7,31.9,93.9z"/>
				<path id="Tracé_26548" class="st19" d="M31.9,93.9c-1.3,1.4-1.9,3.3-1.7,5.2c0.3,4.8,3.3,9.1,7.6,11.1c1.1,0.5,2.3,0.8,3.5,0.9
					h1.9c0.7,0,1.4-0.1,2-0.3c2.6-0.3,5.1-1.2,7.2-2.7c2.1-1.5,3.8-3.5,4.8-5.9c1.1-2.5,1.6-5.3,1.6-8c0-1.4-0.1-2.8-0.4-4.2
					c-0.1-0.6-0.3-1.3-0.5-1.9c-0.3-0.7-0.4-1.3-0.7-1.9C55,81.3,51,77.2,45.9,74.9c-4.8-2.4-10.3-3.2-15.7-2.3
					c-5.2,0.8-9.9,3.4-13.4,7.2l-1.1,1.5l-1.1,1.6c-0.8,1.2-1.5,2.3-2.1,3.5c-1.3,2.4-2.3,4.9-2.9,7.5c-1.3,5.2-1.2,10.8,0.4,15.9
					c1.7,5.4,4.3,10.6,7.5,15.3c6.7,9.6,15.4,18.2,24.7,26c18.9,15.1,39.7,29.6,54.7,49.7l0,0c0.7,0.9,0.5,2.1-0.3,2.8
					c-0.9,0.7-2.1,0.5-2.8-0.3c0,0,0-0.1-0.1-0.1c-3.7-4.7-7.7-9.2-12.1-13.4c-4.3-4.2-9-8.2-13.7-11.9s-9.6-7.5-14.5-11.1
					c-5-3.6-10-7.1-14.9-11s-9.6-7.8-14.3-12.1c-4.7-4.3-9-8.9-12.9-13.9c-4.1-5.2-7.2-11-9.4-17.3c-2.2-6.6-2.6-13.7-1.1-20.5
					c0.8-3.4,2.1-6.6,3.8-9.6c0.8-1.5,1.7-2.9,2.5-4.3L8.8,76c0.5-0.7,1.2-1.3,1.7-2c5-5.2,11.7-8.5,18.9-9.1
					c13.9-1.3,27.9,7,32.8,19.8c0.6,1.6,1,3.3,1.3,5c0.3,1.7,0.4,3.4,0.4,5.1c0,3.4-0.6,6.8-1.9,9.9c-1.3,3.3-3.4,6.3-6.2,8.6
					c-2.8,2.1-6.1,3.6-9.5,4.3c-0.8,0.1-1.6,0.3-2.5,0.4C43,118,42,118,41.1,118c-1.9,0-3.7-0.4-5.5-0.9c-3.6-1.2-6.7-3.5-9.1-6.4
					c-2.4-2.9-4-6.4-4.6-10.2c-0.8-4.3,0.2-8.7,2.8-12.2l0.1-0.3c1.6-2.1,4.6-2.6,6.7-1c2.1,1.6,2.6,4.6,1,6.7c0,0,0,0.1-0.1,0.1
					l0,0C32.3,93.7,32,93.7,31.9,93.9z"/>
				<path id="Tracé_26549" class="st14" d="M214.2,291.8c0-7.8-5.1-15.4-15.3-21.3c-20.4-11.8-53.6-11.8-74,0
					c-9.6,5.5-14.7,12.7-15.3,20v13c0.5,7.2,5.6,14.3,15.3,20c20.4,11.8,53.5,11.8,74,0c10.2-5.9,15.3-13.7,15.3-21.3V291.8z"/>
				<path id="Tracé_26550" class="st15" d="M214.2,291.8c0-7.8-5.1-15.4-15.3-21.3c-20.4-11.8-53.6-11.8-74,0
					c-9.6,5.5-14.7,12.7-15.3,20v13c0.5,7.2,5.6,14.3,15.3,20c20.4,11.8,53.5,11.8,74,0c10.2-5.9,15.3-13.7,15.3-21.3V291.8z"/>
				<path id="Tracé_26551" class="st15" d="M168.8,331.7c11-0.8,21.7-3.6,30.3-8.6c3.1-1.8,6-4,8.6-6.6v-39.7
					c-2.6-2.6-5.4-4.8-8.6-6.6c-8.4-5-19.2-7.8-30.3-8.6V331.7z"/>
				<path id="Tracé_26552" class="st14" d="M132.3,266.9c-2.5,1-5,2.1-7.4,3.5c-9.6,5.5-14.7,12.7-15.3,20v13
					c0.5,7.2,5.6,14.3,15.3,20c2.4,1.3,4.8,2.5,7.4,3.5V266.9z"/>
				<path id="Tracé_26553" class="st14" d="M113.5,301.6c-0.5-0.8-0.9-1.5-1.5-2.3c-0.1-0.3-0.3-0.4-0.3-0.7
					c-0.3-0.6-0.6-1.3-0.8-2c-0.1-0.3-0.1-0.4-0.3-0.7c-0.3-0.8-0.5-1.7-0.7-2.5l0,0c-0.2-0.9-0.2-1.8-0.3-2.7v-0.8
					c0-0.7,0.1-1.2,0.1-1.9c0-0.3,0.1-0.7,0.1-0.9c0.1-0.5,0.3-1.2,0.4-1.7c0.1-0.3,0.1-0.5,0.3-0.8c0.3-0.8,0.7-1.6,1.1-2.4
					l0.4-0.8c0.3-0.6,0.7-1.2,1.1-1.7c0.3-0.4,0.5-0.7,0.8-1.1c0.2-0.3,0.4-0.5,0.5-0.8l0.9-1.1l0.5-0.5
					c11.3-12.9,27.6-17.1,46.1-17.1s35,4.3,46.1,17.1l0.4,0.4l0.9,1.1c0.2,0.2,0.4,0.5,0.5,0.8c0.1,0.3,0.5,0.7,0.7,0.9
					c0.4,0.6,0.8,1.2,1.1,1.9c0.2,0.2,0.3,0.4,0.4,0.7c0.4,0.8,0.8,1.7,1.1,2.5c0.1,0.3,0.1,0.5,0.3,0.8c0.1,0.7,0.4,1.2,0.5,1.9
					c0,0.3,0.1,0.5,0.1,0.8c0.1,0.7,0.2,1.3,0.1,2v0.7c0,1.8-0.3,3.6-0.9,5.4c0,0.1-0.1,0.4-0.1,0.5c-0.3,0.7-0.6,1.5-0.9,2.1
					l-0.3,0.5c-0.4,0.8-0.9,1.6-1.5,2.4l-0.1,0.1c-0.6,1-1.4,1.8-2.1,2.7l-0.1,0.1c-0.7,0.8-1.5,1.5-2.3,2.3l-0.5,0.5
					c-0.8,0.7-1.5,1.2-2.4,1.9l-0.7,0.4c-1.1,0.7-2.1,1.5-3.3,2.1c-20.4,11.8-53.6,11.8-74,0c-1.2-0.6-2.3-1.4-3.3-2.1
					c-0.3-0.1-0.5-0.3-0.7-0.5c-0.8-0.5-1.6-1.2-2.3-1.7l-0.7-0.5c-0.8-0.6-1.5-1.4-2.1-2.1l-0.3-0.3c-0.8-0.8-1.5-1.6-2.1-2.5
					L113.5,301.6z"/>
				<g id="Groupe_7854" transform="translate(109.701 258.968)" class="st20">
					<path id="Tracé_26554" class="st17" d="M3.8,42.6c-0.5-0.8-0.9-1.5-1.5-2.3C2.1,40.1,2,39.9,2,39.7c-0.3-0.6-0.6-1.3-0.8-2
						c-0.1-0.3-0.1-0.4-0.3-0.7c-0.3-0.8-0.5-1.7-0.7-2.5l0,0C0.1,33.5,0,32.6,0,31.7v-0.8c0-0.7,0.1-1.2,0.1-1.9
						c0-0.3,0.1-0.7,0.1-0.9c0.1-0.5,0.3-1.2,0.4-1.7c0.1-0.3,0.1-0.5,0.3-0.8C1.2,24.8,1.6,24,2,23.2l0.4-0.8
						c0.3-0.6,0.7-1.2,1.1-1.7C3.8,20.2,4,20,4.3,19.6c0.2-0.3,0.4-0.5,0.5-0.8l0.9-1.1l0.5-0.5C17.5,4.3,33.9,0,52.4,0
						s35,4.3,46.1,17.1l0.4,0.4l0.9,1.1c0.2,0.2,0.4,0.5,0.5,0.8c0.1,0.3,0.5,0.7,0.7,0.9c0.4,0.6,0.8,1.2,1.1,1.9
						c0.2,0.2,0.3,0.4,0.4,0.7c0.4,0.8,0.8,1.7,1.1,2.5c0.1,0.3,0.1,0.5,0.3,0.8c0.1,0.7,0.4,1.2,0.5,1.9c0,0.3,0.1,0.5,0.1,0.8
						c0.1,0.7,0.2,1.3,0.1,2v0.7c0,1.8-0.3,3.6-0.9,5.4c0,0.1-0.1,0.4-0.1,0.5c-0.3,0.7-0.6,1.5-0.9,2.1l-0.3,0.5
						c-0.4,0.8-0.9,1.6-1.5,2.4l-0.1,0.1c-0.6,1-1.4,1.8-2.1,2.7l-0.1,0.1c-0.7,0.8-1.5,1.5-2.3,2.3l-0.5,0.5
						c-0.8,0.7-1.5,1.2-2.4,1.9l-0.7,0.4c-1.1,0.7-2.1,1.5-3.3,2.1c-20.4,11.8-53.6,11.8-74,0c-1.2-0.6-2.3-1.4-3.3-2.1
						c-0.3-0.1-0.5-0.3-0.7-0.5c-0.8-0.5-1.6-1.2-2.3-1.7l-0.7-0.5c-0.8-0.6-1.5-1.4-2.1-2.1l-0.3-0.3c-0.8-0.8-1.5-1.6-2.1-2.5
						L3.8,42.6z"/>
				</g>
				<path id="Tracé_26555" class="st21" d="M185.3,277.3v-15.4c-6.5-1.8-13.1-2.8-19.8-2.9v26l3.2,35.2c11-0.8,21.7-3.6,30.3-8.6
					c1.2-0.7,2.3-1.5,3.3-2.1l0.7-0.4c0.8-0.7,1.6-1.2,2.4-1.9l0.5-0.5c0.5-0.5,1-1,1.6-1.5L185.3,277.3z"/>
				<path id="Tracé_26556" class="st22" d="M146.8,282.4V260c-12.2,2-22.9,6.8-30.9,15.9l-0.5,0.5l-0.9,1.1
					c-0.1,0.3-0.4,0.5-0.5,0.8s-0.5,0.7-0.8,1.1c-0.4,0.6-0.7,1.1-1.1,1.7l-0.4,0.8c-0.4,0.8-0.8,1.6-1.1,2.4
					c-0.1,0.3-0.1,0.5-0.3,0.8c-0.1,0.5-0.3,1.2-0.4,1.7c0,0.3-0.1,0.7-0.1,0.9c-0.1,0.6-0.2,1.2-0.1,1.9v0.8c0,0.9,0.1,1.8,0.3,2.7
					l0,0c0.1,0.9,0.4,1.7,0.7,2.5c0.1,0.3,0.1,0.4,0.3,0.7l0.8,2c0.1,0.3,0.1,0.4,0.3,0.7c0.4,0.8,0.9,1.6,1.5,2.3
					c0,0.1,0.1,0.1,0.1,0.3c0.6,0.9,1.4,1.8,2.1,2.5l0.3,0.3c0.7,0.8,1.5,1.5,2.1,2.1l0.7,0.5c0.7,0.7,1.5,1.2,2.3,1.8l0.7,0.5
					c1.1,0.7,2.1,1.5,3.3,2.1c2.4,1.3,4.8,2.5,7.4,3.5L146.8,282.4z"/>
				<path id="Tracé_26557" class="st14" d="M191.2,262.9c0-4.3-2.8-8.6-8.6-11.9c-11.4-6.6-29.9-6.6-41.3,0
					c-5.4,3.1-8.2,7.1-8.6,11.1v10.3c0.3,4,3.2,8,8.6,11.1c11.4,6.6,29.9,6.6,41.3,0c5.6-3.3,8.6-7.6,8.6-11.9V262.9z"/>
				<path id="Tracé_26558" class="st15" d="M191.2,262.9c0-4.3-2.8-8.6-8.6-11.9c-11.4-6.6-29.9-6.6-41.3,0
					c-5.4,3.1-8.2,7.1-8.6,11.1v10.3c0.3,4,3.2,8,8.6,11.1c11.4,6.6,29.9,6.6,41.3,0c5.6-3.3,8.6-7.6,8.6-11.9V262.9z"/>
				<path id="Tracé_26559" class="st15" d="M165.7,288.2c5.9-0.3,11.7-2,16.9-4.8c1.8-0.9,3.3-2.2,4.7-3.6v-25.2
					c-1.4-1.4-3-2.7-4.7-3.6c-5.2-2.8-11-4.4-16.9-4.8V288.2z"/>
				<path id="Tracé_26560" class="st14" d="M145.5,248.9c-1.4,0.5-2.8,1.2-4.2,2c-5.4,3.1-8.2,7.1-8.6,11.1v10.3
					c0.3,4,3.2,8,8.6,11.1c1.3,0.8,2.7,1.5,4.2,2V248.9z"/>
				<path id="Tracé_26561" class="st14" d="M191,262L191,262c-0.7-11.1-29.1-30.7-29.1-30.7s-28.5,19.7-29.1,30.7l0,0v1.6
					c0.3,4,3.2,8,8.6,11.1c11.4,6.6,29.9,6.6,41.3,0c5.4-3.1,8.2-7.1,8.6-11.1v-0.3C191.1,263,191,262.5,191,262z"/>
				<path id="Tracé_26562" class="st23" d="M191,262L191,262c-0.7-11.1-29.1-30.7-29.1-30.7s-28.5,19.7-29.1,30.7l0,0v1.6
					c0.3,4,3.2,8,8.6,11.1c11.4,6.6,29.9,6.6,41.3,0c5.4-3.1,8.2-7.1,8.6-11.1v-0.3C191.1,263,191,262.5,191,262z"/>
				<path id="Tracé_26563" class="st21" d="M182.6,274.8c1.5-0.9,3-2,4.3-3.2c0-13.7-24.9-40.3-24.9-40.3s3.8,37.8,3.8,48.2
					C171.6,279.2,177.4,277.6,182.6,274.8z"/>
				<path id="Tracé_26564" class="st22" d="M132.9,261.9L132.9,261.9v1.6c0.3,4,3.2,8,8.6,11.1c1.5,0.8,3,1.6,4.6,2.1
					c0-9.2,16.1-45.5,16.1-45.5S133.5,250.9,132.9,261.9z"/>
				<path id="Tracé_26565" class="st14" d="M261.9,57.7c0-14.7-9.8-29.5-29.3-40.9c-39-22.5-102.4-22.5-141.3,0
					C71.8,28.1,62,42.9,62,57.7v17.7c0,14.7,9.8,29.5,29.3,40.9c39,22.5,102.4,22.5,141.3,0c19.6-11.3,29.2-26,29.2-40.9V57.7z"/>
				<path id="Tracé_26566" class="st15" d="M261.9,57.7c0-14.7-9.8-29.5-29.3-40.9c-39-22.5-102.4-22.5-141.3,0
					C71.8,28.1,62,42.9,62,57.7v17.7c0,14.7,9.8,29.5,29.3,40.9c39,22.5,102.4,22.5,141.3,0c19.6-11.3,29.2-26,29.2-40.9V57.7z"/>
				<path id="Tracé_26567" class="st15" d="M239.5,21.4v90.4c14.9-10.6,22.4-23.4,22.4-36.3V57.9C261.9,44.9,254.4,31.9,239.5,21.4
					z"/>
				<path id="Tracé_26568" class="st15" d="M162,133c20,0,39.8-3.5,56.8-10.2V10.3C201.7,3.5,181.8,0,162,0V133z"/>
				<path id="Tracé_26569" class="st14" d="M97.1,13.8c-2,0.9-4,2-5.9,3.1c-19.6,11.3-29.3,26-29.3,40.9v17.7
					c0,14.7,9.8,29.5,29.3,40.9c1.9,1.1,3.9,2.1,5.9,3.1V13.8z"/>
				<ellipse id="Ellipse_714" class="st14" cx="161.9" cy="57.7" rx="99.9" ry="57.7"/>
				<ellipse id="Ellipse_715" class="st24" cx="161.9" cy="57.7" rx="99.9" ry="57.7"/>
				<path id="Tracé_26570" class="st14" d="M251.7,57.7c0,3-0.5,6-1.6,8.8c-3.2-8.4-11-16.5-22.5-23.2
					c-17.3-10-40.6-15.5-65.5-15.5s-48.2,5.5-65.5,15.5C85.1,50.1,77.3,58,74.1,66.6c-1.1-2.8-1.6-5.8-1.6-8.8
					c0-11.7,8.6-22.9,24.1-31.9c17.3-10,40.6-15.5,65.5-15.5s48.2,5.5,65.5,15.5C243.1,34.8,251.7,46.1,251.7,57.7z"/>
				<path id="Tracé_26571" class="st10" d="M120.4,15.8c-8.4,2.3-16.4,5.6-24,9.9c-15.5,9-24.1,20.4-24.1,31.9c0,3,0.5,6,1.6,8.8
					C77.1,58,84.8,50,96.4,43.3c7.6-4.3,15.6-7.6,24-9.9V15.8z"/>
				<path id="Tracé_26572" class="st25" d="M164.5,28c21.3,0.3,41.3,4.7,57.1,12.5V22.8c-15.9-7.8-35.9-12.1-57.1-12.5L164.5,28
					L164.5,28z"/>
				<path id="Tracé_26573" class="st14" d="M62,75.4c0,14.7,9.8,29.5,29.3,40.9c39,22.5,102.4,22.5,141.3,0
					c19.6-11.3,29.2-26,29.2-40.9c0,92.7-47.2,169.6-99.9,169.6S62,168.1,62,75.4z"/>
				<path id="Tracé_26574" class="st23" d="M62,75.4c0,14.7,9.8,29.5,29.3,40.9c39,22.5,102.4,22.5,141.3,0
					c19.6-11.3,29.2-26,29.2-40.9c0,92.7-47.2,169.6-99.9,169.6S62,168.1,62,75.4z"/>
				<path id="Tracé_26575" class="st26" d="M162,244.9c23.4,0,45.7-15.1,63.2-40.1c-23.7,31.1-69.9,26.5-89.2-13.4
					c-5.8-11.9-13.7-37.8-15.7-63.8c-10.2-2.6-19.9-6.5-29.1-11.7C71.7,104.8,62,90,62,75.2l0,0C62,168.1,109.2,244.9,162,244.9z"/>
				<path id="Tracé_26576" class="st22" d="M92.8,166.7c-4.3-17.9-7-36.1-7.9-54.5C69.6,101.5,62,88.4,62,75.4l0,0
					c0,91,45.4,166.5,96.9,169.5C129.7,242.4,102.5,204.6,92.8,166.7z"/>
				<path id="Tracé_26577" class="st21" d="M232.7,116.2c-22.2,12.9-52.4,18.4-81.5,16.6c4.8,58,20.6,78,48.1,64.2
					c22.9-11.5,33.8-49,39-84.3C236.4,113.9,234.6,115.1,232.7,116.2z"/>
				<path id="Tracé_26578" class="st14" d="M250,66.6c-3.2,8.4-11,16.5-22.5,23c-17.3,10-40.6,15.5-65.5,15.5s-48.2-5.5-65.5-15.5
					c-11.5-6.7-19.3-14.7-22.5-23c3.2-8.4,10.9-16.5,22.5-23.2c17.3-10,40.6-15.5,65.5-15.5s48.2,5.5,65.5,15.5
					C239.1,50.1,246.8,58.1,250,66.6z"/>
				<path id="Tracé_26579" class="st23" d="M250,66.6c-3.2,8.4-11,16.5-22.5,23c-17.3,10-40.6,15.5-65.5,15.5s-48.2-5.5-65.5-15.5
					c-11.5-6.7-19.3-14.7-22.5-23c3.2-8.4,10.9-16.5,22.5-23.2c17.3-10,40.6-15.5,65.5-15.5s48.2,5.5,65.5,15.5
					C239.1,50.1,246.8,58.1,250,66.6z"/>
				<path id="Tracé_26580" class="st26" d="M205.2,99.1c7.8-2.3,15.3-5.5,22.4-9.5c11.5-6.7,19.3-14.7,22.5-23
					c-3.2-8.4-11-16.5-22.5-23.2c-5.6-3.2-11.6-5.9-17.7-8C210.4,56.7,208.9,78.1,205.2,99.1z"/>
				<path id="Tracé_26581" class="st22" d="M234.2,47.7c-0.6,13.7-2.1,27.3-4.6,40.7c10.4-6.4,17.6-13.9,20.5-21.8
					C247.4,59.9,242.1,53.5,234.2,47.7z"/>
			</g>
		</g>
		
			<g id="freepik--speech-bubble--inject-52_00000005224866667719765830000009331180625343833015_" transform="translate(235.762 20.6)">
			<g id="freepik--speech-bubble--inject-52_00000125578918005262835250000000314876881365082294_">
				<g id="freepik--speech-bubble--inject-52">
					<path id="Tracé_26582" class="st11" d="M58.7,0C26.3,0,0,26.3,0,58.7s26.3,58.7,58.7,58.7s58.7-26.3,58.7-58.7l0,0
						C117.3,26.3,91.1,0.1,58.7,0z M97,94.6l-4.3,4.2c-22.2,18.8-55.4,16.1-74.2-6C1.8,73,1.8,44.2,18.5,24.5l4.2-4.4
						C43.9,0.2,77.2,1.3,97.1,22.5C116.1,42.8,116.1,74.3,97,94.6z"/>
					<path id="Tracé_26583" class="st11" d="M55.5,133.6L48,114.1h21.4l-7.5,19.4c-0.6,1.7-2.5,2.6-4.2,2c0,0,0,0,0,0
						C56.6,135.3,55.8,134.5,55.5,133.6z"/>
				</g>
				<path id="JooL_00000025414495764546332460000011606397197225745033_" class="st14" d="M94.2,51.2c-0.2-0.7-0.7-1.2-1.3-1.5
					c-0.6-0.2-1.3-0.3-2-0.1l-7.5,2.8l1.2,3.5l3.6-1.3c-3.3,6-10.7,12.7-15.8,12.7h-0.1c-7.9,0-14.3-6.4-16.7-9.2
					c2.4-2.8,8.7-9.4,16.6-9.4c2.1,0,4.2,0.7,5.9,2l1.7,1.3l2.7-3.3l-1.7-1.3c-2.5-1.9-5.5-2.9-8.6-2.9c-9.2,0.1-16.3,6.7-19.4,10.3
					c-3.2-3.5-10.2-10-19.4-10h-0.1c-7.5,0-13.6,6.2-13.6,13.7c0,7.5,6.2,13.6,13.7,13.6h0.1c9.2-0.1,16.3-6.7,19.4-10.3
					c3.2,3.5,10.2,10,19.4,10h0.1c4.3-0.4,8.4-2.3,11.5-5.4c3.3-2.8,6-6.2,8.2-9.9l1.2,3.3h0.1l3.3-1.2L94.2,51.2z M33.5,67.5
					L33.5,67.5c-5.1,0-9.3-4.1-9.4-9.2c0,0,0,0,0,0l0,0c0-5.1,4.1-9.3,9.2-9.4h0.1c7.9,0,14.3,6.4,16.7,9.2l0,0
					C47.8,61,41.5,67.5,33.5,67.5z"/>
			</g>
		</g>
		<g id="freepik--Factors--inject-52" transform="translate(26.9 68.426)">
			<g id="freepik--Bubble--inject-52" transform="translate(5.493 0)">
				<path id="Tracé_26584" class="st11" d="M165.9,93.4c0,1.8-1.4,3.2-3.2,3.2c-1.8,0-3.2-1.4-3.2-3.2c0-1.8,1.4-3.2,3.2-3.2l0,0
					l0,0C164.4,90.2,165.8,91.6,165.9,93.4z"/>
				<path id="Tracé_26585" class="st11" d="M162.1,93.8l-33-43.7H49.8v-1.3h80l0.3,0.3l33.1,43.8L162.1,93.8z"/>
				<ellipse id="Ellipse_716" class="st17" cx="49.8" cy="49.4" rx="47.8" ry="48.2"/>
				<path id="Tracé_26586" class="st27" d="M49.8,98.9C22.5,99.1,0.2,77.1,0,49.8C-0.2,22.5,21.7,0.2,49,0
					c27.3-0.2,49.6,21.7,49.8,49v0.4C99,76.6,77,98.8,49.8,98.9C49.8,98.9,49.8,98.9,49.8,98.9z M49.8,2.5C23.9,2.3,2.8,23.1,2.5,49
					C2.3,74.9,23.1,96.1,49,96.3c25.9,0.2,47.1-20.6,47.3-46.5c0,0,0,0,0,0v-0.4C96.4,23.7,75.6,2.7,49.8,2.5z"/>
				<path id="formations_00000026863217207079412890000015630532012878398128_" class="st28" d="M71.4,28.8H47.8c-2.7,0-5,2.2-5,4.9
					c0,0,0,0,0,0l0,0v15.1l-4.4-2.1c-0.1-0.1-0.3-0.1-0.4-0.3c2.8-3,2.7-7.7-0.3-10.6c-3-2.8-7.7-2.7-10.6,0.3l0,0
					c-2.8,3-2.8,7.7,0.2,10.5c0,0,0,0,0.1,0.1l0,0l0.3,0.3c-3.1,1.8-5.1,5.1-5.1,8.7v5.1c0,2.1,1.3,4,3.3,4.7v8.7
					c0,0.9,0.7,1.6,1.6,1.6h10c0.9,0,1.6-0.7,1.6-1.6V56.5l5,2.5c2.1,1.1,4.6,0.3,5.8-1.7h5.6l-5.9,16.3c-0.3,0.8,0.1,1.7,0.9,2
					c0.8,0.3,1.7,0,2-0.8v-0.1l6.3-17.5H60l6.4,17.4c0.3,0.8,1.2,1.2,2,0.9c0.8-0.3,1.2-1.2,0.9-2v-0.1l-6-16.2h7.9
					c2.7,0,5-2.2,5-4.9c0,0,0,0,0,0l0,0V33.8C76.2,31.1,74.1,28.9,71.4,28.8z M28.3,41.4c0-2.4,1.9-4.3,4.3-4.3
					c2.4,0,4.3,1.9,4.3,4.3c0,2.4-1.9,4.3-4.3,4.3C30.2,45.6,28.3,43.7,28.3,41.4z M54.9,47.8L54.9,47.8l-7,7.1l-0.8,0.9L47,56l0,0
					c-0.3,0.3-0.7,0.4-1.1,0.3h-0.1l-7.2-3.6c-0.8-0.4-1.7-0.1-2.1,0.6c0,0,0,0,0,0c-0.3,0.1-0.3,0.4-0.3,0.7v18.6h-7V64
					c0-0.9-0.7-1.6-1.6-1.6c-1,0-1.7-0.8-1.7-1.7v-5.1c0-3.8,3.1-6.8,6.8-6.8H34c1.1,0,2.1,0.2,3.1,0.7c4.2,2.1,6.7,3.3,8.2,4.3
					l0.8-0.8l6.4-7c0.6-0.7,1.6-0.8,2.3-0.3C55.4,46.3,55.4,47.2,54.9,47.8L54.9,47.8z M51.2,38.7c-0.9,0-1.6-0.7-1.6-1.6
					c0-0.9,0.7-1.6,1.6-1.6c0,0,0.1,0,0.1,0h16.7c0.9,0,1.6,0.8,1.6,1.6c0,0.9-0.7,1.5-1.6,1.6H51.2z M67.9,50.5h-8.4
					c-0.9,0-1.6-0.8-1.6-1.6c0-0.9,0.7-1.5,1.6-1.6h8.4c0.9,0,1.6,0.7,1.6,1.6c0,0.9-0.6,1.6-1.5,1.6C68,50.5,68,50.5,67.9,50.5z
					 M67.9,44.6h-8.6c-0.9,0-1.5-0.8-1.5-1.6c0-0.8,0.8-1.5,1.6-1.5h8.6c0.8,0.1,1.5,0.8,1.5,1.6C69.5,44,68.8,44.6,67.9,44.6
					C68,44.6,67.9,44.6,67.9,44.6L67.9,44.6z"/>
			</g>
			<g id="freepik--bubble--inject-52-2" transform="translate(476.806 295.008)">
				<path id="Tracé_26587" class="st11" d="M82.1,91.6l-46-87.9l-33,0.1V2.5L37,2.4l0.1,0.3l46.2,88.4L82.1,91.6z"/>
				<path id="Tracé_26588" class="st11" d="M6.4,3.2C6.4,5,5,6.4,3.2,6.4S0,5,0,3.2C0,1.4,1.4,0,3.2,0l0,0C5,0,6.4,1.4,6.4,3.2z"/>
				<ellipse id="Ellipse_717" class="st17" cx="82.7" cy="91.4" rx="47.8" ry="48.2"/>
				<path id="Tracé_26589" class="st27" d="M82.7,140.8c-27.3,0.2-49.6-21.7-49.8-49c-0.2-27.3,21.7-49.6,49-49.8
					c27.3-0.2,49.6,21.7,49.8,49v0.4C131.8,118.6,109.9,140.7,82.7,140.8C82.7,140.8,82.7,140.8,82.7,140.8z M82.7,44.5
					C56.8,44.3,35.6,65.1,35.4,91S56,138,81.9,138.3c25.9,0.2,47.1-20.6,47.3-46.5c0,0,0,0,0,0v-0.4c0.2-25.7-20.6-46.7-46.3-46.9
					C82.8,44.5,82.7,44.5,82.7,44.5L82.7,44.5z"/>
				<g id="planteur_x5F_border_00000137098405087371708310000012216982473869929616_" transform="translate(57.206 61.291)">
					<g id="Groupe_7855" transform="translate(0 35.307)">
						<path id="Tracé_26590" class="st28" d="M40.2,13.2v-13h0.5c-2.2-0.3-4.4-0.3-6.6,0c-0.5,0.8-1.2,1.5-2,2
							c-4.1,2.9-9.8,2-12.9-2c-1.1,0-5,0.1-5.9,0.3v12.9L40.2,13.2z"/>
						<path id="Tracé_26591" class="st28" d="M6.3,3.1C5.1,4.1,3.9,5.2,3,6.4c-1.5,2-2.4,4.3-2.8,6.7C0,13.9,0,14.8,0,15.6
							c0,0.7,0.3,1.3,0.8,1.7c0.7,0.6,1.6,1,2.5,0.9h5.9V1.4C8.2,1.9,7.3,2.5,6.3,3.1z"/>
						<path id="Tracé_26592" class="st28" d="M53.6,15.1c0.1-0.8,0-1.5-0.3-2.3c-0.4-2.5-1.5-4.8-3.1-6.7c-1.4-1.9-3.3-3.3-5.5-4.3
							c-0.2-0.2-0.4-0.3-0.7-0.4v17h6.6C52.4,18.3,53.7,16.8,53.6,15.1L53.6,15.1z"/>
						<path id="Tracé_26593" class="st28" d="M44.3,1.3"/>
					</g>
					<path id="Tracé_26594" class="st29" d="M13.3,35.5v12.9h26.9v-13c1.4,0,2.8,0.4,4,1.2v17h-35V36.7
						C10.5,36.1,11.9,35.7,13.3,35.5z"/>
					<path id="Tracé_26595" class="st28" d="M15.4,0h22.8c4.6,0,3.8,3.8,4,10.6h3.5c0.5,0,1,0.4,1.1,0.9V15c0,0.5-0.4,1-0.9,1.1H8
						c-0.5,0.1-0.9-0.2-1-0.6c0-0.1,0-0.1,0-0.2v-3.6c0.1-0.5,0.5-1,1.1-0.9h3.5C11.7,3.5,10.7,0,15.4,0z"/>
					<path id="Tracé_26596" class="st28" d="M11.7,18.6h30.1c0.3,5.5-2.3,10.7-6.8,13.8c-4.7,3-10.6,3.2-15.5,0.5
						C14.4,29.9,11.5,24.5,11.7,18.6z"/>
				</g>
			</g>
			<g id="freepik--bubble--inject-52_00000028296768530235386510000017091686425615055785_" transform="translate(471.045 29.61)">
				<path id="Tracé_26597" class="st11" d="M41.4,149.5H3.2v-1.3h37.4l53.2-99l1.2,0.7L41.4,149.5z"/>
				<path id="Tracé_26598" class="st11" d="M6.4,148.8c0,1.8-1.4,3.2-3.2,3.2c-1.8,0-3.2-1.4-3.2-3.2c0-1.8,1.4-3.2,3.2-3.2l0,0
					l0,0c1.7-0.1,3.1,1.3,3.2,3C6.4,148.7,6.4,148.8,6.4,148.8z"/>
				<ellipse id="Ellipse_718" class="st17" cx="94.3" cy="49.4" rx="47.8" ry="48.1"/>
				<path id="Tracé_26599" class="st27" d="M94.3,98.9c-27.3,0.2-49.6-21.7-49.8-49C44.3,22.5,66.2,0.2,93.5,0
					c27.3-0.2,49.6,21.7,49.8,49v0.4C143.5,76.6,121.5,98.8,94.3,98.9C94.3,98.9,94.3,98.9,94.3,98.9z M94.3,2.5
					C68.4,2.3,47.2,23.1,47,49s20.6,47.1,46.5,47.3c25.9,0.2,47.1-20.6,47.3-46.5c0,0,0,0,0,0v-0.4C140.9,23.7,120.1,2.7,94.3,2.5
					C94.3,2.5,94.3,2.5,94.3,2.5L94.3,2.5z"/>
				<g id="delimiter_00000165917686542661196250000002598975861740368539_" transform="translate(69.106 24.927)">
					<g id="zones_00000061453416014299863430000003244782688199290017_" transform="translate(18.15 17.225)">
						<path id="Tracé_26600" class="st28" d="M13.5,8.7c-2.7,0-5,2.2-5,4.9c0,0,0,0,0,0l0,0c0,2.7,2.2,5,4.9,5c0,0,0,0,0,0l0,0
							c2.7,0,5-2.2,5-4.9c0,0,0,0,0,0c0.1-2.7-2.1-4.9-4.8-5C13.7,8.7,13.6,8.7,13.5,8.7z M14.7,15.4h-1.3c-0.3,0-0.6-0.2-0.7-0.6
							c0,0,0-0.1,0-0.1V13c0-0.3,0.2-0.6,0.6-0.7c0,0,0.1,0,0.1,0c0.3,0,0.6,0.2,0.7,0.6c0,0,0,0.1,0,0.1v0.9h0.7
							c0.4,0,0.7,0.4,0.7,0.8C15.5,15,15.1,15.4,14.7,15.4L14.7,15.4z"/>
						<path id="Tracé_26601" class="st28" d="M16.3,1.1l-3.1-0.9l0,0C12.5,0,11.7,0,11,0.1L7.2,1.2C6.7,1.4,6.1,1.3,5.6,1.1l0,0
							L2.9,0.1C1.8-0.3,0.6,0.3,0.1,1.3C0,1.6,0,1.9,0,2.1v12.7c0,1.4,0.9,2.5,2.3,2.8l3.1,0.8c0.3,0.1,0.7,0.2,1.1,0.1
							c0.4,0,0.7,0,1.1-0.1l1.1-0.3c0,0-2-6,0.4-8.7c2.4-2.5,8.8-1.1,9-1.1c0.5-0.1,0.8-0.5,0.8-0.9V3.6C18.5,2.4,17.6,1.3,16.3,1.1
							z M7.1,15.4c0,0.3-0.2,0.6-0.6,0.7c0,0-0.1,0-0.1,0l0,0c-0.3,0-0.6-0.2-0.7-0.6c0,0,0-0.1,0-0.1l0,0c0-0.3,0.2-0.6,0.6-0.7
							c0,0,0.1,0,0.1,0l0,0C6.7,14.6,7.1,15,7.1,15.4z M7.1,12.7c0,0.3-0.2,0.6-0.6,0.7c0,0-0.1,0-0.1,0l0,0c-0.3,0-0.6-0.2-0.7-0.6
							c0,0,0-0.1,0-0.1l0,0c0-0.3,0.2-0.6,0.6-0.7c0,0,0.1,0,0.1,0l0,0C6.8,12.1,7.1,12.4,7.1,12.7z M7.1,10c0,0.3-0.2,0.6-0.6,0.7
							c0,0-0.1,0-0.1,0l0,0c-0.3,0-0.6-0.2-0.7-0.6c0,0,0-0.1,0-0.1l0,0c0-0.3,0.2-0.6,0.6-0.7c0,0,0.1,0,0.1,0l0,0
							C6.8,9.4,7.1,9.7,7.1,10z M7.1,7.5c0,0.3-0.2,0.6-0.6,0.7c0,0-0.1,0-0.1,0c-0.3,0-0.6-0.2-0.7-0.6c0,0,0-0.1,0-0.1
							c0-0.3,0.2-0.6,0.6-0.7c0,0,0.1,0,0.1,0l0,0C6.7,6.7,7.1,7,7.1,7.5z M7.1,4.8c0,0.3-0.2,0.6-0.6,0.7c0,0-0.1,0-0.1,0l0,0
							c-0.3,0-0.6-0.2-0.7-0.6c0,0,0-0.1,0-0.1l0,0c0-0.3,0.2-0.6,0.6-0.7c0,0,0.1,0,0.1,0l0,0C6.7,4,7.1,4.4,7.1,4.8z M12.1,6.7
							L12.1,6.7c-0.4,0-0.8-0.3-0.8-0.7l0,0c0-0.3,0.2-0.6,0.6-0.7c0,0,0.1,0,0.1,0c0.3,0,0.6,0.2,0.7,0.6c0,0,0,0.1,0,0.1
							C12.9,6.4,12.5,6.7,12.1,6.7L12.1,6.7z M12.1,4.2L12.1,4.2c-0.4,0-0.8-0.3-0.8-0.7l0,0c0-0.3,0.2-0.6,0.6-0.7c0,0,0.1,0,0.1,0
							c0.3,0,0.6,0.2,0.7,0.6c0,0,0,0.1,0,0.1l0,0C12.9,3.8,12.5,4.2,12.1,4.2L12.1,4.2z"/>
					</g>
					<path id="Tracé_26602" class="st28" d="M53.4,13.3c0-3.7-3-6.7-6.7-6.7l0,0c-2.6,0-5,1.6-6,4l-4-0.7c-0.9-0.2-1.7,0.4-1.9,1.2
						c0,0,0,0.1,0,0.1l0,0c-0.2,0.9,0.4,1.7,1.2,1.9c0,0,0.1,0,0.1,0l4.2,0.7c0.2,2.5,1.8,4.7,4.2,5.6l-1.6,12.3
						c-3.3,0.4-5.9,3.2-5.9,6.6l0,0l-19.3,5.1c-1-1.9-2.9-3.1-5-3.3L9.3,12.8c1.6-0.6,2.9-1.9,3.6-3.5l3.5,0.5
						c0.9,0.2,1.7-0.4,1.9-1.2c0,0,0-0.1,0-0.1l0,0c0.2-0.9-0.4-1.7-1.2-1.9c0,0-0.1,0-0.1,0l-3.6-0.5C13,2.4,9.8-0.3,6.1,0
						c0,0,0,0-0.1,0l0,0c-3.6,0.3-6.3,3.4-6,7c0,0.1,0,0.1,0,0.2l0,0c0.3,3.1,2.7,5.6,5.8,6l3.5,27.3c-3.4,1.3-5.1,5.2-3.8,8.6
						c0,0,0,0,0,0.1l0,0c0.4,1.8,1.7,3.2,3.5,3.8c5.2,1.7,9.4-1.9,9.4-6.3l0,0l19.3-5.1c1.8,3.2,5.8,4.4,9,2.6c0,0,0.1,0,0.1-0.1
						l0,0c3.2-1.8,4.3-5.9,2.5-9.1l0,0c-0.7-1.3-1.9-2.4-3.3-2.9l1.6-12.3C50.9,19.4,53.3,16.6,53.4,13.3z M6.5,10
						c-1.8,0-3.3-1.5-3.3-3.3s1.5-3.3,3.3-3.3s3.3,1.5,3.3,3.3l0,0l0,0C9.7,8.4,8.3,9.9,6.5,10z M11.4,50c-1.8,0-3.3-1.5-3.3-3.3
						s1.5-3.3,3.3-3.3s3.3,1.5,3.3,3.3l0,0l0,0C14.8,48.5,13.3,50,11.4,50C11.5,50,11.4,50,11.4,50z M46.7,38.4
						c0,1.8-1.5,3.3-3.3,3.3S40,40.2,40,38.4s1.5-3.3,3.3-3.3l0,0C45.1,35,46.6,36.5,46.7,38.4C46.7,38.3,46.7,38.3,46.7,38.4z
						 M43.3,13.3c0-1.8,1.5-3.3,3.3-3.3s3.3,1.5,3.3,3.3s-1.5,3.3-3.3,3.3l0,0l0,0C44.8,16.6,43.3,15.1,43.3,13.3z"/>
					<path id="Tracé_26603" class="st28" d="M27.5,10L27.5,10c0.2-0.9,1-1.5,1.9-1.3L32.2,9c0.9,0.2,1.5,1,1.3,1.9l0,0
						c-0.2,0.9-1,1.5-1.9,1.3l-2.8-0.4c-0.9-0.1-1.5-0.9-1.4-1.8C27.5,10,27.5,10,27.5,10z"/>
					<path id="Tracé_26604" class="st28" d="M18.9,8.7L18.9,8.7c0.1-0.9,0.9-1.5,1.8-1.4c0,0,0.1,0,0.1,0L25,8.1
						c0.8,0.1,1.5,0.9,1.4,1.7c0,0.1,0,0.1,0,0.2l0,0c-0.1,0.9-0.9,1.5-1.8,1.4c0,0-0.1,0-0.1,0l-4.2-0.7
						C19.4,10.5,18.8,9.6,18.9,8.7z"/>
				</g>
			</g>
			<g id="freepik--bubble--inject-52_00000112607181536883158130000014319417035949615548_" transform="translate(0 327.161)">
				<path id="Tracé_26605" class="st11" d="M127.8,50.1h-78v-1.3h77.3L158.1,6l1.1,0.8L127.8,50.1z"/>
				<path id="Tracé_26606" class="st11" d="M161.8,6.4c0,1.8-1.4,3.2-3.2,3.2s-3.2-1.4-3.2-3.2c0-1.8,1.4-3.2,3.2-3.2l0,0
					C160.4,3.2,161.8,4.6,161.8,6.4C161.8,6.4,161.8,6.4,161.8,6.4z"/>
				<ellipse id="Ellipse_719" class="st17" cx="49.8" cy="49.4" rx="47.8" ry="48.2"/>
				<path id="Tracé_26607" class="st27" d="M49.8,98.9C22.5,99.1,0.2,77.1,0,49.8S21.7,0.2,49,0c27.3-0.2,49.6,21.7,49.8,49v0.4
					C99,76.6,77,98.8,49.8,98.9C49.8,98.9,49.8,98.9,49.8,98.9z M49.8,2.5C23.9,2.3,2.8,23.1,2.5,49C2.3,74.9,23.1,96.1,49,96.3
					s47.1-20.6,47.3-46.5c0,0,0,0,0,0v-0.4C96.5,23.7,75.8,2.7,50,2.5C50,2.5,49.9,2.5,49.8,2.5L49.8,2.5z"/>
				<g id="JooL-Box_00000117653394387608935670000011036935145522553271_" transform="translate(23.361 35.037)">
					<path id="Tracé_26608" class="st28" d="M52.2,27.9h-50c-0.8-0.2-1.5-0.6-1.9-1.3C0.2,26.2,0,25.8,0,25.3V2.1
						C0.2,0.9,1.3,0,2.5,0H26c0.5,0.1,1,0.3,1.3,0.7c0.5,0.4,0.8,1,0.9,1.6v22.8h6.6l-0.1-0.1c-1.5-1.2-2.9-2.3-4.3-3.5
						c-0.3-0.1-0.4-0.4-0.7-0.5h22.5c-1.6,1.2-3.2,2.5-4.7,3.8c-0.1,0.1-0.3,0.1-0.3,0.3h5.2c0.4,0,0.7,0.1,0.9,0.4
						c0.3,0.2,0.4,0.5,0.4,0.8l0,0v0.5l0,0v0.1c-0.1,0.5-0.6,0.9-1.1,0.9C52.4,27.9,52.4,27.9,52.2,27.9z M12.9,14.7L12.9,14.7
						c0.7,0.7,1.4,1.2,2.3,1.6c0.6,0.3,1.3,0.4,2,0.4h0.1c0.2,0,0.4,0,0.5-0.1c0.6-0.1,1.2-0.4,1.7-0.8c0.1-0.1,0.3-0.3,0.4-0.3
						l0.8-0.8c0.3-0.3,0.6-0.7,0.8-1.1v-0.1c0.1,0.3,0.1,0.4,0.3,0.7H22c0.3-0.1,0.4-0.1,0.7-0.3l0,0v-0.1L22.2,13
						c-0.1-0.1-0.1-0.4-0.3-0.5s-0.3-0.3-0.4-0.3h-0.3c-0.5,0.1-1.1,0.4-1.6,0.5l0,0c0,0.1,0.3,0.5,0.3,0.7h0.1
						c0.3-0.1,0.4-0.1,0.7-0.3l0,0v0.1c-0.3,0.4-0.7,0.8-1.1,1.2c-0.4,0.3-0.7,0.7-1.2,0.8l-0.8,0.4h-0.4c-0.3,0-0.5,0-0.8-0.1
						c-0.5-0.1-1.1-0.3-1.5-0.7c-0.5-0.2-0.9-0.6-1.2-1.1v-0.1l0.1-0.1c0.5-0.5,1.1-1,1.7-1.3c0.5-0.3,1-0.4,1.6-0.4H18
						c0.3,0,0.6,0.2,0.8,0.4c0.1,0.1,0.3,0.1,0.3,0.3l0,0c0.1-0.3,0.4-0.4,0.5-0.7l0,0c-0.1-0.1-0.3-0.1-0.4-0.3
						c-0.2-0.2-0.4-0.3-0.7-0.3c-0.4-0.2-0.8-0.2-1.2-0.3h-0.1c-0.3,0-0.5,0-0.8,0.1c-0.7,0.1-1.4,0.4-2,0.8
						c-0.6,0.3-1.1,0.7-1.5,1.2h-0.1c-0.8-0.8-1.8-1.4-2.8-1.7c-0.4-0.1-0.8-0.1-1.2-0.3H7.8c-0.7,0.1-1.3,0.4-1.7,0.9
						c-0.6,0.7-0.8,1.7-0.5,2.5c0.4,1,1.3,1.8,2.4,1.9h0.5c0.3,0,0.5-0.1,0.9-0.1C10.7,16.3,12,15.8,12.9,14.7L12.9,14.7z"/>
					<path id="Tracé_26609" class="st28" d="M46.2,9.5h2.9c0.1,0,0.1,0.1,0.1,0.3s0,0.3-0.1,0.3h-3.1v0.4c0,0.1,0,0.1,0.1,0.1
						c0.1,0,0.1,0.1,0.1,0.1c0,0,0,0,0,0c0.1,0.1,0.2,0.3,0.3,0.5v1.5c0,0.4-0.3,0.7-0.7,0.8c-0.3,0-0.4,0.1-0.7,0
						c-0.4-0.1-0.7-0.4-0.7-0.8v-0.5h-0.5v0.3c0,0.3-0.2,0.5-0.5,0.5h-0.8v0.1l0.1,0.1l0.3,0.3c0.6,0.5,1.1,1.2,1.2,2
						c0.1,0.4,0.1,0.7,0.3,1.1c0,0.2,0,0.5,0.1,0.7V18c0,0.1-0.1,0.3-0.3,0.4c-0.1,0-0.3,0-0.3-0.1s-0.1-0.1-0.1-0.3v-0.1
						c0-0.6-0.1-1.2-0.3-1.7c-0.1-0.3-0.1-0.5-0.3-0.8c-0.3-0.4-0.6-0.8-0.9-1.2c-0.1-0.1-0.3-0.2-0.4-0.1h-2.9
						c-0.1,0-0.1,0-0.3,0.1c-0.5,0.3-0.8,0.7-0.9,1.2c-0.3,0.6-0.4,1.1-0.5,1.7c0,0.3,0,0.6-0.1,0.9v0.3c0,0.1-0.1,0.3-0.4,0.3
						c-0.1,0-0.3-0.1-0.3-0.3v-0.8c0.1-0.7,0.2-1.4,0.5-2c0.1-0.3,0.3-0.7,0.5-0.9c0.3-0.3,0.5-0.7,0.8-0.8c0.1,0,0.1-0.1,0.1-0.3
						v-0.1h-0.5c-0.3,0-0.7-0.2-0.8-0.5v-0.3h-0.5v0.4c0,0.4-0.1,0.5-0.5,0.8c-0.3,0.1-0.5,0.1-0.8,0c-0.4-0.1-0.6-0.4-0.5-0.8v-1.5
						c0-0.3,0.1-0.5,0.4-0.7h0.1c0.1,0,0.1-0.1,0.1-0.1c0,0,0,0,0,0v-0.5h-2.8c-0.1,0-0.3,0-0.4-0.1V9.7c0.1-0.1,0.3-0.3,0.4-0.3
						h2.8V9.3c0-0.1,0.1-0.1,0.1-0.1c0,0,0,0,0,0C35.9,9,36,9,36.2,9c0.1,0,0.1,0.1,0.1,0.1c0,0,0,0,0,0c0,0.1,0.1,0.1,0.1,0.1
						c0,0,0,0,0,0v0.1h3.2c0.1,0,0.1,0.1,0.3,0.3c0,0.1,0,0.3-0.1,0.3h-2.9v0.5c0,0.1,0.1,0.1,0.1,0.1c0,0,0,0,0,0l0,0
						c0.3,0.1,0.5,0.5,0.5,0.8v0.3H38v-0.3c0.1-0.3,0.4-0.5,0.7-0.5h5.4c0.3,0,0.7,0.3,0.7,0.5v0.1h0.5v-0.4c0-0.4,0.2-0.7,0.5-0.8
						l0,0l0.1-0.1l0,0V9.7H43c-0.1,0-0.3-0.1-0.3-0.3s0.1-0.3,0.3-0.3h2.9V9c0.1-0.1,0.2-0.2,0.3-0.3c0.1-0.1,0.3,0,0.4,0.1
						C46.1,9.3,46.1,9.4,46.2,9.5L46.2,9.5z"/>
					<path id="Tracé_26610" class="st28" d="M12.3,13.9C12.3,14.1,12.2,14.1,12.3,13.9c-0.3,0.3-0.7,0.7-1.1,0.9
						c-0.6,0.4-1.3,0.7-2,0.8c-0.1,0-0.3,0-0.4,0.1l0,0c-0.5,0-1-0.2-1.3-0.5c-0.4-0.3-0.6-0.7-0.7-1.2c-0.1-0.4,0-0.8,0.3-1.1
						c0.3-0.5,0.8-0.9,1.3-0.9h0.7c0.7,0.1,1.4,0.3,2,0.5C11.3,13,11.8,13.4,12.3,13.9L12.3,13.9z"/>
				</g>
			</g>
		</g>
		<g id="freepik--Character--inject-52" transform="translate(350.535 36.908)">
			<g id="freepik--character--inject-52-2">
				<g id="freepik--Bottom--inject-52" transform="translate(22.258 253.913)">
					<path id="Tracé_26611" class="st30" d="M100,213.7c0.3-6.6,4-79.8,4-79.8L70.5,158c5.2,38.2,7.4,55.7,7.8,62.2l0,0
						c-0.1,0.5-0.2,1.1-0.1,1.6c0.3,7.5,9.5,11.4,16.6,16.1c6.2,4.2,12.6,8,19.4,11.1c5.2,2.3,15.5,2.1,16.6-1.1
						c-8.7-5.9-18.9-12.3-26-19.2C101.6,225.5,99.6,221.6,100,213.7z"/>
					<path id="Tracé_26612" class="st12" d="M141.1,255.6c0.4,0,1.2,4.6-0.9,6.6c-2.4,2.3-9.8,6.3-19.8,5.4s-15.4-3.9-19.6-7.1
						s-9.9-7.8-14.3-8.7c-4.2-0.8-8.8-2.5-10.2-3.8s-1.5-7.1-1.5-7.1L141.1,255.6z"/>
					<path id="Tracé_26613" class="st11" d="M78.1,218.2c-0.7,0.1-1.3,0.6-1.3,1.3c-0.3,1.6-0.5,6.3-1.1,9
						c-0.8,3.8-1.3,11.3-0.7,14.2s7.5,4.8,11.9,6.3c5.2,2.1,10.1,5,14.5,8.6c4.8,3.8,14.7,7.4,21.3,7.2c9.9-0.3,16.2-3.2,18-6.8
						c2.3-4.6,1.3-7.6-10.2-12.6c-4.4-2.1-8.7-4.6-12.9-7.1c-6.6-4.1-11.8-10.1-14.9-17.3c-0.3-1-0.9-1.8-1.7-2.4
						c-0.7-0.2-1.4-0.3-2.1-0.1c-1.9,0.3-7.4,1.2-9,2.1s-3.6,1.7-3.5,3.8c0.1,0.7,0.2,1.4,0.5,2c0.1,0.4,0.3,0.9,0,1.2
						s-0.8,0-1.1-0.3c-1.2-1.1-2.3-2.3-3.2-3.6c-0.6-0.6-1.2-1.2-1.9-1.7l-2-1.2C78.5,220.8,78.3,219.2,78.1,218.2z"/>
					<path id="Tracé_26614" class="st13" d="M130.8,245.4c-14.2,1.5-20.2,10.9-18.4,17.7c3.3,1.1,6.7,1.7,10.2,1.9
						c9.9-0.3,16.6-3.2,18.4-6.8C143.2,253.7,141.1,248.9,130.8,245.4z"/>
					<path id="Tracé_26615" class="st7" d="M111.4,247.4c-0.1,0-0.3,0-0.4-0.1c-0.3-0.3-0.4-0.7-0.1-1.1c3.2-3.7,7.9-5.7,12.7-5.6
						c0.4,0,0.7,0.4,0.7,0.8c0,0.4-0.3,0.6-0.7,0.7l0,0c-4.4,0-8.6,1.9-11.5,5.1C111.8,247.3,111.6,247.4,111.4,247.4z"/>
					<path id="Tracé_26616" class="st7" d="M105.7,244c-0.3,0-0.6-0.2-0.7-0.6c0,0,0-0.1,0-0.1c0-0.1,0-0.3,0.1-0.4
						c3.2-3.7,7.9-5.7,12.7-5.6c0.4,0,0.7,0.4,0.7,0.8c0,0.4-0.3,0.6-0.7,0.7l0,0c-4.4,0-8.6,1.9-11.5,5.1
						C106.1,243.8,106,244,105.7,244z"/>
					<path id="Tracé_26617" class="st7" d="M100,239.5c-0.1,0-0.3,0-0.4-0.1c-0.3-0.3-0.4-0.7-0.1-1.1c3.2-3.7,7.9-5.7,12.7-5.6
						c0.4,0,0.7,0.4,0.7,0.8l0,0c0,0.4-0.3,0.6-0.7,0.7l0,0c-4.4,0-8.6,1.9-11.5,5.1C100.4,239.4,100.2,239.5,100,239.5z"/>
					<path id="Tracé_26618" class="st7" d="M94.3,235.1c-0.1,0-0.3,0-0.4-0.1c-0.3-0.2-0.4-0.6-0.1-0.9c0,0,0,0,0,0l0,0
						c2.7-3.6,8.7-6.2,13.9-5.8c0.4,0,0.7,0.4,0.7,0.8c0,0.4-0.4,0.7-0.8,0.7l0,0c-4.7-0.4-10.3,2-12.7,5.2
						C94.7,235,94.5,235,94.3,235.1z"/>
					<path id="Tracé_26619" class="st30" d="M42.5,161.8l-33.1-6.7c-1.1,20-0.7,52.7-0.5,71.1c0,3.5-2.3,27.5-1.5,34.7
						c1.3,11,16.2,10.6,17.4,4s2.8-34.2,3.1-37.1c0-0.9,0.1-1.7,0.3-2.5C31.9,208.6,42.4,162.8,42.5,161.8z"/>
					<path id="Tracé_26620" class="st12" d="M30.2,270c-0.3,6.4-1.2,10.7-3.6,14.5s-7.4,5.1-12.3,4.2s-11.4-3.8-13-9.2
						s-1.5-9.4-0.5-15.3L30.2,270z"/>
					<path id="Tracé_26621" class="st11" d="M8.9,224.3c-2,0.1-2.3,8.6-3.1,17.3c-0.9,9.2-4,13.1-4.8,20.8
						c-1.1,8.7-0.4,12.6,3.2,17.7s15.9,10,21.7,2.4c4.7-6.2,4.7-13,4-21.7c-0.8-7.3-1.2-14.6-1.2-22c0.1-6.6,1.3-12.6-0.4-13.3
						c-0.1,0.9-0.1,2.1-0.3,3.1c-0.1,0.7-0.1,4.3-1.3,4.3c-0.1-0.8-0.2-1.6-0.1-2.4c0.1-0.7-0.1-1.5-0.7-2c-1-0.6-2.1-0.9-3.2-1.1
						c-2-0.3-4-0.5-6-0.7h-3.1c-0.9,0-1.7,0.1-2.5,0.4c-0.5,0.2-0.9,0.5-1.1,0.9c-0.1,0.3-0.1,0.6,0,0.9c0,0.6,0,1.2-0.1,1.7
						c0,0.3-0.2,0.5-0.5,0.5c-0.3,0-0.3-0.3-0.4-0.5c0-1.1,0.1-1.9,0.1-3.1V226C9,225.5,8.9,224.8,8.9,224.3z"/>
					<path id="Tracé_26622" class="st13" d="M0.6,267.3c-0.1,5.4,0.3,9.1,3.1,13.1c3.6,5.2,16.9,10,22.6,2.4
						c2.8-3.8,3.5-8.2,3.8-12.7C26.4,264.3,6.1,262.2,0.6,267.3z"/>
					<path id="Tracé_26623" class="st7" d="M24.7,260.7h-0.3c-5.6-2-11.7-2.4-17.5-1.2c-0.4,0.1-0.8-0.1-0.9-0.5c0,0,0,0,0,0
						c-0.1-0.4,0.1-0.7,0.5-0.8l0,0c6.2-1.3,12.6-0.9,18.6,1.2c0.3,0.1,0.5,0.4,0.4,0.7c0,0,0,0,0,0.1v0.1
						C25.3,260.5,25,260.7,24.7,260.7z"/>
					<path id="Tracé_26624" class="st7" d="M7.1,252.9c-0.3,0-0.5-0.1-0.7-0.4c-0.1-0.3,0-0.7,0.3-0.8c0,0,0,0,0.1,0H7
						c9-2.9,18.1,0.9,18.5,1.1c0.3,0.1,0.5,0.5,0.4,0.8v0.1c-0.3,0.3-0.7,0.4-1.1,0.3c-0.1,0-9-3.8-17.4-1.1L7.1,252.9z"/>
					<path id="Tracé_26625" class="st7" d="M7.4,246.9c-0.3,0-0.5-0.1-0.7-0.4c-0.1-0.3,0-0.6,0.3-0.8h0.1c6.2-2,12.9-1.6,18.9,1.1
						c0.3,0.2,0.4,0.5,0.3,0.8v0.1c-0.3,0.3-0.7,0.4-1.1,0.3c-5.5-2.4-11.8-2.8-17.5-0.9C7.7,246.9,7.5,246.9,7.4,246.9z"/>
					<path id="Tracé_26626" class="st31" d="M7.8,240.1c-0.3,0-0.5-0.1-0.7-0.4c-0.1-0.3,0-0.6,0.3-0.8h0.1
						c9.2-3.3,18.6,1.1,19,1.2c0.3,0.1,0.5,0.5,0.4,0.8v0.1c-0.3,0.3-0.7,0.4-1.1,0.3c-0.1,0-9.1-4.3-17.8-1.2
						C8.1,239.9,7.9,240.1,7.8,240.1z"/>
					<path id="Tracé_26627" class="st9" d="M18.4,7.6c-2,37.8-5.2,107.4-5.2,107.4c-0.4,4.4-4.4,23.8-4.8,39.7
						c-0.7,25.5,0.4,49,0.4,49s14.6,6.2,24.8,2.1c0,0,13.4-57.5,16.7-74.1c4-19.7,12.6-58.9,12.6-58.9l6.7,52.1c0,0-2.1,18.6,0,33.9
						c1.5,10.5,6.8,45.3,6.8,45.3s13.4,2.8,24.5-0.7c0,0,5.2-73.8,5.8-83.5s2.5-59.2,0.1-120L18.4,7.6z"/>
					<path id="Tracé_26628" class="st12" d="M101.2,196.5c-5.4,4-20.1,3.8-26.3,0.5l1.9,11c4.4,2.5,17.4,3.1,23.8-1.3L101.2,196.5z
						"/>
					<path id="Tracé_26629" class="st12" d="M35,199.3c-7.6,3.3-22.1,1.3-26.7-2.8v10.7c3.6,3.6,17.3,5.4,24.7,2.5L35,199.3z"/>
					<path id="Tracé_26630" class="st12" d="M62.6,72.7L68.2,39c7-0.4,13.7-3.2,18.9-8c0,0-0.9,7.8-15.9,12.7l-5.2,28l3.3,53.2
						L62.6,72.7z"/>
				</g>
				<g id="freepik--Top--inject-52">
					<path id="Tracé_26631" class="st30" d="M134.4,18.1c0-3.3-0.3-6.4-0.3-10.6s0.8-7.1,2.9-7.5s3.2,2.5,3.8,8.2
						c0.9,9,1.7,15.4,2.5,15.5c2.4-3.2,3.2-4,5.9-2.5c1.7,1.1,1.6,3.9,1.6,3.9c0.9-1.1,2.6-1.3,3.8-0.4c1.2,0.8,1.9,2.2,1.6,3.6
						c0,0,1.3-1.2,2.9,0.4c1.3,1.3,2,3.1,1.9,5l-1.7-0.7c-0.3,0.5-0.6,1-1.1,1.5c-0.8,0.7-1.3,2.7-1.9,4.4s-0.9,3.6-2.5,4
						c-1.2,0.4-2.5-0.1-2.9-1.3c0,0,0,0,0,0v-0.1c-0.1-0.7,0-1.4,0.1-2.1c0,0-0.8,2.4-3.1,2.1s-2.3-2.4-2.3-3.6
						c-1.3,0.5-2.7,0.9-3.3-0.1s-0.7-5.4-0.7-5.4l-3.6-0.7c0,0-3.2-0.4-3.3-2.8C134.4,24.4,134.4,21.9,134.4,18.1z"/>
					<path id="Tracé_26632" class="st30" d="M161.1,33.5c-0.7,3.3-3.6,15.3-4.6,16.9c-1.1,2-1.5,4.2-1.3,10.2
						c0.1,3.3,4.3,43.7,4.3,43.7l-25.5-7l2.9-37.1c-0.9-6.8-2.5-9.9-4.8-12.9c-3.1-3.9-3.6-6.2-3.3-8.2c0.5-4.3,2-10.3,2.7-11.4
						c1.1-1.6,4-2.4,4-2.4c1.2-0.4,2.5-0.5,3.8-0.3l6.2,4.4c0,0,0,2-1.5,2.7c-0.7,0.4-1.6,0.5-2.4,0.3c0,0-0.1,4,0.8,4.8
						c0.9,0.8,1.6,1.1,3.1-0.3c0.3,1.5,0.5,3.8,2.3,4s3.5-2,3.5-2s0.4,4,1.7,4s4.6-12.6,4.6-12.6L161.1,33.5z"/>
					<path id="Tracé_26633" class="st13" d="M134.8,78.5l0.5-7.8c0,0,3.8,2.1,10.7,1.6c3.5-0.1,7-0.8,10.3-2.1l0.9,8.4
						C157.3,78.7,145.8,84.8,134.8,78.5z"/>
					<path id="Tracé_26634" class="st32" d="M134.7,34.2c2.5,1.1,4.9,2.5,7,4.3c2.5,2.4,4.6,5.2,6.2,8.3c-0.7-3-2.1-5.8-4.2-8.2
						c0.5,0,1-0.2,1.3-0.5c0,1.9,0.3,3.6,2.7,3.6c1,0.1,2.1-0.4,2.7-1.2c-0.1,1,0.5,2,1.5,2.4c1.1,0.5,2.3,0.3,3.1-0.7
						c0.1-0.3,0.3-0.4,0.3-0.7v-0.1l0,0l-0.3,0.3c-0.6,0.7-1.5,1-2.4,0.8c-0.6-0.4-1-0.9-1.1-1.6c-0.1-1-0.1-2.1,0-3.1v-0.1
						c0-0.1-0.1,0-0.3,0c-0.4,0.4-0.7,1.1-1.1,1.5c-0.5,0.6-1.2,1-2,0.9c-1.6,0-2-2-2-3.5v-1.3c0-0.1-0.1-0.1-0.1-0.1c0,0,0,0,0,0
						l0,0c-0.2,0.2-0.4,0.4-0.5,0.7c-0.2,0.3-0.4,0.5-0.7,0.7c-0.3,0.3-0.7,0.5-1.1,0.5c-0.9,0.1-1.2-0.7-1.6-1.3
						c-0.5-1.1-0.7-2.4-0.5-3.6v0.4h0.3c3.2,0.4,4.4-2.7,3.3-3.6s-5.4-4.2-6.6-4.3c-1.2,0-2.4,0.2-3.5,0.5l3.2-0.1
						c0,0,6.3,4,6.2,4.8c-0.2,1.2-1.2,2.1-2.4,2c-1.6-0.1-3.2-0.4-4.7-0.9C137.5,32.3,134.7,34.2,134.7,34.2z M136.7,33.1
						c0.5-0.2,0.9-0.7,1.1-1.2c1.1,0.3,2.1,0.4,3.2,0.5c-0.3,0.5-0.4,1.1-0.7,1.6c-0.1,0.3-0.3,0.6-0.5,0.8c0,0.1-0.1,0.1-0.1,0.1
						c0,0,0,0,0,0C138.7,34.3,137.7,33.6,136.7,33.1z"/>
					<path id="Tracé_26635" class="st14" d="M106.5,145.4c3.2-3.8,6.7-7.3,10.3-10.7c4.4-4.2,14.3-24.4,14.3-24.4l3.1-35.1
						c3.3,3.5,17.4,3.1,22.8,0.1c0,0,1.7,10,3.5,29.7c0.8,9.2,0.9,10.7-5.2,24.5c-4.2,9.1-7.2,14.7-13.1,26.9
						c-5.2,10.9-13.9,28.4-15.5,36c-0.4,2-0.4,4.8-3.2,4.8c-4.3,0.1-8.2-14.2-11.3-20.4C106.5,165.8,105.9,150.8,106.5,145.4z"/>
					<path id="Tracé_26636" class="st33" d="M106.5,145.4c3.2-3.8,6.7-7.3,10.3-10.7c4.4-4.2,14.3-24.4,14.3-24.4l3.1-35.1
						c3.3,3.5,17.4,3.1,22.8,0.1c0,0,1.7,10,3.5,29.7c0.8,9.2,0.9,10.7-5.2,24.5c-4.2,9.1-7.2,14.7-13.1,26.9
						c-5.2,10.9-13.9,28.4-15.5,36c-0.4,2-0.4,4.8-3.2,4.8c-4.3,0.1-8.2-14.2-11.3-20.4C106.5,165.8,105.9,150.8,106.5,145.4z"/>
					<path id="freepik--Chest--inject-52" class="st14" d="M67.4,146.6c-13.8,3.1-18,4.4-24.4,5.9c0,0-12.2,34.2-6.3,58
						c1.3,5.5,4.4,23,4.4,33.2c0,9.6-0.1,12.7-1.1,26.4c0,0,18.5,12.9,56.9,9c30.3-3.1,32.4-13.7,32.4-13.7s-1.6-41.7-2.4-63.9
						c-0.7-22.5-3.9-41-10.9-51.6c-2.3-3.6-6.7-5.3-10.9-4.4c-4,0.8-8,1.3-12.1,1.6L67.4,146.6z"/>
					<path id="Tracé_26637" class="st30" d="M2.6,222.6c-2.3,7.5-2,10.7,0.5,18.2c1.6,4.7,3.1,9.4,4.6,14.2c2,6.3,5.4,16.7,6,19.2
						c0.8,2.5,1.1,5.1,0.9,7.8c-0.4,2.7-0.6,5.4-0.5,8.2c0.1,3.2,0.7,6.4,1.7,9.5c0.7,2.1,1.1,4.4,1.9,6.6c0.7,1.4,1.6,2.8,2.7,4
						c1.1,1.5,1.3,3.3,2.5,4.7c2.3,2.4,4.7,2.8,6.8,4c0.9,1.5,2.3,4.6,3.3,5.9c2.5,3.5,3.5-1.9,3.6-3.8c0-2-0.3-4-0.8-5.9
						c-1.1-4.8-1.9-9.8-2.5-14.7c-0.1-0.9-0.9-4.6,0.5-4.4c0.5,0.1,0.9,0.4,1.2,0.8c0.8,1.2,1.6,2.5,2.3,3.9
						c0.7,0.9,1.5,1.9,2.1,2.8c0.6,0.8,1.4,1.5,2.3,2c0.9,0.4,4.4,0.9,4.7-0.7c0-0.3,0-0.5-0.1-0.8c-0.7-1.7-1.3-3.3-2-5.1
						c-0.7-1.6-1.2-3.3-1.7-5.1c-1.2-5.5-2.3-9.9-5.4-14.6c-5.4-8.3-9.8-47.6-9.8-47.6l10.7-30.5c0,0,9-12.3,9.4-27.7s-5-20-5-20
						c-13,2.1-19.3,5.9-23.2,16.6S4.9,214.9,2.6,222.6z"/>
					<path id="Tracé_26638" class="st13" d="M31.3,255.4l1.6,8.3c0,0-3.3-0.9-11.7,2.1c-3.1,1-6.1,2.5-8.8,4.4l-2.7-8.4L31.3,255.4
						z"/>
					<path id="Tracé_26639" class="st14" d="M0.3,227.8c0.5-2.8,4.4-19.3,11-39.4s7.9-21.7,12.7-27.6s12.7-7,19-8.2
						c0,0,5.2,4.2,5.4,17.8c0.2,10.5-2.7,20.8-8.2,29.7L28,231.3l3.8,26.4c-7.8,0-15.3,3-21.2,8.2l-7.4-21.4
						C-0.5,232.3-0.2,230.6,0.3,227.8z"/>
					<path id="Tracé_26640" class="st33" d="M0.3,227.8c0.5-2.8,4.4-19.3,11-39.4s7.9-21.7,12.7-27.6s12.7-7,19-8.2
						c0,0,5.2,4.2,5.4,17.8c0.2,10.5-2.7,20.8-8.2,29.7L28,231.3l3.8,26.4c-7.8,0-15.3,3-21.2,8.2l-7.4-21.4
						C-0.5,232.3-0.2,230.6,0.3,227.8z"/>
					<path id="Tracé_26641" class="st13" d="M93.4,145.7c0,0,9.2,8,6.4,15.8s-16.1,9.4-26.5,2.3s-9.6-15.7-9.6-15.7l3.9-1.2
						c0.4,1.9,1.1,3.7,2.3,5.2c1.6,1.9,20.9,9.5,21.3,11.8c0,0,2.8-5.6,3.6-7.8s-3.5-10.6-3.5-10.6L93.4,145.7z"/>
					<path id="Tracé_26642" class="st12" d="M107.6,97.8c2.7-7.6-1.2-17.1-5.4-21.4c-6-6.2-14.9-8.4-27.9-6.7
						C64.6,71,55.1,75.9,54,86.2c-7.8,2.9-5.9,15.9-3.5,21.6c4.8,11.4,13.5,21,14.1,26.9L107.6,97.8z"/>
					<path id="Tracé_26643" class="st30" d="M109.6,125.3c-1.2,5.8-4.2,10.2-9.2,11.4c-2.7,0.5-5.4,0.7-8.2,0.7v10
						c3.9,4.7,2,10.6-1.2,16.3c-5.4-6.4-20.8-9-27.1-16.7l-0.5-23.2c0,0-2.9,3.9-8.4,0.8c-4.6-2.9-6.5-8.7-4.7-13.8
						c2.1-5.6,7.6-3.8,9.4-2.3s3.9,4.6,5.1,4c1.5-0.6,2.7-2,2.9-3.6c1-3.5,1.3-7.2,0.9-10.9c1.4-0.8,2.6-1.9,3.5-3.2
						c2-2.7,2-5.6,1.9-8.3c11-4.4,25.5-4,30.4-0.7c3.1,4.6,4,15.5,4.8,21.8C110.5,113.5,110.6,119.5,109.6,125.3z"/>
					<path id="Tracé_26644" class="st32" d="M92.2,137.4c-5.8,0.1-17.5-1.7-20.9-4.7s-5.1-9.5-5.1-9.5s0.8,7,3.5,10.4
						s9.1,5.4,12.9,5.9s9.8,0.9,9.8,0.9L92.2,137.4z"/>
					<path id="Tracé_26645" class="st12" d="M86.2,105.7c0.2,1.3-0.8,2.5-2.1,2.7c0,0,0,0,0,0l0,0c-1.3,0.1-2.4-0.8-2.5-2.1
						c0-0.1,0-0.1,0-0.2c-0.2-1.3,0.8-2.5,2.1-2.7c0,0,0,0,0,0l0,0c1.3-0.1,2.4,0.8,2.5,2.1C86.2,105.6,86.2,105.7,86.2,105.7
						L86.2,105.7z"/>
					<path id="Tracé_26646" class="st12" d="M104.7,99.3l-5.5-2c0.5-1.5,2-2.3,3.5-1.9h0.1C104.4,96,105.2,97.7,104.7,99.3z"/>
					<path id="Tracé_26647" class="st12" d="M83.2,99.6l-4.4,3.9c-1.1-1.1-1-2.9,0.1-4c0,0,0,0,0.1-0.1l0.1-0.1
						C80.3,98.2,82.2,98.4,83.2,99.6z"/>
					<path id="Tracé_26648" class="st12" d="M104.4,103.2c0.1,1.3-0.9,2.5-2.3,2.5s-2.5-0.9-2.5-2.3c-0.1-1.3,0.9-2.5,2.3-2.5
						C103.2,100.9,104.3,101.9,104.4,103.2z"/>
					<path id="Tracé_26649" class="st32" d="M91.5,99.8l2.9,17c0,0,8.3-0.6,7.5-4.9S91.5,99.8,91.5,99.8z"/>
					<path id="Tracé_26650" class="st32" d="M85.2,120.1c-0.6,2.6,1.1,5.2,3.7,5.7c0.1,0,0.1,0,0.2,0c2.6,0.5,5.1-1.1,5.8-3.6
						L85.2,120.1z"/>
					<path id="Tracé_26651" class="st34" d="M86.5,122.6c2.3-0.4,4.6,1,5.4,3.2c-2.6,0.9-5.4-0.3-6.4-2.8v-0.1
						C85.7,122.8,86.1,122.7,86.5,122.6z"/>
					<path id="Tracé_26652" class="st31" d="M91,163.8c-2.9-1.7-8.8-5.5-11.7-1.7s-4.8,8-7,7.5s-10-5.8-12.9-11.4
						c-1.3-2.8-2.1-5.8-2.3-8.8c1.5-2.2,2.8-4.4,4-6.7c1.2-2.4,0.8-3.5,2.7-3.8l0.1,5.9c2.3,2.4,4.8,4.6,7.5,6.6
						C76.7,154.8,87,155.6,91,163.8z"/>
					<path id="Tracé_26653" class="st31" d="M91,163.7c1.7-1.6,2.8-4.4,5.8-3.6s7.1,7.1,7.1,5.6s-2-12.3-4.3-15.4s-5.5-9.2-7.4-9
						v6.2c0,0,2.1,4.7,1.9,7.2S91.3,161.2,91,163.7z"/>
				</g>
			</g>
		</g>
	</g>
</g>
</svg>
