<svg xmlns="http://www.w3.org/2000/svg" width="50" height="50" viewBox="0 0 50 50">
  <path id="Twitter" d="M1144.2,4325.459a25,25,0,1,0,25,25A25,25,0,0,0,1144.2,4325.459Zm9.941,19.9q.014.33.014.663a14.586,14.586,0,0,1-22.455,12.289,10.108,10.108,0,0,0,1.223.071,10.3,10.3,0,0,0,6.37-2.195,5.136,5.136,0,0,1-4.792-3.562,5.172,5.172,0,0,0,2.317-.088,5.132,5.132,0,0,1-4.116-5.03l0-.064a5.1,5.1,0,0,0,2.322.643,5.133,5.133,0,0,1-1.586-6.848,14.559,14.559,0,0,0,10.572,5.359,5.131,5.131,0,0,1,8.739-4.678,10.268,10.268,0,0,0,3.258-1.246,5.143,5.143,0,0,1-2.256,2.838,10.274,10.274,0,0,0,2.947-.808A10.441,10.441,0,0,1,1154.143,4345.36Z" transform="translate(-1119.202 -4325.459)" fill="#fff"/>
</svg>
