<svg id="Yt" xmlns="http://www.w3.org/2000/svg" width="50" height="50" viewBox="0 0 50 50">
  <path id="Tracé_1359" data-name="Tracé 1359" d="M1187.812,4325.459a25,25,0,1,0,25,25A25,25,0,0,0,1187.812,4325.459Zm12.5,25.944a38.04,38.04,0,0,1-.249,4.046,5.428,5.428,0,0,1-.994,2.482,3.58,3.58,0,0,1-2.506,1.058c-3.5.253-8.751.261-8.751.261s-6.5-.06-8.5-.25a4.245,4.245,0,0,1-2.756-1.068,5.428,5.428,0,0,1-.994-2.482,37.821,37.821,0,0,1-.25-4.046v-1.9a37.794,37.794,0,0,1,.25-4.046,5.42,5.42,0,0,1,.994-2.481,3.569,3.569,0,0,1,2.5-1.059c3.5-.253,8.747-.253,8.747-.253h.011s5.247,0,8.745.253a3.57,3.57,0,0,1,2.506,1.059,5.42,5.42,0,0,1,.994,2.481,38.013,38.013,0,0,1,.249,4.046Z" transform="translate(-1162.812 -4325.459)" fill="#fff"/>
  <path id="Tracé_1360" data-name="Tracé 1360" d="M1177.161,4346.063l6.754-3.5-6.755-3.524Z" transform="translate(-1154.741 -4317.82)" fill="#fff"/>
</svg>
